M48
;Layer_Color=9474304
;FILE_FORMAT=2:5
INCH,LZ
;TYPE=PLATED
T1F00S00C0.01500
T2F00S00C0.03000
T3F00S00C0.04000
T4F00S00C0.05000
T5F00S00C0.13780
;TYPE=NON_PLATED
T6F00S00C0.05000
%
T01
X0018Y0044
X003Y0035
X0033465Y0073228
X0014Y0067
X0050417Y0066228
X0049465Y0073228
X0037Y005
X0131Y00465
Y0038
X0136Y0034
Y0042
X0142Y00565
X01265Y0072
X0125Y00075
X0185Y0059
X0191
X02
X0217
X0225
X0230157
X0237
X0236Y0064
X02415
X0252
X0255325Y0058675
X026065Y0059
X02655Y0064
X0271
X0278
X0286
X0291
X02965
X03025
X03095
X0317
X0313Y0058
X0305
X02985
X0293
X0283
X0273
X0271Y0044
X02655
X0256
X0241
X024Y0036
X025Y0034
X0276Y0032
X0286Y0044
X0301
X0316
X0315Y00355
X03325
X034
X0346Y0044
X0331
X03335Y0058
X0343
X0323
X0304Y0023
X0275Y00075
X02
X0228Y0064
X0349Y0058
X0355
Y0064
X0362
X0372299Y0064614
X03865Y00685
X0408Y0069
X0429Y00625
X04405Y00675
X04385Y00415
X04495
X04275
X0376Y0044
X037Y00405
X03625
X0355Y00355
X035Y00075
X03875
X0505772Y0056559
X0515772Y0066559
Y0082559
X0508772
Y0090559
X052Y0098
X0522772Y0083512
X0518Y0124
X05095Y0135441
X05195Y0145441
Y0161441
X0512941
Y0169441
X05265Y0162394
X0525Y0195
X05375Y02125
X05125
X05Y0195
X04945Y0169441
X04965Y0161441
X0478543Y014226
X0467543
X0457543Y014926
Y013226
X0459Y0125
X0467543Y012526
X0478197
X0485Y0125
X0483Y011
X0478Y0108
X0490772Y0090559
X0492772Y0082559
X042Y0087
X0426Y0094
X0413Y0081
X0382299Y0078
X0377299
X0369
X0362299
X035
X0351Y0096
X0355772Y0104472
Y0120472
X035Y0121
X0349472Y0128472
X0362772Y0121425
X0375Y012
X0372Y0105
X039
X0401Y0111
X0406Y0114
X04Y01625
X03825Y0175
X04Y01925
X042Y0175
X04375Y01625
Y01925
X045Y0125
X0352772Y016648
X0345772Y0165528
X0338772
Y0173528
X0320772
X0322772Y0165528
X03045Y0166
X0302Y0142
X0290378Y014226
X0281Y0145
X0276Y01525
X026Y016
X0257Y0171
X02575Y018
X0248Y0183
Y0191
X0265Y019
X027Y02
X0256Y0217
X0229Y02175
X022785Y020415
X0228Y019785
X0237Y0206
X022Y02115
X02005
X02035Y02155
X01935Y0209
X0196047Y0203953
X02Y02
X0198Y01835
X019289Y018339
X0198Y0147
X0206
X0221Y0138
X0232Y0117
X0236Y0111
X02375Y01
X0261Y0101
Y0109
X02695Y00905
X02735Y0086
X028Y0078
X02655
X0246Y008
X022Y0078
X0202299
X0205Y0085
X021Y0089
X0208Y0111
X0195Y01
X0235Y0163
X0245
X0274Y0125
X0281Y0124
Y0129
X0290378Y012526
X03Y0125
X0306126Y012526
X0303Y0112
Y0105
X0295205Y0092
X02885Y0086
X0302299Y0078
X031Y0079
X0332772Y0120472
X0330772Y0128472
X0335772Y0139528
X0345772Y0149528
X03335Y02015
X0323Y0198
X0307Y0209
X03Y02085
X0209Y0227
X01885Y02185
X01805Y02175
X01745Y0219
X0177Y02125
X017685Y020635
X0173Y02095
X01735Y02025
X0177Y0199
X01705Y01945
X018Y01835
X0187
X0190921Y0166079
X0189Y0158
X0186984Y0150016
X0185Y0144
X0184Y0137
X018Y0131
X0182Y0122
X0177Y0101
X0169
X0163Y0099
X0164Y0106
X0146Y0095
X0141Y00995
X0149Y0075
X018
X01475Y014
X0141Y0142
Y01495
X0132
Y0142
X01245
X0119
Y01495
X01245
X0101528Y014226
X0093528
X0084Y0147
X0083Y0131
X0085Y0125
X0093
X0103
X0109276Y012526
X0076Y0125
X0067Y0131
X0054228Y0156465
X0052228Y0164465
X0039228Y0190465
X0061Y0222
X007465Y0222142
X0111Y0219
X0115Y0226
X0124
X0129Y0214
X01525Y02155
Y02095
Y02035
X015Y0191
X0142
Y0171
X015Y0173
X016Y0164
X0113Y0169
X012Y0197
X0145Y0229
X0057465Y0098228
X0049465Y0096228
X0018Y0102
X002Y0117
X0023465Y0083228
X0022228Y0163512
X0029228Y0164465
X0036228
Y0156465
X0029228Y0180465
X0025Y02525
X00375Y02675
Y02875
X0064Y02415
X007Y0236
X0095Y0235
X0102
X0138Y0231
X01815Y02455
X01605Y02665
X0193Y025
X0199Y0255
X0205
X0212Y026
X0225Y02825
X0196Y0283
X02625Y0285
X02825Y0292039
X0328961
X0338953Y0280953
X0303Y0259311
X02565Y02375
X0235Y0237
X035Y02575
X0366642Y0280858
X0415858
X0434358Y0263
X0432Y0241
X0425Y02475
X04525Y0235
X05Y02325
X04725Y0280453
X04575
X05125Y025
X05375
X0525Y02325
T02
X005Y002
X006Y003
X007Y002
X009
X01Y003
X008
X047Y002
X048
X049
X05
X0025Y0198
Y0208
Y0218
Y0228
X0015
Y0218
Y0208
Y0198
Y0238
X0025
T03
X0067Y0265
X0077
X0087
X0097
X0107
X0117
X0127
Y0275
X0117
X0107
X0097
X0087
X0077
X0067
T04
X0176102Y0061307
T05
X002Y002
X0159134Y0049299
X0407165
X053Y002
X002Y028
X053
T06
X0390197Y0049299
M30
