G04 Layer_Physical_Order=4*
G04 Layer_Color=16711680*
%FSLAX25Y25*%
%MOIN*%
G70*
G01*
G75*
%ADD22R,0.05709X0.04528*%
%ADD23R,0.03937X0.03740*%
%ADD24R,0.03740X0.03937*%
%ADD26R,0.03543X0.03937*%
%ADD27R,0.03937X0.03543*%
%ADD29C,0.00800*%
%ADD30C,0.02500*%
%ADD31C,0.01500*%
%ADD32C,0.01000*%
%ADD34C,0.01100*%
%ADD35C,0.02000*%
%ADD36C,0.01400*%
%ADD37C,0.01200*%
%ADD38C,0.06800*%
%ADD39C,0.06000*%
%ADD42C,0.03500*%
%ADD50R,0.03347X0.01378*%
%ADD51R,0.01378X0.03347*%
%ADD52C,0.02520*%
%ADD53R,0.06693X0.06693*%
%ADD54R,0.06693X0.06693*%
%ADD55R,0.04528X0.05709*%
%ADD56R,0.05650X0.05650*%
%ADD57C,0.05650*%
G36*
X520000Y270000D02*
X545000D01*
Y30000D01*
X520000D01*
Y5000D01*
X30000D01*
Y30000D01*
X5000D01*
Y270000D01*
X30000D01*
Y295000D01*
X520000D01*
Y270000D01*
D02*
G37*
%LPC*%
G36*
X117000Y278858D02*
X116001Y278727D01*
X115071Y278341D01*
X114272Y277728D01*
X113659Y276929D01*
X113274Y275998D01*
X113142Y275000D01*
X113274Y274002D01*
X113659Y273071D01*
X114272Y272272D01*
X114721Y271927D01*
X114551Y271427D01*
X109449D01*
X109279Y271927D01*
X109728Y272272D01*
X110341Y273071D01*
X110726Y274002D01*
X110858Y275000D01*
X110726Y275998D01*
X110341Y276929D01*
X109728Y277728D01*
X108929Y278341D01*
X107999Y278727D01*
X107000Y278858D01*
X106001Y278727D01*
X105071Y278341D01*
X104272Y277728D01*
X103659Y276929D01*
X103273Y275998D01*
X103142Y275000D01*
X103273Y274002D01*
X103659Y273071D01*
X104272Y272272D01*
X104721Y271927D01*
X104551Y271427D01*
X102000D01*
X102000Y271427D01*
X101454Y271319D01*
X100991Y271009D01*
X100991Y271009D01*
X98500Y268519D01*
X97998Y268726D01*
X97000Y268858D01*
X96001Y268726D01*
X95071Y268341D01*
X94272Y267728D01*
X93659Y266929D01*
X93274Y265999D01*
X93142Y265000D01*
X93274Y264001D01*
X93659Y263071D01*
X94272Y262272D01*
X95071Y261659D01*
X96001Y261274D01*
X97000Y261142D01*
X97998Y261274D01*
X98929Y261659D01*
X99728Y262272D01*
X100341Y263071D01*
X100726Y264001D01*
X100858Y265000D01*
X100726Y265999D01*
X100519Y266500D01*
X102591Y268573D01*
X104551D01*
X104721Y268073D01*
X104272Y267728D01*
X103659Y266929D01*
X103273Y265999D01*
X103142Y265000D01*
X103273Y264001D01*
X103659Y263071D01*
X104272Y262272D01*
X105071Y261659D01*
X106001Y261274D01*
X107000Y261142D01*
X107999Y261274D01*
X108929Y261659D01*
X109728Y262272D01*
X110341Y263071D01*
X110726Y264001D01*
X110858Y265000D01*
X110726Y265999D01*
X110341Y266929D01*
X109728Y267728D01*
X109279Y268073D01*
X109449Y268573D01*
X114551D01*
X114721Y268073D01*
X114272Y267728D01*
X113659Y266929D01*
X113274Y265999D01*
X113142Y265000D01*
X113274Y264001D01*
X113659Y263071D01*
X113706Y263010D01*
Y242004D01*
X111146D01*
Y235476D01*
X118854D01*
Y236446D01*
X121031D01*
Y235279D01*
X126969D01*
Y241020D01*
X123483D01*
X123409Y241034D01*
X118854D01*
Y242004D01*
X118294D01*
Y261396D01*
X118929Y261659D01*
X119728Y262272D01*
X120341Y263071D01*
X120727Y264001D01*
X120858Y265000D01*
X120727Y265999D01*
X120341Y266929D01*
X119728Y267728D01*
X119279Y268073D01*
X119449Y268573D01*
X124551D01*
X124721Y268073D01*
X124272Y267728D01*
X123659Y266929D01*
X123274Y265999D01*
X123142Y265000D01*
X123274Y264001D01*
X123659Y263071D01*
X124272Y262272D01*
X125071Y261659D01*
X126002Y261274D01*
X127000Y261142D01*
X127998Y261274D01*
X128929Y261659D01*
X129728Y262272D01*
X130341Y263071D01*
X130727Y264001D01*
X130858Y265000D01*
X130727Y265999D01*
X130341Y266929D01*
X129728Y267728D01*
X129279Y268073D01*
X129449Y268573D01*
X144409D01*
X179073Y233909D01*
Y219871D01*
X178539Y219461D01*
X178098Y218887D01*
X177821Y218218D01*
X177726Y217500D01*
X177821Y216782D01*
X178098Y216113D01*
X178539Y215539D01*
X179113Y215098D01*
X179782Y214821D01*
X180500Y214726D01*
X181218Y214821D01*
X181887Y215098D01*
X182461Y215539D01*
X182902Y216113D01*
X183179Y216782D01*
X183274Y217500D01*
X183179Y218218D01*
X182902Y218887D01*
X182461Y219461D01*
X181927Y219871D01*
Y234500D01*
X181927Y234500D01*
X181819Y235046D01*
X181509Y235509D01*
X181509Y235509D01*
X146009Y271009D01*
X145546Y271319D01*
X145000Y271427D01*
X145000Y271427D01*
X130825D01*
Y278825D01*
X123175D01*
Y271427D01*
X119449D01*
X119279Y271927D01*
X119728Y272272D01*
X120341Y273071D01*
X120727Y274002D01*
X120858Y275000D01*
X120727Y275998D01*
X120341Y276929D01*
X119728Y277728D01*
X118929Y278341D01*
X117999Y278727D01*
X117000Y278858D01*
D02*
G37*
G36*
X97000D02*
X96001Y278727D01*
X95071Y278341D01*
X94272Y277728D01*
X93659Y276929D01*
X93274Y275998D01*
X93142Y275000D01*
X93274Y274002D01*
X93659Y273071D01*
X94272Y272272D01*
X95071Y271659D01*
X96001Y271273D01*
X97000Y271142D01*
X97998Y271273D01*
X98929Y271659D01*
X99728Y272272D01*
X100341Y273071D01*
X100726Y274002D01*
X100858Y275000D01*
X100726Y275998D01*
X100341Y276929D01*
X99728Y277728D01*
X98929Y278341D01*
X97998Y278727D01*
X97000Y278858D01*
D02*
G37*
G36*
X77000D02*
X76002Y278727D01*
X75071Y278341D01*
X74272Y277728D01*
X73659Y276929D01*
X73273Y275998D01*
X73142Y275000D01*
X73273Y274002D01*
X73659Y273071D01*
X74272Y272272D01*
X75071Y271659D01*
X76002Y271273D01*
X77000Y271142D01*
X77999Y271273D01*
X78929Y271659D01*
X79728Y272272D01*
X80341Y273071D01*
X80726Y274002D01*
X80858Y275000D01*
X80726Y275998D01*
X80341Y276929D01*
X79728Y277728D01*
X78929Y278341D01*
X77999Y278727D01*
X77000Y278858D01*
D02*
G37*
G36*
X67000D02*
X66001Y278727D01*
X65071Y278341D01*
X64272Y277728D01*
X63659Y276929D01*
X63274Y275998D01*
X63142Y275000D01*
X63274Y274002D01*
X63659Y273071D01*
X64272Y272272D01*
X65071Y271659D01*
X66001Y271273D01*
X67000Y271142D01*
X67998Y271273D01*
X68929Y271659D01*
X69728Y272272D01*
X70341Y273071D01*
X70727Y274002D01*
X70858Y275000D01*
X70727Y275998D01*
X70341Y276929D01*
X69728Y277728D01*
X68929Y278341D01*
X67998Y278727D01*
X67000Y278858D01*
D02*
G37*
G36*
X87000Y268858D02*
X86001Y268726D01*
X85071Y268341D01*
X84272Y267728D01*
X83659Y266929D01*
X83274Y265999D01*
X83142Y265000D01*
X83274Y264001D01*
X83659Y263071D01*
X84272Y262272D01*
X85071Y261659D01*
X86001Y261274D01*
X87000Y261142D01*
X87998Y261274D01*
X88929Y261659D01*
X89728Y262272D01*
X90341Y263071D01*
X90727Y264001D01*
X90858Y265000D01*
X90727Y265999D01*
X90341Y266929D01*
X89728Y267728D01*
X88929Y268341D01*
X87998Y268726D01*
X87000Y268858D01*
D02*
G37*
G36*
X77000D02*
X76002Y268726D01*
X75071Y268341D01*
X74272Y267728D01*
X73659Y266929D01*
X73273Y265999D01*
X73142Y265000D01*
X73273Y264001D01*
X73659Y263071D01*
X74272Y262272D01*
X75071Y261659D01*
X76002Y261274D01*
X77000Y261142D01*
X77999Y261274D01*
X78929Y261659D01*
X79728Y262272D01*
X80341Y263071D01*
X80726Y264001D01*
X80858Y265000D01*
X80726Y265999D01*
X80341Y266929D01*
X79728Y267728D01*
X78929Y268341D01*
X77999Y268726D01*
X77000Y268858D01*
D02*
G37*
G36*
X67000D02*
X66001Y268726D01*
X65071Y268341D01*
X64272Y267728D01*
X63659Y266929D01*
X63274Y265999D01*
X63142Y265000D01*
X63274Y264001D01*
X63659Y263071D01*
X64272Y262272D01*
X65071Y261659D01*
X66001Y261274D01*
X67000Y261142D01*
X67998Y261274D01*
X68929Y261659D01*
X69728Y262272D01*
X70341Y263071D01*
X70727Y264001D01*
X70858Y265000D01*
X70727Y265999D01*
X70341Y266929D01*
X69728Y267728D01*
X68929Y268341D01*
X67998Y268726D01*
X67000Y268858D01*
D02*
G37*
G36*
X434358Y265774D02*
X433640Y265679D01*
X432971Y265402D01*
X432397Y264961D01*
X431956Y264387D01*
X431679Y263718D01*
X431585Y263000D01*
X431679Y262282D01*
X431956Y261613D01*
X432397Y261039D01*
X432971Y260598D01*
X433640Y260321D01*
X434358Y260226D01*
X435076Y260321D01*
X435745Y260598D01*
X436320Y261039D01*
X436760Y261613D01*
X437038Y262282D01*
X437132Y263000D01*
X437038Y263718D01*
X436760Y264387D01*
X436320Y264961D01*
X435745Y265402D01*
X435076Y265679D01*
X434358Y265774D01*
D02*
G37*
G36*
X425000Y250274D02*
X424282Y250179D01*
X423613Y249902D01*
X423039Y249461D01*
X422629Y248927D01*
X209500D01*
X209500Y248927D01*
X208954Y248819D01*
X208491Y248509D01*
X208491Y248509D01*
X192491Y232509D01*
X192181Y232046D01*
X192073Y231500D01*
X192073Y231500D01*
Y211371D01*
X191539Y210961D01*
X191098Y210387D01*
X190821Y209718D01*
X190726Y209000D01*
X190821Y208282D01*
X191098Y207613D01*
X191539Y207039D01*
X192113Y206598D01*
X192782Y206321D01*
X193500Y206226D01*
X193752Y206259D01*
X193774Y206236D01*
X193988Y205786D01*
X193645Y205340D01*
X193368Y204671D01*
X193273Y203953D01*
X193368Y203235D01*
X193447Y203044D01*
X193420Y202906D01*
Y198000D01*
X193540Y197395D01*
X193883Y196882D01*
X196882Y193883D01*
X197395Y193540D01*
X198000Y193420D01*
X209345D01*
X212882Y189883D01*
X213395Y189540D01*
X214000Y189420D01*
X241000D01*
X241605Y189540D01*
X242118Y189883D01*
X257655Y205420D01*
X264477D01*
X264685Y204920D01*
X258882Y199118D01*
X258540Y198605D01*
X258420Y198000D01*
Y183000D01*
X258540Y182395D01*
X258882Y181883D01*
X263770Y176995D01*
X263579Y176533D01*
X260953D01*
X260348Y176413D01*
X259835Y176070D01*
X257476Y173711D01*
X257000Y173774D01*
X256282Y173679D01*
X255613Y173402D01*
X255039Y172961D01*
X254598Y172387D01*
X254321Y171718D01*
X254226Y171000D01*
X254321Y170282D01*
X254598Y169613D01*
X255039Y169039D01*
X255613Y168598D01*
X256282Y168321D01*
X257000Y168226D01*
X257718Y168321D01*
X258387Y168598D01*
X258961Y169039D01*
X259402Y169613D01*
X259679Y170282D01*
X259774Y171000D01*
X259711Y171476D01*
X261607Y173372D01*
X269228D01*
Y170364D01*
X268930Y170165D01*
X261231Y162467D01*
X260718Y162679D01*
X260000Y162774D01*
X259282Y162679D01*
X258613Y162402D01*
X258039Y161961D01*
X257598Y161387D01*
X257321Y160718D01*
X257226Y160000D01*
X257321Y159282D01*
X257598Y158613D01*
X258039Y158039D01*
X258613Y157598D01*
X259282Y157321D01*
X260000Y157226D01*
X260718Y157321D01*
X261387Y157598D01*
X261961Y158039D01*
X262402Y158613D01*
X262679Y159282D01*
X262704Y159469D01*
X269314Y166079D01*
X274772D01*
Y171984D01*
Y173372D01*
X280393D01*
X316420Y137345D01*
Y120655D01*
X309345Y113580D01*
X305254D01*
X304961Y113961D01*
X304387Y114402D01*
X303718Y114679D01*
X303000Y114774D01*
X302282Y114679D01*
X301613Y114402D01*
X301039Y113961D01*
X300598Y113387D01*
X300321Y112718D01*
X300226Y112000D01*
X300321Y111282D01*
X300598Y110613D01*
X301039Y110039D01*
X301613Y109598D01*
X302282Y109321D01*
X303000Y109226D01*
X303718Y109321D01*
X304387Y109598D01*
X304961Y110039D01*
X305254Y110420D01*
X310000D01*
X310605Y110540D01*
X311118Y110882D01*
X318509Y118274D01*
X318971Y118082D01*
Y113134D01*
X312367Y106529D01*
X305293D01*
X304961Y106961D01*
X304387Y107402D01*
X303718Y107679D01*
X303000Y107774D01*
X302282Y107679D01*
X301613Y107402D01*
X301039Y106961D01*
X300598Y106387D01*
X300321Y105718D01*
X300226Y105000D01*
X300321Y104282D01*
X300598Y103613D01*
X301039Y103039D01*
X301613Y102598D01*
X302282Y102321D01*
X303000Y102226D01*
X303718Y102321D01*
X304387Y102598D01*
X304961Y103039D01*
X305293Y103471D01*
X313000D01*
X313585Y103587D01*
X314081Y103919D01*
X321581Y111419D01*
X321913Y111915D01*
X322029Y112500D01*
Y121244D01*
X322080Y121500D01*
Y140550D01*
X322580Y140757D01*
X328919Y134419D01*
X329415Y134087D01*
X330000Y133971D01*
X373867D01*
X384419Y123419D01*
X384915Y123087D01*
X385500Y122971D01*
X402867D01*
X425919Y99919D01*
X426415Y99587D01*
X427000Y99471D01*
X507866D01*
X516419Y90919D01*
X516915Y90587D01*
X517500Y90471D01*
X524500D01*
X525085Y90587D01*
X525581Y90919D01*
X531081Y96419D01*
X531413Y96915D01*
X531529Y97500D01*
Y100929D01*
X534346D01*
Y109622D01*
X525654D01*
Y100929D01*
X528471D01*
Y98133D01*
X523867Y93529D01*
X518133D01*
X509581Y102081D01*
X509085Y102413D01*
X508500Y102529D01*
X427633D01*
X404581Y125581D01*
X404085Y125913D01*
X403500Y126029D01*
X386134D01*
X375581Y136581D01*
X375085Y136913D01*
X374500Y137029D01*
X336983D01*
X336831Y137529D01*
X337394Y137905D01*
X337891Y138650D01*
X338066Y139528D01*
Y142775D01*
X338215Y143528D01*
X338041Y144405D01*
X337543Y145150D01*
X336799Y145647D01*
X336403Y145726D01*
Y149763D01*
X336429Y150252D01*
X337471D01*
Y149197D01*
X337595Y148573D01*
X337949Y148043D01*
X338086Y147952D01*
X338177Y147815D01*
X341618Y144374D01*
X342147Y144020D01*
X342772Y143896D01*
X348772D01*
X349396Y144020D01*
X349925Y144374D01*
X353925Y148374D01*
X354279Y148903D01*
X354403Y149528D01*
Y151559D01*
X355543D01*
Y157465D01*
Y163402D01*
X355066D01*
Y164953D01*
X355174Y165093D01*
X355451Y165762D01*
X355545Y166480D01*
X355451Y167198D01*
X355174Y167867D01*
X354733Y168442D01*
X354158Y168882D01*
X353489Y169159D01*
X352772Y169254D01*
X352054Y169159D01*
X351385Y168882D01*
X350810Y168442D01*
X350370Y167867D01*
X350092Y167198D01*
X349998Y166480D01*
X350092Y165762D01*
X350370Y165093D01*
X350478Y164953D01*
Y163402D01*
X350000D01*
Y157465D01*
Y151559D01*
X351140D01*
Y150203D01*
X348096Y147159D01*
X347177D01*
X347025Y147659D01*
X347394Y147905D01*
X347891Y148650D01*
X348066Y149528D01*
Y154378D01*
X347891Y155256D01*
X347394Y156000D01*
X346650Y156497D01*
X345772Y156672D01*
X344894Y156497D01*
X344149Y156000D01*
X343652Y155256D01*
X343478Y154378D01*
Y149528D01*
X343652Y148650D01*
X344149Y147905D01*
X344518Y147659D01*
X344367Y147159D01*
X343447D01*
X340854Y149752D01*
X341025Y150252D01*
X341776D01*
Y153630D01*
X341001D01*
X340660Y154130D01*
X340734Y154500D01*
X340660Y154870D01*
X341001Y155370D01*
X341776D01*
Y157053D01*
X342360Y157637D01*
X342803Y157807D01*
Y157807D01*
X342803Y157807D01*
X348740D01*
Y163547D01*
X348206D01*
X348102Y164047D01*
X348174Y164141D01*
X348451Y164810D01*
X348545Y165528D01*
X348451Y166245D01*
X348174Y166914D01*
X347733Y167489D01*
X347159Y167930D01*
X346490Y168207D01*
X345772Y168301D01*
X345054Y168207D01*
X344385Y167930D01*
X343810Y167489D01*
X343370Y166914D01*
X343092Y166245D01*
X342998Y165528D01*
X343092Y164810D01*
X343370Y164141D01*
X343441Y164047D01*
X343338Y163547D01*
X342803D01*
Y162381D01*
X342285Y162278D01*
X341723Y161903D01*
X338568Y158748D01*
X336429D01*
X336403Y159237D01*
Y163233D01*
X338772D01*
X339650Y163408D01*
X340394Y163905D01*
X340891Y164650D01*
X341066Y165528D01*
X340891Y166405D01*
X340394Y167150D01*
X339650Y167647D01*
X338772Y167822D01*
X336215D01*
Y171233D01*
X338772D01*
X339650Y171408D01*
X340394Y171905D01*
X340891Y172650D01*
X341066Y173528D01*
X340891Y174406D01*
X340394Y175150D01*
X339650Y175647D01*
X338772Y175822D01*
X333512D01*
X332634Y175647D01*
X331890Y175150D01*
X331392Y174406D01*
X331218Y173528D01*
X331392Y172650D01*
X331627Y172298D01*
Y165528D01*
X331802Y164650D01*
X332299Y163905D01*
X333043Y163408D01*
X333140Y163389D01*
Y159237D01*
X333114Y158748D01*
X332640Y158748D01*
X331203D01*
X329355Y160596D01*
Y162559D01*
X330492D01*
Y168496D01*
X328326D01*
Y169673D01*
X329295D01*
Y177382D01*
X322768D01*
Y175934D01*
X322268Y175846D01*
X322159Y175930D01*
X321490Y176207D01*
X320772Y176301D01*
X320054Y176207D01*
X319385Y175930D01*
X318810Y175489D01*
X318370Y174914D01*
X318092Y174246D01*
X317998Y173528D01*
X318092Y172810D01*
X318370Y172141D01*
X318810Y171566D01*
X319385Y171125D01*
X320054Y170848D01*
X320772Y170754D01*
X321490Y170848D01*
X322159Y171125D01*
X322268Y171209D01*
X322768Y171121D01*
Y169673D01*
X323737D01*
Y168597D01*
X323237Y168240D01*
X322772Y168301D01*
X322054Y168207D01*
X321385Y167930D01*
X320810Y167489D01*
X320370Y166914D01*
X320092Y166245D01*
X319998Y165528D01*
X320092Y164810D01*
X320370Y164141D01*
X320810Y163566D01*
X321385Y163125D01*
X322054Y162848D01*
X322772Y162754D01*
X323489Y162848D01*
X324159Y163125D01*
X324252Y163197D01*
X324752Y163094D01*
Y162559D01*
X325889D01*
Y160106D01*
X325911Y159992D01*
X325889Y159878D01*
X326021Y159215D01*
X326396Y158652D01*
X327768Y157281D01*
Y155370D01*
X330218D01*
X330441Y155326D01*
X330664Y155370D01*
X332640D01*
X333114Y155370D01*
X333140Y154881D01*
Y154119D01*
X333114Y153630D01*
X332640Y153630D01*
X330664D01*
X330441Y153674D01*
X330218Y153630D01*
X327768D01*
Y150252D01*
X328708D01*
Y146496D01*
X326752D01*
Y141564D01*
X326290Y141373D01*
X308029Y159634D01*
Y164000D01*
X307913Y164585D01*
X307581Y165081D01*
X307203Y165460D01*
X307274Y166000D01*
X307179Y166718D01*
X306902Y167387D01*
X306461Y167961D01*
X305887Y168402D01*
X305218Y168679D01*
X304500Y168774D01*
X303782Y168679D01*
X303113Y168402D01*
X302539Y167961D01*
X302098Y167387D01*
X301821Y166718D01*
X301726Y166000D01*
X301821Y165282D01*
X302098Y164613D01*
X302539Y164039D01*
X303113Y163598D01*
X303782Y163321D01*
X304500Y163226D01*
X304595Y163239D01*
X304971Y162909D01*
Y159471D01*
X304471Y159264D01*
X282683Y181052D01*
X282874Y181514D01*
X351251D01*
X425882Y106883D01*
X426395Y106540D01*
X427000Y106420D01*
X475746D01*
X476039Y106039D01*
X476613Y105598D01*
X477282Y105321D01*
X478000Y105226D01*
X478718Y105321D01*
X479387Y105598D01*
X479961Y106039D01*
X480402Y106613D01*
X480679Y107282D01*
X480728Y107653D01*
X481261Y107868D01*
X481613Y107598D01*
X482282Y107321D01*
X483000Y107226D01*
X483718Y107321D01*
X484387Y107598D01*
X484961Y108039D01*
X485402Y108613D01*
X485679Y109282D01*
X485774Y110000D01*
X485679Y110718D01*
X485402Y111387D01*
X484961Y111961D01*
X484387Y112402D01*
X483718Y112679D01*
X483000Y112774D01*
X482524Y112711D01*
X480315Y114920D01*
X480522Y115420D01*
X497079D01*
Y112228D01*
X508921D01*
Y113093D01*
X515654D01*
Y110378D01*
X524346D01*
Y119071D01*
X515654D01*
Y116356D01*
X508921D01*
Y117772D01*
X499511D01*
X499165Y118117D01*
X498652Y118460D01*
X498047Y118580D01*
X467655D01*
X461711Y124524D01*
X461774Y125000D01*
X461679Y125718D01*
X461402Y126387D01*
X460961Y126961D01*
X460387Y127402D01*
X459718Y127679D01*
X459000Y127774D01*
X458282Y127679D01*
X457613Y127402D01*
X457172Y127063D01*
X375618Y208617D01*
X375105Y208960D01*
X374500Y209080D01*
X315500D01*
X314895Y208960D01*
X314383Y208617D01*
X311345Y205580D01*
X296655D01*
X289118Y213118D01*
X288605Y213460D01*
X288000Y213580D01*
X247000D01*
X246395Y213460D01*
X245883Y213118D01*
X240345Y207580D01*
X239254D01*
X238961Y207961D01*
X238387Y208402D01*
X237718Y208679D01*
X237000Y208774D01*
X236282Y208679D01*
X235613Y208402D01*
X235039Y207961D01*
X234598Y207387D01*
X234321Y206718D01*
X234226Y206000D01*
X234321Y205282D01*
X234598Y204613D01*
X235039Y204039D01*
X235613Y203598D01*
X236282Y203321D01*
X237000Y203226D01*
X237718Y203321D01*
X238387Y203598D01*
X238961Y204039D01*
X239254Y204420D01*
X241000D01*
X241605Y204540D01*
X242118Y204883D01*
X247655Y210420D01*
X252478D01*
X252685Y209920D01*
X238345Y195580D01*
X217655D01*
X212118Y201117D01*
X211605Y201460D01*
X211000Y201580D01*
X202254D01*
X201961Y201961D01*
X201387Y202402D01*
X200718Y202679D01*
X200000Y202774D01*
X199282Y202679D01*
X198987Y202557D01*
X198604Y202940D01*
X198726Y203235D01*
X198821Y203953D01*
X198726Y204671D01*
X198449Y205340D01*
X198009Y205914D01*
X197434Y206355D01*
X196765Y206632D01*
X196047Y206727D01*
X195795Y206693D01*
X195773Y206716D01*
X195560Y207167D01*
X195902Y207613D01*
X196179Y208282D01*
X196274Y209000D01*
X196179Y209718D01*
X195902Y210387D01*
X195461Y210961D01*
X194927Y211371D01*
Y214347D01*
X195427Y214554D01*
X197814Y212167D01*
X197726Y211500D01*
X197821Y210782D01*
X198098Y210113D01*
X198539Y209539D01*
X199113Y209098D01*
X199782Y208821D01*
X200500Y208726D01*
X201218Y208821D01*
X201887Y209098D01*
X202461Y209539D01*
X202902Y210113D01*
X203179Y210782D01*
X203274Y211500D01*
X203179Y212218D01*
X203129Y212338D01*
X203434Y212735D01*
X203500Y212726D01*
X204218Y212821D01*
X204887Y213098D01*
X205461Y213539D01*
X205902Y214113D01*
X206179Y214782D01*
X206274Y215500D01*
X206268Y215544D01*
X206598Y215920D01*
X226746D01*
X227039Y215539D01*
X227613Y215098D01*
X228282Y214821D01*
X229000Y214726D01*
X229718Y214821D01*
X230387Y215098D01*
X230961Y215539D01*
X231402Y216113D01*
X231679Y216782D01*
X231774Y217500D01*
X231679Y218218D01*
X231402Y218887D01*
X230961Y219461D01*
X230387Y219902D01*
X229718Y220179D01*
X229000Y220274D01*
X228282Y220179D01*
X227613Y219902D01*
X227039Y219461D01*
X226746Y219080D01*
X205500D01*
X204895Y218960D01*
X204382Y218618D01*
X203976Y218211D01*
X203500Y218274D01*
X202782Y218179D01*
X202113Y217902D01*
X201539Y217461D01*
X201098Y216887D01*
X200821Y216218D01*
X200726Y215500D01*
X200821Y214782D01*
X200871Y214662D01*
X200566Y214265D01*
X200500Y214274D01*
X199833Y214186D01*
X197427Y216591D01*
Y228909D01*
X208091Y239573D01*
X429629D01*
X430039Y239039D01*
X430613Y238598D01*
X431282Y238321D01*
X432000Y238226D01*
X432718Y238321D01*
X433387Y238598D01*
X433961Y239039D01*
X434402Y239613D01*
X434679Y240282D01*
X434774Y241000D01*
X434679Y241718D01*
X434402Y242387D01*
X433961Y242961D01*
X433387Y243402D01*
X432718Y243679D01*
X432000Y243774D01*
X431282Y243679D01*
X430613Y243402D01*
X430039Y242961D01*
X429629Y242427D01*
X207500D01*
X207500Y242427D01*
X207067Y242341D01*
X206776Y242745D01*
X206772Y242754D01*
X210091Y246073D01*
X422629D01*
X423039Y245539D01*
X423613Y245098D01*
X424282Y244821D01*
X425000Y244726D01*
X425718Y244821D01*
X426387Y245098D01*
X426961Y245539D01*
X427402Y246113D01*
X427679Y246782D01*
X427774Y247500D01*
X427679Y248218D01*
X427402Y248887D01*
X426961Y249461D01*
X426387Y249902D01*
X425718Y250179D01*
X425000Y250274D01*
D02*
G37*
G36*
X35000Y245427D02*
X35000Y245427D01*
X21000D01*
X21000Y245427D01*
X20454Y245319D01*
X19991Y245009D01*
X19991Y245009D01*
X16634Y241653D01*
X16044Y241897D01*
X15000Y242035D01*
X13956Y241897D01*
X12983Y241494D01*
X12147Y240853D01*
X11506Y240017D01*
X11103Y239044D01*
X10966Y238000D01*
X11103Y236956D01*
X11506Y235983D01*
X12147Y235147D01*
X12983Y234506D01*
X13956Y234103D01*
X15000Y233965D01*
X16044Y234103D01*
X17017Y234506D01*
X17853Y235147D01*
X18494Y235983D01*
X18897Y236956D01*
X19035Y238000D01*
X18897Y239044D01*
X18653Y239634D01*
X21591Y242573D01*
X34409D01*
X36491Y240491D01*
X36491Y240491D01*
X36954Y240181D01*
X37500Y240073D01*
X61629D01*
X62039Y239539D01*
X62613Y239098D01*
X63282Y238821D01*
X64000Y238726D01*
X64718Y238821D01*
X65387Y239098D01*
X65961Y239539D01*
X66402Y240113D01*
X66679Y240782D01*
X66774Y241500D01*
X66679Y242218D01*
X66402Y242887D01*
X65961Y243461D01*
X65387Y243902D01*
X64718Y244179D01*
X64000Y244274D01*
X63282Y244179D01*
X62613Y243902D01*
X62039Y243461D01*
X61629Y242927D01*
X38091D01*
X36009Y245009D01*
X35546Y245319D01*
X35000Y245427D01*
D02*
G37*
G36*
X452500Y237774D02*
X451782Y237679D01*
X451113Y237402D01*
X450539Y236961D01*
X450129Y236427D01*
X272330D01*
X272330Y236427D01*
X271784Y236319D01*
X271321Y236009D01*
X271321Y236009D01*
X256589Y221277D01*
X246350D01*
X245804Y221169D01*
X245341Y220859D01*
X245341Y220859D01*
X237409Y212927D01*
X222371D01*
X221961Y213461D01*
X221387Y213902D01*
X220718Y214179D01*
X220000Y214274D01*
X219282Y214179D01*
X218613Y213902D01*
X218039Y213461D01*
X217598Y212887D01*
X217321Y212218D01*
X217226Y211500D01*
X217321Y210782D01*
X217598Y210113D01*
X218039Y209539D01*
X218613Y209098D01*
X219282Y208821D01*
X220000Y208726D01*
X220718Y208821D01*
X221387Y209098D01*
X221961Y209539D01*
X222371Y210073D01*
X238000D01*
X238000Y210073D01*
X238546Y210181D01*
X239009Y210491D01*
X246941Y218423D01*
X257181D01*
X257181Y218423D01*
X257727Y218531D01*
X258190Y218841D01*
X272922Y233573D01*
X450129D01*
X450539Y233039D01*
X451113Y232598D01*
X451782Y232321D01*
X452500Y232226D01*
X453218Y232321D01*
X453887Y232598D01*
X454461Y233039D01*
X454902Y233613D01*
X455179Y234282D01*
X455274Y235000D01*
X455179Y235718D01*
X454902Y236387D01*
X454461Y236961D01*
X453887Y237402D01*
X453218Y237679D01*
X452500Y237774D01*
D02*
G37*
G36*
X25000Y242035D02*
X23956Y241897D01*
X22983Y241494D01*
X22147Y240853D01*
X21506Y240017D01*
X21103Y239044D01*
X20966Y238000D01*
X21103Y236956D01*
X21506Y235983D01*
X22147Y235147D01*
X22983Y234506D01*
X23956Y234103D01*
X25000Y233965D01*
X26044Y234103D01*
X27017Y234506D01*
X27104Y234573D01*
X67629D01*
X68039Y234039D01*
X68613Y233598D01*
X69282Y233321D01*
X70000Y233226D01*
X70718Y233321D01*
X71387Y233598D01*
X71961Y234039D01*
X72402Y234613D01*
X72679Y235282D01*
X72774Y236000D01*
X72679Y236718D01*
X72402Y237387D01*
X71961Y237961D01*
X71387Y238402D01*
X70718Y238679D01*
X70000Y238774D01*
X69282Y238679D01*
X68613Y238402D01*
X68039Y237961D01*
X67629Y237427D01*
X29338D01*
X29009Y237803D01*
X29035Y238000D01*
X28897Y239044D01*
X28494Y240017D01*
X27853Y240853D01*
X27017Y241494D01*
X26044Y241897D01*
X25000Y242035D01*
D02*
G37*
G36*
X95000Y237774D02*
X94282Y237679D01*
X93613Y237402D01*
X93039Y236961D01*
X92598Y236387D01*
X92321Y235718D01*
X92226Y235000D01*
X92321Y234282D01*
X92598Y233613D01*
X93039Y233039D01*
X93613Y232598D01*
X94282Y232321D01*
X95000Y232226D01*
X95718Y232321D01*
X96387Y232598D01*
X96961Y233039D01*
X97402Y233613D01*
X97679Y234282D01*
X97774Y235000D01*
X97679Y235718D01*
X97402Y236387D01*
X96961Y236961D01*
X96387Y237402D01*
X95718Y237679D01*
X95000Y237774D01*
D02*
G37*
G36*
X25000Y232034D02*
X23956Y231897D01*
X22983Y231494D01*
X22147Y230853D01*
X21506Y230017D01*
X21103Y229044D01*
X20966Y228000D01*
X21103Y226956D01*
X21506Y225983D01*
X22147Y225147D01*
X22433Y224927D01*
X22264Y224427D01*
X20591D01*
X18653Y226366D01*
X18897Y226956D01*
X19035Y228000D01*
X18897Y229044D01*
X18494Y230017D01*
X17853Y230853D01*
X17017Y231494D01*
X16044Y231897D01*
X15000Y232034D01*
X13956Y231897D01*
X12983Y231494D01*
X12147Y230853D01*
X11506Y230017D01*
X11103Y229044D01*
X10966Y228000D01*
X11103Y226956D01*
X11506Y225983D01*
X12147Y225147D01*
X12983Y224506D01*
X13956Y224103D01*
X15000Y223966D01*
X16044Y224103D01*
X16634Y224347D01*
X18991Y221991D01*
X18991Y221991D01*
X19454Y221681D01*
X20000Y221573D01*
X20000Y221573D01*
X22264D01*
X22433Y221073D01*
X22147Y220853D01*
X21506Y220017D01*
X21103Y219044D01*
X20966Y218000D01*
X21103Y216956D01*
X21506Y215983D01*
X22147Y215147D01*
X22433Y214927D01*
X22264Y214427D01*
X20591D01*
X18653Y216366D01*
X18897Y216956D01*
X19035Y218000D01*
X18897Y219044D01*
X18494Y220017D01*
X17853Y220853D01*
X17017Y221494D01*
X16044Y221897D01*
X15000Y222035D01*
X13956Y221897D01*
X12983Y221494D01*
X12147Y220853D01*
X11506Y220017D01*
X11103Y219044D01*
X10966Y218000D01*
X11103Y216956D01*
X11506Y215983D01*
X12147Y215147D01*
X12983Y214506D01*
X13956Y214103D01*
X15000Y213966D01*
X16044Y214103D01*
X16634Y214347D01*
X18991Y211991D01*
X18991Y211991D01*
X19454Y211681D01*
X20000Y211573D01*
X20000Y211573D01*
X22264D01*
X22433Y211073D01*
X22147Y210853D01*
X21506Y210017D01*
X21103Y209044D01*
X20966Y208000D01*
X21103Y206956D01*
X21506Y205983D01*
X22147Y205147D01*
X22433Y204927D01*
X22264Y204427D01*
X20591D01*
X18653Y206366D01*
X18897Y206956D01*
X19035Y208000D01*
X18897Y209044D01*
X18494Y210017D01*
X17853Y210853D01*
X17017Y211494D01*
X16044Y211897D01*
X15000Y212035D01*
X13956Y211897D01*
X12983Y211494D01*
X12147Y210853D01*
X11506Y210017D01*
X11103Y209044D01*
X10966Y208000D01*
X11103Y206956D01*
X11506Y205983D01*
X12147Y205147D01*
X12983Y204506D01*
X13956Y204103D01*
X15000Y203965D01*
X16044Y204103D01*
X16634Y204347D01*
X18991Y201991D01*
X18991Y201991D01*
X19454Y201681D01*
X20000Y201573D01*
X20000Y201573D01*
X22264D01*
X22433Y201073D01*
X22147Y200853D01*
X21506Y200017D01*
X21103Y199044D01*
X20966Y198000D01*
X21103Y196956D01*
X21506Y195983D01*
X22147Y195147D01*
X22983Y194506D01*
X23956Y194103D01*
X25000Y193965D01*
X26044Y194103D01*
X27017Y194506D01*
X27853Y195147D01*
X28494Y195983D01*
X28738Y196573D01*
X48409D01*
X49054Y195927D01*
X48847Y195427D01*
X31000D01*
X31000Y195427D01*
X30454Y195319D01*
X29991Y195009D01*
X29991Y195009D01*
X27409Y192427D01*
X22591D01*
X18653Y196366D01*
X18897Y196956D01*
X19035Y198000D01*
X18897Y199044D01*
X18494Y200017D01*
X17853Y200853D01*
X17017Y201494D01*
X16044Y201897D01*
X15000Y202034D01*
X13956Y201897D01*
X12983Y201494D01*
X12147Y200853D01*
X11506Y200017D01*
X11103Y199044D01*
X10966Y198000D01*
X11103Y196956D01*
X11506Y195983D01*
X12147Y195147D01*
X12983Y194506D01*
X13956Y194103D01*
X15000Y193965D01*
X16044Y194103D01*
X16634Y194347D01*
X20991Y189991D01*
X20991Y189991D01*
X21454Y189681D01*
X22000Y189573D01*
X28000D01*
X28000Y189573D01*
X28546Y189681D01*
X29009Y189991D01*
X31591Y192573D01*
X37472D01*
X37552Y192311D01*
X37597Y192073D01*
X37109Y191342D01*
X36934Y190465D01*
Y187217D01*
X36785Y186465D01*
X36959Y185587D01*
X37457Y184842D01*
X38201Y184345D01*
X38597Y184266D01*
Y179748D01*
X37801D01*
Y180831D01*
X37677Y181455D01*
X37323Y181984D01*
X33154Y186153D01*
X32624Y186507D01*
X32000Y186631D01*
X25000D01*
X25000Y186631D01*
X24376Y186507D01*
X23846Y186153D01*
X21075Y183382D01*
X20721Y182853D01*
X20597Y182228D01*
Y178386D01*
X19457D01*
Y172449D01*
Y166543D01*
X19934D01*
Y165040D01*
X19826Y164899D01*
X19549Y164230D01*
X19455Y163512D01*
X19549Y162794D01*
X19826Y162125D01*
X20267Y161550D01*
X20842Y161110D01*
X21510Y160833D01*
X22228Y160738D01*
X22946Y160833D01*
X23615Y161110D01*
X24190Y161550D01*
X24631Y162125D01*
X24908Y162794D01*
X25002Y163512D01*
X24908Y164230D01*
X24631Y164899D01*
X24522Y165040D01*
Y166543D01*
X25000D01*
Y172449D01*
Y178386D01*
X23860D01*
Y181553D01*
X25676Y183369D01*
X31324D01*
X34445Y180248D01*
X34313Y179748D01*
X33496D01*
Y177131D01*
X31522D01*
Y180465D01*
X31348Y181342D01*
X30850Y182087D01*
X30106Y182584D01*
X29228Y182759D01*
X28350Y182584D01*
X27606Y182087D01*
X27109Y181342D01*
X26934Y180465D01*
Y175614D01*
X27109Y174736D01*
X27606Y173992D01*
X28350Y173495D01*
X29228Y173320D01*
X30106Y173495D01*
X30666Y173869D01*
X33496D01*
Y172719D01*
X32659Y171882D01*
X32197Y172073D01*
Y172185D01*
X26260D01*
Y166445D01*
X26794D01*
X26898Y165945D01*
X26826Y165851D01*
X26549Y165182D01*
X26455Y164465D01*
X26549Y163747D01*
X26826Y163078D01*
X27267Y162503D01*
X27841Y162062D01*
X28510Y161785D01*
X29228Y161691D01*
X29946Y161785D01*
X30615Y162062D01*
X31190Y162503D01*
X31631Y163078D01*
X31908Y163747D01*
X32002Y164465D01*
X31908Y165182D01*
X31631Y165851D01*
X31559Y165945D01*
X31662Y166445D01*
X32197D01*
Y167531D01*
X32543D01*
X33226Y167666D01*
X33805Y168053D01*
X33950Y168271D01*
X36932Y171252D01*
X38597D01*
Y166759D01*
X36228D01*
X35350Y166584D01*
X34606Y166087D01*
X34109Y165342D01*
X33934Y164465D01*
X34109Y163587D01*
X34606Y162842D01*
X35350Y162345D01*
X36228Y162171D01*
X38785D01*
Y158759D01*
X36228D01*
X35350Y158584D01*
X34606Y158087D01*
X34109Y157343D01*
X33934Y156465D01*
X34109Y155587D01*
X34606Y154842D01*
X35350Y154345D01*
X36228Y154171D01*
X41488D01*
X42366Y154345D01*
X43110Y154842D01*
X43608Y155587D01*
X43782Y156465D01*
X43608Y157343D01*
X43373Y157694D01*
Y164465D01*
X43198Y165342D01*
X42701Y166087D01*
X41957Y166584D01*
X41860Y166603D01*
Y170875D01*
X42158Y171252D01*
X42360Y171252D01*
X44068D01*
X45645Y169676D01*
Y167433D01*
X44508D01*
Y161496D01*
X46674D01*
Y160319D01*
X45705D01*
Y152610D01*
X52232D01*
Y154058D01*
X52732Y154146D01*
X52842Y154062D01*
X53510Y153785D01*
X54228Y153691D01*
X54946Y153785D01*
X55615Y154062D01*
X56190Y154503D01*
X56630Y155078D01*
X56908Y155747D01*
X57002Y156465D01*
X56908Y157183D01*
X56630Y157851D01*
X56190Y158426D01*
X55615Y158867D01*
X54946Y159144D01*
X54228Y159238D01*
X53510Y159144D01*
X52842Y158867D01*
X52732Y158783D01*
X52232Y158871D01*
Y160319D01*
X51263D01*
Y161395D01*
X51763Y161752D01*
X52228Y161691D01*
X52946Y161785D01*
X53615Y162062D01*
X54190Y162503D01*
X54631Y163078D01*
X54908Y163747D01*
X55002Y164465D01*
X54908Y165182D01*
X54631Y165851D01*
X54190Y166426D01*
X53615Y166867D01*
X52946Y167144D01*
X52228Y167238D01*
X51511Y167144D01*
X50841Y166867D01*
X50748Y166795D01*
X50248Y166899D01*
Y167433D01*
X49111D01*
Y170394D01*
X49111Y170394D01*
X48979Y171057D01*
X48604Y171619D01*
X48604Y171619D01*
X47504Y172719D01*
Y174630D01*
X45054D01*
X44831Y174674D01*
X44608Y174630D01*
X42360D01*
X42158Y174630D01*
X41860Y175007D01*
Y175993D01*
X42158Y176370D01*
X42360Y176370D01*
X47504D01*
Y179748D01*
X46462D01*
Y183496D01*
X48248D01*
Y189433D01*
X42508D01*
Y183496D01*
X43199D01*
Y180102D01*
X42846Y179748D01*
X42158Y179748D01*
X41860Y180125D01*
Y185315D01*
X41736Y185939D01*
X41468Y186340D01*
X41522Y186614D01*
Y190465D01*
X41348Y191342D01*
X40860Y192073D01*
X40905Y192311D01*
X40985Y192573D01*
X48909D01*
X53491Y187991D01*
X53491Y187991D01*
X53954Y187681D01*
X54500Y187573D01*
X54500Y187573D01*
X135000D01*
X135000Y187573D01*
X135546Y187681D01*
X136009Y187991D01*
X138757Y190738D01*
X139284Y190559D01*
X139321Y190282D01*
X139598Y189613D01*
X140039Y189039D01*
X140613Y188598D01*
X141282Y188321D01*
X142000Y188226D01*
X142718Y188321D01*
X143387Y188598D01*
X143961Y189039D01*
X144402Y189613D01*
X144679Y190282D01*
X144774Y191000D01*
X144679Y191718D01*
X144402Y192387D01*
X143961Y192961D01*
X143816Y193073D01*
X143986Y193573D01*
X148014D01*
X148184Y193073D01*
X148039Y192961D01*
X147598Y192387D01*
X147321Y191718D01*
X147226Y191000D01*
X147321Y190282D01*
X147598Y189613D01*
X148039Y189039D01*
X148613Y188598D01*
X149282Y188321D01*
X150000Y188226D01*
X150718Y188321D01*
X151387Y188598D01*
X151961Y189039D01*
X152402Y189613D01*
X152679Y190282D01*
X152774Y191000D01*
X152679Y191718D01*
X152402Y192387D01*
X151961Y192961D01*
X151816Y193073D01*
X151986Y193573D01*
X164000D01*
X164000Y193573D01*
X164546Y193681D01*
X165009Y193991D01*
X168591Y197573D01*
X174629D01*
X175039Y197039D01*
X175613Y196598D01*
X176282Y196321D01*
X177000Y196226D01*
X177718Y196321D01*
X178387Y196598D01*
X178961Y197039D01*
X179402Y197613D01*
X179679Y198282D01*
X179774Y199000D01*
X179679Y199718D01*
X179402Y200387D01*
X178961Y200961D01*
X178387Y201402D01*
X177718Y201679D01*
X177000Y201774D01*
X176677Y201731D01*
X176231Y202177D01*
X176274Y202500D01*
X176187Y203159D01*
X176250Y203292D01*
X176556Y203615D01*
X176850Y203576D01*
X177568Y203671D01*
X178237Y203948D01*
X178811Y204389D01*
X179252Y204963D01*
X179529Y205632D01*
X179624Y206350D01*
X179529Y207068D01*
X179252Y207737D01*
X178811Y208311D01*
X178237Y208752D01*
X177568Y209029D01*
X176850Y209124D01*
X176498Y209077D01*
X176061Y209438D01*
X176080Y209472D01*
X176514Y209790D01*
X177000Y209726D01*
X177718Y209821D01*
X178387Y210098D01*
X178961Y210539D01*
X179402Y211113D01*
X179679Y211782D01*
X179774Y212500D01*
X179679Y213218D01*
X179402Y213887D01*
X178961Y214461D01*
X178387Y214902D01*
X177718Y215179D01*
X177000Y215274D01*
X176282Y215179D01*
X175613Y214902D01*
X175039Y214461D01*
X174629Y213927D01*
X162091D01*
X156509Y219509D01*
X156046Y219819D01*
X155500Y219927D01*
X155500Y219927D01*
X120500D01*
X120500Y219927D01*
X119954Y219819D01*
X119491Y219509D01*
X107409Y207427D01*
X62591D01*
X41009Y229009D01*
X40546Y229319D01*
X40000Y229427D01*
X39750Y229378D01*
X39500Y229427D01*
X28738D01*
X28494Y230017D01*
X27853Y230853D01*
X27017Y231494D01*
X26044Y231897D01*
X25000Y232034D01*
D02*
G37*
G36*
X124000Y234144D02*
X123122Y233970D01*
X122378Y233473D01*
X121880Y232728D01*
X121706Y231850D01*
Y226000D01*
X121880Y225122D01*
X122242Y224580D01*
X121992Y224080D01*
X117008D01*
X116758Y224580D01*
X117120Y225122D01*
X117294Y226000D01*
Y231260D01*
X117120Y232138D01*
X116622Y232882D01*
X115878Y233379D01*
X115000Y233554D01*
X114122Y233379D01*
X113378Y232882D01*
X112881Y232138D01*
X112706Y231260D01*
Y226000D01*
X112881Y225122D01*
X113378Y224378D01*
X113499Y224297D01*
Y223695D01*
X113382Y223618D01*
X111476Y221711D01*
X111000Y221774D01*
X110282Y221679D01*
X109613Y221402D01*
X109039Y220961D01*
X108598Y220387D01*
X108321Y219718D01*
X108226Y219000D01*
X108321Y218282D01*
X108598Y217613D01*
X109039Y217039D01*
X109613Y216598D01*
X110282Y216321D01*
X111000Y216226D01*
X111718Y216321D01*
X112387Y216598D01*
X112961Y217039D01*
X113402Y217613D01*
X113679Y218282D01*
X113774Y219000D01*
X113711Y219476D01*
X115155Y220920D01*
X170345D01*
X171789Y219476D01*
X171726Y219000D01*
X171821Y218282D01*
X172098Y217613D01*
X172539Y217039D01*
X173113Y216598D01*
X173782Y216321D01*
X174500Y216226D01*
X175218Y216321D01*
X175887Y216598D01*
X176461Y217039D01*
X176902Y217613D01*
X177179Y218282D01*
X177274Y219000D01*
X177179Y219718D01*
X176902Y220387D01*
X176461Y220961D01*
X175887Y221402D01*
X175218Y221679D01*
X174500Y221774D01*
X174024Y221711D01*
X172117Y223618D01*
X171605Y223960D01*
X171000Y224080D01*
X126008D01*
X125758Y224580D01*
X126119Y225122D01*
X126294Y226000D01*
Y231850D01*
X126119Y232728D01*
X125622Y233473D01*
X124878Y233970D01*
X124000Y234144D01*
D02*
G37*
G36*
X227850Y206923D02*
X227133Y206829D01*
X226464Y206552D01*
X225889Y206111D01*
X225448Y205537D01*
X225171Y204868D01*
X225077Y204150D01*
X225171Y203432D01*
X225448Y202763D01*
X225889Y202188D01*
X226464Y201747D01*
X227133Y201470D01*
X227850Y201376D01*
X228568Y201470D01*
X229237Y201747D01*
X229812Y202188D01*
X230253Y202763D01*
X230530Y203432D01*
X230624Y204150D01*
X230530Y204868D01*
X230253Y205537D01*
X229812Y206111D01*
X229237Y206552D01*
X228568Y206829D01*
X227850Y206923D01*
D02*
G37*
G36*
X248000Y193774D02*
X247282Y193679D01*
X246613Y193402D01*
X246039Y192961D01*
X245598Y192387D01*
X245321Y191718D01*
X245226Y191000D01*
X245321Y190282D01*
X245598Y189613D01*
X246039Y189039D01*
X246613Y188598D01*
X247282Y188321D01*
X248000Y188226D01*
X248718Y188321D01*
X249387Y188598D01*
X249961Y189039D01*
X250402Y189613D01*
X250679Y190282D01*
X250774Y191000D01*
X250679Y191718D01*
X250402Y192387D01*
X249961Y192961D01*
X249387Y193402D01*
X248718Y193679D01*
X248000Y193774D01*
D02*
G37*
G36*
X192000Y193529D02*
X172172D01*
X171587Y193413D01*
X171090Y193081D01*
X170974Y192965D01*
X170965Y192963D01*
X170469Y192631D01*
X160366Y182529D01*
X138000D01*
X137415Y182413D01*
X136919Y182081D01*
X117919Y163081D01*
X117587Y162585D01*
X117471Y162000D01*
Y151793D01*
X117039Y151461D01*
X116598Y150887D01*
X116321Y150218D01*
X116226Y149500D01*
X116321Y148782D01*
X116598Y148113D01*
X116662Y148029D01*
X116416Y147529D01*
X107633D01*
X102081Y153081D01*
X101585Y153413D01*
X101000Y153529D01*
X68500D01*
X67915Y153413D01*
X67419Y153081D01*
X64867Y150529D01*
X18000D01*
X17415Y150413D01*
X16919Y150081D01*
X10919Y144081D01*
X10587Y143585D01*
X10471Y143000D01*
Y133500D01*
X10587Y132915D01*
X10919Y132419D01*
X15419Y127919D01*
X15915Y127587D01*
X16500Y127471D01*
X16929D01*
Y124653D01*
X25622D01*
Y133346D01*
X16929D01*
Y131387D01*
X16467Y131196D01*
X13529Y134134D01*
Y142367D01*
X18633Y147471D01*
X65500D01*
X66085Y147587D01*
X66581Y147919D01*
X69134Y150471D01*
X100366D01*
X105919Y144919D01*
X106415Y144587D01*
X107000Y144471D01*
X116881D01*
X117051Y143971D01*
X117039Y143961D01*
X116598Y143387D01*
X116321Y142718D01*
X116226Y142000D01*
X116321Y141282D01*
X116598Y140613D01*
X117039Y140039D01*
X117471Y139707D01*
Y125634D01*
X48919Y57081D01*
X48587Y56585D01*
X48471Y56000D01*
Y23696D01*
X47983Y23494D01*
X47147Y22853D01*
X46506Y22017D01*
X46103Y21044D01*
X45965Y20000D01*
X46103Y18956D01*
X46506Y17983D01*
X47147Y17147D01*
X47983Y16506D01*
X48956Y16103D01*
X50000Y15966D01*
X51044Y16103D01*
X52017Y16506D01*
X52853Y17147D01*
X53494Y17983D01*
X53897Y18956D01*
X54035Y20000D01*
X53897Y21044D01*
X53494Y22017D01*
X52853Y22853D01*
X52017Y23494D01*
X51529Y23696D01*
Y55366D01*
X58035Y61872D01*
X58496Y61626D01*
X58471Y61500D01*
Y33696D01*
X57983Y33494D01*
X57147Y32853D01*
X56506Y32017D01*
X56103Y31044D01*
X55966Y30000D01*
X56103Y28956D01*
X56506Y27983D01*
X57147Y27147D01*
X57983Y26506D01*
X58956Y26103D01*
X60000Y25965D01*
X61044Y26103D01*
X62017Y26506D01*
X62853Y27147D01*
X63494Y27983D01*
X63897Y28956D01*
X64034Y30000D01*
X63897Y31044D01*
X63494Y32017D01*
X62853Y32853D01*
X62017Y33494D01*
X61529Y33696D01*
Y60866D01*
X125581Y124919D01*
X125913Y125415D01*
X126029Y126000D01*
Y139707D01*
X126461Y140039D01*
X126902Y140613D01*
X127179Y141282D01*
X127274Y142000D01*
X127179Y142718D01*
X126902Y143387D01*
X126461Y143961D01*
X126449Y143971D01*
X126619Y144471D01*
X129881D01*
X130051Y143971D01*
X130039Y143961D01*
X129598Y143387D01*
X129321Y142718D01*
X129226Y142000D01*
X129321Y141282D01*
X129598Y140613D01*
X130039Y140039D01*
X130471Y139707D01*
Y128633D01*
X68919Y67081D01*
X68587Y66585D01*
X68471Y66000D01*
Y23696D01*
X67983Y23494D01*
X67147Y22853D01*
X66506Y22017D01*
X66103Y21044D01*
X65965Y20000D01*
X66103Y18956D01*
X66506Y17983D01*
X67147Y17147D01*
X67983Y16506D01*
X68956Y16103D01*
X70000Y15966D01*
X71044Y16103D01*
X72017Y16506D01*
X72853Y17147D01*
X73494Y17983D01*
X73897Y18956D01*
X74035Y20000D01*
X73897Y21044D01*
X73494Y22017D01*
X72853Y22853D01*
X72017Y23494D01*
X71529Y23696D01*
Y65367D01*
X78464Y72301D01*
X78852Y71982D01*
X78587Y71585D01*
X78471Y71000D01*
Y33696D01*
X77983Y33494D01*
X77147Y32853D01*
X76506Y32017D01*
X76103Y31044D01*
X75965Y30000D01*
X76103Y28956D01*
X76506Y27983D01*
X77147Y27147D01*
X77983Y26506D01*
X78956Y26103D01*
X80000Y25965D01*
X81044Y26103D01*
X82017Y26506D01*
X82853Y27147D01*
X83494Y27983D01*
X83897Y28956D01*
X84035Y30000D01*
X83897Y31044D01*
X83494Y32017D01*
X82853Y32853D01*
X82017Y33494D01*
X81529Y33696D01*
Y70367D01*
X142081Y130919D01*
X142413Y131415D01*
X142529Y132000D01*
Y139707D01*
X142961Y140039D01*
X143402Y140613D01*
X143679Y141282D01*
X143774Y142000D01*
X143679Y142718D01*
X143402Y143387D01*
X142961Y143961D01*
X142949Y143971D01*
X143119Y144471D01*
X149500D01*
X150085Y144587D01*
X150581Y144919D01*
X174134Y168471D01*
X188782D01*
X188900Y167996D01*
X188600Y167608D01*
X180579D01*
X179993Y167492D01*
X179497Y167160D01*
X88919Y76581D01*
X88587Y76085D01*
X88471Y75500D01*
Y23696D01*
X87983Y23494D01*
X87147Y22853D01*
X86506Y22017D01*
X86103Y21044D01*
X85966Y20000D01*
X86103Y18956D01*
X86506Y17983D01*
X87147Y17147D01*
X87983Y16506D01*
X88956Y16103D01*
X90000Y15966D01*
X91044Y16103D01*
X92017Y16506D01*
X92853Y17147D01*
X93494Y17983D01*
X93897Y18956D01*
X94034Y20000D01*
X93897Y21044D01*
X93494Y22017D01*
X92853Y22853D01*
X92017Y23494D01*
X91529Y23696D01*
Y74866D01*
X98035Y81372D01*
X98496Y81126D01*
X98471Y81000D01*
Y33696D01*
X97983Y33494D01*
X97147Y32853D01*
X96506Y32017D01*
X96103Y31044D01*
X95965Y30000D01*
X96103Y28956D01*
X96506Y27983D01*
X97147Y27147D01*
X97983Y26506D01*
X98956Y26103D01*
X100000Y25965D01*
X101044Y26103D01*
X102017Y26506D01*
X102853Y27147D01*
X103494Y27983D01*
X103897Y28956D01*
X104034Y30000D01*
X103897Y31044D01*
X103494Y32017D01*
X102853Y32853D01*
X102017Y33494D01*
X101529Y33696D01*
Y80366D01*
X113464Y92301D01*
X113852Y91982D01*
X113587Y91585D01*
X113471Y91000D01*
Y30000D01*
X113587Y29415D01*
X113919Y28919D01*
X128919Y13919D01*
X129415Y13587D01*
X130000Y13471D01*
X263546D01*
X264131Y13587D01*
X264627Y13919D01*
X277081Y26373D01*
X277413Y26869D01*
X277529Y27454D01*
Y29707D01*
X277961Y30039D01*
X278402Y30613D01*
X278679Y31282D01*
X278774Y32000D01*
X278679Y32718D01*
X278402Y33387D01*
X277961Y33961D01*
X277387Y34402D01*
X276718Y34679D01*
X276000Y34774D01*
X275590Y34720D01*
X275356Y35193D01*
X281731Y41568D01*
X282063Y42064D01*
X282179Y42650D01*
Y47111D01*
X282279Y47178D01*
X282778Y47925D01*
X282807Y48071D01*
X283272Y48221D01*
X283610Y47934D01*
Y44350D01*
X283766Y43570D01*
X284208Y42908D01*
X284558Y42558D01*
X285220Y42116D01*
X286000Y41961D01*
X286780Y42116D01*
X287442Y42558D01*
X287884Y43220D01*
X288039Y44000D01*
X287884Y44780D01*
X287689Y45072D01*
Y48807D01*
X287534Y49588D01*
X287091Y50249D01*
X286181Y51159D01*
X286327Y51638D01*
X286531Y51678D01*
X287279Y52178D01*
X287778Y52925D01*
X287895Y53510D01*
X288404D01*
X288521Y52925D01*
X289020Y52178D01*
X289768Y51678D01*
X290353Y51562D01*
Y51052D01*
X289768Y50936D01*
X289020Y50436D01*
X288521Y49689D01*
X288346Y48807D01*
X288521Y47925D01*
X289020Y47178D01*
X289120Y47111D01*
Y34850D01*
X289237Y34265D01*
X289568Y33769D01*
X301419Y21919D01*
X301492Y21870D01*
X301598Y21613D01*
X302039Y21039D01*
X302613Y20598D01*
X303282Y20321D01*
X304000Y20226D01*
X304718Y20321D01*
X305387Y20598D01*
X305961Y21039D01*
X306402Y21613D01*
X306679Y22282D01*
X306774Y23000D01*
X306679Y23718D01*
X306402Y24387D01*
X305961Y24961D01*
X305387Y25402D01*
X304718Y25679D01*
X304000Y25774D01*
X303282Y25679D01*
X302613Y25402D01*
X302414Y25249D01*
X292179Y35484D01*
Y47111D01*
X292279Y47178D01*
X292778Y47925D01*
X292895Y48510D01*
X293405D01*
X293521Y47925D01*
X293920Y47329D01*
Y39500D01*
X294040Y38895D01*
X294383Y38383D01*
X309383Y23382D01*
X309895Y23040D01*
X310500Y22920D01*
X432500D01*
X433105Y23040D01*
X433617Y23382D01*
X449024Y38789D01*
X449500Y38726D01*
X450218Y38821D01*
X450887Y39098D01*
X451461Y39539D01*
X451902Y40113D01*
X452179Y40782D01*
X452274Y41500D01*
X452179Y42218D01*
X451902Y42887D01*
X451461Y43461D01*
X450887Y43902D01*
X450218Y44179D01*
X449500Y44274D01*
X448782Y44179D01*
X448113Y43902D01*
X447539Y43461D01*
X447098Y42887D01*
X446821Y42218D01*
X446726Y41500D01*
X446789Y41024D01*
X431845Y26080D01*
X426051D01*
X425968Y26181D01*
X426065Y26847D01*
X426118Y26882D01*
X438024Y38789D01*
X438500Y38726D01*
X439218Y38821D01*
X439887Y39098D01*
X440461Y39539D01*
X440902Y40113D01*
X441179Y40782D01*
X441274Y41500D01*
X441179Y42218D01*
X440902Y42887D01*
X440461Y43461D01*
X439887Y43902D01*
X439218Y44179D01*
X438500Y44274D01*
X437782Y44179D01*
X437113Y43902D01*
X436539Y43461D01*
X436098Y42887D01*
X435821Y42218D01*
X435726Y41500D01*
X435789Y41024D01*
X424345Y29580D01*
X418469D01*
X418277Y30042D01*
X427024Y38789D01*
X427500Y38726D01*
X428218Y38821D01*
X428887Y39098D01*
X429461Y39539D01*
X429902Y40113D01*
X430179Y40782D01*
X430274Y41500D01*
X430179Y42218D01*
X429902Y42887D01*
X429461Y43461D01*
X428887Y43902D01*
X428218Y44179D01*
X427500Y44274D01*
X426782Y44179D01*
X426113Y43902D01*
X425539Y43461D01*
X425098Y42887D01*
X424821Y42218D01*
X424726Y41500D01*
X424789Y41024D01*
X415345Y31580D01*
X413397D01*
X413205Y32042D01*
X430081Y48919D01*
X430413Y49415D01*
X430529Y50000D01*
Y60207D01*
X430961Y60539D01*
X431402Y61113D01*
X431679Y61782D01*
X431774Y62500D01*
X431679Y63218D01*
X431402Y63887D01*
X430961Y64461D01*
X430387Y64902D01*
X430222Y64971D01*
X430321Y65471D01*
X431366D01*
X439419Y57419D01*
X439915Y57087D01*
X440500Y56971D01*
X451098D01*
X486373Y21696D01*
X486103Y21044D01*
X485965Y20000D01*
X486103Y18956D01*
X486506Y17983D01*
X487147Y17147D01*
X487983Y16506D01*
X488956Y16103D01*
X490000Y15966D01*
X491044Y16103D01*
X492017Y16506D01*
X492853Y17147D01*
X493494Y17983D01*
X493897Y18956D01*
X494034Y20000D01*
X493897Y21044D01*
X493494Y22017D01*
X492853Y22853D01*
X492017Y23494D01*
X491044Y23897D01*
X490000Y24035D01*
X488956Y23897D01*
X488632Y23763D01*
X452813Y59581D01*
X452317Y59913D01*
X451732Y60029D01*
X441133D01*
X433081Y68081D01*
X432585Y68413D01*
X432552Y68420D01*
X432601Y68920D01*
X436845D01*
X437789Y67976D01*
X437726Y67500D01*
X437821Y66782D01*
X438098Y66113D01*
X438539Y65539D01*
X439113Y65098D01*
X439782Y64821D01*
X440500Y64726D01*
X441218Y64821D01*
X441887Y65098D01*
X442461Y65539D01*
X442902Y66113D01*
X443179Y66782D01*
X443274Y67500D01*
X443179Y68218D01*
X442902Y68887D01*
X442461Y69461D01*
X441887Y69902D01*
X441218Y70179D01*
X440500Y70274D01*
X440024Y70211D01*
X438618Y71618D01*
X438105Y71960D01*
X438052Y71971D01*
X438101Y72471D01*
X445366D01*
X496305Y21532D01*
X496103Y21044D01*
X495965Y20000D01*
X496103Y18956D01*
X496506Y17983D01*
X497147Y17147D01*
X497983Y16506D01*
X498956Y16103D01*
X500000Y15966D01*
X501044Y16103D01*
X502017Y16506D01*
X502853Y17147D01*
X503494Y17983D01*
X503897Y18956D01*
X504035Y20000D01*
X503897Y21044D01*
X503494Y22017D01*
X502853Y22853D01*
X502017Y23494D01*
X501044Y23897D01*
X500000Y24035D01*
X498956Y23897D01*
X498468Y23695D01*
X447081Y75081D01*
X446585Y75413D01*
X446000Y75529D01*
X419500D01*
X418915Y75413D01*
X418419Y75081D01*
X410938Y67601D01*
X410514Y67884D01*
X410679Y68282D01*
X410774Y69000D01*
X410679Y69718D01*
X410402Y70387D01*
X410039Y70860D01*
Y71980D01*
X410968D01*
Y77720D01*
X405031D01*
Y76039D01*
X403854D01*
Y76524D01*
X396146D01*
Y72289D01*
X394395Y70539D01*
X388360D01*
X387887Y70902D01*
X387218Y71179D01*
X386500Y71274D01*
X385782Y71179D01*
X385113Y70902D01*
X385040Y70846D01*
X381665D01*
X381531Y70936D01*
X380650Y71111D01*
X379768Y70936D01*
X379020Y70436D01*
X378521Y69689D01*
X378345Y68807D01*
X378521Y67925D01*
X379020Y67178D01*
X379768Y66678D01*
X380650Y66503D01*
X381531Y66678D01*
X381665Y66768D01*
X384363D01*
X384539Y66539D01*
X385113Y66098D01*
X385782Y65821D01*
X386500Y65726D01*
X387218Y65821D01*
X387887Y66098D01*
X388360Y66461D01*
X395240D01*
X396021Y66616D01*
X396682Y67058D01*
X399620Y69996D01*
X403854D01*
Y71961D01*
X405961D01*
Y70860D01*
X405598Y70387D01*
X405321Y69718D01*
X405226Y69000D01*
X405321Y68282D01*
X405598Y67613D01*
X406039Y67039D01*
X406613Y66598D01*
X407282Y66321D01*
X408000Y66226D01*
X408718Y66321D01*
X409116Y66486D01*
X409399Y66062D01*
X405866Y62529D01*
X374796D01*
X374550Y63029D01*
X374701Y63227D01*
X374978Y63896D01*
X375073Y64614D01*
X374978Y65332D01*
X374701Y66001D01*
X374260Y66575D01*
X373686Y67016D01*
X373017Y67293D01*
X372815Y67320D01*
X372708Y67820D01*
X372778Y67925D01*
X372954Y68807D01*
X372778Y69689D01*
X372279Y70436D01*
X371531Y70936D01*
X370650Y71111D01*
X369768Y70936D01*
X369020Y70436D01*
X368521Y69689D01*
X368345Y68807D01*
X368521Y67925D01*
X368610Y67791D01*
Y66264D01*
X368766Y65483D01*
X369208Y64822D01*
X369542Y64487D01*
X369620Y63896D01*
X369897Y63227D01*
X370049Y63029D01*
X369802Y62529D01*
X365000D01*
X364900Y62510D01*
X364541Y62948D01*
X364679Y63282D01*
X364774Y64000D01*
X364679Y64718D01*
X364402Y65387D01*
X363961Y65961D01*
X363387Y66402D01*
X362718Y66679D01*
X362689Y66683D01*
Y67791D01*
X362778Y67925D01*
X362954Y68807D01*
X362778Y69689D01*
X362279Y70436D01*
X361531Y70936D01*
X360650Y71111D01*
X359768Y70936D01*
X359020Y70436D01*
X358521Y69689D01*
X358346Y68807D01*
X358521Y67925D01*
X358610Y67791D01*
Y64650D01*
X358766Y63869D01*
X359208Y63208D01*
X359453Y62962D01*
X359598Y62613D01*
X360039Y62039D01*
X360613Y61598D01*
X361282Y61321D01*
X362000Y61226D01*
X362410Y61280D01*
X362644Y60807D01*
X359568Y57731D01*
X359237Y57235D01*
X359120Y56650D01*
Y55503D01*
X359020Y55436D01*
X358521Y54689D01*
X358480Y54484D01*
X358002Y54339D01*
X357039Y55301D01*
Y58000D01*
X356884Y58780D01*
X356442Y59442D01*
X355780Y59884D01*
X355000Y60039D01*
X354220Y59884D01*
X353558Y59442D01*
X353116Y58780D01*
X352961Y58000D01*
Y55316D01*
X352461Y55164D01*
X352279Y55436D01*
X351531Y55936D01*
X351433Y55955D01*
X351256Y56423D01*
X351402Y56613D01*
X351679Y57282D01*
X351774Y58000D01*
X351679Y58718D01*
X351402Y59387D01*
X350961Y59961D01*
X350387Y60402D01*
X349718Y60679D01*
X349000Y60774D01*
X348282Y60679D01*
X347613Y60402D01*
X347039Y59961D01*
X346598Y59387D01*
X346321Y58718D01*
X346266Y58298D01*
X346252Y58197D01*
X345748D01*
X345735Y58298D01*
X345679Y58718D01*
X345402Y59387D01*
X344961Y59961D01*
X344387Y60402D01*
X343718Y60679D01*
X343000Y60774D01*
X342282Y60679D01*
X341613Y60402D01*
X341039Y59961D01*
X340598Y59387D01*
X340321Y58718D01*
X340226Y58000D01*
X340321Y57282D01*
X340598Y56613D01*
X340821Y56322D01*
X340739Y56095D01*
X340568Y55830D01*
X339869Y55691D01*
X339208Y55249D01*
X338766Y54588D01*
X338610Y53807D01*
X338766Y53027D01*
X339208Y52365D01*
X340118Y51455D01*
X339973Y50977D01*
X339768Y50936D01*
X339020Y50436D01*
X338521Y49689D01*
X338404Y49104D01*
X337895D01*
X337778Y49689D01*
X337279Y50436D01*
X336531Y50936D01*
X335946Y51052D01*
Y51562D01*
X336531Y51678D01*
X337279Y52178D01*
X337778Y52925D01*
X337954Y53807D01*
X337778Y54689D01*
X337279Y55436D01*
X336531Y55936D01*
X336081Y56025D01*
X335874Y56576D01*
X335902Y56613D01*
X336179Y57282D01*
X336274Y58000D01*
X336179Y58718D01*
X335902Y59387D01*
X335461Y59961D01*
X334887Y60402D01*
X334218Y60679D01*
X333500Y60774D01*
X332782Y60679D01*
X332113Y60402D01*
X331539Y59961D01*
X331098Y59387D01*
X330821Y58718D01*
X330726Y58000D01*
X330821Y57282D01*
X331098Y56613D01*
X331183Y56503D01*
X330767Y56088D01*
X330650Y56111D01*
X329768Y55936D01*
X329020Y55436D01*
X328521Y54689D01*
X328480Y54484D01*
X328002Y54339D01*
X327092Y55249D01*
X326430Y55691D01*
X325650Y55846D01*
X325407Y55798D01*
X325125Y56252D01*
X325402Y56613D01*
X325679Y57282D01*
X325774Y58000D01*
X325679Y58718D01*
X325402Y59387D01*
X324961Y59961D01*
X324387Y60402D01*
X323718Y60679D01*
X323000Y60774D01*
X322282Y60679D01*
X321613Y60402D01*
X321039Y59961D01*
X320598Y59387D01*
X320321Y58718D01*
X320226Y58000D01*
X320297Y57460D01*
X319568Y56731D01*
X319237Y56235D01*
X319120Y55650D01*
Y55503D01*
X319020Y55436D01*
X318521Y54689D01*
X318405Y54104D01*
X317895D01*
X317778Y54689D01*
X317279Y55436D01*
X317144Y55527D01*
X317063Y55936D01*
X316731Y56432D01*
X315703Y57460D01*
X315774Y58000D01*
X315679Y58718D01*
X315402Y59387D01*
X314961Y59961D01*
X314387Y60402D01*
X313718Y60679D01*
X313000Y60774D01*
X312282Y60679D01*
X311613Y60402D01*
X311039Y59961D01*
X310598Y59387D01*
X310321Y58718D01*
X310226Y58000D01*
X310321Y57282D01*
X310598Y56613D01*
X310821Y56322D01*
X310739Y56095D01*
X310568Y55830D01*
X309869Y55691D01*
X309208Y55249D01*
X308766Y54588D01*
X308610Y53807D01*
X308766Y53027D01*
X309208Y52365D01*
X310118Y51455D01*
X309973Y50977D01*
X309768Y50936D01*
X309020Y50436D01*
X308521Y49689D01*
X308404Y49104D01*
X307895D01*
X307778Y49689D01*
X307279Y50436D01*
X306531Y50936D01*
X305946Y51052D01*
Y51562D01*
X306531Y51678D01*
X307279Y52178D01*
X307778Y52925D01*
X307954Y53807D01*
X307778Y54689D01*
X307279Y55436D01*
X307179Y55503D01*
Y56322D01*
X307402Y56613D01*
X307679Y57282D01*
X307774Y58000D01*
X307679Y58718D01*
X307402Y59387D01*
X306961Y59961D01*
X306387Y60402D01*
X305718Y60679D01*
X305000Y60774D01*
X304282Y60679D01*
X303613Y60402D01*
X303039Y59961D01*
X302598Y59387D01*
X302321Y58718D01*
X302226Y58000D01*
X302321Y57282D01*
X302598Y56613D01*
X303039Y56039D01*
X303613Y55598D01*
X303653Y55582D01*
X303798Y55103D01*
X303521Y54689D01*
X303404Y54104D01*
X302895D01*
X302778Y54689D01*
X302279Y55436D01*
X302179Y55503D01*
Y55850D01*
X302063Y56436D01*
X301731Y56932D01*
X301203Y57460D01*
X301274Y58000D01*
X301179Y58718D01*
X300902Y59387D01*
X300461Y59961D01*
X299887Y60402D01*
X299218Y60679D01*
X298500Y60774D01*
X297782Y60679D01*
X297113Y60402D01*
X296539Y59961D01*
X296098Y59387D01*
X296021Y59200D01*
X295479D01*
X295402Y59387D01*
X294961Y59961D01*
X294387Y60402D01*
X293718Y60679D01*
X293000Y60774D01*
X292282Y60679D01*
X291613Y60402D01*
X291039Y59961D01*
X290598Y59387D01*
X290321Y58718D01*
X290226Y58000D01*
X290314Y57333D01*
X289640Y56659D01*
X289331Y56196D01*
X289222Y55650D01*
X289222Y55650D01*
Y55571D01*
X289020Y55436D01*
X288521Y54689D01*
X288404Y54104D01*
X287895D01*
X287778Y54689D01*
X287279Y55436D01*
X287026Y55605D01*
X286968Y55897D01*
X286659Y56360D01*
X286659Y56360D01*
X285686Y57333D01*
X285774Y58000D01*
X285679Y58718D01*
X285402Y59387D01*
X284961Y59961D01*
X284387Y60402D01*
X283718Y60679D01*
X283000Y60774D01*
X282282Y60679D01*
X281613Y60402D01*
X281039Y59961D01*
X280598Y59387D01*
X280321Y58718D01*
X280226Y58000D01*
X280321Y57282D01*
X280598Y56613D01*
X280821Y56322D01*
X280739Y56095D01*
X280569Y55830D01*
X279869Y55691D01*
X279208Y55249D01*
X278766Y54588D01*
X278610Y53807D01*
X278766Y53027D01*
X279208Y52365D01*
X280118Y51455D01*
X279973Y50977D01*
X279768Y50936D01*
X279020Y50436D01*
X278521Y49689D01*
X278404Y49104D01*
X277895D01*
X277778Y49689D01*
X277279Y50436D01*
X276531Y50936D01*
X275946Y51052D01*
Y51562D01*
X276531Y51678D01*
X277279Y52178D01*
X277778Y52925D01*
X277954Y53807D01*
X277778Y54689D01*
X277279Y55436D01*
X276531Y55936D01*
X275650Y56111D01*
X275647Y56111D01*
X275365Y56564D01*
X275402Y56613D01*
X275679Y57282D01*
X275774Y58000D01*
X275679Y58718D01*
X275402Y59387D01*
X274961Y59961D01*
X274387Y60402D01*
X273718Y60679D01*
X273000Y60774D01*
X272282Y60679D01*
X271613Y60402D01*
X271039Y59961D01*
X270598Y59387D01*
X270321Y58718D01*
X270226Y58000D01*
X270297Y57460D01*
X269568Y56731D01*
X269237Y56235D01*
X269120Y55650D01*
Y55503D01*
X269020Y55436D01*
X268521Y54689D01*
X268480Y54484D01*
X268002Y54339D01*
X267091Y55249D01*
X266430Y55691D01*
X265650Y55846D01*
X264869Y55691D01*
X264208Y55249D01*
X263766Y54588D01*
X263610Y53807D01*
X263766Y53027D01*
X264208Y52365D01*
X265118Y51455D01*
X264973Y50977D01*
X264768Y50936D01*
X264020Y50436D01*
X263521Y49689D01*
X263404Y49104D01*
X262895D01*
X262778Y49689D01*
X262279Y50436D01*
X261531Y50936D01*
X260946Y51052D01*
Y51562D01*
X261531Y51678D01*
X262279Y52178D01*
X262778Y52925D01*
X262954Y53807D01*
X262778Y54689D01*
X262279Y55436D01*
X262179Y55503D01*
Y56707D01*
X262611Y57039D01*
X263052Y57613D01*
X263329Y58282D01*
X263423Y59000D01*
X263329Y59718D01*
X263052Y60387D01*
X262611Y60961D01*
X262036Y61402D01*
X261368Y61679D01*
X260650Y61774D01*
X259932Y61679D01*
X259263Y61402D01*
X258688Y60961D01*
X258247Y60387D01*
X258190Y60249D01*
X258060Y60197D01*
X257626Y60193D01*
X257286Y60637D01*
X256712Y61077D01*
X256043Y61354D01*
X255325Y61449D01*
X254607Y61354D01*
X253938Y61077D01*
X253363Y60637D01*
X252923Y60062D01*
X252646Y59393D01*
X252551Y58675D01*
X252646Y57957D01*
X252923Y57288D01*
X253363Y56714D01*
X253938Y56273D01*
X254120Y56198D01*
Y55503D01*
X254020Y55436D01*
X253521Y54689D01*
X253480Y54484D01*
X253002Y54339D01*
X252092Y55249D01*
X251430Y55691D01*
X250650Y55846D01*
X249869Y55691D01*
X249208Y55249D01*
X248766Y54588D01*
X248610Y53807D01*
X248766Y53027D01*
X249208Y52365D01*
X250118Y51455D01*
X249973Y50977D01*
X249768Y50936D01*
X249020Y50436D01*
X248521Y49689D01*
X248405Y49104D01*
X247895D01*
X247778Y49689D01*
X247279Y50436D01*
X246531Y50936D01*
X245946Y51052D01*
Y51562D01*
X246531Y51678D01*
X247279Y52178D01*
X247778Y52925D01*
X247954Y53807D01*
X247778Y54689D01*
X247279Y55436D01*
X247144Y55527D01*
X247063Y55936D01*
X246731Y56432D01*
X242304Y60859D01*
X242452Y61418D01*
X242887Y61598D01*
X243461Y62039D01*
X243902Y62613D01*
X244179Y63282D01*
X244274Y64000D01*
X244179Y64718D01*
X243902Y65387D01*
X243461Y65961D01*
X242887Y66402D01*
X242269Y66658D01*
X242245Y66913D01*
X242276Y67176D01*
X242279Y67178D01*
X242778Y67925D01*
X242954Y68807D01*
X242778Y69689D01*
X242279Y70436D01*
X241531Y70936D01*
X240650Y71111D01*
X239768Y70936D01*
X239020Y70436D01*
X238521Y69689D01*
X238404Y69104D01*
X237895D01*
X237778Y69689D01*
X237279Y70436D01*
X236531Y70936D01*
X235946Y71052D01*
Y71562D01*
X236531Y71678D01*
X237279Y72178D01*
X237778Y72925D01*
X237954Y73807D01*
X237778Y74689D01*
X237279Y75436D01*
X237179Y75503D01*
Y77350D01*
X237063Y77936D01*
X236731Y78432D01*
X225081Y90081D01*
X224585Y90413D01*
X224000Y90529D01*
X212293D01*
X211961Y90961D01*
X211387Y91402D01*
X210718Y91679D01*
X210000Y91774D01*
X209282Y91679D01*
X208613Y91402D01*
X208039Y90961D01*
X207598Y90387D01*
X207321Y89718D01*
X207226Y89000D01*
X207321Y88282D01*
X207598Y87613D01*
X208039Y87039D01*
X208051Y87029D01*
X207881Y86529D01*
X207293D01*
X206961Y86961D01*
X206387Y87402D01*
X205718Y87679D01*
X205000Y87774D01*
X204282Y87679D01*
X203613Y87402D01*
X203039Y86961D01*
X202598Y86387D01*
X202321Y85718D01*
X202226Y85000D01*
X202321Y84282D01*
X202598Y83613D01*
X203039Y83039D01*
X203613Y82598D01*
X204282Y82321D01*
X205000Y82226D01*
X205718Y82321D01*
X206387Y82598D01*
X206961Y83039D01*
X207293Y83471D01*
X221367D01*
X228906Y75931D01*
X229020Y75436D01*
X228521Y74689D01*
X228480Y74484D01*
X228002Y74339D01*
X227092Y75249D01*
X226430Y75691D01*
X225650Y75846D01*
X222689D01*
Y77350D01*
X222534Y78131D01*
X222092Y78792D01*
X221442Y79442D01*
X220780Y79884D01*
X220000Y80039D01*
X219220Y79884D01*
X218558Y79442D01*
X218116Y78780D01*
X217961Y78000D01*
X218116Y77220D01*
X218558Y76558D01*
X218610Y76506D01*
Y74680D01*
X218272Y74393D01*
X217807Y74543D01*
X217778Y74689D01*
X217279Y75436D01*
X216531Y75936D01*
X215650Y76111D01*
X214768Y75936D01*
X214020Y75436D01*
X213521Y74689D01*
X213404Y74104D01*
X212895D01*
X212778Y74689D01*
X212279Y75436D01*
X211531Y75936D01*
X210650Y76111D01*
X209768Y75936D01*
X209020Y75436D01*
X208521Y74689D01*
X208480Y74484D01*
X208002Y74339D01*
X207091Y75249D01*
X206430Y75691D01*
X205650Y75846D01*
X203683D01*
X203491Y76308D01*
X203741Y76558D01*
X204183Y77220D01*
X204338Y78000D01*
X204183Y78780D01*
X203741Y79442D01*
X203080Y79884D01*
X202299Y80039D01*
X201519Y79884D01*
X200857Y79442D01*
X199208Y77792D01*
X198766Y77131D01*
X198610Y76350D01*
Y73807D01*
X198766Y73027D01*
X199208Y72365D01*
X199869Y71923D01*
X200650Y71768D01*
X204777D01*
X205064Y71429D01*
X204913Y70965D01*
X204768Y70936D01*
X204020Y70436D01*
X203521Y69689D01*
X203404Y69104D01*
X202895D01*
X202778Y69689D01*
X202279Y70436D01*
X201531Y70936D01*
X200650Y71111D01*
X199768Y70936D01*
X199020Y70436D01*
X198521Y69689D01*
X198345Y68807D01*
X198521Y67925D01*
X199020Y67178D01*
X199242Y67029D01*
X199091Y66529D01*
X187208D01*
X187057Y67029D01*
X187279Y67178D01*
X187778Y67925D01*
X187954Y68807D01*
X187778Y69689D01*
X187279Y70436D01*
X186531Y70936D01*
X185650Y71111D01*
X184768Y70936D01*
X184020Y70436D01*
X183521Y69689D01*
X183345Y68807D01*
X183416Y68454D01*
X182955Y68208D01*
X174529Y76634D01*
Y90367D01*
X178081Y93919D01*
X178413Y94415D01*
X178529Y95000D01*
Y98707D01*
X178961Y99039D01*
X179402Y99613D01*
X179679Y100282D01*
X179774Y101000D01*
X179679Y101718D01*
X179402Y102387D01*
X178961Y102961D01*
X178387Y103402D01*
X177718Y103679D01*
X177000Y103774D01*
X176282Y103679D01*
X175613Y103402D01*
X175039Y102961D01*
X174598Y102387D01*
X174321Y101718D01*
X174226Y101000D01*
X174321Y100282D01*
X174598Y99613D01*
X175039Y99039D01*
X175471Y98707D01*
Y95634D01*
X171919Y92081D01*
X171587Y91585D01*
X171471Y91000D01*
Y77346D01*
X171009Y77154D01*
X170529Y77634D01*
Y98707D01*
X170961Y99039D01*
X171402Y99613D01*
X171679Y100282D01*
X171774Y101000D01*
X171679Y101718D01*
X171402Y102387D01*
X170961Y102961D01*
X170387Y103402D01*
X169718Y103679D01*
X169000Y103774D01*
X168282Y103679D01*
X167613Y103402D01*
X167039Y102961D01*
X166598Y102387D01*
X166321Y101718D01*
X166226Y101000D01*
X166321Y100282D01*
X166598Y99613D01*
X167039Y99039D01*
X167471Y98707D01*
Y77000D01*
X167587Y76415D01*
X167919Y75919D01*
X178021Y65816D01*
X177738Y65392D01*
X177251Y65594D01*
X176102Y65745D01*
X174954Y65594D01*
X173883Y65150D01*
X172964Y64445D01*
X172259Y63526D01*
X171816Y62456D01*
X171664Y61307D01*
X171816Y60158D01*
X172259Y59088D01*
X172964Y58169D01*
X173883Y57464D01*
X174954Y57020D01*
X176102Y56869D01*
X177251Y57020D01*
X178321Y57464D01*
X179241Y58169D01*
X179946Y59088D01*
X180389Y60158D01*
X180540Y61307D01*
X180389Y62456D01*
X180187Y62942D01*
X180611Y63226D01*
X181919Y61919D01*
X182415Y61587D01*
X183000Y61471D01*
X184606D01*
X184655Y60971D01*
X184220Y60884D01*
X183558Y60442D01*
X183116Y59780D01*
X182961Y59000D01*
X183116Y58220D01*
X183558Y57558D01*
X183610Y57506D01*
Y53807D01*
X183766Y53027D01*
X184208Y52365D01*
X184869Y51923D01*
X185650Y51768D01*
X186430Y51923D01*
X187092Y52365D01*
X187534Y53027D01*
X187689Y53807D01*
Y58350D01*
X187534Y59131D01*
X187092Y59792D01*
X186442Y60442D01*
X185780Y60884D01*
X185345Y60971D01*
X185394Y61471D01*
X188881D01*
X189051Y60971D01*
X189039Y60961D01*
X188598Y60387D01*
X188321Y59718D01*
X188226Y59000D01*
X188321Y58282D01*
X188598Y57613D01*
X189039Y57039D01*
X189471Y56707D01*
Y55737D01*
X189020Y55436D01*
X188521Y54689D01*
X188346Y53807D01*
X188521Y52925D01*
X189020Y52178D01*
X189768Y51678D01*
X190353Y51562D01*
Y51052D01*
X189768Y50936D01*
X189020Y50436D01*
X188521Y49689D01*
X188405Y49104D01*
X187895D01*
X187778Y49689D01*
X187279Y50436D01*
X186531Y50936D01*
X185650Y51111D01*
X184768Y50936D01*
X184020Y50436D01*
X183521Y49689D01*
X183345Y48807D01*
X183521Y47925D01*
X184020Y47178D01*
X184238Y47032D01*
X184096Y46587D01*
X183626Y46537D01*
X164529Y65633D01*
Y96707D01*
X164961Y97039D01*
X165402Y97613D01*
X165679Y98282D01*
X165774Y99000D01*
X165679Y99718D01*
X165402Y100387D01*
X164961Y100961D01*
X164387Y101402D01*
X163718Y101679D01*
X163000Y101774D01*
X162590Y101720D01*
X162356Y102193D01*
X163460Y103297D01*
X164000Y103226D01*
X164718Y103321D01*
X165387Y103598D01*
X165961Y104039D01*
X166402Y104613D01*
X166679Y105282D01*
X166774Y106000D01*
X166679Y106718D01*
X166402Y107387D01*
X165961Y107961D01*
X165387Y108402D01*
X164732Y108674D01*
X164681Y108790D01*
X164552Y109172D01*
X164790Y109471D01*
X205707D01*
X206039Y109039D01*
X206613Y108598D01*
X207282Y108321D01*
X208000Y108226D01*
X208718Y108321D01*
X209387Y108598D01*
X209961Y109039D01*
X210293Y109471D01*
X215079D01*
Y108228D01*
X226921D01*
Y109420D01*
X233746D01*
X234039Y109039D01*
X234613Y108598D01*
X235282Y108321D01*
X236000Y108226D01*
X236718Y108321D01*
X237387Y108598D01*
X237961Y109039D01*
X238402Y109613D01*
X238679Y110282D01*
X238710Y110520D01*
X257674D01*
X257813Y110271D01*
X257857Y110020D01*
X249919Y102081D01*
X249587Y101585D01*
X249471Y101000D01*
Y75737D01*
X249020Y75436D01*
X248539Y74716D01*
X248502Y74710D01*
X248039Y74937D01*
Y80000D01*
X247884Y80780D01*
X247442Y81442D01*
X246780Y81884D01*
X246000Y82039D01*
X245220Y81884D01*
X244558Y81442D01*
X244116Y80780D01*
X243961Y80000D01*
Y75846D01*
X240650D01*
X239869Y75691D01*
X239208Y75249D01*
X238766Y74588D01*
X238610Y73807D01*
X238766Y73027D01*
X239208Y72365D01*
X239869Y71923D01*
X240650Y71768D01*
X243610D01*
Y68807D01*
X243766Y68027D01*
X244208Y67365D01*
X244869Y66923D01*
X245650Y66768D01*
X246430Y66923D01*
X247092Y67365D01*
X247534Y68027D01*
X247689Y68807D01*
Y73059D01*
X247932Y73422D01*
X248424Y73412D01*
X248521Y72925D01*
X249020Y72178D01*
X249768Y71678D01*
X250353Y71562D01*
Y71052D01*
X249768Y70936D01*
X249020Y70436D01*
X248521Y69689D01*
X248345Y68807D01*
X248521Y67925D01*
X249020Y67178D01*
X249120Y67111D01*
Y65350D01*
X249237Y64765D01*
X249312Y64652D01*
X249226Y64000D01*
X249321Y63282D01*
X249598Y62613D01*
X250039Y62039D01*
X250613Y61598D01*
X251282Y61321D01*
X252000Y61226D01*
X252718Y61321D01*
X253387Y61598D01*
X253961Y62039D01*
X254402Y62613D01*
X254679Y63282D01*
X254774Y64000D01*
X254679Y64718D01*
X254402Y65387D01*
X253961Y65961D01*
X253387Y66402D01*
X252718Y66679D01*
X252480Y66711D01*
X252375Y66955D01*
X252318Y67236D01*
X252778Y67925D01*
X252895Y68510D01*
X253404D01*
X253521Y67925D01*
X254020Y67178D01*
X254768Y66678D01*
X255650Y66503D01*
X256531Y66678D01*
X257279Y67178D01*
X257778Y67925D01*
X257954Y68807D01*
X257778Y69689D01*
X257279Y70436D01*
X256531Y70936D01*
X255946Y71052D01*
Y71562D01*
X256531Y71678D01*
X257279Y72178D01*
X257778Y72925D01*
X257954Y73807D01*
X257778Y74689D01*
X257279Y75436D01*
X257029Y75603D01*
Y94867D01*
X260460Y98297D01*
X261000Y98226D01*
X261718Y98321D01*
X262387Y98598D01*
X262961Y99039D01*
X263402Y99613D01*
X263679Y100282D01*
X263774Y101000D01*
X263679Y101718D01*
X263402Y102387D01*
X262961Y102961D01*
X262387Y103402D01*
X261718Y103679D01*
X261000Y103774D01*
X260282Y103679D01*
X259613Y103402D01*
X259039Y102961D01*
X258598Y102387D01*
X258321Y101718D01*
X258226Y101000D01*
X258297Y100460D01*
X254419Y96581D01*
X254087Y96085D01*
X253971Y95500D01*
Y75362D01*
X253521Y74689D01*
X253404Y74104D01*
X252895D01*
X252778Y74689D01*
X252529Y75061D01*
Y100366D01*
X259131Y106968D01*
X259613Y106598D01*
X260282Y106321D01*
X261000Y106226D01*
X261718Y106321D01*
X262387Y106598D01*
X262961Y107039D01*
X263402Y107613D01*
X263679Y108282D01*
X263774Y109000D01*
X263679Y109718D01*
X263554Y110020D01*
X263888Y110520D01*
X283245D01*
X306426Y87339D01*
X306939Y86997D01*
X307543Y86876D01*
X315345D01*
X328357Y73865D01*
X328345Y73807D01*
X328521Y72925D01*
X329020Y72178D01*
X329768Y71678D01*
X330353Y71562D01*
Y71052D01*
X329768Y70936D01*
X329020Y70436D01*
X328521Y69689D01*
X328404Y69104D01*
X327895D01*
X327778Y69689D01*
X327279Y70436D01*
X326531Y70936D01*
X325650Y71111D01*
X324768Y70936D01*
X324020Y70436D01*
X323521Y69689D01*
X323345Y68807D01*
X323521Y67925D01*
X324020Y67178D01*
X324768Y66678D01*
X325650Y66503D01*
X326531Y66678D01*
X327279Y67178D01*
X327778Y67925D01*
X327895Y68510D01*
X328404D01*
X328521Y67925D01*
X329020Y67178D01*
X329768Y66678D01*
X330650Y66503D01*
X331531Y66678D01*
X332279Y67178D01*
X332778Y67925D01*
X332895Y68510D01*
X333404D01*
X333521Y67925D01*
X334020Y67178D01*
X334768Y66678D01*
X335650Y66503D01*
X336531Y66678D01*
X337279Y67178D01*
X337778Y67925D01*
X337895Y68510D01*
X338404D01*
X338521Y67925D01*
X339020Y67178D01*
X339768Y66678D01*
X340650Y66503D01*
X341531Y66678D01*
X342279Y67178D01*
X342778Y67925D01*
X342895Y68510D01*
X343405D01*
X343521Y67925D01*
X344020Y67178D01*
X344768Y66678D01*
X345650Y66503D01*
X346531Y66678D01*
X347279Y67178D01*
X347778Y67925D01*
X347895Y68510D01*
X348405D01*
X348521Y67925D01*
X349020Y67178D01*
X349768Y66678D01*
X350650Y66503D01*
X351531Y66678D01*
X352279Y67178D01*
X352778Y67925D01*
X352954Y68807D01*
X352778Y69689D01*
X352279Y70436D01*
X351531Y70936D01*
X350650Y71111D01*
X349768Y70936D01*
X349020Y70436D01*
X348521Y69689D01*
X348405Y69104D01*
X347895D01*
X347778Y69689D01*
X347279Y70436D01*
X346531Y70936D01*
X345650Y71111D01*
X344768Y70936D01*
X344020Y70436D01*
X343521Y69689D01*
X343405Y69104D01*
X342895D01*
X342778Y69689D01*
X342279Y70436D01*
X341531Y70936D01*
X340650Y71111D01*
X339768Y70936D01*
X339020Y70436D01*
X338521Y69689D01*
X338404Y69104D01*
X337895D01*
X337778Y69689D01*
X337279Y70436D01*
X336531Y70936D01*
X335946Y71052D01*
Y71562D01*
X336531Y71678D01*
X337279Y72178D01*
X337778Y72925D01*
X337954Y73807D01*
X337778Y74689D01*
X337279Y75436D01*
X336531Y75936D01*
X336242Y75994D01*
X320117Y92118D01*
X319605Y92460D01*
X319000Y92580D01*
X310655D01*
X285118Y118117D01*
X284605Y118460D01*
X284000Y118580D01*
X234254D01*
X233961Y118961D01*
X233949Y118971D01*
X234119Y119471D01*
X278000D01*
X278585Y119587D01*
X279081Y119919D01*
X280460Y121297D01*
X281000Y121226D01*
X281718Y121321D01*
X282387Y121598D01*
X282961Y122039D01*
X283402Y122613D01*
X283679Y123282D01*
X283774Y124000D01*
X283679Y124718D01*
X283402Y125387D01*
X282961Y125961D01*
X282660Y126193D01*
Y126807D01*
X282961Y127039D01*
X283402Y127613D01*
X283679Y128282D01*
X283774Y129000D01*
X283679Y129718D01*
X283402Y130387D01*
X283330Y130480D01*
X283434Y130980D01*
X283968D01*
Y136721D01*
X278031D01*
Y130980D01*
X278566D01*
X278670Y130480D01*
X278598Y130387D01*
X278321Y129718D01*
X278301Y129569D01*
X277773Y129390D01*
X265482Y141681D01*
Y143228D01*
X266921D01*
Y148772D01*
X255079D01*
Y148060D01*
X249346D01*
Y150622D01*
X240653D01*
Y141929D01*
X249346D01*
Y144491D01*
X255079D01*
Y143228D01*
X262423D01*
Y141047D01*
X262540Y140462D01*
X262871Y139966D01*
X278297Y124540D01*
X278226Y124000D01*
X278297Y123460D01*
X277366Y122529D01*
X216634D01*
X189687Y149476D01*
X189758Y150016D01*
X189664Y150734D01*
X189386Y151403D01*
X188946Y151977D01*
X188371Y152418D01*
X187702Y152695D01*
X186984Y152789D01*
X186266Y152695D01*
X185597Y152418D01*
X185023Y151977D01*
X184582Y151403D01*
X184305Y150734D01*
X184211Y150016D01*
X184305Y149298D01*
X184582Y148629D01*
X185023Y148054D01*
X185597Y147614D01*
X186266Y147336D01*
X186984Y147242D01*
X187524Y147313D01*
X214919Y119919D01*
X215415Y119587D01*
X216000Y119471D01*
X229881D01*
X230051Y118971D01*
X230039Y118961D01*
X229746Y118580D01*
X207655D01*
X203117Y123117D01*
X202605Y123460D01*
X202000Y123580D01*
X200921D01*
Y124772D01*
X189079D01*
Y123529D01*
X184293D01*
X183961Y123961D01*
X183387Y124402D01*
X182718Y124679D01*
X182000Y124774D01*
X181282Y124679D01*
X180613Y124402D01*
X180039Y123961D01*
X179707Y123529D01*
X163000D01*
X162415Y123413D01*
X161919Y123081D01*
X141098Y102261D01*
X141000Y102274D01*
X140282Y102179D01*
X139884Y102015D01*
X139601Y102438D01*
X166633Y129471D01*
X177366D01*
X177919Y128919D01*
X178415Y128587D01*
X178847Y128501D01*
X179282Y128321D01*
X180000Y128226D01*
X180718Y128321D01*
X181387Y128598D01*
X181961Y129039D01*
X182402Y129613D01*
X182679Y130282D01*
X182774Y131000D01*
X182679Y131718D01*
X182402Y132387D01*
X181961Y132961D01*
X181387Y133402D01*
X180718Y133679D01*
X180000Y133774D01*
X179282Y133679D01*
X178613Y133402D01*
X178039Y132961D01*
X177707Y132529D01*
X166000D01*
X165415Y132413D01*
X165018Y132148D01*
X164699Y132536D01*
X167633Y135471D01*
X181707D01*
X182039Y135039D01*
X182613Y134598D01*
X183282Y134321D01*
X184000Y134226D01*
X184718Y134321D01*
X185387Y134598D01*
X185961Y135039D01*
X186402Y135613D01*
X186679Y136282D01*
X186774Y137000D01*
X186679Y137718D01*
X186402Y138387D01*
X185961Y138961D01*
X185387Y139402D01*
X184718Y139679D01*
X184000Y139774D01*
X183282Y139679D01*
X182613Y139402D01*
X182039Y138961D01*
X181707Y138529D01*
X167000D01*
X166415Y138413D01*
X165919Y138081D01*
X117419Y89581D01*
X117087Y89085D01*
X117029Y88796D01*
X116529Y88845D01*
Y90367D01*
X168633Y142471D01*
X182707D01*
X183039Y142039D01*
X183613Y141598D01*
X184282Y141321D01*
X185000Y141226D01*
X185718Y141321D01*
X186387Y141598D01*
X186961Y142039D01*
X187402Y142613D01*
X187679Y143282D01*
X187774Y144000D01*
X187679Y144718D01*
X187402Y145387D01*
X186961Y145961D01*
X186387Y146402D01*
X185718Y146679D01*
X185000Y146774D01*
X184282Y146679D01*
X183613Y146402D01*
X183039Y145961D01*
X182707Y145529D01*
X168000D01*
X167415Y145413D01*
X167018Y145148D01*
X166699Y145536D01*
X177634Y156471D01*
X186707D01*
X187039Y156039D01*
X187613Y155598D01*
X188282Y155321D01*
X189000Y155226D01*
X189718Y155321D01*
X190387Y155598D01*
X190961Y156039D01*
X191402Y156613D01*
X191679Y157282D01*
X191774Y158000D01*
X191679Y158718D01*
X191402Y159387D01*
X190961Y159961D01*
X190387Y160402D01*
X189718Y160679D01*
X189000Y160774D01*
X188282Y160679D01*
X187613Y160402D01*
X187039Y159961D01*
X186707Y159529D01*
X177000D01*
X176874Y159504D01*
X176628Y159965D01*
X181212Y164549D01*
X188628D01*
X188960Y164117D01*
X189534Y163677D01*
X190203Y163400D01*
X190921Y163305D01*
X191639Y163400D01*
X192308Y163677D01*
X192883Y164117D01*
X193323Y164692D01*
X193600Y165361D01*
X193695Y166079D01*
X193600Y166797D01*
X193323Y167466D01*
X192936Y167971D01*
X193061Y168471D01*
X220091D01*
X230654Y157908D01*
Y151378D01*
X239347D01*
Y160071D01*
X236529D01*
Y160707D01*
X236961Y161039D01*
X237402Y161613D01*
X237679Y162282D01*
X237774Y163000D01*
X237679Y163718D01*
X237592Y163929D01*
X239633Y165971D01*
X249366D01*
X252471Y162866D01*
Y158000D01*
X252587Y157415D01*
X252919Y156919D01*
X258419Y151419D01*
X258915Y151087D01*
X259500Y150971D01*
X273707D01*
X274039Y150539D01*
X274613Y150098D01*
X275282Y149821D01*
X276000Y149726D01*
X276718Y149821D01*
X277387Y150098D01*
X277961Y150539D01*
X278402Y151113D01*
X278679Y151782D01*
X278774Y152500D01*
X278679Y153218D01*
X278402Y153887D01*
X277961Y154461D01*
X277387Y154902D01*
X276718Y155179D01*
X276000Y155274D01*
X275282Y155179D01*
X274613Y154902D01*
X274039Y154461D01*
X273707Y154029D01*
X260134D01*
X255529Y158633D01*
Y163500D01*
X255413Y164085D01*
X255081Y164581D01*
X251081Y168581D01*
X250585Y168913D01*
X250000Y169029D01*
X239000D01*
X238415Y168913D01*
X237919Y168581D01*
X235098Y165761D01*
X235000Y165774D01*
X234282Y165679D01*
X233613Y165402D01*
X233039Y164961D01*
X232598Y164387D01*
X232321Y163718D01*
X232226Y163000D01*
X232321Y162282D01*
X232598Y161613D01*
X233039Y161039D01*
X233471Y160707D01*
Y160071D01*
X232816D01*
X221806Y171081D01*
X221310Y171413D01*
X220724Y171529D01*
X173500D01*
X172915Y171413D01*
X172419Y171081D01*
X148866Y147529D01*
X143584D01*
X143338Y148029D01*
X143402Y148113D01*
X143679Y148782D01*
X143774Y149500D01*
X143679Y150218D01*
X143402Y150887D01*
X142961Y151461D01*
X142888Y151518D01*
X142844Y152181D01*
X157133Y166471D01*
X164000D01*
X164585Y166587D01*
X165081Y166919D01*
X179071Y180908D01*
X179282Y180821D01*
X180000Y180726D01*
X180718Y180821D01*
X181387Y181098D01*
X181961Y181539D01*
X182402Y182113D01*
X182679Y182782D01*
X182774Y183500D01*
X182679Y184218D01*
X182402Y184887D01*
X181961Y185461D01*
X181387Y185902D01*
X180718Y186179D01*
X180367Y186225D01*
X180132Y186737D01*
X180305Y186971D01*
X184367D01*
X185156Y186181D01*
X185112Y185518D01*
X185039Y185461D01*
X184598Y184887D01*
X184321Y184218D01*
X184226Y183500D01*
X184321Y182782D01*
X184598Y182113D01*
X185039Y181539D01*
X185613Y181098D01*
X186282Y180821D01*
X187000Y180726D01*
X187718Y180821D01*
X188387Y181098D01*
X188961Y181539D01*
X189402Y182113D01*
X189679Y182782D01*
X189685Y182829D01*
X190190D01*
X190210Y182672D01*
X190488Y182003D01*
X190928Y181428D01*
X191503Y180988D01*
X192172Y180710D01*
X192890Y180616D01*
X193608Y180710D01*
X194277Y180988D01*
X194851Y181428D01*
X195186Y181865D01*
X195651Y181909D01*
X195780Y181875D01*
X196039Y181539D01*
X196613Y181098D01*
X197282Y180821D01*
X198000Y180726D01*
X198718Y180821D01*
X199387Y181098D01*
X199961Y181539D01*
X200402Y182113D01*
X200679Y182782D01*
X200774Y183500D01*
X200679Y184218D01*
X200402Y184887D01*
X199961Y185461D01*
X199529Y185793D01*
Y186000D01*
X199413Y186585D01*
X199081Y187081D01*
X193081Y193081D01*
X192585Y193413D01*
X192000Y193529D01*
D02*
G37*
G36*
X248000Y185774D02*
X247282Y185679D01*
X246613Y185402D01*
X246039Y184961D01*
X245598Y184387D01*
X245321Y183718D01*
X245226Y183000D01*
X245321Y182282D01*
X245598Y181613D01*
X246039Y181039D01*
X246613Y180598D01*
X247282Y180321D01*
X248000Y180226D01*
X248718Y180321D01*
X249387Y180598D01*
X249961Y181039D01*
X250402Y181613D01*
X250679Y182282D01*
X250774Y183000D01*
X250679Y183718D01*
X250402Y184387D01*
X249961Y184961D01*
X249387Y185402D01*
X248718Y185679D01*
X248000Y185774D01*
D02*
G37*
G36*
X503024Y173295D02*
X496496D01*
Y171848D01*
X495996Y171759D01*
X495887Y171843D01*
X495218Y172120D01*
X494500Y172215D01*
X493782Y172120D01*
X493113Y171843D01*
X492539Y171402D01*
X492098Y170828D01*
X491821Y170159D01*
X491726Y169441D01*
X491821Y168723D01*
X492098Y168054D01*
X492539Y167480D01*
X493113Y167039D01*
X493782Y166762D01*
X494500Y166667D01*
X495218Y166762D01*
X495887Y167039D01*
X495996Y167123D01*
X496496Y167034D01*
Y165587D01*
X497466D01*
Y164511D01*
X496966Y164153D01*
X496500Y164215D01*
X495782Y164120D01*
X495113Y163843D01*
X494539Y163402D01*
X494098Y162828D01*
X493821Y162159D01*
X493726Y161441D01*
X493821Y160723D01*
X494098Y160054D01*
X494539Y159480D01*
X495113Y159039D01*
X495782Y158762D01*
X496500Y158667D01*
X497218Y158762D01*
X497887Y159039D01*
X497980Y159110D01*
X498480Y159007D01*
Y158472D01*
X499617D01*
Y155878D01*
X499749Y155215D01*
X500125Y154652D01*
X501496Y153281D01*
Y151370D01*
X503946D01*
X504169Y151326D01*
X504392Y151370D01*
X506843Y151370D01*
X506869Y150881D01*
Y150119D01*
X506843Y149630D01*
X506369Y149630D01*
X504392D01*
X504169Y149674D01*
X503946Y149630D01*
X501496D01*
Y146252D01*
X502436D01*
Y142409D01*
X500480D01*
Y136472D01*
X506220D01*
Y142409D01*
X505903D01*
Y145898D01*
X506256Y146252D01*
X506843Y146252D01*
X506869Y145763D01*
Y140591D01*
X506993Y139966D01*
X507261Y139566D01*
X507206Y139291D01*
Y135441D01*
X507381Y134563D01*
X507878Y133819D01*
X508622Y133321D01*
X509500Y133147D01*
X510378Y133321D01*
X511122Y133819D01*
X511619Y134563D01*
X511794Y135441D01*
Y138689D01*
X511944Y139441D01*
X511769Y140319D01*
X511272Y141063D01*
X510528Y141560D01*
X510131Y141639D01*
Y145763D01*
X510157Y146252D01*
X511301D01*
Y144898D01*
X511418Y144312D01*
X511749Y143816D01*
X515647Y139919D01*
X516143Y139587D01*
X516728Y139471D01*
X522728D01*
X523314Y139587D01*
X523810Y139919D01*
X527581Y143690D01*
X527913Y144186D01*
X528029Y144772D01*
Y147472D01*
X529272D01*
Y153378D01*
Y159315D01*
X528794D01*
Y160866D01*
X528902Y161007D01*
X529179Y161676D01*
X529274Y162394D01*
X529179Y163112D01*
X528902Y163781D01*
X528461Y164355D01*
X527887Y164796D01*
X527218Y165073D01*
X526500Y165167D01*
X525782Y165073D01*
X525113Y164796D01*
X524539Y164355D01*
X524098Y163781D01*
X523821Y163112D01*
X523726Y162394D01*
X523821Y161676D01*
X524098Y161007D01*
X524206Y160866D01*
Y159315D01*
X523728D01*
Y153378D01*
Y147472D01*
X524971D01*
Y145405D01*
X522095Y142529D01*
X517362D01*
X514360Y145531D01*
Y146252D01*
X515504D01*
Y148869D01*
X517206D01*
Y145441D01*
X517381Y144563D01*
X517878Y143819D01*
X518622Y143322D01*
X519500Y143147D01*
X520378Y143322D01*
X521122Y143819D01*
X521619Y144563D01*
X521794Y145441D01*
Y150291D01*
X521619Y151169D01*
X521122Y151913D01*
X520378Y152411D01*
X519500Y152585D01*
X518622Y152411D01*
X518204Y152131D01*
X515504D01*
Y153281D01*
X516116Y153893D01*
X516532Y153720D01*
Y153720D01*
X522469D01*
Y159461D01*
X521934D01*
X521830Y159961D01*
X521902Y160054D01*
X522179Y160723D01*
X522274Y161441D01*
X522179Y162159D01*
X521902Y162828D01*
X521461Y163402D01*
X520887Y163843D01*
X520218Y164120D01*
X519500Y164215D01*
X518782Y164120D01*
X518113Y163843D01*
X517539Y163402D01*
X517098Y162828D01*
X516821Y162159D01*
X516726Y161441D01*
X516821Y160723D01*
X517098Y160054D01*
X517170Y159961D01*
X517066Y159461D01*
X516532D01*
Y158324D01*
X516362D01*
X515699Y158192D01*
X515137Y157816D01*
X512068Y154748D01*
X510157D01*
X510131Y155237D01*
Y159147D01*
X512941D01*
X513819Y159321D01*
X514563Y159819D01*
X515060Y160563D01*
X515235Y161441D01*
X515060Y162319D01*
X514563Y163063D01*
X513819Y163560D01*
X512941Y163735D01*
X509944D01*
Y167147D01*
X512941D01*
X513819Y167322D01*
X514563Y167819D01*
X515060Y168563D01*
X515235Y169441D01*
X515060Y170319D01*
X514563Y171063D01*
X513819Y171560D01*
X512941Y171735D01*
X507240D01*
X506362Y171560D01*
X505618Y171063D01*
X505121Y170319D01*
X504946Y169441D01*
X505121Y168563D01*
X505356Y168212D01*
Y161441D01*
X505530Y160563D01*
X506028Y159819D01*
X506772Y159321D01*
X506869Y159302D01*
Y155237D01*
X506843Y154748D01*
X506369Y154748D01*
X504932D01*
X503084Y156596D01*
Y158472D01*
X504220D01*
Y164409D01*
X502054D01*
Y165587D01*
X503024D01*
Y173295D01*
D02*
G37*
G36*
X245000Y165294D02*
X244122Y165120D01*
X243378Y164622D01*
X242881Y163878D01*
X242706Y163000D01*
Y155724D01*
X242881Y154847D01*
X243378Y154102D01*
X244122Y153605D01*
X245000Y153430D01*
X245878Y153605D01*
X246622Y154102D01*
X247119Y154847D01*
X247294Y155724D01*
Y163000D01*
X247119Y163878D01*
X246622Y164622D01*
X245878Y165120D01*
X245000Y165294D01*
D02*
G37*
G36*
X206000Y149774D02*
X205282Y149679D01*
X204613Y149402D01*
X204039Y148961D01*
X203598Y148387D01*
X203321Y147718D01*
X203226Y147000D01*
X203321Y146282D01*
X203598Y145613D01*
X204039Y145039D01*
X204613Y144598D01*
X205282Y144321D01*
X206000Y144226D01*
X206718Y144321D01*
X207387Y144598D01*
X207961Y145039D01*
X208402Y145613D01*
X208679Y146282D01*
X208774Y147000D01*
X208679Y147718D01*
X208402Y148387D01*
X207961Y148961D01*
X207387Y149402D01*
X206718Y149679D01*
X206000Y149774D01*
D02*
G37*
G36*
X198000D02*
X197282Y149679D01*
X196613Y149402D01*
X196039Y148961D01*
X195598Y148387D01*
X195321Y147718D01*
X195226Y147000D01*
X195321Y146282D01*
X195598Y145613D01*
X196039Y145039D01*
X196613Y144598D01*
X197282Y144321D01*
X198000Y144226D01*
X198718Y144321D01*
X199387Y144598D01*
X199961Y145039D01*
X200402Y145613D01*
X200679Y146282D01*
X200774Y147000D01*
X200679Y147718D01*
X200402Y148387D01*
X199961Y148961D01*
X199387Y149402D01*
X198718Y149679D01*
X198000Y149774D01*
D02*
G37*
G36*
X457543Y151554D02*
X456665Y151379D01*
X455921Y150882D01*
X455424Y150138D01*
X455249Y149260D01*
Y144410D01*
X455424Y143532D01*
X455921Y142787D01*
X456665Y142290D01*
X457543Y142115D01*
X458421Y142290D01*
X459165Y142787D01*
X459663Y143532D01*
X459837Y144410D01*
Y149260D01*
X459663Y150138D01*
X459165Y150882D01*
X458421Y151379D01*
X457543Y151554D01*
D02*
G37*
G36*
X281000Y147294D02*
X280122Y147119D01*
X279378Y146622D01*
X278881Y145878D01*
X278706Y145000D01*
Y141150D01*
X278881Y140272D01*
X279378Y139527D01*
X280122Y139030D01*
X281000Y138856D01*
X281878Y139030D01*
X282622Y139527D01*
X283120Y140272D01*
X283294Y141150D01*
Y145000D01*
X283120Y145878D01*
X282622Y146622D01*
X281878Y147119D01*
X281000Y147294D01*
D02*
G37*
G36*
X226850Y140294D02*
X221000D01*
X220122Y140120D01*
X219378Y139622D01*
X218881Y138878D01*
X218706Y138000D01*
X218881Y137122D01*
X219378Y136378D01*
X220122Y135880D01*
X221000Y135706D01*
X226850D01*
X227728Y135880D01*
X228473Y136378D01*
X228970Y137122D01*
X229145Y138000D01*
X228970Y138878D01*
X228473Y139622D01*
X227728Y140120D01*
X226850Y140294D01*
D02*
G37*
G36*
X478543Y144554D02*
X477665Y144379D01*
X476921Y143882D01*
X476424Y143138D01*
X476249Y142260D01*
Y137409D01*
X476424Y136531D01*
X476921Y135787D01*
X477665Y135290D01*
X478543Y135115D01*
X479421Y135290D01*
X480165Y135787D01*
X480663Y136531D01*
X480837Y137409D01*
Y142260D01*
X480663Y143138D01*
X480165Y143882D01*
X479421Y144379D01*
X478543Y144554D01*
D02*
G37*
G36*
X467543D02*
X466665Y144379D01*
X465921Y143882D01*
X465424Y143138D01*
X465249Y142260D01*
Y137409D01*
X465424Y136531D01*
X465921Y135787D01*
X466665Y135290D01*
X467543Y135115D01*
X468421Y135290D01*
X469166Y135787D01*
X469663Y136531D01*
X469837Y137409D01*
Y142260D01*
X469663Y143138D01*
X469166Y143882D01*
X468421Y144379D01*
X467543Y144554D01*
D02*
G37*
G36*
X290378D02*
X289500Y144379D01*
X288756Y143882D01*
X288259Y143138D01*
X288084Y142260D01*
Y137409D01*
X288259Y136531D01*
X288756Y135787D01*
X289500Y135290D01*
X290378Y135115D01*
X291256Y135290D01*
X292000Y135787D01*
X292497Y136531D01*
X292672Y137409D01*
Y142260D01*
X292497Y143138D01*
X292000Y143882D01*
X291256Y144379D01*
X290378Y144554D01*
D02*
G37*
G36*
X101528D02*
X100650Y144379D01*
X99905Y143882D01*
X99408Y143138D01*
X99234Y142260D01*
Y137409D01*
X99408Y136531D01*
X99905Y135787D01*
X100650Y135290D01*
X101528Y135115D01*
X102406Y135290D01*
X103150Y135787D01*
X103647Y136531D01*
X103822Y137409D01*
Y142260D01*
X103647Y143138D01*
X103150Y143882D01*
X102406Y144379D01*
X101528Y144554D01*
D02*
G37*
G36*
X93528D02*
X92650Y144379D01*
X91905Y143882D01*
X91408Y143138D01*
X91233Y142260D01*
Y137409D01*
X91408Y136531D01*
X91905Y135787D01*
X92650Y135290D01*
X93528Y135115D01*
X94406Y135290D01*
X95150Y135787D01*
X95647Y136531D01*
X95822Y137409D01*
Y142260D01*
X95647Y143138D01*
X95150Y143882D01*
X94406Y144379D01*
X93528Y144554D01*
D02*
G37*
G36*
X239347Y150622D02*
X230654D01*
Y141929D01*
X233216D01*
Y140969D01*
X230279D01*
Y135031D01*
X236020D01*
Y138347D01*
X236262Y138589D01*
X236262Y138589D01*
X236649Y139168D01*
X236784Y139850D01*
X236784Y139850D01*
Y141929D01*
X239347D01*
Y150622D01*
D02*
G37*
G36*
X302000Y144294D02*
X301122Y144120D01*
X300378Y143622D01*
X299881Y142878D01*
X299706Y142000D01*
Y137150D01*
X299881Y136272D01*
X300378Y135527D01*
X301122Y135030D01*
X302000Y134855D01*
X302878Y135030D01*
X303622Y135527D01*
X304119Y136272D01*
X304294Y137150D01*
Y142000D01*
X304119Y142878D01*
X303622Y143622D01*
X302878Y144120D01*
X302000Y144294D01*
D02*
G37*
G36*
X84000Y149774D02*
X83282Y149679D01*
X82613Y149402D01*
X82039Y148961D01*
X81598Y148387D01*
X81321Y147718D01*
X81226Y147000D01*
X81321Y146282D01*
X81598Y145613D01*
X82039Y145039D01*
X82613Y144598D01*
X83282Y144321D01*
X84000Y144226D01*
X84476Y144289D01*
X85420Y143345D01*
Y133185D01*
X85098Y133028D01*
X84920Y132993D01*
X84387Y133402D01*
X83718Y133679D01*
X83000Y133774D01*
X82282Y133679D01*
X81613Y133402D01*
X81520Y133330D01*
X81020Y133434D01*
Y133968D01*
X75279D01*
Y128032D01*
X81020D01*
Y128566D01*
X81520Y128670D01*
X81613Y128598D01*
X82282Y128321D01*
X83000Y128226D01*
X83718Y128321D01*
X84387Y128598D01*
X84920Y129007D01*
X85098Y128972D01*
X85420Y128815D01*
Y128098D01*
X85044Y127768D01*
X85000Y127774D01*
X84282Y127679D01*
X83613Y127402D01*
X83039Y126961D01*
X82598Y126387D01*
X82321Y125718D01*
X82226Y125000D01*
X82297Y124460D01*
X79866Y122029D01*
X63134D01*
X48921Y136242D01*
Y141772D01*
X37079D01*
Y140784D01*
X35071D01*
Y143347D01*
X26378D01*
Y134653D01*
X35071D01*
Y137216D01*
X37079D01*
Y136228D01*
X44696D01*
X44871Y135966D01*
X61419Y119419D01*
X61915Y119087D01*
X62500Y118971D01*
X80500D01*
X81085Y119087D01*
X81581Y119419D01*
X84460Y122297D01*
X85000Y122226D01*
X85718Y122321D01*
X86387Y122598D01*
X86961Y123039D01*
X87402Y123613D01*
X87679Y124282D01*
X87774Y125000D01*
X87711Y125476D01*
X88117Y125882D01*
X88460Y126395D01*
X88580Y127000D01*
Y144000D01*
X88460Y144605D01*
X88117Y145117D01*
X86711Y146524D01*
X86774Y147000D01*
X86679Y147718D01*
X86402Y148387D01*
X85961Y148961D01*
X85387Y149402D01*
X84718Y149679D01*
X84000Y149774D01*
D02*
G37*
G36*
X339295Y132327D02*
X332768D01*
Y130879D01*
X332268Y130791D01*
X332158Y130875D01*
X331489Y131152D01*
X330772Y131246D01*
X330054Y131152D01*
X329385Y130875D01*
X328810Y130434D01*
X328369Y129859D01*
X328092Y129190D01*
X327998Y128472D01*
X328092Y127754D01*
X328369Y127086D01*
X328810Y126511D01*
X329385Y126070D01*
X330054Y125793D01*
X330772Y125699D01*
X331489Y125793D01*
X332158Y126070D01*
X332268Y126154D01*
X332768Y126066D01*
Y124618D01*
X333737D01*
Y123542D01*
X333237Y123185D01*
X332772Y123246D01*
X332054Y123152D01*
X331385Y122875D01*
X330810Y122434D01*
X330369Y121859D01*
X330092Y121190D01*
X329998Y120472D01*
X330092Y119755D01*
X330369Y119086D01*
X330810Y118511D01*
X331385Y118070D01*
X332054Y117793D01*
X332772Y117699D01*
X333489Y117793D01*
X334158Y118070D01*
X334252Y118142D01*
X334752Y118038D01*
Y117504D01*
X335889D01*
Y114606D01*
X336021Y113943D01*
X336396Y113381D01*
X337768Y112009D01*
Y110370D01*
X339946D01*
X340169Y110326D01*
X340169Y110326D01*
X340441D01*
X340664Y110370D01*
X342938Y110370D01*
X343223Y109915D01*
X343140Y109500D01*
Y109119D01*
X343114Y108630D01*
X342640Y108630D01*
X340664D01*
X340441Y108674D01*
X340218Y108630D01*
X337768D01*
Y105252D01*
X338708D01*
Y101441D01*
X336752D01*
Y95504D01*
X342492D01*
Y101441D01*
X342174D01*
Y104898D01*
X342528Y105252D01*
X343114Y105252D01*
X343140Y104763D01*
Y99622D01*
X343265Y98998D01*
X343532Y98597D01*
X343478Y98323D01*
X343652Y97445D01*
X344149Y96701D01*
X346472Y94378D01*
X347217Y93880D01*
X348095Y93706D01*
X351000D01*
X351878Y93881D01*
X352622Y94378D01*
X353119Y95122D01*
X353294Y96000D01*
X353119Y96878D01*
X352622Y97622D01*
X351878Y98119D01*
X351000Y98294D01*
X349045D01*
X348054Y99285D01*
X348041Y99350D01*
X347543Y100095D01*
X346799Y100592D01*
X346403Y100671D01*
Y104763D01*
X346429Y105252D01*
X347471D01*
Y104142D01*
X347595Y103517D01*
X347949Y102988D01*
X351618Y99319D01*
X352147Y98965D01*
X352772Y98841D01*
X358772D01*
X359396Y98965D01*
X359925Y99319D01*
X363925Y103319D01*
X364279Y103848D01*
X364403Y104472D01*
Y106551D01*
X365543D01*
Y112457D01*
Y118394D01*
X365066D01*
Y119897D01*
X365174Y120038D01*
X365451Y120707D01*
X365545Y121425D01*
X365451Y122143D01*
X365174Y122812D01*
X364733Y123387D01*
X364159Y123827D01*
X363490Y124104D01*
X362772Y124199D01*
X362054Y124104D01*
X361385Y123827D01*
X360810Y123387D01*
X360369Y122812D01*
X360092Y122143D01*
X359998Y121425D01*
X360092Y120707D01*
X360369Y120038D01*
X360478Y119897D01*
Y118394D01*
X360000D01*
Y112457D01*
Y106551D01*
X361140D01*
Y105148D01*
X358096Y102104D01*
X357177D01*
X357025Y102604D01*
X357394Y102850D01*
X357891Y103595D01*
X358066Y104472D01*
Y109323D01*
X357891Y110201D01*
X357394Y110945D01*
X356650Y111442D01*
X355772Y111617D01*
X354894Y111442D01*
X354428Y111131D01*
X351776D01*
Y112553D01*
X352341Y113118D01*
X352803Y112927D01*
Y112752D01*
X358740D01*
Y118492D01*
X358206D01*
X358102Y118992D01*
X358174Y119086D01*
X358451Y119755D01*
X358545Y120472D01*
X358451Y121190D01*
X358174Y121859D01*
X357733Y122434D01*
X357158Y122875D01*
X356489Y123152D01*
X355772Y123246D01*
X355054Y123152D01*
X354385Y122875D01*
X353810Y122434D01*
X353369Y121859D01*
X353092Y121190D01*
X352998Y120472D01*
X353092Y119755D01*
X353369Y119086D01*
X353441Y118992D01*
X353338Y118492D01*
X352803D01*
Y117355D01*
X352394D01*
X351730Y117223D01*
X351168Y116848D01*
X348068Y113748D01*
X346429D01*
X346403Y114237D01*
Y118706D01*
X350000D01*
X350878Y118880D01*
X351622Y119378D01*
X352119Y120122D01*
X352294Y121000D01*
X352119Y121878D01*
X351622Y122622D01*
X350878Y123119D01*
X350000Y123294D01*
X346215D01*
Y126178D01*
X349472D01*
X350350Y126353D01*
X351095Y126850D01*
X351592Y127594D01*
X351766Y128472D01*
X351592Y129350D01*
X351095Y130095D01*
X350350Y130592D01*
X349472Y130766D01*
X343512D01*
X342634Y130592D01*
X341890Y130095D01*
X341392Y129350D01*
X341218Y128472D01*
X341392Y127594D01*
X341627Y127243D01*
Y120472D01*
X341802Y119595D01*
X342299Y118850D01*
X343043Y118353D01*
X343140Y118334D01*
Y114237D01*
X343114Y113748D01*
X342640Y113748D01*
X340932D01*
X339355Y115324D01*
Y117504D01*
X340492D01*
Y123441D01*
X338326D01*
Y124618D01*
X339295D01*
Y132327D01*
D02*
G37*
G36*
X460512Y140980D02*
X454575D01*
Y135240D01*
X455249D01*
Y133788D01*
X455141Y133647D01*
X454864Y132978D01*
X454770Y132260D01*
X454864Y131542D01*
X455141Y130873D01*
X455582Y130298D01*
X456156Y129858D01*
X456825Y129581D01*
X457543Y129486D01*
X458261Y129581D01*
X458930Y129858D01*
X459505Y130298D01*
X459945Y130873D01*
X460222Y131542D01*
X460317Y132260D01*
X460222Y132978D01*
X459945Y133647D01*
X459837Y133788D01*
Y135240D01*
X460512D01*
Y140980D01*
D02*
G37*
G36*
X71850Y133294D02*
X67000D01*
X66122Y133119D01*
X65378Y132622D01*
X64881Y131878D01*
X64706Y131000D01*
X64881Y130122D01*
X65378Y129378D01*
X66122Y128881D01*
X67000Y128706D01*
X71850D01*
X72728Y128881D01*
X73473Y129378D01*
X73970Y130122D01*
X74145Y131000D01*
X73970Y131878D01*
X73473Y132622D01*
X72728Y133119D01*
X71850Y133294D01*
D02*
G37*
G36*
X481512Y133980D02*
X475575D01*
Y128240D01*
X476249D01*
Y127232D01*
X476235Y127221D01*
X475795Y126647D01*
X475518Y125978D01*
X475423Y125260D01*
X475518Y124542D01*
X475795Y123873D01*
X476235Y123299D01*
X476810Y122858D01*
X477479Y122581D01*
X478197Y122486D01*
X478915Y122581D01*
X479584Y122858D01*
X480158Y123299D01*
X480599Y123873D01*
X480876Y124542D01*
X480971Y125260D01*
X480876Y125978D01*
X480837Y126071D01*
Y128240D01*
X481512D01*
Y133980D01*
D02*
G37*
G36*
X470512D02*
X464575D01*
Y128240D01*
X465249D01*
Y126787D01*
X465141Y126647D01*
X464864Y125978D01*
X464770Y125260D01*
X464864Y124542D01*
X465141Y123873D01*
X465582Y123299D01*
X466156Y122858D01*
X466825Y122581D01*
X467543Y122486D01*
X468261Y122581D01*
X468930Y122858D01*
X469505Y123299D01*
X469945Y123873D01*
X470223Y124542D01*
X470317Y125260D01*
X470223Y125978D01*
X469945Y126647D01*
X469837Y126787D01*
Y128240D01*
X470512D01*
Y133980D01*
D02*
G37*
G36*
X293347D02*
X287409D01*
Y128240D01*
X288084D01*
Y126787D01*
X287976Y126647D01*
X287699Y125978D01*
X287604Y125260D01*
X287699Y124542D01*
X287976Y123873D01*
X288417Y123299D01*
X288991Y122858D01*
X289660Y122581D01*
X290378Y122486D01*
X291096Y122581D01*
X291765Y122858D01*
X292339Y123299D01*
X292780Y123873D01*
X293057Y124542D01*
X293152Y125260D01*
X293057Y125978D01*
X292780Y126647D01*
X292672Y126787D01*
Y128240D01*
X293347D01*
Y133980D01*
D02*
G37*
G36*
X304969Y133721D02*
X299031D01*
Y131126D01*
X298378Y130473D01*
X297881Y129728D01*
X297706Y128850D01*
Y126528D01*
X297598Y126387D01*
X297321Y125718D01*
X297226Y125000D01*
X297321Y124282D01*
X297598Y123613D01*
X298039Y123039D01*
X298613Y122598D01*
X299282Y122321D01*
X300000Y122226D01*
X300718Y122321D01*
X301387Y122598D01*
X301961Y123039D01*
X302402Y123613D01*
X302679Y124282D01*
X302774Y125000D01*
X302679Y125718D01*
X302402Y126387D01*
X302294Y126528D01*
Y127900D01*
X302374Y127980D01*
X304969D01*
Y133721D01*
D02*
G37*
G36*
X104496Y133980D02*
X98559D01*
Y128240D01*
X99234D01*
Y126472D01*
X99408Y125594D01*
X99905Y124850D01*
X100298Y124458D01*
X100321Y124282D01*
X100598Y123613D01*
X101039Y123039D01*
X101613Y122598D01*
X102282Y122321D01*
X103000Y122226D01*
X103718Y122321D01*
X104387Y122598D01*
X104961Y123039D01*
X105402Y123613D01*
X105679Y124282D01*
X105774Y125000D01*
X105679Y125718D01*
X105402Y126387D01*
X104961Y126961D01*
X104387Y127402D01*
X103822Y127636D01*
Y128240D01*
X104496D01*
Y133980D01*
D02*
G37*
G36*
X96496D02*
X90559D01*
Y128240D01*
X90706D01*
Y126528D01*
X90598Y126387D01*
X90321Y125718D01*
X90226Y125000D01*
X90321Y124282D01*
X90598Y123613D01*
X91039Y123039D01*
X91613Y122598D01*
X92282Y122321D01*
X93000Y122226D01*
X93718Y122321D01*
X94387Y122598D01*
X94961Y123039D01*
X95402Y123613D01*
X95679Y124282D01*
X95774Y125000D01*
X95679Y125718D01*
X95402Y126387D01*
X95294Y126528D01*
Y128240D01*
X96496D01*
Y133980D01*
D02*
G37*
G36*
X523850Y126294D02*
X518000D01*
X517122Y126119D01*
X516378Y125622D01*
X515881Y124878D01*
X515706Y124000D01*
X515881Y123122D01*
X516378Y122378D01*
X517122Y121880D01*
X518000Y121706D01*
X523850D01*
X524728Y121880D01*
X525472Y122378D01*
X525970Y123122D01*
X526145Y124000D01*
X525970Y124878D01*
X525472Y125622D01*
X524728Y126119D01*
X523850Y126294D01*
D02*
G37*
G36*
X25850Y119294D02*
X20000D01*
X19122Y119120D01*
X18378Y118622D01*
X17880Y117878D01*
X17706Y117000D01*
X17880Y116122D01*
X18378Y115378D01*
X19122Y114881D01*
X20000Y114706D01*
X25850D01*
X26728Y114881D01*
X27473Y115378D01*
X27970Y116122D01*
X28144Y117000D01*
X27970Y117878D01*
X27473Y118622D01*
X26728Y119120D01*
X25850Y119294D01*
D02*
G37*
G36*
X35071Y133346D02*
X26378D01*
Y124653D01*
X30365D01*
Y119968D01*
X29280D01*
Y114032D01*
X35020D01*
Y119968D01*
X33934D01*
Y124653D01*
X35071D01*
Y133346D01*
D02*
G37*
G36*
X406000Y116774D02*
X405282Y116679D01*
X404613Y116402D01*
X404039Y115961D01*
X403598Y115387D01*
X403321Y114718D01*
X403226Y114000D01*
X403320Y113288D01*
X403302Y113265D01*
X403146Y113126D01*
X402890Y113016D01*
X402387Y113402D01*
X401718Y113679D01*
X401000Y113774D01*
X400282Y113679D01*
X399613Y113402D01*
X399039Y112961D01*
X398598Y112387D01*
X398321Y111718D01*
X398226Y111000D01*
X398321Y110282D01*
X398598Y109613D01*
X399039Y109039D01*
X399420Y108746D01*
Y106000D01*
X399540Y105395D01*
X399883Y104883D01*
X417289Y87476D01*
X417226Y87000D01*
X417321Y86282D01*
X417598Y85613D01*
X418039Y85039D01*
X418613Y84598D01*
X419282Y84321D01*
X420000Y84226D01*
X420718Y84321D01*
X421387Y84598D01*
X421961Y85039D01*
X422402Y85613D01*
X422679Y86282D01*
X422774Y87000D01*
X422679Y87718D01*
X422402Y88387D01*
X421961Y88961D01*
X421387Y89402D01*
X420718Y89679D01*
X420000Y89774D01*
X419524Y89711D01*
X402580Y106655D01*
Y108746D01*
X402961Y109039D01*
X403402Y109613D01*
X403679Y110282D01*
X403774Y111000D01*
X403680Y111712D01*
X403698Y111735D01*
X403854Y111874D01*
X404110Y111984D01*
X404613Y111598D01*
X405282Y111321D01*
X406000Y111226D01*
X406476Y111289D01*
X423289Y94476D01*
X423226Y94000D01*
X423321Y93282D01*
X423598Y92613D01*
X424039Y92039D01*
X424613Y91598D01*
X425282Y91321D01*
X426000Y91226D01*
X426718Y91321D01*
X427387Y91598D01*
X427961Y92039D01*
X428402Y92613D01*
X428679Y93282D01*
X428774Y94000D01*
X428679Y94718D01*
X428402Y95387D01*
X427961Y95961D01*
X427387Y96402D01*
X426718Y96679D01*
X426000Y96774D01*
X425524Y96711D01*
X408711Y113524D01*
X408774Y114000D01*
X408679Y114718D01*
X408402Y115387D01*
X407961Y115961D01*
X407387Y116402D01*
X406718Y116679D01*
X406000Y116774D01*
D02*
G37*
G36*
X533020Y126969D02*
X527280D01*
Y121031D01*
X528216D01*
Y119071D01*
X525654D01*
Y110378D01*
X534346D01*
Y119071D01*
X531784D01*
Y121031D01*
X533020D01*
Y126969D01*
D02*
G37*
G36*
X380524Y108854D02*
X373996D01*
Y107565D01*
X373496Y107318D01*
X373387Y107402D01*
X372718Y107679D01*
X372000Y107774D01*
X371282Y107679D01*
X370613Y107402D01*
X370039Y106961D01*
X369598Y106387D01*
X369321Y105718D01*
X369226Y105000D01*
X369321Y104282D01*
X369598Y103613D01*
X370039Y103039D01*
X370613Y102598D01*
X371282Y102321D01*
X372000Y102226D01*
X372718Y102321D01*
X373387Y102598D01*
X373496Y102682D01*
X373996Y102435D01*
Y101146D01*
X375260D01*
Y99968D01*
X374980D01*
Y94032D01*
X375260D01*
Y79860D01*
X374897Y79387D01*
X374620Y78718D01*
X374542Y78127D01*
X374208Y77792D01*
X373766Y77131D01*
X373610Y76350D01*
Y74823D01*
X373521Y74689D01*
X373345Y73807D01*
X373521Y72925D01*
X374020Y72178D01*
X374768Y71678D01*
X375650Y71503D01*
X376531Y71678D01*
X377279Y72178D01*
X377778Y72925D01*
X377954Y73807D01*
X377778Y74689D01*
X377765Y74709D01*
X377912Y75213D01*
X378191Y75310D01*
X378610Y75019D01*
Y73807D01*
X378766Y73027D01*
X379208Y72365D01*
X379869Y71923D01*
X380650Y71768D01*
X381430Y71923D01*
X382091Y72365D01*
X382534Y73027D01*
X382689Y73807D01*
Y75506D01*
X385884Y78701D01*
X400000D01*
X400780Y78856D01*
X401161Y79110D01*
X412248D01*
X413000Y78961D01*
X413780Y79116D01*
X414442Y79558D01*
X414884Y80220D01*
X415039Y81000D01*
X414884Y81780D01*
X414442Y82442D01*
X414292Y82591D01*
X413631Y83034D01*
X412850Y83189D01*
X400410D01*
X399629Y83034D01*
X399249Y82779D01*
X386189D01*
Y97000D01*
Y102961D01*
X390000D01*
X390780Y103116D01*
X391442Y103558D01*
X391884Y104220D01*
X392039Y105000D01*
X391884Y105780D01*
X391442Y106442D01*
X390780Y106884D01*
X390000Y107039D01*
X384740D01*
X383960Y106884D01*
X383298Y106442D01*
X382708Y105851D01*
X382266Y105190D01*
X382110Y104409D01*
Y97000D01*
Y80695D01*
X380406Y78991D01*
X379817Y79108D01*
X379701Y79387D01*
X379338Y79860D01*
Y94032D01*
X380720D01*
Y99968D01*
X379338D01*
Y101146D01*
X380524D01*
Y108854D01*
D02*
G37*
G36*
X520000Y107570D02*
X519122Y107395D01*
X518378Y106898D01*
X517881Y106154D01*
X517706Y105276D01*
Y98000D01*
X517881Y97122D01*
X518378Y96378D01*
X519122Y95881D01*
X520000Y95706D01*
X520878Y95881D01*
X521622Y96378D01*
X522119Y97122D01*
X522294Y98000D01*
Y105276D01*
X522119Y106154D01*
X521622Y106898D01*
X520878Y107395D01*
X520000Y107570D01*
D02*
G37*
G36*
X57465Y101002D02*
X56747Y100908D01*
X56078Y100630D01*
X55503Y100190D01*
X55063Y99615D01*
X54785Y98946D01*
X54691Y98228D01*
X54785Y97510D01*
X55063Y96842D01*
X55146Y96732D01*
X55058Y96232D01*
X53610D01*
Y95263D01*
X52534D01*
X52177Y95763D01*
X52238Y96228D01*
X52144Y96946D01*
X51867Y97615D01*
X51426Y98190D01*
X50851Y98630D01*
X50182Y98908D01*
X49465Y99002D01*
X48747Y98908D01*
X48078Y98630D01*
X47503Y98190D01*
X47063Y97615D01*
X46785Y96946D01*
X46691Y96228D01*
X46785Y95511D01*
X47063Y94841D01*
X47134Y94748D01*
X47031Y94248D01*
X46496D01*
Y93111D01*
X43606D01*
X43606Y93111D01*
X42943Y92979D01*
X42381Y92604D01*
X42381Y92604D01*
X41281Y91504D01*
X39370D01*
Y89054D01*
X39326Y88831D01*
X39370Y88608D01*
Y86360D01*
X39370Y86158D01*
X38993Y85860D01*
X38007D01*
X37630Y86158D01*
X37630Y86360D01*
Y88608D01*
X37674Y88831D01*
X37630Y89054D01*
Y91504D01*
X34252D01*
Y90564D01*
X30433D01*
Y92248D01*
X24496D01*
Y86508D01*
X30433D01*
Y87097D01*
X33898D01*
X34252Y86744D01*
X34252Y86158D01*
X33875Y85860D01*
X28614D01*
X27990Y85735D01*
X27589Y85468D01*
X27315Y85522D01*
X23465D01*
X22587Y85348D01*
X21842Y84851D01*
X21345Y84106D01*
X21170Y83228D01*
X21345Y82350D01*
X21842Y81606D01*
X22587Y81109D01*
X23465Y80934D01*
X26713D01*
X27465Y80785D01*
X28343Y80959D01*
X29087Y81457D01*
X29584Y82201D01*
X29663Y82597D01*
X34252D01*
Y81801D01*
X33169D01*
X32545Y81677D01*
X32016Y81323D01*
X26847Y76153D01*
X26493Y75624D01*
X26369Y75000D01*
Y69598D01*
X26493Y68974D01*
X26847Y68445D01*
X30217Y65075D01*
X30746Y64721D01*
X31370Y64597D01*
X35496D01*
Y63457D01*
X47339D01*
Y63934D01*
X48890D01*
X49031Y63826D01*
X49699Y63549D01*
X50417Y63455D01*
X51135Y63549D01*
X51804Y63826D01*
X52379Y64267D01*
X52819Y64842D01*
X53096Y65510D01*
X53191Y66228D01*
X53096Y66946D01*
X52819Y67615D01*
X52379Y68190D01*
X51804Y68630D01*
X51135Y68908D01*
X50417Y69002D01*
X49699Y68908D01*
X49031Y68630D01*
X48890Y68522D01*
X47339D01*
Y69000D01*
X35496D01*
Y67860D01*
X32046D01*
X29631Y70274D01*
Y74324D01*
X33752Y78445D01*
X34252Y78313D01*
Y77496D01*
X36869D01*
Y75522D01*
X33465D01*
X32587Y75348D01*
X31842Y74850D01*
X31345Y74106D01*
X31170Y73228D01*
X31345Y72350D01*
X31842Y71606D01*
X32587Y71109D01*
X33465Y70934D01*
X38315D01*
X39193Y71109D01*
X39937Y71606D01*
X40434Y72350D01*
X40609Y73228D01*
X40434Y74106D01*
X40131Y74560D01*
Y77496D01*
X41281D01*
X42118Y76659D01*
X41927Y76197D01*
X41744D01*
Y70260D01*
X47484D01*
Y70794D01*
X47984Y70898D01*
X48078Y70826D01*
X48747Y70549D01*
X49465Y70455D01*
X50182Y70549D01*
X50851Y70826D01*
X51426Y71267D01*
X51867Y71842D01*
X52144Y72510D01*
X52238Y73228D01*
X52144Y73946D01*
X51867Y74615D01*
X51426Y75190D01*
X50851Y75630D01*
X50182Y75908D01*
X49465Y76002D01*
X48747Y75908D01*
X48078Y75630D01*
X47984Y75559D01*
X47484Y75662D01*
Y76197D01*
X46347D01*
Y76614D01*
X46216Y77277D01*
X45840Y77840D01*
X42748Y80932D01*
Y82597D01*
X48614D01*
X49238Y82721D01*
X49363Y82805D01*
X49465Y82785D01*
X57055D01*
X57933Y82959D01*
X58677Y83457D01*
X59175Y84201D01*
X59349Y85079D01*
X59175Y85957D01*
X58677Y86701D01*
X57933Y87198D01*
X57055Y87373D01*
X49465D01*
X48587Y87198D01*
X47842Y86701D01*
X47345Y85957D01*
X47326Y85860D01*
X43125D01*
X42748Y86158D01*
X42748Y86360D01*
Y88068D01*
X44324Y89645D01*
X46496D01*
Y88508D01*
X52433D01*
Y90674D01*
X53610D01*
Y89705D01*
X61319D01*
Y96232D01*
X59871D01*
X59783Y96732D01*
X59867Y96842D01*
X60144Y97510D01*
X60238Y98228D01*
X60144Y98946D01*
X59867Y99615D01*
X59426Y100190D01*
X58851Y100630D01*
X58183Y100908D01*
X57465Y101002D01*
D02*
G37*
G36*
X499295Y94413D02*
X492768D01*
Y92966D01*
X492268Y92877D01*
X492159Y92961D01*
X491490Y93238D01*
X490772Y93333D01*
X490054Y93238D01*
X489385Y92961D01*
X488810Y92520D01*
X488370Y91946D01*
X488092Y91277D01*
X487998Y90559D01*
X488092Y89841D01*
X488370Y89172D01*
X488810Y88598D01*
X489385Y88157D01*
X490054Y87880D01*
X490772Y87785D01*
X491490Y87880D01*
X492159Y88157D01*
X492268Y88241D01*
X492768Y88152D01*
Y86705D01*
X493737D01*
Y85629D01*
X493237Y85272D01*
X492772Y85333D01*
X492054Y85238D01*
X491385Y84961D01*
X490810Y84520D01*
X490370Y83946D01*
X490092Y83277D01*
X489998Y82559D01*
X490092Y81841D01*
X490370Y81172D01*
X490810Y80598D01*
X491385Y80157D01*
X492054Y79880D01*
X492772Y79785D01*
X493490Y79880D01*
X494159Y80157D01*
X494252Y80229D01*
X494752Y80125D01*
Y79591D01*
X495889D01*
Y76606D01*
X496021Y75943D01*
X496396Y75381D01*
X497496Y74281D01*
Y72370D01*
X499946D01*
X500169Y72326D01*
X500392Y72370D01*
X502640D01*
X502843Y72370D01*
X503140Y71993D01*
Y71007D01*
X502843Y70630D01*
X502640Y70630D01*
X500392D01*
X500169Y70674D01*
X499946Y70630D01*
X497496D01*
Y67252D01*
X498436D01*
Y63528D01*
X496752D01*
Y57591D01*
X502492D01*
Y63528D01*
X501903D01*
Y66898D01*
X502256Y67252D01*
X502843Y67252D01*
X503140Y66875D01*
Y61709D01*
X503265Y61084D01*
X503532Y60684D01*
X503478Y60409D01*
Y56559D01*
X503652Y55681D01*
X504149Y54937D01*
X504894Y54440D01*
X505772Y54265D01*
X506650Y54440D01*
X507394Y54937D01*
X507891Y55681D01*
X508066Y56559D01*
Y59807D01*
X508215Y60559D01*
X508041Y61437D01*
X507543Y62181D01*
X506799Y62678D01*
X506403Y62757D01*
Y67252D01*
X507199D01*
Y66500D01*
X507324Y65876D01*
X507677Y65346D01*
X511618Y61405D01*
X512147Y61052D01*
X512772Y60928D01*
X518772D01*
X519396Y61052D01*
X519925Y61405D01*
X523925Y65405D01*
X524279Y65935D01*
X524403Y66559D01*
Y68638D01*
X525543D01*
Y74543D01*
Y80480D01*
X525066D01*
Y81984D01*
X525174Y82125D01*
X525451Y82794D01*
X525545Y83512D01*
X525451Y84230D01*
X525174Y84899D01*
X524733Y85473D01*
X524158Y85914D01*
X523490Y86191D01*
X522772Y86286D01*
X522054Y86191D01*
X521385Y85914D01*
X520810Y85473D01*
X520369Y84899D01*
X520092Y84230D01*
X519998Y83512D01*
X520092Y82794D01*
X520369Y82125D01*
X520478Y81984D01*
Y80480D01*
X520000D01*
Y74543D01*
Y68638D01*
X521140D01*
Y67235D01*
X518096Y64190D01*
X517177D01*
X517025Y64690D01*
X517394Y64937D01*
X517891Y65681D01*
X518066Y66559D01*
Y71409D01*
X517891Y72287D01*
X517394Y73032D01*
X516650Y73529D01*
X515772Y73703D01*
X514894Y73529D01*
X514299Y73131D01*
X511504D01*
Y74281D01*
X512341Y75118D01*
X512803Y74927D01*
Y74839D01*
X518740D01*
Y80579D01*
X518206D01*
X518102Y81079D01*
X518174Y81172D01*
X518451Y81841D01*
X518545Y82559D01*
X518451Y83277D01*
X518174Y83946D01*
X517733Y84520D01*
X517159Y84961D01*
X516490Y85238D01*
X515772Y85333D01*
X515054Y85238D01*
X514385Y84961D01*
X513810Y84520D01*
X513370Y83946D01*
X513092Y83277D01*
X512998Y82559D01*
X513092Y81841D01*
X513370Y81172D01*
X513441Y81079D01*
X513338Y80579D01*
X512803D01*
Y79493D01*
X512480D01*
X511798Y79357D01*
X511219Y78970D01*
X511073Y78753D01*
X508068Y75748D01*
X506403D01*
Y80265D01*
X508772D01*
X509650Y80440D01*
X510394Y80937D01*
X510891Y81681D01*
X511066Y82559D01*
X510891Y83437D01*
X510394Y84181D01*
X509650Y84679D01*
X508772Y84853D01*
X506215D01*
Y88265D01*
X508772D01*
X509650Y88440D01*
X510394Y88937D01*
X510891Y89681D01*
X511066Y90559D01*
X510891Y91437D01*
X510394Y92181D01*
X509650Y92678D01*
X508772Y92853D01*
X503512D01*
X502634Y92678D01*
X501890Y92181D01*
X501392Y91437D01*
X501218Y90559D01*
X501392Y89681D01*
X501627Y89330D01*
Y82559D01*
X501802Y81681D01*
X502299Y80937D01*
X503043Y80440D01*
X503140Y80420D01*
Y76125D01*
X502843Y75748D01*
X502640Y75748D01*
X500932D01*
X499355Y77324D01*
Y79591D01*
X500492D01*
Y85528D01*
X498326D01*
Y86705D01*
X499295D01*
Y94413D01*
D02*
G37*
G36*
X269500Y93274D02*
X268782Y93179D01*
X268113Y92902D01*
X267539Y92461D01*
X267098Y91887D01*
X266821Y91218D01*
X266726Y90500D01*
X266821Y89782D01*
X267098Y89113D01*
X267539Y88539D01*
X267971Y88207D01*
Y78808D01*
X267944Y78797D01*
X267471Y78725D01*
X267091Y79292D01*
X266942Y79442D01*
X266280Y79884D01*
X265500Y80039D01*
X264720Y79884D01*
X264058Y79442D01*
X263616Y78780D01*
X263461Y78000D01*
X263610Y77248D01*
Y74652D01*
X263127Y74168D01*
X262584Y74333D01*
X262534Y74588D01*
X262091Y75249D01*
X261430Y75691D01*
X260650Y75846D01*
X259869Y75691D01*
X259208Y75249D01*
X258766Y74588D01*
X258610Y73807D01*
Y68807D01*
X258766Y68027D01*
X259208Y67365D01*
X259869Y66923D01*
X260650Y66768D01*
X261430Y66923D01*
X262091Y67365D01*
X263002Y68275D01*
X263480Y68130D01*
X263521Y67925D01*
X263971Y67252D01*
Y66293D01*
X263539Y65961D01*
X263098Y65387D01*
X262821Y64718D01*
X262726Y64000D01*
X262821Y63282D01*
X263098Y62613D01*
X263539Y62039D01*
X264113Y61598D01*
X264782Y61321D01*
X265500Y61226D01*
X266218Y61321D01*
X266887Y61598D01*
X267461Y62039D01*
X267902Y62613D01*
X267979Y62800D01*
X268521D01*
X268598Y62613D01*
X269039Y62039D01*
X269613Y61598D01*
X270282Y61321D01*
X271000Y61226D01*
X271718Y61321D01*
X272387Y61598D01*
X272961Y62039D01*
X273402Y62613D01*
X273679Y63282D01*
X273774Y64000D01*
X273679Y64718D01*
X273402Y65387D01*
X272961Y65961D01*
X272387Y66402D01*
X272179Y66488D01*
Y67111D01*
X272279Y67178D01*
X272778Y67925D01*
X272954Y68807D01*
X272778Y69689D01*
X272279Y70436D01*
X271531Y70936D01*
X270946Y71052D01*
Y71562D01*
X271531Y71678D01*
X272279Y72178D01*
X272778Y72925D01*
X272895Y73510D01*
X273405D01*
X273521Y72925D01*
X274020Y72178D01*
X274768Y71678D01*
X274973Y71638D01*
X275118Y71159D01*
X274208Y70249D01*
X273766Y69587D01*
X273610Y68807D01*
X273766Y68027D01*
X274208Y67365D01*
X274869Y66923D01*
X275650Y66768D01*
X276430Y66923D01*
X277092Y67365D01*
X278002Y68275D01*
X278480Y68130D01*
X278521Y67925D01*
X279018Y67181D01*
X278540Y66703D01*
X278000Y66774D01*
X277282Y66679D01*
X276613Y66402D01*
X276039Y65961D01*
X275598Y65387D01*
X275321Y64718D01*
X275226Y64000D01*
X275321Y63282D01*
X275598Y62613D01*
X276039Y62039D01*
X276613Y61598D01*
X277282Y61321D01*
X278000Y61226D01*
X278718Y61321D01*
X279387Y61598D01*
X279961Y62039D01*
X280402Y62613D01*
X280679Y63282D01*
X280774Y64000D01*
X280703Y64540D01*
X281731Y65568D01*
X282063Y66064D01*
X282179Y66650D01*
Y67111D01*
X282279Y67178D01*
X282778Y67925D01*
X282895Y68510D01*
X283404D01*
X283521Y67925D01*
X284020Y67178D01*
X284120Y67111D01*
Y66024D01*
X284039Y65961D01*
X283598Y65387D01*
X283321Y64718D01*
X283226Y64000D01*
X283321Y63282D01*
X283598Y62613D01*
X284039Y62039D01*
X284613Y61598D01*
X285282Y61321D01*
X286000Y61226D01*
X286718Y61321D01*
X287387Y61598D01*
X287961Y62039D01*
X288402Y62613D01*
X288556Y62984D01*
X289120Y63040D01*
X289208Y62909D01*
X289558Y62558D01*
X290220Y62116D01*
X291000Y61961D01*
X291780Y62116D01*
X292442Y62558D01*
X292884Y63220D01*
X293039Y64000D01*
X292884Y64780D01*
X292689Y65073D01*
Y68807D01*
X292534Y69587D01*
X292091Y70249D01*
X291430Y70691D01*
X290650Y70846D01*
X289869Y70691D01*
X289208Y70249D01*
X288766Y69587D01*
X288610Y68807D01*
Y65937D01*
X288110Y65767D01*
X287961Y65961D01*
X287387Y66402D01*
X287179Y66488D01*
Y67111D01*
X287279Y67178D01*
X287778Y67925D01*
X287954Y68807D01*
X287778Y69689D01*
X287279Y70436D01*
X286531Y70936D01*
X285650Y71111D01*
X284768Y70936D01*
X284020Y70436D01*
X283521Y69689D01*
X283404Y69104D01*
X282895D01*
X282778Y69689D01*
X282279Y70436D01*
X281531Y70936D01*
X281386Y70965D01*
X281235Y71429D01*
X281522Y71768D01*
X285650D01*
X286430Y71923D01*
X287091Y72365D01*
X287534Y73027D01*
X287689Y73807D01*
X287534Y74588D01*
X287091Y75249D01*
X286430Y75691D01*
X285650Y75846D01*
X282689D01*
Y77350D01*
X282534Y78131D01*
X282091Y78792D01*
X281442Y79442D01*
X280780Y79884D01*
X280000Y80039D01*
X279220Y79884D01*
X278558Y79442D01*
X278116Y78780D01*
X277961Y78000D01*
X278116Y77220D01*
X278558Y76558D01*
X278610Y76506D01*
Y74680D01*
X278272Y74393D01*
X277807Y74543D01*
X277778Y74689D01*
X277279Y75436D01*
X277179Y75503D01*
Y76350D01*
X277063Y76936D01*
X276731Y77432D01*
X275029Y79133D01*
Y83707D01*
X275461Y84039D01*
X275902Y84613D01*
X276179Y85282D01*
X276274Y86000D01*
X276179Y86718D01*
X275902Y87387D01*
X275461Y87961D01*
X274887Y88402D01*
X274218Y88679D01*
X273500Y88774D01*
X272782Y88679D01*
X272113Y88402D01*
X271970Y88292D01*
X271428Y88506D01*
X271427Y88512D01*
X271461Y88539D01*
X271902Y89113D01*
X272179Y89782D01*
X272274Y90500D01*
X272179Y91218D01*
X271902Y91887D01*
X271461Y92461D01*
X270887Y92902D01*
X270218Y93179D01*
X269500Y93274D01*
D02*
G37*
G36*
X295205Y94774D02*
X294487Y94679D01*
X293818Y94402D01*
X293243Y93961D01*
X292803Y93387D01*
X292526Y92718D01*
X292431Y92000D01*
X292526Y91282D01*
X292803Y90613D01*
X293243Y90039D01*
X293675Y89707D01*
Y74920D01*
X293521Y74689D01*
X293405Y74104D01*
X292895D01*
X292778Y74689D01*
X292279Y75436D01*
X292179Y75503D01*
Y77350D01*
X292063Y77936D01*
X291731Y78432D01*
X290029Y80133D01*
Y83707D01*
X290461Y84039D01*
X290902Y84613D01*
X291179Y85282D01*
X291274Y86000D01*
X291179Y86718D01*
X290902Y87387D01*
X290461Y87961D01*
X289887Y88402D01*
X289218Y88679D01*
X288500Y88774D01*
X287782Y88679D01*
X287113Y88402D01*
X286539Y87961D01*
X286098Y87387D01*
X285821Y86718D01*
X285726Y86000D01*
X285821Y85282D01*
X286098Y84613D01*
X286539Y84039D01*
X286971Y83707D01*
Y79500D01*
X287087Y78915D01*
X287419Y78419D01*
X289120Y76717D01*
Y75503D01*
X289020Y75436D01*
X288521Y74689D01*
X288346Y73807D01*
X288521Y72925D01*
X289020Y72178D01*
X289768Y71678D01*
X290650Y71503D01*
X291531Y71678D01*
X292279Y72178D01*
X292778Y72925D01*
X292895Y73510D01*
X293405D01*
X293521Y72925D01*
X294020Y72178D01*
X294768Y71678D01*
X295353Y71562D01*
Y71052D01*
X294768Y70936D01*
X294020Y70436D01*
X293521Y69689D01*
X293345Y68807D01*
X293521Y67925D01*
X294020Y67178D01*
X294120Y67111D01*
Y65416D01*
X294098Y65387D01*
X293821Y64718D01*
X293726Y64000D01*
X293821Y63282D01*
X294098Y62613D01*
X294539Y62039D01*
X295113Y61598D01*
X295782Y61321D01*
X296500Y61226D01*
X297218Y61321D01*
X297887Y61598D01*
X298461Y62039D01*
X298902Y62613D01*
X299179Y63282D01*
X299235Y63702D01*
X299248Y63803D01*
X299752D01*
X299765Y63702D01*
X299821Y63282D01*
X300098Y62613D01*
X300539Y62039D01*
X301113Y61598D01*
X301782Y61321D01*
X302500Y61226D01*
X303218Y61321D01*
X303887Y61598D01*
X304461Y62039D01*
X304902Y62613D01*
X305179Y63282D01*
X305274Y64000D01*
X305179Y64718D01*
X304902Y65387D01*
X304461Y65961D01*
X304029Y66293D01*
Y66883D01*
X304207Y67039D01*
X304496Y67172D01*
X304869Y66923D01*
X305650Y66768D01*
X306430Y66923D01*
X307091Y67365D01*
X307534Y68027D01*
X307689Y68807D01*
Y73807D01*
X307534Y74588D01*
X307091Y75249D01*
X304338Y78003D01*
X304183Y78780D01*
X303741Y79442D01*
X303080Y79884D01*
X302299Y80039D01*
X301519Y79884D01*
X300857Y79442D01*
X300436Y79021D01*
X299994Y78359D01*
X299839Y77579D01*
X299994Y76798D01*
X300332Y76293D01*
X300199Y75820D01*
X300142Y75745D01*
X299869Y75691D01*
X299208Y75249D01*
X298766Y74588D01*
X298610Y73807D01*
X298766Y73027D01*
X299208Y72365D01*
X299869Y71923D01*
X300650Y71768D01*
X303610D01*
Y69032D01*
X303429Y68856D01*
X303183Y68752D01*
X303127Y68744D01*
X302937Y68889D01*
X302778Y69689D01*
X302279Y70436D01*
X301531Y70936D01*
X300650Y71111D01*
X299768Y70936D01*
X299020Y70436D01*
X298521Y69689D01*
X298405Y69104D01*
X297895D01*
X297778Y69689D01*
X297279Y70436D01*
X296531Y70936D01*
X295946Y71052D01*
Y71562D01*
X296531Y71678D01*
X297279Y72178D01*
X297778Y72925D01*
X297954Y73807D01*
X297778Y74689D01*
X297279Y75436D01*
X296734Y75800D01*
Y89707D01*
X297166Y90039D01*
X297607Y90613D01*
X297884Y91282D01*
X297978Y92000D01*
X297884Y92718D01*
X297607Y93387D01*
X297166Y93961D01*
X296592Y94402D01*
X295923Y94679D01*
X295205Y94774D01*
D02*
G37*
G36*
X195650Y76111D02*
X194768Y75936D01*
X194020Y75436D01*
X193521Y74689D01*
X193404Y74104D01*
X192895D01*
X192778Y74689D01*
X192279Y75436D01*
X191531Y75936D01*
X190650Y76111D01*
X189768Y75936D01*
X189020Y75436D01*
X188521Y74689D01*
X188346Y73807D01*
X188521Y72925D01*
X189020Y72178D01*
X189768Y71678D01*
X190650Y71503D01*
X191531Y71678D01*
X192279Y72178D01*
X192778Y72925D01*
X192895Y73510D01*
X193404D01*
X193521Y72925D01*
X194020Y72178D01*
X194768Y71678D01*
X195650Y71503D01*
X196531Y71678D01*
X197279Y72178D01*
X197778Y72925D01*
X197954Y73807D01*
X197778Y74689D01*
X197279Y75436D01*
X196531Y75936D01*
X195650Y76111D01*
D02*
G37*
G36*
X369000Y80039D02*
X368220Y79884D01*
X367558Y79442D01*
X367116Y78780D01*
X366961Y78000D01*
X367116Y77220D01*
X367558Y76558D01*
X368610Y75506D01*
Y73807D01*
X368766Y73027D01*
X369208Y72365D01*
X369869Y71923D01*
X370650Y71768D01*
X371430Y71923D01*
X372092Y72365D01*
X372534Y73027D01*
X372689Y73807D01*
Y76350D01*
X372534Y77131D01*
X372092Y77792D01*
X370442Y79442D01*
X369780Y79884D01*
X369000Y80039D01*
D02*
G37*
G36*
X362299D02*
X361519Y79884D01*
X360857Y79442D01*
X359208Y77792D01*
X358766Y77131D01*
X358610Y76350D01*
Y73807D01*
X358766Y73027D01*
X359208Y72365D01*
X359869Y71923D01*
X360650Y71768D01*
X361430Y71923D01*
X362091Y72365D01*
X362534Y73027D01*
X362689Y73807D01*
Y75506D01*
X363741Y76558D01*
X364183Y77220D01*
X364338Y78000D01*
X364183Y78780D01*
X363741Y79442D01*
X363080Y79884D01*
X362299Y80039D01*
D02*
G37*
G36*
X350000D02*
X349220Y79884D01*
X348558Y79442D01*
X348116Y78780D01*
X347961Y78000D01*
Y75846D01*
X340650D01*
X339869Y75691D01*
X339208Y75249D01*
X338766Y74588D01*
X338610Y73807D01*
X338766Y73027D01*
X339208Y72365D01*
X339869Y71923D01*
X340650Y71768D01*
X350650D01*
X351430Y71923D01*
X352092Y72365D01*
X352534Y73027D01*
X352689Y73807D01*
X352534Y74588D01*
X352092Y75249D01*
X352039Y75301D01*
Y78000D01*
X351884Y78780D01*
X351442Y79442D01*
X350780Y79884D01*
X350000Y80039D01*
D02*
G37*
G36*
X184457Y77039D02*
X180000D01*
X179220Y76884D01*
X178558Y76442D01*
X178116Y75780D01*
X177961Y75000D01*
X178116Y74220D01*
X178558Y73558D01*
X179220Y73116D01*
X180000Y72961D01*
X183612D01*
X184208Y72365D01*
X184869Y71923D01*
X185650Y71768D01*
X186430Y71923D01*
X187092Y72365D01*
X187534Y73027D01*
X187689Y73807D01*
X187534Y74588D01*
X187092Y75249D01*
X185899Y76442D01*
X185237Y76884D01*
X184457Y77039D01*
D02*
G37*
G36*
X365650Y76111D02*
X364768Y75936D01*
X364020Y75436D01*
X363521Y74689D01*
X363346Y73807D01*
X363521Y72925D01*
X364020Y72178D01*
X364768Y71678D01*
X365650Y71503D01*
X366531Y71678D01*
X367279Y72178D01*
X367778Y72925D01*
X367954Y73807D01*
X367778Y74689D01*
X367279Y75436D01*
X366531Y75936D01*
X365650Y76111D01*
D02*
G37*
G36*
X355650D02*
X354768Y75936D01*
X354020Y75436D01*
X353521Y74689D01*
X353345Y73807D01*
X353521Y72925D01*
X354020Y72178D01*
X354768Y71678D01*
X355650Y71503D01*
X356531Y71678D01*
X357279Y72178D01*
X357778Y72925D01*
X357954Y73807D01*
X357778Y74689D01*
X357279Y75436D01*
X356531Y75936D01*
X355650Y76111D01*
D02*
G37*
G36*
Y70846D02*
X354869Y70691D01*
X354208Y70249D01*
X353766Y69587D01*
X353610Y68807D01*
Y65494D01*
X353558Y65442D01*
X353116Y64780D01*
X352961Y64000D01*
X353116Y63220D01*
X353558Y62558D01*
X354220Y62116D01*
X355000Y61961D01*
X355780Y62116D01*
X356442Y62558D01*
X357091Y63208D01*
X357534Y63869D01*
X357689Y64650D01*
Y68807D01*
X357534Y69587D01*
X357091Y70249D01*
X356430Y70691D01*
X355650Y70846D01*
D02*
G37*
G36*
X310000Y81774D02*
X309282Y81679D01*
X308613Y81402D01*
X308039Y80961D01*
X307598Y80387D01*
X307321Y79718D01*
X307226Y79000D01*
X307321Y78282D01*
X307598Y77613D01*
X308039Y77039D01*
X308613Y76598D01*
X309120Y76388D01*
Y75503D01*
X309020Y75436D01*
X308521Y74689D01*
X308346Y73807D01*
X308521Y72925D01*
X309020Y72178D01*
X309768Y71678D01*
X310353Y71562D01*
Y71052D01*
X309768Y70936D01*
X309020Y70436D01*
X308521Y69689D01*
X308346Y68807D01*
X308373Y68670D01*
X308087Y68243D01*
X307971Y67658D01*
Y66293D01*
X307539Y65961D01*
X307098Y65387D01*
X306821Y64718D01*
X306726Y64000D01*
X306821Y63282D01*
X307098Y62613D01*
X307539Y62039D01*
X308113Y61598D01*
X308782Y61321D01*
X309500Y61226D01*
X310218Y61321D01*
X310887Y61598D01*
X311461Y62039D01*
X311902Y62613D01*
X312179Y63282D01*
X312274Y64000D01*
X312179Y64718D01*
X311902Y65387D01*
X311461Y65961D01*
X311261Y66115D01*
X311386Y66649D01*
X311531Y66678D01*
X312279Y67178D01*
X312778Y67925D01*
X312895Y68510D01*
X313404D01*
X313521Y67925D01*
X314020Y67178D01*
X314768Y66678D01*
X315073Y66618D01*
X315197Y66083D01*
X315039Y65961D01*
X314598Y65387D01*
X314321Y64718D01*
X314226Y64000D01*
X314321Y63282D01*
X314598Y62613D01*
X315039Y62039D01*
X315613Y61598D01*
X316282Y61321D01*
X317000Y61226D01*
X317718Y61321D01*
X318387Y61598D01*
X318961Y62039D01*
X319402Y62613D01*
X319679Y63282D01*
X319774Y64000D01*
X319679Y64718D01*
X319402Y65387D01*
X318961Y65961D01*
X318529Y66293D01*
Y67457D01*
X318413Y68042D01*
X318081Y68538D01*
X317930Y68689D01*
X317954Y68807D01*
X317778Y69689D01*
X317279Y70436D01*
X316531Y70936D01*
X315946Y71052D01*
Y71562D01*
X316531Y71678D01*
X317279Y72178D01*
X317778Y72925D01*
X317954Y73807D01*
X317778Y74689D01*
X317279Y75436D01*
X316531Y75936D01*
X315650Y76111D01*
X314768Y75936D01*
X314020Y75436D01*
X313521Y74689D01*
X313404Y74104D01*
X312895D01*
X312778Y74689D01*
X312279Y75436D01*
X312179Y75503D01*
Y77322D01*
X312402Y77613D01*
X312679Y78282D01*
X312774Y79000D01*
X312679Y79718D01*
X312402Y80387D01*
X311961Y80961D01*
X311387Y81402D01*
X310718Y81679D01*
X310000Y81774D01*
D02*
G37*
G36*
X480000Y24035D02*
X478956Y23897D01*
X477983Y23494D01*
X477147Y22853D01*
X476506Y22017D01*
X476103Y21044D01*
X475965Y20000D01*
X476103Y18956D01*
X476506Y17983D01*
X477147Y17147D01*
X477983Y16506D01*
X478956Y16103D01*
X480000Y15966D01*
X481044Y16103D01*
X482017Y16506D01*
X482853Y17147D01*
X483494Y17983D01*
X483897Y18956D01*
X484034Y20000D01*
X483897Y21044D01*
X483494Y22017D01*
X482853Y22853D01*
X482017Y23494D01*
X481044Y23897D01*
X480000Y24035D01*
D02*
G37*
G36*
X470000D02*
X468956Y23897D01*
X467983Y23494D01*
X467147Y22853D01*
X466506Y22017D01*
X466103Y21044D01*
X465966Y20000D01*
X466103Y18956D01*
X466506Y17983D01*
X467147Y17147D01*
X467983Y16506D01*
X468956Y16103D01*
X470000Y15966D01*
X471044Y16103D01*
X472017Y16506D01*
X472853Y17147D01*
X473494Y17983D01*
X473897Y18956D01*
X474035Y20000D01*
X473897Y21044D01*
X473494Y22017D01*
X472853Y22853D01*
X472017Y23494D01*
X471044Y23897D01*
X470000Y24035D01*
D02*
G37*
%LPD*%
G36*
X455883Y123882D02*
X456395Y123540D01*
X456701Y123479D01*
X457039Y123039D01*
X457613Y122598D01*
X458282Y122321D01*
X459000Y122226D01*
X459476Y122289D01*
X465685Y116080D01*
X465478Y115580D01*
X433655D01*
X356118Y193117D01*
X355605Y193460D01*
X355000Y193580D01*
X287655D01*
X276315Y204920D01*
X276522Y205420D01*
X277345D01*
X286383Y196382D01*
X286895Y196040D01*
X287500Y195920D01*
X321194D01*
X321613Y195598D01*
X322282Y195321D01*
X323000Y195226D01*
X323718Y195321D01*
X324387Y195598D01*
X324961Y196039D01*
X325402Y196613D01*
X325679Y197282D01*
X325774Y198000D01*
X325679Y198718D01*
X325402Y199387D01*
X325337Y199471D01*
X325559Y199920D01*
X331246D01*
X331539Y199539D01*
X332113Y199098D01*
X332782Y198821D01*
X333500Y198726D01*
X334218Y198821D01*
X334887Y199098D01*
X335461Y199539D01*
X335902Y200113D01*
X336179Y200782D01*
X336274Y201500D01*
X336179Y202218D01*
X335902Y202887D01*
X335461Y203461D01*
X334887Y203902D01*
X334218Y204179D01*
X333500Y204274D01*
X332782Y204179D01*
X332113Y203902D01*
X331539Y203461D01*
X331246Y203080D01*
X314022D01*
X313815Y203580D01*
X316155Y205920D01*
X373845D01*
X455883Y123882D01*
D02*
G37*
G36*
X125491Y196491D02*
X125491Y196491D01*
X125954Y196181D01*
X126500Y196073D01*
X126500Y196073D01*
X130403D01*
X130670Y195573D01*
X130573Y195427D01*
X115099D01*
X114908Y195889D01*
X118591Y199573D01*
X122409D01*
X125491Y196491D01*
D02*
G37*
G36*
X177146Y188309D02*
X160866Y172029D01*
X153000D01*
X152415Y171913D01*
X151919Y171581D01*
X132540Y152203D01*
X132000Y152274D01*
X131282Y152179D01*
X130613Y151902D01*
X130039Y151461D01*
X129598Y150887D01*
X129321Y150218D01*
X129226Y149500D01*
X129321Y148782D01*
X129598Y148113D01*
X129662Y148029D01*
X129416Y147529D01*
X127084D01*
X126838Y148029D01*
X126902Y148113D01*
X127179Y148782D01*
X127274Y149500D01*
X127179Y150218D01*
X126902Y150887D01*
X126461Y151461D01*
X126029Y151793D01*
Y161866D01*
X140134Y175971D01*
X162000D01*
X162585Y176087D01*
X163081Y176419D01*
X175434Y188771D01*
X176954D01*
X177146Y188309D01*
D02*
G37*
G36*
X189079Y119228D02*
X200921D01*
Y120237D01*
X201421Y120344D01*
X205883Y115883D01*
X206395Y115540D01*
X207000Y115420D01*
X229746D01*
X230039Y115039D01*
X230613Y114598D01*
X231282Y114321D01*
X232000Y114226D01*
X232718Y114321D01*
X233387Y114598D01*
X233961Y115039D01*
X234254Y115420D01*
X283345D01*
X284803Y113962D01*
X284505Y113560D01*
X283900Y113680D01*
X237100D01*
X236840Y113629D01*
X236718Y113679D01*
X236000Y113774D01*
X235282Y113679D01*
X234613Y113402D01*
X234039Y112961D01*
X233746Y112580D01*
X226921D01*
Y113772D01*
X215079D01*
Y112529D01*
X210293D01*
X209961Y112961D01*
X209387Y113402D01*
X208718Y113679D01*
X208000Y113774D01*
X207282Y113679D01*
X206613Y113402D01*
X206039Y112961D01*
X205707Y112529D01*
X164000D01*
X163415Y112413D01*
X162919Y112081D01*
X147869Y97032D01*
X147387Y97402D01*
X146718Y97679D01*
X146000Y97774D01*
X145282Y97679D01*
X144613Y97402D01*
X144039Y96961D01*
X143598Y96387D01*
X143321Y95718D01*
X143226Y95000D01*
X143321Y94282D01*
X143598Y93613D01*
X144039Y93039D01*
X144613Y92598D01*
X145282Y92321D01*
X146000Y92226D01*
X146718Y92321D01*
X147387Y92598D01*
X147961Y93039D01*
X148345Y93539D01*
X148585Y93587D01*
X149081Y93919D01*
X156464Y101301D01*
X156852Y100982D01*
X156587Y100585D01*
X156471Y100000D01*
Y67000D01*
X156587Y66415D01*
X156919Y65919D01*
X181046Y41791D01*
X180854Y41329D01*
X161763D01*
X161688Y41829D01*
X162168Y41975D01*
X163538Y42707D01*
X164740Y43693D01*
X165726Y44895D01*
X166458Y46265D01*
X166910Y47753D01*
X167062Y49299D01*
X166910Y50846D01*
X166458Y52333D01*
X165726Y53704D01*
X164740Y54905D01*
X163538Y55891D01*
X162168Y56624D01*
X160680Y57075D01*
X159134Y57227D01*
X157587Y57075D01*
X156100Y56624D01*
X154729Y55891D01*
X153528Y54905D01*
X152542Y53704D01*
X151809Y52333D01*
X151358Y50846D01*
X151206Y49299D01*
X151358Y47753D01*
X151809Y46265D01*
X152542Y44895D01*
X153528Y43693D01*
X154729Y42707D01*
X156100Y41975D01*
X156579Y41829D01*
X156505Y41329D01*
X152833D01*
X143529Y50634D01*
Y54207D01*
X143961Y54539D01*
X144402Y55113D01*
X144679Y55782D01*
X144774Y56500D01*
X144679Y57218D01*
X144402Y57887D01*
X143961Y58461D01*
X143387Y58902D01*
X142718Y59179D01*
X142000Y59274D01*
X141282Y59179D01*
X140613Y58902D01*
X140039Y58461D01*
X139598Y57887D01*
X139321Y57218D01*
X139226Y56500D01*
X139321Y55782D01*
X139598Y55113D01*
X140039Y54539D01*
X140471Y54207D01*
Y50000D01*
X140587Y49415D01*
X140919Y48919D01*
X150808Y39029D01*
X150601Y38529D01*
X150134D01*
X141081Y47581D01*
X140585Y47913D01*
X140000Y48029D01*
X133293D01*
X132961Y48461D01*
X132387Y48902D01*
X131718Y49179D01*
X131000Y49274D01*
X130282Y49179D01*
X129613Y48902D01*
X129039Y48461D01*
X128598Y47887D01*
X128321Y47218D01*
X128226Y46500D01*
X128321Y45782D01*
X128598Y45113D01*
X129039Y44539D01*
X129613Y44098D01*
X130282Y43821D01*
X131000Y43726D01*
X131718Y43821D01*
X132387Y44098D01*
X132961Y44539D01*
X133293Y44971D01*
X134679D01*
X134778Y44471D01*
X134613Y44402D01*
X134039Y43961D01*
X133598Y43387D01*
X133321Y42718D01*
X133226Y42000D01*
X133321Y41282D01*
X133598Y40613D01*
X134039Y40039D01*
X134051Y40029D01*
X133881Y39529D01*
X133293D01*
X132961Y39961D01*
X132387Y40402D01*
X131718Y40679D01*
X131000Y40774D01*
X130282Y40679D01*
X129613Y40402D01*
X129039Y39961D01*
X128598Y39387D01*
X128321Y38718D01*
X128226Y38000D01*
X128321Y37282D01*
X128598Y36613D01*
X129039Y36039D01*
X129613Y35598D01*
X130282Y35321D01*
X131000Y35226D01*
X131718Y35321D01*
X132387Y35598D01*
X132961Y36039D01*
X133293Y36471D01*
X133881D01*
X134051Y35971D01*
X134039Y35961D01*
X133598Y35387D01*
X133321Y34718D01*
X133226Y34000D01*
X133321Y33282D01*
X133598Y32613D01*
X134039Y32039D01*
X134613Y31598D01*
X135282Y31321D01*
X136000Y31226D01*
X136540Y31297D01*
X141808Y26029D01*
X141671Y25592D01*
X141623Y25529D01*
X133633D01*
X126029Y33134D01*
Y68909D01*
X126405Y69239D01*
X126500Y69226D01*
X127218Y69321D01*
X127887Y69598D01*
X128461Y70039D01*
X128902Y70613D01*
X129179Y71282D01*
X129274Y72000D01*
X129179Y72718D01*
X128902Y73387D01*
X128461Y73961D01*
X127887Y74402D01*
X127218Y74679D01*
X126500Y74774D01*
X125782Y74679D01*
X125113Y74402D01*
X124539Y73961D01*
X124098Y73387D01*
X124029Y73221D01*
X123529Y73321D01*
Y86366D01*
X138062Y100899D01*
X138486Y100616D01*
X138321Y100218D01*
X138226Y99500D01*
X138321Y98782D01*
X138598Y98113D01*
X139039Y97539D01*
X139613Y97098D01*
X140282Y96821D01*
X141000Y96726D01*
X141718Y96821D01*
X142387Y97098D01*
X142961Y97539D01*
X143402Y98113D01*
X143679Y98782D01*
X143774Y99500D01*
X143679Y100218D01*
X143592Y100429D01*
X163634Y120471D01*
X179707D01*
X180039Y120039D01*
X180613Y119598D01*
X181282Y119321D01*
X182000Y119226D01*
X182718Y119321D01*
X183387Y119598D01*
X183961Y120039D01*
X184293Y120471D01*
X189079D01*
Y119228D01*
D02*
G37*
D22*
X115000Y238740D02*
D03*
Y231260D02*
D03*
X400000Y73260D02*
D03*
Y80740D02*
D03*
X57465Y92968D02*
D03*
Y85488D02*
D03*
D23*
X124000Y238150D02*
D03*
Y231850D02*
D03*
X408000Y74850D02*
D03*
Y81150D02*
D03*
X101528Y131110D02*
D03*
Y137409D02*
D03*
X93528Y131110D02*
D03*
Y137409D02*
D03*
X281000Y133850D02*
D03*
Y140150D02*
D03*
X290378Y131110D02*
D03*
Y137409D02*
D03*
X302000Y130850D02*
D03*
Y137150D02*
D03*
X457543Y138110D02*
D03*
Y144410D02*
D03*
X467543Y131110D02*
D03*
Y137409D02*
D03*
X478543Y131110D02*
D03*
Y137409D02*
D03*
X519500Y156591D02*
D03*
Y150291D02*
D03*
X515772Y77709D02*
D03*
Y71409D02*
D03*
X355772Y115622D02*
D03*
Y109323D02*
D03*
X345772Y160677D02*
D03*
Y154378D02*
D03*
X29228Y169315D02*
D03*
Y175614D02*
D03*
X27465Y89378D02*
D03*
Y83079D02*
D03*
X49465Y91378D02*
D03*
Y85079D02*
D03*
D24*
X530150Y124000D02*
D03*
X523850D02*
D03*
X233150Y138000D02*
D03*
X226850D02*
D03*
X32150Y117000D02*
D03*
X25850D02*
D03*
X377850Y97000D02*
D03*
X384150D02*
D03*
X78150Y131000D02*
D03*
X71850D02*
D03*
X501350Y161441D02*
D03*
X507650D02*
D03*
X503350Y139441D02*
D03*
X509650D02*
D03*
X497622Y82559D02*
D03*
X503921D02*
D03*
X499622Y60559D02*
D03*
X505921D02*
D03*
X337622Y120472D02*
D03*
X343921D02*
D03*
X339622Y98472D02*
D03*
X345921D02*
D03*
X327622Y165528D02*
D03*
X333921D02*
D03*
X329622Y143528D02*
D03*
X335921D02*
D03*
X45378Y186465D02*
D03*
X39079D02*
D03*
X47378Y164465D02*
D03*
X41079D02*
D03*
X44614Y73228D02*
D03*
X38315D02*
D03*
D26*
X526500Y156346D02*
D03*
Y150441D02*
D03*
X522772Y77512D02*
D03*
Y71606D02*
D03*
X362772Y115425D02*
D03*
Y109520D02*
D03*
X352772Y160433D02*
D03*
Y154528D02*
D03*
X22228Y169512D02*
D03*
Y175417D02*
D03*
X272000Y174953D02*
D03*
Y169047D02*
D03*
X272047Y183095D02*
D03*
Y189000D02*
D03*
D27*
X505953Y115000D02*
D03*
X500047D02*
D03*
X258047Y146000D02*
D03*
X263953D02*
D03*
X40047Y139000D02*
D03*
X45953D02*
D03*
X44370Y66228D02*
D03*
X38465D02*
D03*
X192047Y122000D02*
D03*
X197953D02*
D03*
X218047Y111000D02*
D03*
X223953D02*
D03*
D29*
X272330Y235000D02*
X452500D01*
X257181Y219850D02*
X272330Y235000D01*
X207500Y241000D02*
X432000D01*
X196000Y229500D02*
X207500Y241000D01*
X209500Y247500D02*
X425000D01*
X97000Y265000D02*
X102000Y270000D01*
X145000D01*
X180500Y234500D01*
X27000Y236000D02*
X70000D01*
X25000Y238000D02*
X27000Y236000D01*
X37500Y241500D02*
X64000D01*
X41500Y207500D02*
X54000D01*
X38000Y205000D02*
X53000D01*
X50500Y203000D02*
X57500Y196000D01*
X35000Y203000D02*
X50500D01*
X25000Y198000D02*
X49000D01*
X32500Y200500D02*
X49500D01*
X31000Y194000D02*
X49500D01*
X15000Y238000D02*
X21000Y244000D01*
X35000D01*
X37500Y241500D01*
X25000Y228000D02*
X39500D01*
X15000D02*
X20000Y223000D01*
X54000Y207500D02*
X60500Y201000D01*
X31000Y218000D02*
X41500Y207500D01*
X25000Y218000D02*
X31000D01*
X15000D02*
X20000Y213000D01*
X30000D01*
X38000Y205000D01*
X25000Y208000D02*
X30000D01*
X15000D02*
X20000Y203000D01*
X30000D01*
X49000Y198000D02*
X55500Y191500D01*
X15000Y198000D02*
X22000Y191000D01*
X28000D01*
X31000Y194000D01*
X49500D02*
X54500Y189000D01*
X49500Y200500D02*
X56000Y194000D01*
X53000Y205000D02*
X59500Y198500D01*
X193500Y231500D02*
X209500Y247500D01*
X193500Y209000D02*
Y231500D01*
X196000Y216000D02*
Y229500D01*
Y216000D02*
X200500Y211500D01*
X246350Y219850D02*
X257181D01*
X238000Y211500D02*
X246350Y219850D01*
X220000Y211500D02*
X238000D01*
X30000Y208000D02*
X35000Y203000D01*
X59500Y198500D02*
X111500D01*
X57500Y196000D02*
X113000D01*
X56000Y194000D02*
X131500D01*
X55500Y191500D02*
X133500D01*
X60500Y201000D02*
X110500D01*
X30000Y203000D02*
X32500Y200500D01*
X54500Y189000D02*
X135000D01*
X159500Y198000D02*
X164000Y202500D01*
X180500Y217500D02*
Y234500D01*
X110000Y203500D02*
X115500Y209000D01*
X110500Y201000D02*
X116000Y206500D01*
X108000Y206000D02*
X120500Y218500D01*
X155500D01*
X161500Y212500D01*
X177000D01*
X115500Y209000D02*
X141000D01*
X147500Y215500D01*
X152500D01*
X148150Y212350D02*
X153681D01*
X148000Y212500D02*
X148150Y212350D01*
X142000Y206500D02*
X148000Y212500D01*
X116000Y206500D02*
X142000D01*
X164000Y195000D02*
X168000Y199000D01*
X177000D01*
X156530Y209500D02*
X173000D01*
X148850Y206350D02*
X176850D01*
X153681Y212350D02*
X156530Y209500D01*
X164000Y202500D02*
X173500D01*
X111500Y198500D02*
X117000Y204000D01*
X149000Y209500D02*
X152500D01*
X149000Y200000D02*
X152500Y203500D01*
X117000Y204000D02*
X143500D01*
X149000Y209500D01*
X136000Y202000D02*
X144500D01*
X131500Y197500D02*
X136000Y202000D01*
X144500D02*
X148850Y206350D01*
X113000Y196000D02*
X118000Y201000D01*
X123000D01*
X126500Y197500D01*
X131500D01*
Y194000D02*
X137500Y200000D01*
X133500Y191500D02*
X140000Y198000D01*
X137500Y200000D02*
X149000D01*
X135000Y189000D02*
X141000Y195000D01*
X140000Y198000D02*
X159500D01*
X141000Y195000D02*
X164000D01*
X285650Y53807D02*
Y55350D01*
X283000Y58000D02*
X285650Y55350D01*
X290650Y55650D02*
X293000Y58000D01*
X290650Y53807D02*
Y55650D01*
X20000Y223000D02*
X41500D01*
X61000Y203500D02*
X110000D01*
X41500Y223000D02*
X61000Y203500D01*
X62000Y206000D02*
X108000D01*
X40000Y228000D02*
X62000Y206000D01*
D30*
X195650Y48807D02*
X200650Y53807D01*
X116000Y264000D02*
X117000Y265000D01*
X116000Y239740D02*
Y264000D01*
X281000Y141150D02*
Y145000D01*
X507650Y161441D02*
X512941D01*
X507240Y169441D02*
X512941D01*
X343512Y128472D02*
X349472D01*
X345772Y98323D02*
X348095Y96000D01*
X351000D01*
X345772Y98323D02*
X345921Y98472D01*
X326031Y167118D02*
Y173528D01*
X333921Y165528D02*
Y173118D01*
X302000Y137150D02*
Y142000D01*
X300000Y125000D02*
Y128850D01*
X302000Y130850D01*
X281000Y129000D02*
Y133850D01*
X101528Y126472D02*
Y131110D01*
Y126472D02*
X103000Y125000D01*
X93000Y130583D02*
X93528Y131110D01*
X93000Y125000D02*
Y130583D01*
X78150Y131000D02*
X83000D01*
X67000D02*
X71850D01*
X467543Y125260D02*
Y131110D01*
X457543Y132260D02*
Y138110D01*
X27315Y83228D02*
X27465Y83079D01*
X49465Y91378D02*
X51055Y92968D01*
X49465Y91378D02*
Y96228D01*
X57465Y92968D02*
Y98228D01*
X51055Y92968D02*
X57465D01*
X49465Y85079D02*
X57055D01*
X23465Y83228D02*
X27315D01*
X33465Y73228D02*
X38315D01*
X44370Y66228D02*
X50417D01*
X44614Y73228D02*
X49465D01*
X39079Y186465D02*
X39228Y186614D01*
X47378Y164465D02*
X48968Y162874D01*
X36228Y164465D02*
X41079D01*
X47378D02*
X52228D01*
X36228Y156465D02*
X41488D01*
X48968D02*
X54228D01*
X39228Y186614D02*
Y190465D01*
X29228Y175614D02*
Y180465D01*
X48968Y156465D02*
Y162874D01*
X41079Y156874D02*
Y164465D01*
X29228D02*
Y169315D01*
X22228Y163512D02*
Y169559D01*
X322772Y165528D02*
X327622D01*
X320772Y173528D02*
X326031D01*
X333921Y165528D02*
X338772D01*
X352772Y160433D02*
Y166480D01*
X345772Y160677D02*
Y165528D01*
Y149528D02*
Y154378D01*
X335772Y143378D02*
X335921Y143528D01*
X333512Y173528D02*
X338772D01*
X326031Y167118D02*
X327622Y165528D01*
X330772Y128472D02*
X336032D01*
Y122063D02*
Y128472D01*
Y122063D02*
X337622Y120472D01*
X343921D02*
Y128063D01*
X355772Y104472D02*
Y109323D01*
Y115622D02*
Y120472D01*
X362772Y115378D02*
Y121425D01*
X332772Y120472D02*
X337622D01*
X496032Y84150D02*
Y90559D01*
Y84150D02*
X497622Y82559D01*
X503512Y90559D02*
X508772D01*
X503921Y82559D02*
Y90150D01*
X505772Y56559D02*
Y60409D01*
X505921Y60559D01*
X515772Y66559D02*
Y71409D01*
Y77709D02*
Y82559D01*
X522772Y77465D02*
Y83512D01*
X503921Y82559D02*
X508772D01*
X490772Y90559D02*
X496032D01*
X492772Y82559D02*
X497622D01*
X496500Y161441D02*
X501350D01*
X494500Y169441D02*
X499760D01*
X526500Y156346D02*
Y162394D01*
X519500Y156591D02*
Y161441D01*
Y145441D02*
Y150291D01*
X509500Y139291D02*
X509650Y139441D01*
X509500Y135441D02*
Y139291D01*
X507650Y161441D02*
Y169032D01*
X499760Y163031D02*
X501350Y161441D01*
X499760Y163031D02*
Y169441D01*
X478543Y137409D02*
Y142260D01*
X467543Y137409D02*
Y142260D01*
X457543Y144410D02*
Y149260D01*
X290378Y137409D02*
Y142260D01*
Y125260D02*
Y131110D01*
X93528Y137409D02*
Y142260D01*
X101528Y137409D02*
Y142260D01*
X115000Y238740D02*
X116000Y239740D01*
X115000Y238740D02*
X123409D01*
X115000Y226000D02*
Y231260D01*
X124000Y226000D02*
Y231850D01*
X20000Y117000D02*
X25850D01*
X245000Y155724D02*
Y163000D01*
X518000Y124000D02*
X523850D01*
X520000Y98000D02*
Y105276D01*
X478197Y125260D02*
X478543Y125606D01*
Y131110D01*
X335772Y139528D02*
Y143378D01*
X221000Y138000D02*
X226850D01*
X343921Y120472D02*
X344449Y121000D01*
X350000D01*
D31*
X512480Y77709D02*
X515772D01*
X29228Y169315D02*
X32543D01*
X32150Y117000D02*
Y127575D01*
X30724Y129000D02*
X32150Y127575D01*
X30724Y139000D02*
X40047D01*
X235000Y139850D02*
Y146276D01*
X233150Y138000D02*
X235000Y139850D01*
X245000Y146276D02*
X257772D01*
X530000Y114724D02*
Y123850D01*
D32*
X152200Y39800D02*
X198800D01*
X142000Y50000D02*
X152200Y39800D01*
X142000Y50000D02*
Y56500D01*
X80000Y71000D02*
X141000Y132000D01*
X80000Y30000D02*
Y71000D01*
X90000Y75500D02*
X180579Y166079D01*
X90000Y20000D02*
Y75500D01*
X70000Y66000D02*
X132000Y128000D01*
X70000Y20000D02*
Y66000D01*
X50000Y56000D02*
X119000Y125000D01*
X50000Y20000D02*
Y56000D01*
X60000Y61500D02*
X124500Y126000D01*
X60000Y30000D02*
Y61500D01*
X124500Y126000D02*
Y142000D01*
X133000Y24000D02*
X249000D01*
X124500Y32500D02*
X133000Y24000D01*
X124500Y32500D02*
Y70000D01*
X130000Y15000D02*
X263546D01*
X115000Y30000D02*
X130000Y15000D01*
X115000Y30000D02*
Y91000D01*
X131000Y18000D02*
X256000D01*
X118500Y30500D02*
X131000Y18000D01*
X118500Y30500D02*
Y88500D01*
X132000Y21000D02*
X255000D01*
X122000Y31000D02*
X132000Y21000D01*
X122000Y31000D02*
Y87000D01*
X263546Y15000D02*
X276000Y27454D01*
X256000Y18000D02*
X280650Y42650D01*
X255000Y21000D02*
X275650Y41650D01*
X249000Y24000D02*
X260650Y35650D01*
X217000Y27000D02*
X235650Y45650D01*
X143000Y27000D02*
X217000D01*
X136000Y34000D02*
X143000Y27000D01*
X118500Y88500D02*
X167000Y137000D01*
X115000Y91000D02*
X168000Y144000D01*
X100000Y81000D02*
X177000Y158000D01*
X100000Y30000D02*
Y81000D01*
X141000Y132000D02*
Y142000D01*
X132000Y128000D02*
Y142000D01*
X122000Y87000D02*
X166000Y131000D01*
X119000Y125000D02*
Y142000D01*
X302500Y23000D02*
X304000D01*
X290650Y34850D02*
X302500Y23000D01*
X276000Y27454D02*
Y32000D01*
X178000Y131000D02*
X179000Y130000D01*
X166000Y131000D02*
X178000D01*
X167000Y137000D02*
X184000D01*
X177000Y158000D02*
X189000D01*
X419500Y74000D02*
X446000D01*
X500000Y20000D01*
X451732Y58500D02*
X490000Y20232D01*
X440500Y58500D02*
X451732D01*
X490000Y20000D02*
Y20232D01*
X275650Y41650D02*
Y48807D01*
X280650Y42650D02*
Y48807D01*
X180579Y166079D02*
X190921D01*
X141000Y100000D02*
X163000Y122000D01*
X141000Y99500D02*
Y100000D01*
X148000Y95000D02*
X164000Y111000D01*
X146000Y95000D02*
X148000D01*
X107000Y146000D02*
X149500D01*
X101000Y152000D02*
X107000Y146000D01*
X119000Y149500D02*
Y162000D01*
X138000Y181000D01*
X161000D01*
X139500Y177500D02*
X162000D01*
X124500Y162500D02*
X139500Y177500D01*
X162000D02*
X174800Y190300D01*
X161000Y181000D02*
X171550Y191550D01*
X171722D01*
X172172Y192000D01*
X192000D01*
X174800Y190300D02*
X188200D01*
X192000Y192000D02*
X198000Y186000D01*
X188200Y190300D02*
X192890Y185610D01*
X185000Y188500D02*
X187000Y186500D01*
X179500Y188500D02*
X185000D01*
X161500Y170500D02*
X179500Y188500D01*
X187000Y183500D02*
Y186500D01*
X153000Y170500D02*
X161500D01*
X198000Y183500D02*
Y186000D01*
X124500Y149500D02*
Y162500D01*
X132000Y149500D02*
X153000Y170500D01*
X192890Y183390D02*
Y185610D01*
X305000Y58000D02*
X305650Y57350D01*
Y53807D02*
Y57350D01*
X298500Y58000D02*
X300650Y55850D01*
Y53807D02*
Y55850D01*
X406500Y61000D02*
X419500Y74000D01*
X365000Y61000D02*
X406500D01*
X360650Y56650D02*
X365000Y61000D01*
X360650Y53807D02*
Y56650D01*
X432000Y67000D02*
X440500Y58500D01*
X425500Y67000D02*
X432000D01*
X422500Y64000D02*
X425500Y67000D01*
X422500Y49500D02*
Y64000D01*
X408500Y35500D02*
X422500Y49500D01*
X361500Y35500D02*
X408500D01*
X355650Y41350D02*
X361500Y35500D01*
X355650Y41350D02*
Y48807D01*
X411500Y32500D02*
X429000Y50000D01*
X350000Y32500D02*
X411500D01*
X429000Y50000D02*
Y62500D01*
X149500Y146000D02*
X173500Y170000D01*
X141000Y149500D02*
Y152500D01*
X68500Y152000D02*
X101000D01*
X141000Y152500D02*
X156500Y168000D01*
X164000D01*
X179500Y183500D01*
X180000D01*
X173500Y170000D02*
X220724D01*
X186984Y150016D02*
X216000Y121000D01*
X278000D01*
X163000Y122000D02*
X182000D01*
X62500Y120500D02*
X80500D01*
X45953Y137047D02*
X62500Y120500D01*
X45953Y137047D02*
Y139000D01*
X80500Y120500D02*
X85000Y125000D01*
X18000Y149000D02*
X65500D01*
X68500Y152000D01*
X220724Y170000D02*
X235000Y155724D01*
Y163500D01*
X239000Y167500D01*
X250000D01*
X254000Y163500D01*
Y158000D02*
Y163500D01*
Y158000D02*
X259500Y152500D01*
X276000D01*
X304500Y166000D02*
X306500Y164000D01*
Y159000D02*
Y164000D01*
Y159000D02*
X330000Y135500D01*
X320500Y112500D02*
Y121500D01*
X313000Y105000D02*
X320500Y112500D01*
X330000Y135500D02*
X374500D01*
X385500Y124500D01*
X403500D01*
X263953Y141047D02*
X281000Y124000D01*
X263953Y141047D02*
Y146000D01*
X403500Y124500D02*
X427000Y101000D01*
X508500D01*
X517500Y92000D01*
X524500D01*
X530000Y97500D01*
Y105276D01*
X12000Y143000D02*
X18000Y149000D01*
X12000Y133500D02*
Y143000D01*
Y133500D02*
X16500Y129000D01*
X21276D01*
X512831Y144898D02*
Y147941D01*
X303000Y105000D02*
X313000D01*
X295205Y74252D02*
Y92000D01*
Y74252D02*
X295650Y73807D01*
X310000Y79000D02*
X310650Y78350D01*
Y73807D02*
Y78350D01*
X317000Y64000D02*
Y67457D01*
X315650Y68807D02*
X317000Y67457D01*
X309500Y67658D02*
X310650Y68807D01*
X309500Y64000D02*
Y67658D01*
X300650Y68807D02*
X302500Y66957D01*
Y64000D02*
Y66957D01*
X295650Y64850D02*
Y68807D01*
Y64850D02*
X296500Y64000D01*
X290650Y73807D02*
Y77350D01*
X288500Y79500D02*
X290650Y77350D01*
X288500Y79500D02*
Y86000D01*
X278000Y64000D02*
X280650Y66650D01*
Y68807D01*
X285650Y64350D02*
X286000Y64000D01*
X285650Y64350D02*
Y68807D01*
X131000Y46500D02*
X140000D01*
X136000Y42000D02*
X139500D01*
X131000Y38000D02*
X138000D01*
X275650Y73807D02*
Y76350D01*
X273500Y78500D02*
X275650Y76350D01*
X273500Y78500D02*
Y86000D01*
X269500Y74957D02*
Y90500D01*
X270500Y74000D02*
X270650Y73850D01*
X270457Y74000D02*
X270500D01*
X269500Y74957D02*
X270457Y74000D01*
X270650Y64350D02*
Y68807D01*
Y64350D02*
X271000Y64000D01*
X265500Y68657D02*
X265650Y68807D01*
X265500Y64000D02*
Y68657D01*
Y48658D02*
X265650Y48807D01*
X265500Y44000D02*
Y48658D01*
X260650Y35650D02*
Y48807D01*
X255500Y73957D02*
X255650Y73807D01*
X255500Y73957D02*
Y95500D01*
X261000Y101000D01*
X251000Y74158D02*
Y101000D01*
X250650Y73807D02*
X251000Y74158D01*
Y101000D02*
X259000Y109000D01*
X261000D01*
X240650Y53807D02*
Y55350D01*
X230650Y53807D02*
Y58508D01*
X230157Y59000D02*
X230650Y58508D01*
X225650Y53807D02*
Y58350D01*
X225000Y59000D02*
X225650Y58350D01*
X235650Y73807D02*
Y77350D01*
X224000Y89000D02*
X235650Y77350D01*
X210000Y89000D02*
X224000D01*
X205000Y85000D02*
X222000D01*
X230650Y73807D02*
Y76350D01*
X222000Y85000D02*
X230650Y76350D01*
X191000Y54158D02*
Y59000D01*
X190650Y53807D02*
X191000Y54158D01*
X240000Y36000D02*
X241000D01*
X245650Y40650D01*
X205650Y46650D02*
Y48807D01*
X250000Y34000D02*
X250650Y34650D01*
Y48807D01*
X245650Y40650D02*
Y48807D01*
X235650Y45650D02*
Y48807D01*
X230650Y48000D02*
Y48807D01*
X220650Y46650D02*
Y48807D01*
X313000Y58000D02*
X315650Y55350D01*
Y53807D02*
Y55350D01*
X320650Y55650D02*
X323000Y58000D01*
X320650Y53807D02*
Y55650D01*
X340500Y42000D02*
Y48658D01*
X340650Y48807D01*
X333500Y56657D02*
Y58000D01*
X330650Y53807D02*
X333500Y56657D01*
X340500Y42000D02*
X350000Y32500D01*
X350500Y40000D02*
X355000Y35500D01*
X350500Y40000D02*
Y48658D01*
X124500Y70000D02*
X126500Y72000D01*
X164000Y111000D02*
X208000D01*
X218047D01*
X278000Y121000D02*
X281000Y124000D01*
X198800Y39800D02*
X205650Y46650D01*
X190650D02*
Y48807D01*
X139500Y42000D02*
X146500Y35000D01*
X209000D02*
X220650Y46650D01*
X215150Y32500D02*
X230650Y48000D01*
X138000Y38000D02*
X143500Y32500D01*
X215150D01*
X146500Y35000D02*
X209000D01*
X140000Y46500D02*
X149500Y37000D01*
X203842D01*
X215650Y48807D01*
X163000Y65000D02*
Y99000D01*
Y65000D02*
X183000Y45000D01*
X189000D01*
X190650Y46650D01*
X200650Y47650D02*
Y48807D01*
X195000Y42000D02*
X200650Y47650D01*
X183000Y42000D02*
X195000D01*
X158000Y67000D02*
X183000Y42000D01*
X158000Y67000D02*
Y100000D01*
X164000Y106000D01*
X210650Y53807D02*
Y54350D01*
X202000Y63000D02*
X210650Y54350D01*
X183000Y63000D02*
X202000D01*
X169000Y77000D02*
X183000Y63000D01*
X169000Y77000D02*
Y101000D01*
X204457Y65000D02*
X215650Y53807D01*
X184000Y65000D02*
X204457D01*
X173000Y76000D02*
X184000Y65000D01*
X173000Y76000D02*
Y91000D01*
X177000Y95000D01*
Y101000D01*
X182000Y122000D02*
X192047D01*
X270650Y53807D02*
Y55650D01*
X273000Y58000D01*
X168000Y144000D02*
X185000D01*
X230842Y64000D02*
X235650Y68807D01*
X228000Y64000D02*
X230842D01*
X237000Y59000D02*
X240650Y55350D01*
X236000Y64000D02*
X237000D01*
X245650Y53807D02*
Y55350D01*
X237000Y64000D02*
X245650Y55350D01*
X240650Y64850D02*
Y68807D01*
X260650Y53807D02*
Y59000D01*
X255325Y58675D02*
X255650Y58350D01*
Y53807D02*
Y58350D01*
X250650Y65350D02*
X252000Y64000D01*
X250650Y65350D02*
Y68807D01*
X290650Y34850D02*
Y48807D01*
X362500Y40500D02*
X365650Y43650D01*
Y48807D01*
X370000Y40500D02*
Y48158D01*
X370650Y48807D01*
X512831Y144898D02*
X516728Y141000D01*
X522728D01*
X526500Y144772D01*
Y150441D01*
D34*
X374500Y207500D02*
X457000Y125000D01*
X315500Y207500D02*
X374500D01*
X457000Y125000D02*
X459000D01*
X205500Y217500D02*
X229000D01*
X203500Y215500D02*
X205500Y217500D01*
X312000Y204000D02*
X315500Y207500D01*
X313500Y201500D02*
X333500D01*
X311500Y199500D02*
X313500Y201500D01*
X289000Y199500D02*
X311500D01*
X279500Y209000D02*
X289000Y199500D01*
X254000Y209000D02*
X279500D01*
X278000Y207000D02*
X287500Y197500D01*
X257000Y207000D02*
X278000D01*
X287500Y197500D02*
X322500D01*
X323000Y198000D01*
X296000Y204000D02*
X312000D01*
X288000Y212000D02*
X296000Y204000D01*
X247000Y212000D02*
X288000D01*
X310500Y24500D02*
X432500D01*
X295500Y39500D02*
X310500Y24500D01*
X295500Y39500D02*
Y48658D01*
X421000Y70500D02*
X437500D01*
X409750Y59250D02*
X421000Y70500D01*
X367750Y59250D02*
X409750D01*
X365650Y57150D02*
X367750Y59250D01*
X437500Y70500D02*
X440500Y67500D01*
X355000Y192000D02*
X433000Y114000D01*
X287000Y192000D02*
X355000D01*
X433000Y114000D02*
X479000D01*
X171000Y222500D02*
X174500Y219000D01*
X114500Y222500D02*
X171000D01*
X278405Y183095D02*
X320500Y141000D01*
X281047Y174953D02*
X318000Y138000D01*
X278405Y183095D02*
X351905D01*
X272047D02*
X278405D01*
X320500Y121500D02*
Y141000D01*
X272000Y174953D02*
X281047D01*
X318000Y120000D02*
Y138000D01*
X406000Y114000D02*
X426000Y94000D01*
X401000Y106000D02*
X420000Y87000D01*
X111000Y219000D02*
X114500Y222500D01*
X241000Y206000D02*
X247000Y212000D01*
X237000Y206000D02*
X241000D01*
X351905Y183095D02*
X427000Y108000D01*
X267905Y183095D02*
X272047D01*
X265000Y186000D02*
X267905Y183095D01*
X265000Y186000D02*
Y190000D01*
X260000Y183000D02*
X268047Y174953D01*
X272000D01*
X260953D02*
X268047D01*
X257000Y171000D02*
X260953Y174953D01*
X479000Y114000D02*
X483000Y110000D01*
X303000Y112000D02*
X310000D01*
X318000Y120000D01*
X284000Y117000D02*
X310000Y91000D01*
X319000D01*
X335650Y74350D01*
X316000Y88457D02*
X330650Y73807D01*
X307543Y88457D02*
X316000D01*
X335650Y73807D02*
Y74350D01*
X295500Y48658D02*
X295650Y48807D01*
X305500Y48658D02*
X305650Y48807D01*
X310500Y48658D02*
X310650Y48807D01*
X310500Y40000D02*
Y48658D01*
Y40000D02*
X315000Y35500D01*
X325650Y41850D02*
Y48807D01*
X365650Y53807D02*
Y57150D01*
X305500Y37500D02*
Y48658D01*
X320650Y39350D02*
Y48807D01*
X325650Y41850D02*
X332000Y35500D01*
X332500D01*
X335650Y39850D02*
Y48807D01*
Y39850D02*
X340000Y35500D01*
X425000Y28000D02*
X438500Y41500D01*
X305500Y37500D02*
X315000Y28000D01*
X416000Y30000D02*
X427500Y41500D01*
X320650Y39350D02*
X330000Y30000D01*
X315000Y28000D02*
X425000D01*
X330000Y30000D02*
X416000D01*
X432500Y24500D02*
X449500Y41500D01*
X427000Y108000D02*
X478000D01*
X202000Y122000D02*
X207000Y117000D01*
X197953Y122000D02*
X202000D01*
X459000Y125000D02*
X467000Y117000D01*
X498047D01*
X500047Y115000D01*
X207000Y117000D02*
X232000D01*
X284000D01*
X260000Y160000D02*
X261000D01*
X270047Y169047D01*
X272000D01*
X283900Y112100D02*
X307543Y88457D01*
X237100Y112100D02*
X283900D01*
X223953Y111000D02*
X236000D01*
Y112000D01*
Y111000D02*
X237100Y112100D01*
X260000Y183000D02*
Y198000D01*
X272047Y189000D02*
Y197953D01*
X270000Y200000D02*
X272047Y197953D01*
X84000Y147000D02*
X87000Y144000D01*
Y127000D02*
Y144000D01*
X85000Y125000D02*
X87000Y127000D01*
X200000Y200000D02*
X211000D01*
X217000Y194000D01*
X239000D01*
X254000Y209000D01*
X195000Y202906D02*
X196047Y203953D01*
X195000Y198000D02*
Y202906D01*
Y198000D02*
X198000Y195000D01*
X210000D01*
X214000Y191000D01*
X241000D01*
X401000Y106000D02*
Y111000D01*
X343000Y56457D02*
Y58000D01*
Y56457D02*
X345650Y53807D01*
X349000Y55457D02*
Y58000D01*
Y55457D02*
X350650Y53807D01*
X260000Y198000D02*
X266000Y204000D01*
X275000D01*
X287000Y192000D01*
X241000Y191000D02*
X257000Y207000D01*
D35*
X200000Y59000D02*
X200650Y58350D01*
Y53807D02*
Y58350D01*
Y53807D02*
X205650D01*
X210650Y48807D01*
X246000Y74158D02*
Y80000D01*
X240650Y73807D02*
X245650D01*
Y68807D02*
Y73807D01*
X295650Y53807D02*
X300650Y48807D01*
Y44350D02*
X301000Y44000D01*
X408000Y69000D02*
Y74850D01*
X310650Y53807D02*
X315650Y48807D01*
X350000Y74457D02*
Y78000D01*
Y74457D02*
X350650Y73807D01*
X301878Y77579D02*
X302299Y78000D01*
Y77157D02*
X305650Y73807D01*
X300650D02*
X305650D01*
Y68807D02*
Y73807D01*
X280650Y53807D02*
X285650Y48807D01*
X275650Y68807D02*
X280650Y73807D01*
X265650Y53807D02*
X270650Y48807D01*
X265500Y78000D02*
X265650Y77850D01*
Y73807D02*
Y77850D01*
X260650Y68807D02*
X265650Y73807D01*
X220650Y53807D02*
Y55350D01*
X217000Y59000D02*
X220650Y55350D01*
X215650Y68807D02*
X220650Y73807D01*
X205650D02*
X210650Y68807D01*
X220000Y78000D02*
X220650Y77350D01*
Y73807D02*
Y77350D01*
X225650Y73807D02*
X230650Y68807D01*
X185000Y59000D02*
X185650Y58350D01*
Y53807D02*
Y58350D01*
X220650Y53807D02*
X225650Y48807D01*
X250650Y53807D02*
X255650Y48807D01*
X235650Y53807D02*
X240650Y48807D01*
X325650Y53807D02*
X330650Y48807D01*
X340650Y53807D02*
X345650Y48807D01*
X361299Y64000D02*
X362000D01*
X360650Y64650D02*
X361299Y64000D01*
X360650Y64650D02*
Y68807D01*
X180000Y75000D02*
X184457D01*
X185650Y73807D01*
X375650Y44350D02*
Y48807D01*
Y44350D02*
X376000Y44000D01*
X345650Y44350D02*
Y48807D01*
Y44350D02*
X346000Y44000D01*
X330650Y44350D02*
Y48807D01*
Y44350D02*
X331000Y44000D01*
X315650Y44350D02*
Y48807D01*
Y44350D02*
X316000Y44000D01*
X300650Y44350D02*
Y48807D01*
X285650Y44350D02*
Y48807D01*
Y44350D02*
X286000Y44000D01*
X270650Y44350D02*
Y48807D01*
Y44350D02*
X271000Y44000D01*
X255650Y44350D02*
Y48807D01*
Y44350D02*
X256000Y44000D01*
X240650Y44350D02*
Y48807D01*
Y44350D02*
X241000Y44000D01*
X280650Y73807D02*
Y77350D01*
X280000Y78000D02*
X280650Y77350D01*
X355650Y64650D02*
Y68807D01*
X355000Y64000D02*
X355650Y64650D01*
X290650Y64350D02*
Y68807D01*
Y64350D02*
X291000Y64000D01*
X260650Y68807D02*
Y73807D01*
X369000Y78000D02*
X370650Y76350D01*
X375650Y73807D02*
Y76350D01*
X377299Y78000D01*
X370650Y66264D02*
Y68807D01*
Y66264D02*
X372299Y64614D01*
X370650Y73807D02*
Y76350D01*
X360650Y73807D02*
Y76350D01*
X362299Y78000D01*
X345650Y73807D02*
X350650D01*
X340650D02*
X345650D01*
X280650D02*
X285650D01*
X200650D02*
Y76350D01*
X202299Y78000D01*
X220650Y73807D02*
X225650D01*
X200650D02*
X205650D01*
X370650Y53807D02*
X375650Y48807D01*
X380650Y53807D01*
Y68807D02*
X386193D01*
X386500Y68500D01*
X355650Y53807D02*
X360650Y48807D01*
X355000Y54457D02*
X355650Y53807D01*
X355000Y54457D02*
Y58000D01*
X245650Y73807D02*
X246000Y74158D01*
X384150Y97000D02*
Y104409D01*
X384740Y105000D01*
X372000D02*
X377260D01*
X385039Y80740D02*
X400000D01*
X382299Y78000D02*
X384150Y79850D01*
X385039Y80740D01*
X386500Y68500D02*
X395240D01*
X400000Y73260D01*
X384740Y105000D02*
X390000D01*
X408000Y74850D02*
X408150Y75000D01*
X400000Y73260D02*
X400740Y74000D01*
X407150D01*
X408000Y74850D01*
X400000Y80740D02*
X400410Y81150D01*
X408000D01*
X412850D02*
X413000Y81000D01*
X408000Y81150D02*
X412850D01*
X380650Y73807D02*
Y76330D01*
X380849Y76530D01*
Y76550D01*
X382299Y78000D01*
X384150Y79850D02*
Y97000D01*
X377260Y105000D02*
X377299Y104961D01*
Y78000D02*
Y104961D01*
D36*
X44614Y73228D02*
Y76614D01*
X41059Y80169D02*
X44614Y76614D01*
X27465Y89378D02*
X28012Y88831D01*
X35941D01*
X41059D02*
X43606Y91378D01*
X44831Y172941D02*
X47378Y170394D01*
X32543Y169315D02*
X36169Y172941D01*
X349102Y112059D02*
Y112331D01*
X339622Y98472D02*
X340441Y99291D01*
Y106941D01*
X340169Y112059D02*
X340441D01*
X337622Y114606D02*
X340169Y112059D01*
X339102Y157059D02*
X339331D01*
X342949Y160677D01*
X329622Y143528D02*
X330441Y144346D01*
Y151941D01*
X327622Y159878D02*
X330441Y157059D01*
X508831Y74059D02*
X512480Y77709D01*
X499622Y60559D02*
X500169Y61106D01*
Y68941D01*
X497622Y76606D02*
Y82559D01*
Y76606D02*
X500169Y74059D01*
X516362Y156591D02*
X519500D01*
X512831Y153059D02*
X516362Y156591D01*
X504169Y140260D02*
Y147941D01*
X503350Y139441D02*
X504169Y140260D01*
X501350Y155878D02*
X504169Y153059D01*
X501350Y155878D02*
Y161441D01*
X337622Y114606D02*
Y120472D01*
X342949Y160677D02*
X345772D01*
X327622Y160106D02*
Y165528D01*
X43606Y91378D02*
X49465D01*
X47378Y164465D02*
Y170394D01*
X349102Y112331D02*
X352394Y115622D01*
X355772D01*
D37*
X38500Y73413D02*
Y80169D01*
X33169D02*
X35941D01*
X44831Y178059D02*
Y185917D01*
X28614Y84228D02*
X38500D01*
Y80169D02*
Y84228D01*
X44831Y185917D02*
X45378Y186465D01*
X40228Y175500D02*
Y185315D01*
Y174465D02*
Y175500D01*
X39228Y175465D02*
X40228Y174465D01*
X29228Y175614D02*
X29342Y175500D01*
X36169D01*
X40228D01*
X32000Y185000D02*
X36169Y180831D01*
Y178059D02*
Y180831D01*
X349102Y109500D02*
X355594D01*
X355772Y109323D01*
X344772Y99622D02*
Y109500D01*
Y110472D02*
X345744Y109500D01*
X349102D01*
X344772D02*
X345744D01*
X349102Y104142D02*
X352772Y100472D01*
X349102Y104142D02*
Y106941D01*
X334772Y155528D02*
X335772Y154528D01*
X334772Y154500D02*
Y155528D01*
Y144677D02*
Y154500D01*
X339102D01*
Y149197D02*
Y151941D01*
X515563Y71500D02*
X515622Y71559D01*
X504772Y71500D02*
Y72559D01*
Y61709D02*
Y71500D01*
Y72559D02*
X505772Y71559D01*
X508831Y71500D02*
X515563D01*
X504772D02*
X508831D01*
Y66500D02*
Y68941D01*
X508500Y150500D02*
Y160591D01*
Y140591D02*
Y150500D01*
X512831D01*
X519291D01*
X508831Y66500D02*
X512772Y62559D01*
X522772Y66559D02*
Y71606D01*
X518772Y62559D02*
X522772Y66559D01*
X512772Y62559D02*
X518772D01*
X362772Y104472D02*
Y109520D01*
X358772Y100472D02*
X362772Y104472D01*
X352772Y100472D02*
X358772D01*
X344772Y99622D02*
X345921Y98472D01*
X352772Y149528D02*
Y154528D01*
X348772Y145528D02*
X352772Y149528D01*
X342772Y145528D02*
X348772D01*
X339331Y148969D02*
X342772Y145528D01*
X28000Y75000D02*
X33169Y80169D01*
X31370Y66228D02*
X38465D01*
X28000Y69598D02*
X31370Y66228D01*
X28000Y69598D02*
Y75000D01*
X27465Y83079D02*
X28614Y84228D01*
X48614D02*
X49465Y85079D01*
X38315Y73228D02*
X38465Y73378D01*
X38500Y84228D02*
X48614D01*
X39079Y186465D02*
X40228Y185315D01*
Y165315D02*
X41079Y164465D01*
X40228Y165315D02*
Y174465D01*
X345622Y154528D02*
X345772Y154378D01*
X334772Y155528D02*
Y164677D01*
X333921Y165528D02*
X334772Y164677D01*
Y144677D02*
X335921Y143528D01*
X343921Y120472D02*
X344772Y119622D01*
Y110472D02*
Y119622D01*
X504772Y61709D02*
X505921Y60559D01*
X503921Y82559D02*
X504772Y81709D01*
Y72559D02*
Y81709D01*
X515622Y71559D02*
X515772Y71409D01*
X519350Y150441D02*
X519500Y150291D01*
X507650Y161441D02*
X508500Y160591D01*
Y140591D02*
X509650Y139441D01*
X22228Y175417D02*
Y182228D01*
X25000Y185000D01*
X32000D01*
X506228Y114724D02*
X520000D01*
X505953Y115000D02*
X506228Y114724D01*
D38*
X390197Y49299D02*
D03*
X176102Y61307D02*
D03*
D39*
X407165Y49299D02*
D03*
X159134D02*
D03*
X80000Y30000D02*
D03*
X70000Y20000D02*
D03*
X490000D02*
D03*
X500000D02*
D03*
X480000D02*
D03*
X470000D02*
D03*
X90000D02*
D03*
X50000D02*
D03*
X60000Y30000D02*
D03*
X530000Y280000D02*
D03*
Y20000D02*
D03*
X20000Y280000D02*
D03*
Y20000D02*
D03*
X25000Y238000D02*
D03*
X15000D02*
D03*
X100000Y30000D02*
D03*
X15000Y198000D02*
D03*
X25000D02*
D03*
X15000Y208000D02*
D03*
X25000D02*
D03*
Y218000D02*
D03*
X15000Y228000D02*
D03*
Y218000D02*
D03*
X25000Y228000D02*
D03*
D42*
X149000Y75000D02*
D03*
X200000Y59000D02*
D03*
X350000Y257500D02*
D03*
X257500Y180000D02*
D03*
X147500Y140000D02*
D03*
X37500Y287500D02*
D03*
Y267500D02*
D03*
X25000Y252500D02*
D03*
X262500Y285000D02*
D03*
X225000Y282500D02*
D03*
X375000Y120000D02*
D03*
X237500Y100000D02*
D03*
X195000D02*
D03*
X437500Y192500D02*
D03*
X400000D02*
D03*
X420000Y175000D02*
D03*
X382500D02*
D03*
X437500Y162500D02*
D03*
X400000D02*
D03*
X500000Y195000D02*
D03*
Y232500D02*
D03*
X512500Y212500D02*
D03*
Y250000D02*
D03*
X525000Y195000D02*
D03*
Y232500D02*
D03*
X537500Y212500D02*
D03*
Y250000D02*
D03*
X452500Y235000D02*
D03*
X350000Y7500D02*
D03*
X387500D02*
D03*
X275000D02*
D03*
X200000D02*
D03*
X125000D02*
D03*
X196000Y283000D02*
D03*
X113000Y169000D02*
D03*
X18000Y102000D02*
D03*
X14000Y67000D02*
D03*
X37000Y50000D02*
D03*
X30000Y35000D02*
D03*
X18000Y44000D02*
D03*
X457500Y280453D02*
D03*
X472500D02*
D03*
X432000Y241000D02*
D03*
X425000Y247500D02*
D03*
X434358Y263000D02*
D03*
X415858Y280858D02*
D03*
X366642D02*
D03*
X304000Y23000D02*
D03*
X276000Y32000D02*
D03*
X301000Y44000D02*
D03*
X193500Y209000D02*
D03*
X200500Y211500D02*
D03*
X220000D02*
D03*
X229000Y217500D02*
D03*
X203500Y215500D02*
D03*
X188500Y218500D02*
D03*
X323000Y198000D02*
D03*
X141000Y99500D02*
D03*
X146000Y95000D02*
D03*
X119000Y142000D02*
D03*
X124500D02*
D03*
X119000Y149500D02*
D03*
X124500D02*
D03*
X305000Y58000D02*
D03*
X298500D02*
D03*
X408000Y69000D02*
D03*
X132000Y142000D02*
D03*
Y149500D02*
D03*
X141000Y142000D02*
D03*
Y149500D02*
D03*
X192890Y183390D02*
D03*
X198000Y183500D02*
D03*
X187000D02*
D03*
X180000D02*
D03*
X189000Y158000D02*
D03*
X186984Y150016D02*
D03*
X190921Y166079D02*
D03*
X256500Y237500D02*
D03*
X333500Y201500D02*
D03*
X180500Y217500D02*
D03*
X170500Y194500D02*
D03*
X177000Y199000D02*
D03*
Y212500D02*
D03*
X173000Y209500D02*
D03*
X174500Y219000D02*
D03*
X176850Y206350D02*
D03*
X173500Y202500D02*
D03*
X152500Y209500D02*
D03*
Y203500D02*
D03*
Y215500D02*
D03*
X70000Y236000D02*
D03*
X64000Y241500D02*
D03*
X235000Y163000D02*
D03*
X248000Y191000D02*
D03*
Y183000D02*
D03*
X276000Y152500D02*
D03*
X304500Y166000D02*
D03*
X281000Y145000D02*
D03*
X138000Y231000D02*
D03*
X300000Y208500D02*
D03*
X307000Y209000D02*
D03*
X160500Y266500D02*
D03*
X181500Y245500D02*
D03*
X328961Y292039D02*
D03*
X282500D02*
D03*
X237000Y206000D02*
D03*
X512941Y169441D02*
D03*
Y161441D02*
D03*
X349472Y128472D02*
D03*
X111000Y219000D02*
D03*
X351000Y96000D02*
D03*
X338953Y280953D02*
D03*
X212000Y260000D02*
D03*
X235000Y237000D02*
D03*
X303000Y259311D02*
D03*
X209000Y227000D02*
D03*
X205000Y255000D02*
D03*
X199000D02*
D03*
X193000Y250000D02*
D03*
X228000Y197850D02*
D03*
X227850Y204150D02*
D03*
X200000Y200000D02*
D03*
X196047Y203953D02*
D03*
X129000Y214000D02*
D03*
X142000Y191000D02*
D03*
X145000Y229000D02*
D03*
X120000Y197000D02*
D03*
X142000Y171000D02*
D03*
X150000Y173000D02*
D03*
Y191000D02*
D03*
X160000Y164000D02*
D03*
X265000Y190000D02*
D03*
X257000Y171000D02*
D03*
X295205Y92000D02*
D03*
X303000Y105000D02*
D03*
Y112000D02*
D03*
X310000Y79000D02*
D03*
X302000Y142000D02*
D03*
X300000Y125000D02*
D03*
X281000Y129000D02*
D03*
X54228Y156465D02*
D03*
X103000Y125000D02*
D03*
X93000D02*
D03*
X83000Y131000D02*
D03*
X67000D02*
D03*
X323000Y58000D02*
D03*
X313000D02*
D03*
X317000Y64000D02*
D03*
X350000Y78000D02*
D03*
X309500Y64000D02*
D03*
X302500D02*
D03*
X296500D02*
D03*
X288500Y86000D02*
D03*
X278000Y64000D02*
D03*
X286000D02*
D03*
X142000Y56500D02*
D03*
X136000Y42000D02*
D03*
Y34000D02*
D03*
X131000Y46500D02*
D03*
Y38000D02*
D03*
X273500Y86000D02*
D03*
X269500Y90500D02*
D03*
X271000Y64000D02*
D03*
X265500D02*
D03*
Y44000D02*
D03*
Y78000D02*
D03*
X261000Y101000D02*
D03*
Y109000D02*
D03*
X230157Y59000D02*
D03*
X225000D02*
D03*
X217000D02*
D03*
X210000Y89000D02*
D03*
X205000Y85000D02*
D03*
X191000Y59000D02*
D03*
X220000Y78000D02*
D03*
X185000Y59000D02*
D03*
X240000Y36000D02*
D03*
X250000Y34000D02*
D03*
X467543Y125260D02*
D03*
X457543Y132260D02*
D03*
X362000Y64000D02*
D03*
X76000Y125000D02*
D03*
X180000Y75000D02*
D03*
X376000Y44000D02*
D03*
X346000D02*
D03*
X331000D02*
D03*
X316000D02*
D03*
X286000D02*
D03*
X271000D02*
D03*
X256000D02*
D03*
X241000D02*
D03*
X280000Y78000D02*
D03*
X355000Y64000D02*
D03*
X291000D02*
D03*
X274000Y125000D02*
D03*
X382299Y78000D02*
D03*
X369000D02*
D03*
X377299D02*
D03*
X372299Y64614D02*
D03*
X362299Y78000D02*
D03*
X302299D02*
D03*
X202299D02*
D03*
X49465Y96228D02*
D03*
X57465Y98228D02*
D03*
X50417Y66228D02*
D03*
X49465Y73228D02*
D03*
X33465D02*
D03*
X23465Y83228D02*
D03*
X39228Y190465D02*
D03*
X29228Y180465D02*
D03*
Y164465D02*
D03*
X22228Y163512D02*
D03*
X36228Y156465D02*
D03*
Y164465D02*
D03*
X52228D02*
D03*
X345772Y149528D02*
D03*
Y165528D02*
D03*
X352772Y166480D02*
D03*
X338772Y173528D02*
D03*
Y165528D02*
D03*
X320772Y173528D02*
D03*
X322772Y165528D02*
D03*
X330772Y128472D02*
D03*
X332772Y120472D02*
D03*
X362772Y121425D02*
D03*
X355772Y120472D02*
D03*
Y104472D02*
D03*
X492772Y82559D02*
D03*
X490772Y90559D02*
D03*
X508772Y82559D02*
D03*
Y90559D02*
D03*
X522772Y83512D02*
D03*
X515772Y82559D02*
D03*
Y66559D02*
D03*
X505772Y56559D02*
D03*
X509500Y135441D02*
D03*
X519500Y145441D02*
D03*
Y161441D02*
D03*
X526500Y162394D02*
D03*
X494500Y169441D02*
D03*
X496500Y161441D02*
D03*
X478543Y142260D02*
D03*
X467543D02*
D03*
X457543Y149260D02*
D03*
X478197Y125260D02*
D03*
X290378Y142260D02*
D03*
X306126Y125260D02*
D03*
X290378D02*
D03*
X93528Y142260D02*
D03*
X101528D02*
D03*
X478000Y108000D02*
D03*
X483000Y110000D02*
D03*
X438500Y41500D02*
D03*
X427500D02*
D03*
X315000Y35500D02*
D03*
X440500Y67500D02*
D03*
X340000Y35500D02*
D03*
X429000Y62500D02*
D03*
X332500Y35500D02*
D03*
X333500Y58000D02*
D03*
X355000Y35500D02*
D03*
X126500Y72000D02*
D03*
X386500Y68500D02*
D03*
X355000Y58000D02*
D03*
X362500Y40500D02*
D03*
X370000D02*
D03*
X449500Y41500D02*
D03*
X109276Y125260D02*
D03*
X74650Y222142D02*
D03*
X95000Y235000D02*
D03*
X102000D02*
D03*
X115000Y226000D02*
D03*
X124000D02*
D03*
X20000Y117000D02*
D03*
X85000Y125000D02*
D03*
X281000Y124000D02*
D03*
X245000Y163000D02*
D03*
X518000Y124000D02*
D03*
X485000Y125000D02*
D03*
X459000D02*
D03*
X450000D02*
D03*
X520000Y98000D02*
D03*
X208000Y111000D02*
D03*
X260000Y160000D02*
D03*
X236000Y111000D02*
D03*
X232000Y117000D02*
D03*
X270000Y200000D02*
D03*
X84000Y147000D02*
D03*
X163000Y99000D02*
D03*
X164000Y106000D02*
D03*
X169000Y101000D02*
D03*
X177000D02*
D03*
X182000Y122000D02*
D03*
X180000Y131000D02*
D03*
X184000Y137000D02*
D03*
X273000Y58000D02*
D03*
X185000Y144000D02*
D03*
X228000Y64000D02*
D03*
X237000Y59000D02*
D03*
X236000Y64000D02*
D03*
X241500D02*
D03*
X260650Y59000D02*
D03*
X255325Y58675D02*
D03*
X252000Y64000D02*
D03*
X283000Y58000D02*
D03*
X293000D02*
D03*
X246000Y80000D02*
D03*
X256000Y217000D02*
D03*
X372000Y105000D02*
D03*
X390000D02*
D03*
X413000Y81000D02*
D03*
X406000Y114000D02*
D03*
X401000Y111000D02*
D03*
X426000Y94000D02*
D03*
X420000Y87000D02*
D03*
X349000Y58000D02*
D03*
X343000D02*
D03*
X335772Y139528D02*
D03*
X221000Y138000D02*
D03*
X198000Y147000D02*
D03*
X206000D02*
D03*
X61000Y222000D02*
D03*
X350000Y121000D02*
D03*
D50*
X512831Y147941D02*
D03*
Y153059D02*
D03*
X504169Y147941D02*
D03*
Y153059D02*
D03*
X512831Y150500D02*
D03*
X508831Y68941D02*
D03*
Y74059D02*
D03*
X500169Y68941D02*
D03*
Y74059D02*
D03*
X508831Y71500D02*
D03*
X349102Y106941D02*
D03*
Y112059D02*
D03*
X340441Y106941D02*
D03*
Y112059D02*
D03*
X349102Y109500D02*
D03*
X339102Y151941D02*
D03*
Y157059D02*
D03*
X330441Y151941D02*
D03*
Y157059D02*
D03*
X339102Y154500D02*
D03*
X36169Y178059D02*
D03*
Y172941D02*
D03*
X44831Y178059D02*
D03*
Y172941D02*
D03*
X36169Y175500D02*
D03*
D51*
X35941Y80169D02*
D03*
X41059D02*
D03*
X35941Y88831D02*
D03*
X41059D02*
D03*
X38500Y80169D02*
D03*
D52*
X250650Y73807D02*
D03*
X185650D02*
D03*
X190650D02*
D03*
X195650D02*
D03*
X200650D02*
D03*
X205650D02*
D03*
X210650D02*
D03*
X215650D02*
D03*
X220650D02*
D03*
X225650D02*
D03*
X230650D02*
D03*
X235650D02*
D03*
X240650D02*
D03*
X245650D02*
D03*
X255650D02*
D03*
X260650D02*
D03*
X265650D02*
D03*
X270650D02*
D03*
X275650D02*
D03*
X280650D02*
D03*
X285650D02*
D03*
X290650D02*
D03*
X295650D02*
D03*
X300650D02*
D03*
X305650D02*
D03*
X310650D02*
D03*
X315650D02*
D03*
X320650D02*
D03*
X325650D02*
D03*
X330650D02*
D03*
X335650D02*
D03*
X340650D02*
D03*
X345650D02*
D03*
X350650D02*
D03*
X355650D02*
D03*
X360650D02*
D03*
X365650D02*
D03*
X370650D02*
D03*
X375650D02*
D03*
X380650D02*
D03*
X190650Y68807D02*
D03*
X195650D02*
D03*
X200650D02*
D03*
X205650D02*
D03*
X210650D02*
D03*
X215650D02*
D03*
X220650D02*
D03*
X225650D02*
D03*
X230650D02*
D03*
X235650D02*
D03*
X240650D02*
D03*
X245650D02*
D03*
X250650D02*
D03*
X255650D02*
D03*
X260650D02*
D03*
X265650D02*
D03*
X270650D02*
D03*
X275650D02*
D03*
X280650D02*
D03*
X285650D02*
D03*
X290650D02*
D03*
X295650D02*
D03*
X300650D02*
D03*
X305650D02*
D03*
X310650D02*
D03*
X315650D02*
D03*
X320650D02*
D03*
X325650D02*
D03*
X330650D02*
D03*
X335650D02*
D03*
X340650D02*
D03*
X345650D02*
D03*
X350650D02*
D03*
X355650D02*
D03*
X360650D02*
D03*
X365650D02*
D03*
X370650D02*
D03*
X375650D02*
D03*
X380650D02*
D03*
X185650D02*
D03*
Y53807D02*
D03*
X190650D02*
D03*
X195650D02*
D03*
X200650D02*
D03*
X205650D02*
D03*
X210650D02*
D03*
X215650D02*
D03*
X220650D02*
D03*
X225650D02*
D03*
X230650D02*
D03*
X235650D02*
D03*
X240650D02*
D03*
X245650D02*
D03*
X250650D02*
D03*
X255650D02*
D03*
X260650D02*
D03*
X265650D02*
D03*
X270650D02*
D03*
X275650D02*
D03*
X280650D02*
D03*
X285650D02*
D03*
X290650D02*
D03*
X295650D02*
D03*
X300650D02*
D03*
X305650D02*
D03*
X310650D02*
D03*
X315650D02*
D03*
X320650D02*
D03*
X325650D02*
D03*
X330650D02*
D03*
X335650D02*
D03*
X340650D02*
D03*
X345650D02*
D03*
X350650D02*
D03*
X355650D02*
D03*
X360650D02*
D03*
X365650D02*
D03*
X370650D02*
D03*
X375650D02*
D03*
X380650D02*
D03*
X185650Y48807D02*
D03*
X190650D02*
D03*
X195650D02*
D03*
X200650D02*
D03*
X205650D02*
D03*
X210650D02*
D03*
X215650D02*
D03*
X220650D02*
D03*
X225650D02*
D03*
X230650D02*
D03*
X235650D02*
D03*
X240650D02*
D03*
X245650D02*
D03*
X250650D02*
D03*
X255650D02*
D03*
X260650D02*
D03*
X265650D02*
D03*
X270650D02*
D03*
X275650D02*
D03*
X280650D02*
D03*
X285650D02*
D03*
X290650D02*
D03*
X295650D02*
D03*
X300650D02*
D03*
X305650D02*
D03*
X310650D02*
D03*
X315650D02*
D03*
X320650D02*
D03*
X325650D02*
D03*
X330650D02*
D03*
X335650D02*
D03*
X340650D02*
D03*
X345650D02*
D03*
X350650D02*
D03*
X355650D02*
D03*
X360650D02*
D03*
X365650D02*
D03*
X370650D02*
D03*
X375650D02*
D03*
X380650D02*
D03*
D53*
X530000Y105276D02*
D03*
Y114724D02*
D03*
X520000D02*
D03*
Y105276D02*
D03*
X235000Y155724D02*
D03*
Y146276D02*
D03*
X245000D02*
D03*
Y155724D02*
D03*
D54*
X21276Y129000D02*
D03*
X30724D02*
D03*
Y139000D02*
D03*
X21276D02*
D03*
D55*
X377260Y105000D02*
D03*
X384740D02*
D03*
X499760Y169441D02*
D03*
X507240D02*
D03*
X496032Y90559D02*
D03*
X503512D02*
D03*
X336032Y128472D02*
D03*
X343512D02*
D03*
X326031Y173528D02*
D03*
X333512D02*
D03*
X48968Y156465D02*
D03*
X41488D02*
D03*
D56*
X127000Y275000D02*
D03*
D57*
X117000D02*
D03*
X107000D02*
D03*
X97000D02*
D03*
X87000D02*
D03*
X77000D02*
D03*
X67000D02*
D03*
X127000Y265000D02*
D03*
X117000D02*
D03*
X107000D02*
D03*
X97000D02*
D03*
X87000D02*
D03*
X77000D02*
D03*
X67000D02*
D03*
M02*
