G04 Layer_Color=8388736*
%FSLAX25Y25*%
%MOIN*%
G70*
G01*
G75*
%ADD42C,0.03500*%
%ADD46C,0.08000*%
%ADD63R,0.08287X0.06909*%
%ADD64R,0.07302X0.06318*%
%ADD65R,0.08680X0.06318*%
%ADD66O,0.02381X0.08090*%
%ADD67O,0.08090X0.02381*%
%ADD68R,0.10649X0.09861*%
%ADD69R,0.02381X0.04350*%
%ADD70R,0.06318X0.13011*%
%ADD71R,0.08287X0.08680*%
%ADD72R,0.09468X0.07499*%
%ADD73R,0.02775X0.06515*%
%ADD74R,0.04350X0.04350*%
%ADD75R,0.06909X0.05728*%
%ADD76R,0.05137X0.04940*%
%ADD77R,0.04940X0.05137*%
%ADD78R,0.03562X0.03562*%
%ADD79R,0.04743X0.05137*%
%ADD80R,0.05137X0.04743*%
%ADD81R,0.02381X0.02972*%
%ADD82C,0.07200*%
%ADD83R,0.07700X0.07700*%
%ADD84C,0.07700*%
%ADD85C,0.04700*%
D42*
X149000Y75000D02*
D03*
X200000Y59000D02*
D03*
X350000Y257500D02*
D03*
X257500Y180000D02*
D03*
X147500Y140000D02*
D03*
X37500Y287500D02*
D03*
Y267500D02*
D03*
X25000Y252500D02*
D03*
X262500Y285000D02*
D03*
X225000Y282500D02*
D03*
X375000Y120000D02*
D03*
X237500Y100000D02*
D03*
X195000D02*
D03*
X437500Y192500D02*
D03*
X400000D02*
D03*
X420000Y175000D02*
D03*
X382500D02*
D03*
X437500Y162500D02*
D03*
X400000D02*
D03*
X500000Y195000D02*
D03*
Y232500D02*
D03*
X512500Y212500D02*
D03*
Y250000D02*
D03*
X525000Y195000D02*
D03*
Y232500D02*
D03*
X537500Y212500D02*
D03*
Y250000D02*
D03*
X452500Y235000D02*
D03*
X350000Y7500D02*
D03*
X387500D02*
D03*
X275000D02*
D03*
X200000D02*
D03*
X125000D02*
D03*
X196000Y283000D02*
D03*
X113000Y169000D02*
D03*
X18000Y102000D02*
D03*
X14000Y67000D02*
D03*
X37000Y50000D02*
D03*
X30000Y35000D02*
D03*
X18000Y44000D02*
D03*
X457500Y280453D02*
D03*
X472500D02*
D03*
X432000Y241000D02*
D03*
X425000Y247500D02*
D03*
X434358Y263000D02*
D03*
X415858Y280858D02*
D03*
X366642D02*
D03*
X304000Y23000D02*
D03*
X276000Y32000D02*
D03*
X301000Y44000D02*
D03*
X193500Y209000D02*
D03*
X200500Y211500D02*
D03*
X220000D02*
D03*
X229000Y217500D02*
D03*
X203500Y215500D02*
D03*
X188500Y218500D02*
D03*
X323000Y198000D02*
D03*
X141000Y99500D02*
D03*
X146000Y95000D02*
D03*
X119000Y142000D02*
D03*
X124500D02*
D03*
X119000Y149500D02*
D03*
X124500D02*
D03*
X305000Y58000D02*
D03*
X298500D02*
D03*
X408000Y69000D02*
D03*
X132000Y142000D02*
D03*
Y149500D02*
D03*
X141000Y142000D02*
D03*
Y149500D02*
D03*
X192890Y183390D02*
D03*
X198000Y183500D02*
D03*
X187000D02*
D03*
X180000D02*
D03*
X189000Y158000D02*
D03*
X186984Y150016D02*
D03*
X190921Y166079D02*
D03*
X256500Y237500D02*
D03*
X333500Y201500D02*
D03*
X180500Y217500D02*
D03*
X170500Y194500D02*
D03*
X177000Y199000D02*
D03*
Y212500D02*
D03*
X173000Y209500D02*
D03*
X174500Y219000D02*
D03*
X176850Y206350D02*
D03*
X173500Y202500D02*
D03*
X152500Y209500D02*
D03*
Y203500D02*
D03*
Y215500D02*
D03*
X70000Y236000D02*
D03*
X64000Y241500D02*
D03*
X235000Y163000D02*
D03*
X248000Y191000D02*
D03*
Y183000D02*
D03*
X281000Y145000D02*
D03*
X138000Y231000D02*
D03*
X300000Y208500D02*
D03*
X307000Y209000D02*
D03*
X160500Y266500D02*
D03*
X181500Y245500D02*
D03*
X328961Y292039D02*
D03*
X282500D02*
D03*
X237000Y206000D02*
D03*
X512941Y169441D02*
D03*
Y161441D02*
D03*
X349472Y128472D02*
D03*
X111000Y219000D02*
D03*
X351000Y96000D02*
D03*
X338953Y280953D02*
D03*
X212000Y260000D02*
D03*
X235000Y237000D02*
D03*
X303000Y259311D02*
D03*
X209000Y227000D02*
D03*
X205000Y255000D02*
D03*
X199000D02*
D03*
X193000Y250000D02*
D03*
X228000Y197850D02*
D03*
X227850Y204150D02*
D03*
X200000Y200000D02*
D03*
X196047Y203953D02*
D03*
X129000Y214000D02*
D03*
X142000Y191000D02*
D03*
X145000Y229000D02*
D03*
X120000Y197000D02*
D03*
X142000Y171000D02*
D03*
X150000Y173000D02*
D03*
Y191000D02*
D03*
X160000Y164000D02*
D03*
X265000Y190000D02*
D03*
X257000Y171000D02*
D03*
X295205Y92000D02*
D03*
X303000Y105000D02*
D03*
Y112000D02*
D03*
X310000Y79000D02*
D03*
X302000Y142000D02*
D03*
X300000Y125000D02*
D03*
X281000Y129000D02*
D03*
X54228Y156465D02*
D03*
X103000Y125000D02*
D03*
X93000D02*
D03*
X83000Y131000D02*
D03*
X67000D02*
D03*
X323000Y58000D02*
D03*
X313000D02*
D03*
X317000Y64000D02*
D03*
X350000Y78000D02*
D03*
X309500Y64000D02*
D03*
X302500D02*
D03*
X296500D02*
D03*
X288500Y86000D02*
D03*
X278000Y64000D02*
D03*
X286000D02*
D03*
X142000Y56500D02*
D03*
X136000Y42000D02*
D03*
Y34000D02*
D03*
X131000Y46500D02*
D03*
Y38000D02*
D03*
X273500Y86000D02*
D03*
X269500Y90500D02*
D03*
X271000Y64000D02*
D03*
X265500D02*
D03*
Y44000D02*
D03*
Y78000D02*
D03*
X261000Y101000D02*
D03*
Y109000D02*
D03*
X230157Y59000D02*
D03*
X225000D02*
D03*
X217000D02*
D03*
X210000Y89000D02*
D03*
X205000Y85000D02*
D03*
X191000Y59000D02*
D03*
X220000Y78000D02*
D03*
X185000Y59000D02*
D03*
X240000Y36000D02*
D03*
X250000Y34000D02*
D03*
X467543Y125260D02*
D03*
X457543Y132260D02*
D03*
X362000Y64000D02*
D03*
X76000Y125000D02*
D03*
X180000Y75000D02*
D03*
X376000Y44000D02*
D03*
X346000D02*
D03*
X331000D02*
D03*
X316000D02*
D03*
X286000D02*
D03*
X271000D02*
D03*
X256000D02*
D03*
X241000D02*
D03*
X280000Y78000D02*
D03*
X355000Y64000D02*
D03*
X291000D02*
D03*
X274000Y125000D02*
D03*
X382299Y78000D02*
D03*
X369000D02*
D03*
X377299D02*
D03*
X372299Y64614D02*
D03*
X362299Y78000D02*
D03*
X302299D02*
D03*
X202299D02*
D03*
X49465Y96228D02*
D03*
X57465Y98228D02*
D03*
X50417Y66228D02*
D03*
X49465Y73228D02*
D03*
X33465D02*
D03*
X23465Y83228D02*
D03*
X39228Y190465D02*
D03*
X29228Y180465D02*
D03*
Y164465D02*
D03*
X22228Y163512D02*
D03*
X36228Y156465D02*
D03*
Y164465D02*
D03*
X52228D02*
D03*
X345772Y149528D02*
D03*
Y165528D02*
D03*
X352772Y166480D02*
D03*
X338772Y173528D02*
D03*
Y165528D02*
D03*
X320772Y173528D02*
D03*
X322772Y165528D02*
D03*
X330772Y128472D02*
D03*
X332772Y120472D02*
D03*
X362772Y121425D02*
D03*
X355772Y120472D02*
D03*
Y104472D02*
D03*
X492772Y82559D02*
D03*
X490772Y90559D02*
D03*
X508772Y82559D02*
D03*
Y90559D02*
D03*
X522772Y83512D02*
D03*
X515772Y82559D02*
D03*
Y66559D02*
D03*
X505772Y56559D02*
D03*
X509500Y135441D02*
D03*
X519500Y145441D02*
D03*
Y161441D02*
D03*
X526500Y162394D02*
D03*
X494500Y169441D02*
D03*
X496500Y161441D02*
D03*
X478543Y142260D02*
D03*
X467543D02*
D03*
X457543Y149260D02*
D03*
X478197Y125260D02*
D03*
X290378Y142260D02*
D03*
X306126Y125260D02*
D03*
X290378D02*
D03*
X93528Y142260D02*
D03*
X101528D02*
D03*
X478000Y108000D02*
D03*
X483000Y110000D02*
D03*
X438500Y41500D02*
D03*
X427500D02*
D03*
X315000Y35500D02*
D03*
X440500Y67500D02*
D03*
X340000Y35500D02*
D03*
X429000Y62500D02*
D03*
X332500Y35500D02*
D03*
X333500Y58000D02*
D03*
X355000Y35500D02*
D03*
X126500Y72000D02*
D03*
X386500Y68500D02*
D03*
X355000Y58000D02*
D03*
X362500Y40500D02*
D03*
X370000D02*
D03*
X449500Y41500D02*
D03*
X109276Y125260D02*
D03*
X74650Y222142D02*
D03*
X95000Y235000D02*
D03*
X102000D02*
D03*
X115000Y226000D02*
D03*
X124000D02*
D03*
X20000Y117000D02*
D03*
X85000Y125000D02*
D03*
X281000Y124000D02*
D03*
X245000Y163000D02*
D03*
X518000Y124000D02*
D03*
X485000Y125000D02*
D03*
X459000D02*
D03*
X450000D02*
D03*
X520000Y98000D02*
D03*
X208000Y111000D02*
D03*
X260000Y160000D02*
D03*
X236000Y111000D02*
D03*
X232000Y117000D02*
D03*
X270000Y200000D02*
D03*
X84000Y147000D02*
D03*
X163000Y99000D02*
D03*
X164000Y106000D02*
D03*
X169000Y101000D02*
D03*
X177000D02*
D03*
X182000Y122000D02*
D03*
X180000Y131000D02*
D03*
X184000Y137000D02*
D03*
X273000Y58000D02*
D03*
X185000Y144000D02*
D03*
X228000Y64000D02*
D03*
X237000Y59000D02*
D03*
X236000Y64000D02*
D03*
X241500D02*
D03*
X260650Y59000D02*
D03*
X255325Y58675D02*
D03*
X252000Y64000D02*
D03*
X283000Y58000D02*
D03*
X293000D02*
D03*
X246000Y80000D02*
D03*
X256000Y217000D02*
D03*
X372000Y105000D02*
D03*
X390000D02*
D03*
X413000Y81000D02*
D03*
X406000Y114000D02*
D03*
X401000Y111000D02*
D03*
X426000Y94000D02*
D03*
X420000Y87000D02*
D03*
X349000Y58000D02*
D03*
X343000D02*
D03*
X335772Y139528D02*
D03*
X221000Y138000D02*
D03*
X198000Y147000D02*
D03*
X206000D02*
D03*
X61000Y222000D02*
D03*
X350000Y121000D02*
D03*
D46*
X390197Y49299D02*
D03*
X176102Y61307D02*
D03*
D63*
X164323Y260724D02*
D03*
Y251276D02*
D03*
X179677D02*
D03*
Y260724D02*
D03*
D64*
X82650Y222142D02*
D03*
Y239858D02*
D03*
X51350D02*
D03*
Y222142D02*
D03*
X270650Y254142D02*
D03*
Y271858D02*
D03*
X239350D02*
D03*
Y254142D02*
D03*
X374350Y280858D02*
D03*
Y263142D02*
D03*
X405650D02*
D03*
Y280858D02*
D03*
D65*
X129000Y191685D02*
D03*
Y202315D02*
D03*
D66*
X167299Y226886D02*
D03*
X169268D02*
D03*
X171236D02*
D03*
X173205D02*
D03*
X175173D02*
D03*
X177142D02*
D03*
X179110D02*
D03*
X181079D02*
D03*
X183047D02*
D03*
X185016D02*
D03*
X186984D02*
D03*
X188953D02*
D03*
X190921D02*
D03*
X192890D02*
D03*
X194858D02*
D03*
X196827D02*
D03*
X198795D02*
D03*
X200764D02*
D03*
X202732D02*
D03*
X204701D02*
D03*
Y175114D02*
D03*
X202732D02*
D03*
X200764D02*
D03*
X198795D02*
D03*
X196827D02*
D03*
X194858D02*
D03*
X192890D02*
D03*
X190921D02*
D03*
X188953D02*
D03*
X186984D02*
D03*
X185016D02*
D03*
X183047D02*
D03*
X181079D02*
D03*
X179110D02*
D03*
X177142D02*
D03*
X175173D02*
D03*
X173205D02*
D03*
X171236D02*
D03*
X169268D02*
D03*
X167299D02*
D03*
D67*
X211886Y219701D02*
D03*
Y217732D02*
D03*
Y215764D02*
D03*
Y213795D02*
D03*
Y211827D02*
D03*
Y209858D02*
D03*
Y207890D02*
D03*
Y205921D02*
D03*
Y203953D02*
D03*
Y201984D02*
D03*
Y200016D02*
D03*
Y198047D02*
D03*
Y196079D02*
D03*
Y194110D02*
D03*
Y192142D02*
D03*
Y190173D02*
D03*
Y188205D02*
D03*
Y186236D02*
D03*
Y184268D02*
D03*
Y182299D02*
D03*
X160114D02*
D03*
Y184268D02*
D03*
Y186236D02*
D03*
Y188205D02*
D03*
Y190173D02*
D03*
Y192142D02*
D03*
Y194110D02*
D03*
Y196079D02*
D03*
Y198047D02*
D03*
Y200016D02*
D03*
Y201984D02*
D03*
Y203953D02*
D03*
Y205921D02*
D03*
Y207890D02*
D03*
Y209858D02*
D03*
Y211827D02*
D03*
Y213795D02*
D03*
Y215764D02*
D03*
Y217732D02*
D03*
Y219701D02*
D03*
D68*
X118811Y125165D02*
D03*
X54244D02*
D03*
X315661D02*
D03*
X251095D02*
D03*
X492827D02*
D03*
X428260D02*
D03*
D69*
X63890Y119260D02*
D03*
X65858D02*
D03*
X67827D02*
D03*
X69795D02*
D03*
X71764D02*
D03*
X73732D02*
D03*
X75701D02*
D03*
X77669D02*
D03*
X79638D02*
D03*
X81606D02*
D03*
X83575D02*
D03*
X87512D02*
D03*
X85543D02*
D03*
X89480D02*
D03*
X91449D02*
D03*
X93417D02*
D03*
X95386D02*
D03*
X97354D02*
D03*
X99323D02*
D03*
X101291D02*
D03*
X103260D02*
D03*
X105228D02*
D03*
X107197D02*
D03*
X109165D02*
D03*
X260740D02*
D03*
X262709D02*
D03*
X264677D02*
D03*
X266646D02*
D03*
X268614D02*
D03*
X270583D02*
D03*
X272551D02*
D03*
X274520D02*
D03*
X276488D02*
D03*
X278457D02*
D03*
X280425D02*
D03*
X284362D02*
D03*
X282394D02*
D03*
X286331D02*
D03*
X288299D02*
D03*
X290268D02*
D03*
X292236D02*
D03*
X294205D02*
D03*
X296173D02*
D03*
X298142D02*
D03*
X300110D02*
D03*
X302079D02*
D03*
X304047D02*
D03*
X306016D02*
D03*
X437906D02*
D03*
X439874D02*
D03*
X441843D02*
D03*
X443811D02*
D03*
X445780D02*
D03*
X447748D02*
D03*
X449717D02*
D03*
X451685D02*
D03*
X453653D02*
D03*
X455622D02*
D03*
X457590D02*
D03*
X461528D02*
D03*
X459559D02*
D03*
X463496D02*
D03*
X465465D02*
D03*
X467433D02*
D03*
X469402D02*
D03*
X471370D02*
D03*
X473339D02*
D03*
X475307D02*
D03*
X477276D02*
D03*
X479244D02*
D03*
X481213D02*
D03*
X483181D02*
D03*
D70*
X56410Y126937D02*
D03*
X116646D02*
D03*
X253260D02*
D03*
X313496D02*
D03*
X430425D02*
D03*
X490661D02*
D03*
D71*
X290764Y292039D02*
D03*
X320961D02*
D03*
D72*
X293992Y282492D02*
D03*
X317850D02*
D03*
D73*
X300823Y282000D02*
D03*
X303382D02*
D03*
X305941D02*
D03*
X308500D02*
D03*
X311059D02*
D03*
D74*
X331000Y280953D02*
D03*
Y275047D02*
D03*
X480000Y280453D02*
D03*
Y274547D02*
D03*
X465000Y280453D02*
D03*
Y274547D02*
D03*
X450000Y280453D02*
D03*
Y274547D02*
D03*
D75*
X142000Y184740D02*
D03*
Y177260D02*
D03*
X138000Y218260D02*
D03*
Y225740D02*
D03*
X212000Y254480D02*
D03*
Y247000D02*
D03*
D76*
X155000Y250850D02*
D03*
Y257150D02*
D03*
X120000Y184850D02*
D03*
Y191150D02*
D03*
Y209150D02*
D03*
Y202850D02*
D03*
X95000Y223850D02*
D03*
Y230150D02*
D03*
X193000Y237850D02*
D03*
Y244150D02*
D03*
X199000Y242850D02*
D03*
Y249150D02*
D03*
X150000Y185150D02*
D03*
Y178850D02*
D03*
X145000Y217850D02*
D03*
Y224150D02*
D03*
X223000Y204150D02*
D03*
Y197850D02*
D03*
X160000Y175150D02*
D03*
Y168850D02*
D03*
X102000Y223850D02*
D03*
Y230150D02*
D03*
X251000Y230850D02*
D03*
Y237150D02*
D03*
Y223150D02*
D03*
Y216850D02*
D03*
X307000Y220150D02*
D03*
Y213850D02*
D03*
X300000Y220150D02*
D03*
Y213850D02*
D03*
X205000Y249150D02*
D03*
Y242850D02*
D03*
D77*
X179150Y269000D02*
D03*
X172850D02*
D03*
X417850Y263000D02*
D03*
X424150D02*
D03*
D78*
X321000Y238331D02*
D03*
Y229669D02*
D03*
D79*
X229000Y231047D02*
D03*
Y236953D02*
D03*
X222000Y231047D02*
D03*
Y236953D02*
D03*
X206000Y158953D02*
D03*
Y153047D02*
D03*
X198000Y158953D02*
D03*
Y153047D02*
D03*
X480000Y262953D02*
D03*
Y257047D02*
D03*
X465000Y262953D02*
D03*
Y257047D02*
D03*
X450000Y262953D02*
D03*
Y257047D02*
D03*
D80*
X258047Y230953D02*
D03*
X263953D02*
D03*
X258047Y223953D02*
D03*
X263953D02*
D03*
X315047Y221000D02*
D03*
X320953D02*
D03*
X326953Y268000D02*
D03*
X321047D02*
D03*
X144953Y211000D02*
D03*
X139047D02*
D03*
X241953Y216500D02*
D03*
X236047D02*
D03*
X222047Y244000D02*
D03*
X227953D02*
D03*
X235047Y191000D02*
D03*
X240953D02*
D03*
X235047Y183000D02*
D03*
X240953D02*
D03*
D81*
X308000Y268657D02*
D03*
X309968D02*
D03*
X306031D02*
D03*
X309968Y263342D02*
D03*
X306031D02*
D03*
D82*
X407165Y49299D02*
D03*
X159134D02*
D03*
X80000Y30000D02*
D03*
X70000Y20000D02*
D03*
X490000D02*
D03*
X500000D02*
D03*
X480000D02*
D03*
X470000D02*
D03*
X90000D02*
D03*
X50000D02*
D03*
X60000Y30000D02*
D03*
X530000Y280000D02*
D03*
Y20000D02*
D03*
X20000Y280000D02*
D03*
Y20000D02*
D03*
X25000Y238000D02*
D03*
X15000D02*
D03*
X100000Y30000D02*
D03*
X15000Y198000D02*
D03*
X25000D02*
D03*
X15000Y208000D02*
D03*
X25000D02*
D03*
Y218000D02*
D03*
X15000Y228000D02*
D03*
Y218000D02*
D03*
X25000Y228000D02*
D03*
D83*
X127000Y275000D02*
D03*
D84*
X117000D02*
D03*
X107000D02*
D03*
X97000D02*
D03*
X87000D02*
D03*
X77000D02*
D03*
X67000D02*
D03*
X127000Y265000D02*
D03*
X117000D02*
D03*
X107000D02*
D03*
X97000D02*
D03*
X87000D02*
D03*
X77000D02*
D03*
X67000D02*
D03*
D85*
X276000Y152500D02*
D03*
X304500Y166000D02*
D03*
M02*
