G04 Layer_Physical_Order=1*
G04 Layer_Color=255*
%FSLAX25Y25*%
%MOIN*%
G70*
G01*
G75*
%ADD10R,0.07087X0.05709*%
%ADD11R,0.06102X0.05118*%
%ADD12R,0.07480X0.05118*%
%ADD13O,0.01181X0.06890*%
%ADD14O,0.06890X0.01181*%
%ADD15R,0.09449X0.08661*%
%ADD16R,0.01181X0.03150*%
%ADD17R,0.05118X0.11811*%
%ADD18R,0.07087X0.07480*%
%ADD19R,0.08268X0.06299*%
%ADD20R,0.01575X0.05315*%
%ADD21R,0.03150X0.03150*%
%ADD22R,0.05709X0.04528*%
%ADD23R,0.03937X0.03740*%
%ADD24R,0.03740X0.03937*%
%ADD25R,0.02362X0.02362*%
%ADD26R,0.03543X0.03937*%
%ADD27R,0.03937X0.03543*%
%ADD28R,0.01181X0.01772*%
%ADD29C,0.00800*%
%ADD30C,0.02500*%
%ADD31C,0.01500*%
%ADD32C,0.01000*%
%ADD33C,0.00700*%
%ADD34C,0.01100*%
%ADD35C,0.02000*%
%ADD36C,0.01400*%
%ADD37C,0.01200*%
%ADD38C,0.06800*%
%ADD39C,0.06000*%
%ADD40R,0.06500X0.06500*%
%ADD41C,0.06500*%
%ADD42C,0.03500*%
G36*
X520000Y270000D02*
X545000D01*
Y30000D01*
X520000D01*
X520000Y5000D01*
X30000D01*
Y30000D01*
X5000D01*
Y270000D01*
X30000D01*
Y295000D01*
X520000D01*
Y270000D01*
D02*
G37*
%LPC*%
G36*
X328961Y294333D02*
X320961D01*
X320083Y294159D01*
X319338Y293661D01*
X318841Y292917D01*
X318667Y292039D01*
Y286553D01*
X316228Y284114D01*
X315731Y283370D01*
X315556Y282492D01*
X315731Y281614D01*
X316228Y280870D01*
X316972Y280373D01*
X317850Y280198D01*
X318728Y280373D01*
X319473Y280870D01*
X322583Y283980D01*
X323080Y284724D01*
X323255Y285602D01*
Y289745D01*
X328961D01*
X329838Y289920D01*
X330583Y290417D01*
X331080Y291161D01*
X331255Y292039D01*
X331080Y292917D01*
X330583Y293661D01*
X329838Y294159D01*
X328961Y294333D01*
D02*
G37*
G36*
X339000Y283294D02*
X338762Y283247D01*
X331000D01*
X330122Y283072D01*
X329378Y282575D01*
X328881Y281831D01*
X328706Y280953D01*
X328881Y280075D01*
X329378Y279331D01*
X330122Y278833D01*
X331000Y278659D01*
X338953D01*
X339831Y278833D01*
X340575Y279331D01*
X340622Y279378D01*
X341120Y280122D01*
X341294Y281000D01*
X341120Y281878D01*
X340622Y282622D01*
X339878Y283120D01*
X339000Y283294D01*
D02*
G37*
G36*
X415858Y283152D02*
X405650D01*
X404772Y282978D01*
X404027Y282480D01*
X403530Y281736D01*
X403356Y280858D01*
X403530Y279980D01*
X404027Y279236D01*
X404772Y278739D01*
X405650Y278564D01*
X415858D01*
X416736Y278739D01*
X417480Y279236D01*
X417978Y279980D01*
X418152Y280858D01*
X417978Y281736D01*
X417480Y282480D01*
X416736Y282978D01*
X415858Y283152D01*
D02*
G37*
G36*
X376850D02*
X366642D01*
X365764Y282978D01*
X365020Y282480D01*
X364522Y281736D01*
X364348Y280858D01*
X364522Y279980D01*
X365020Y279236D01*
X365764Y278739D01*
X366642Y278564D01*
X376850D01*
X377728Y278739D01*
X378473Y279236D01*
X378970Y279980D01*
X379145Y280858D01*
X378970Y281736D01*
X378473Y282480D01*
X377728Y282978D01*
X376850Y283152D01*
D02*
G37*
G36*
X480000Y282747D02*
X450000D01*
X449122Y282572D01*
X448378Y282075D01*
X447881Y281331D01*
X447706Y280453D01*
X447881Y279575D01*
X448378Y278831D01*
X449122Y278333D01*
X450000Y278159D01*
X480000D01*
X480878Y278333D01*
X481622Y278831D01*
X482119Y279575D01*
X482294Y280453D01*
X482119Y281331D01*
X481622Y282075D01*
X480878Y282572D01*
X480000Y282747D01*
D02*
G37*
G36*
X290764Y294333D02*
X282539D01*
X281662Y294159D01*
X280917Y293661D01*
X280878Y293622D01*
X280741Y293417D01*
X280346Y293154D01*
X279993Y292624D01*
X279869Y292000D01*
X279993Y291376D01*
X280346Y290846D01*
X280741Y290583D01*
X280878Y290378D01*
X281622Y289880D01*
X282500Y289706D01*
X282698Y289745D01*
X288470D01*
Y285720D01*
X288644Y284843D01*
X289142Y284098D01*
X292370Y280870D01*
X293114Y280373D01*
X293992Y280198D01*
X294411Y280281D01*
X294484Y280267D01*
X303382D01*
X303654Y280321D01*
X304153Y279915D01*
Y278343D01*
X304564D01*
Y270543D01*
X304441D01*
Y270125D01*
X303748D01*
X303748Y270125D01*
X303221Y270020D01*
X302775Y269721D01*
X302775Y269721D01*
X297027Y263973D01*
X296728Y263527D01*
X296623Y263000D01*
Y238196D01*
X290757Y232329D01*
X266921D01*
Y233724D01*
X255079D01*
Y232278D01*
X253969D01*
Y233720D01*
X248031D01*
Y232475D01*
X231772D01*
Y234016D01*
X226228D01*
Y232475D01*
X224772D01*
Y233984D01*
Y239921D01*
X223580D01*
Y241228D01*
X230921D01*
Y243478D01*
X238026Y250583D01*
X243402D01*
Y252561D01*
X266598D01*
Y250583D01*
X274701D01*
Y257701D01*
X266598D01*
Y255722D01*
X243402D01*
Y257701D01*
X235299D01*
Y252326D01*
X229745Y246772D01*
X219079D01*
Y241228D01*
X220420D01*
Y239921D01*
X219228D01*
Y237580D01*
X204000D01*
X203395Y237460D01*
X202883Y237118D01*
X199646Y233881D01*
X199304Y233369D01*
X199183Y232764D01*
Y231679D01*
X198797Y231362D01*
X198795Y231362D01*
X198175Y231238D01*
X197811Y230995D01*
X197447Y231238D01*
X196827Y231362D01*
X196825Y231362D01*
X196439Y231679D01*
Y232204D01*
X200117Y235882D01*
X200460Y236395D01*
X200580Y237000D01*
Y239980D01*
X201969D01*
Y239980D01*
X202031D01*
Y239980D01*
X207968D01*
Y240580D01*
X208728Y240731D01*
X209473Y241228D01*
X211981Y243736D01*
X215854D01*
Y245204D01*
X216114Y245378D01*
X239036Y268299D01*
X243402D01*
Y269564D01*
X266598D01*
Y268299D01*
X274701D01*
Y275417D01*
X266598D01*
Y274152D01*
X243402D01*
Y275417D01*
X235299D01*
Y271051D01*
X214512Y250264D01*
X208146D01*
Y246390D01*
X207476Y245721D01*
X202031D01*
Y245721D01*
X201969D01*
Y245721D01*
X196031D01*
Y241194D01*
X195968Y240721D01*
X190032D01*
Y236857D01*
X189570Y236665D01*
X187580Y238655D01*
Y256000D01*
X187460Y256605D01*
X187118Y257118D01*
X184221Y260015D01*
Y264579D01*
X181257D01*
Y266032D01*
X182020D01*
Y271969D01*
X176279D01*
Y266032D01*
X178097D01*
Y264579D01*
X175134D01*
Y256870D01*
X182895D01*
X184420Y255345D01*
Y239469D01*
X183958Y239277D01*
X180121Y243114D01*
X180440Y243502D01*
X180622Y243380D01*
X181500Y243206D01*
X182378Y243380D01*
X183122Y243878D01*
X183619Y244622D01*
X183794Y245500D01*
X183619Y246378D01*
X183122Y247122D01*
X181971Y248273D01*
Y251276D01*
X181797Y252153D01*
X181299Y252898D01*
X180555Y253395D01*
X179677Y253570D01*
X177675D01*
X169044Y262201D01*
X173722Y266879D01*
X173728Y266880D01*
X174473Y267378D01*
X174970Y268122D01*
X175145Y269000D01*
X174970Y269878D01*
X174473Y270622D01*
X173728Y271119D01*
X172850Y271294D01*
X172598D01*
X171721Y271119D01*
X170976Y270622D01*
X164323Y263969D01*
X162794Y265497D01*
Y266500D01*
X162619Y267378D01*
X162122Y268122D01*
X161378Y268619D01*
X160500Y268794D01*
X159622Y268619D01*
X158878Y268122D01*
X158380Y267378D01*
X158206Y266500D01*
Y264547D01*
X158380Y263669D01*
X158489Y263507D01*
X158256Y262955D01*
X157697Y262844D01*
X156953Y262347D01*
X153378Y258772D01*
X152881Y258028D01*
X152706Y257150D01*
X152881Y256272D01*
X153378Y255527D01*
X154122Y255030D01*
X155000Y254855D01*
X155878Y255030D01*
X156622Y255527D01*
X159525Y258430D01*
X166325D01*
X175102Y249653D01*
X175847Y249156D01*
X176724Y248981D01*
X177383D01*
Y247323D01*
X177558Y246445D01*
X178055Y245701D01*
X178879Y244877D01*
X178625Y244490D01*
X178585Y244464D01*
X178000Y244580D01*
X173253D01*
X168866Y248967D01*
Y255130D01*
X159780D01*
Y252856D01*
X157968D01*
Y253720D01*
X152032D01*
Y247980D01*
X157968D01*
Y249695D01*
X159780D01*
Y247421D01*
X159780D01*
X159765Y246927D01*
X151591D01*
X138927Y259591D01*
Y264500D01*
X138819Y265046D01*
X138509Y265509D01*
X138509Y265509D01*
X131250Y272769D01*
Y279250D01*
X122750D01*
Y270750D01*
X129231D01*
X136073Y263909D01*
Y259000D01*
X136073Y259000D01*
X136181Y258454D01*
X136491Y257991D01*
X148340Y246141D01*
X148163Y245611D01*
X147939Y245580D01*
X136509Y257009D01*
X136046Y257319D01*
X135500Y257427D01*
X135500Y257427D01*
X115591D01*
X113427Y259591D01*
Y261897D01*
X113901Y262057D01*
X113969Y261969D01*
X114857Y261288D01*
X115891Y260859D01*
X117000Y260713D01*
X118110Y260859D01*
X119143Y261288D01*
X120031Y261969D01*
X120712Y262857D01*
X121141Y263891D01*
X121287Y265000D01*
X121141Y266109D01*
X120712Y267143D01*
X120031Y268031D01*
X119143Y268712D01*
X118110Y269141D01*
X117000Y269287D01*
X115891Y269141D01*
X114857Y268712D01*
X113969Y268031D01*
X113901Y267943D01*
X113427Y268103D01*
Y269409D01*
X115175Y271156D01*
X115891Y270859D01*
X117000Y270713D01*
X118110Y270859D01*
X119143Y271288D01*
X120031Y271969D01*
X120712Y272857D01*
X121141Y273890D01*
X121287Y275000D01*
X121141Y276110D01*
X120712Y277143D01*
X120031Y278031D01*
X119143Y278712D01*
X118110Y279141D01*
X117000Y279287D01*
X115891Y279141D01*
X114857Y278712D01*
X113969Y278031D01*
X113288Y277143D01*
X112859Y276110D01*
X112713Y275000D01*
X112859Y273890D01*
X113156Y273175D01*
X110991Y271009D01*
X110681Y270546D01*
X110573Y270000D01*
X110573Y270000D01*
Y268103D01*
X110099Y267943D01*
X110031Y268031D01*
X109143Y268712D01*
X108109Y269141D01*
X107000Y269287D01*
X105891Y269141D01*
X104857Y268712D01*
X103969Y268031D01*
X103901Y267943D01*
X103427Y268103D01*
Y269409D01*
X105175Y271156D01*
X105891Y270859D01*
X107000Y270713D01*
X108109Y270859D01*
X109143Y271288D01*
X110031Y271969D01*
X110712Y272857D01*
X111141Y273890D01*
X111287Y275000D01*
X111141Y276110D01*
X110712Y277143D01*
X110031Y278031D01*
X109143Y278712D01*
X108109Y279141D01*
X107000Y279287D01*
X105891Y279141D01*
X104857Y278712D01*
X103969Y278031D01*
X103288Y277143D01*
X102859Y276110D01*
X102713Y275000D01*
X102859Y273890D01*
X103156Y273175D01*
X100991Y271009D01*
X100681Y270546D01*
X100573Y270000D01*
X100573Y270000D01*
Y268103D01*
X100099Y267943D01*
X100031Y268031D01*
X99143Y268712D01*
X98110Y269141D01*
X97000Y269287D01*
X95890Y269141D01*
X94857Y268712D01*
X93969Y268031D01*
X93901Y267943D01*
X93427Y268103D01*
Y269409D01*
X95175Y271156D01*
X95890Y270859D01*
X97000Y270713D01*
X98110Y270859D01*
X99143Y271288D01*
X100031Y271969D01*
X100712Y272857D01*
X101141Y273890D01*
X101287Y275000D01*
X101141Y276110D01*
X100712Y277143D01*
X100031Y278031D01*
X99143Y278712D01*
X98110Y279141D01*
X97000Y279287D01*
X95890Y279141D01*
X94857Y278712D01*
X93969Y278031D01*
X93288Y277143D01*
X92859Y276110D01*
X92713Y275000D01*
X92859Y273890D01*
X93156Y273175D01*
X90991Y271009D01*
X90681Y270546D01*
X90573Y270000D01*
X90573Y270000D01*
Y268103D01*
X90099Y267943D01*
X90031Y268031D01*
X89143Y268712D01*
X88109Y269141D01*
X87000Y269287D01*
X85891Y269141D01*
X84857Y268712D01*
X83969Y268031D01*
X83288Y267143D01*
X82859Y266109D01*
X82713Y265000D01*
X82859Y263891D01*
X83288Y262857D01*
X83969Y261969D01*
X84857Y261288D01*
X85891Y260859D01*
X87000Y260713D01*
X88109Y260859D01*
X89143Y261288D01*
X90031Y261969D01*
X90099Y262057D01*
X90573Y261897D01*
Y250099D01*
X90111Y249908D01*
X90009Y250009D01*
X89546Y250319D01*
X89000Y250427D01*
X89000Y250427D01*
X71500D01*
X71500Y250427D01*
X70954Y250319D01*
X70491Y250009D01*
X70491Y250009D01*
X64667Y244186D01*
X64000Y244274D01*
X63282Y244179D01*
X62613Y243902D01*
X62039Y243461D01*
X61598Y242887D01*
X61321Y242218D01*
X61226Y241500D01*
X61321Y240782D01*
X61598Y240113D01*
X62039Y239539D01*
X62613Y239098D01*
X63282Y238821D01*
X64000Y238726D01*
X64718Y238821D01*
X65387Y239098D01*
X65961Y239539D01*
X66402Y240113D01*
X66679Y240782D01*
X66774Y241500D01*
X66686Y242167D01*
X72091Y247573D01*
X77934D01*
X78085Y247073D01*
X77991Y247009D01*
X77991Y247009D01*
X69718Y238737D01*
X69282Y238679D01*
X68613Y238402D01*
X68039Y237961D01*
X67598Y237387D01*
X67321Y236718D01*
X67226Y236000D01*
X67321Y235282D01*
X67598Y234613D01*
X68039Y234039D01*
X68613Y233598D01*
X69282Y233321D01*
X70000Y233226D01*
X70718Y233321D01*
X71387Y233598D01*
X71961Y234039D01*
X72402Y234613D01*
X72679Y235282D01*
X72774Y236000D01*
X72679Y236718D01*
X72403Y237384D01*
X78098Y243080D01*
X78598Y242873D01*
Y236299D01*
X83974D01*
X84420Y235853D01*
Y231580D01*
X61863D01*
X55402Y238042D01*
Y243417D01*
X52931D01*
Y273696D01*
X60655Y281420D01*
X68345D01*
X73093Y276672D01*
X72859Y276110D01*
X72713Y275000D01*
X72859Y273890D01*
X73288Y272857D01*
X73969Y271969D01*
X74857Y271288D01*
X75890Y270859D01*
X77000Y270713D01*
X78110Y270859D01*
X79143Y271288D01*
X80031Y271969D01*
X80712Y272857D01*
X81141Y273890D01*
X81287Y275000D01*
X81141Y276110D01*
X80712Y277143D01*
X80031Y278031D01*
X79143Y278712D01*
X78110Y279141D01*
X77000Y279287D01*
X75890Y279141D01*
X75328Y278907D01*
X70117Y284118D01*
X69605Y284460D01*
X69000Y284580D01*
X60000D01*
X59395Y284460D01*
X58882Y284118D01*
X50233Y275468D01*
X49890Y274955D01*
X49770Y274350D01*
Y243417D01*
X47299D01*
Y236299D01*
X52675D01*
X60091Y228883D01*
X60604Y228540D01*
X61209Y228420D01*
X85345D01*
X91032Y222733D01*
X91545Y222390D01*
X92032Y222293D01*
Y220980D01*
X97969D01*
Y222270D01*
X99032D01*
Y220980D01*
X102635D01*
X105733Y217882D01*
X106246Y217540D01*
X106850Y217420D01*
X108746D01*
X109039Y217039D01*
X109613Y216598D01*
X110282Y216321D01*
X111000Y216226D01*
X111718Y216321D01*
X112387Y216598D01*
X112961Y217039D01*
X113402Y217613D01*
X113679Y218282D01*
X113774Y219000D01*
X113679Y219718D01*
X113402Y220387D01*
X112961Y220961D01*
X112387Y221402D01*
X111718Y221679D01*
X111000Y221774D01*
X110282Y221679D01*
X109613Y221402D01*
X109039Y220961D01*
X108746Y220580D01*
X107505D01*
X104969Y223117D01*
Y226720D01*
X99032D01*
Y225431D01*
X97969D01*
Y226720D01*
X92032D01*
Y226720D01*
X91666Y226569D01*
X87580Y230655D01*
Y236508D01*
X87460Y237113D01*
X87117Y237625D01*
X86701Y238042D01*
Y243417D01*
X79143D01*
X78936Y243917D01*
X79591Y244573D01*
X88409D01*
X94738Y238244D01*
X94559Y237716D01*
X94282Y237679D01*
X93613Y237402D01*
X93039Y236961D01*
X92598Y236387D01*
X92321Y235718D01*
X92226Y235000D01*
X92321Y234282D01*
X92598Y233613D01*
X92670Y233520D01*
X92566Y233020D01*
X92032D01*
Y227279D01*
X97969D01*
Y233020D01*
X97434D01*
X97330Y233520D01*
X97402Y233613D01*
X97679Y234282D01*
X97774Y235000D01*
X97679Y235718D01*
X97402Y236387D01*
X96961Y236961D01*
X96816Y237073D01*
X96986Y237573D01*
X100969D01*
X101041Y237360D01*
X101052Y237073D01*
X100378Y236622D01*
X99881Y235878D01*
X99706Y235000D01*
Y230150D01*
X99881Y229272D01*
X100378Y228527D01*
X101122Y228030D01*
X102000Y227855D01*
X102878Y228030D01*
X103622Y228527D01*
X104120Y229272D01*
X104294Y230150D01*
Y235000D01*
X104120Y235878D01*
X103622Y236622D01*
X102948Y237073D01*
X102959Y237360D01*
X103031Y237573D01*
X136409D01*
X139991Y233991D01*
X139991Y233991D01*
X140454Y233681D01*
X141000Y233573D01*
X151409D01*
X153073Y231909D01*
Y219500D01*
X153073Y219500D01*
X153181Y218954D01*
X153390Y218641D01*
X153331Y218483D01*
X153103Y218194D01*
X152500Y218274D01*
X151782Y218179D01*
X151113Y217902D01*
X150539Y217461D01*
X150098Y216887D01*
X149821Y216218D01*
X149726Y215500D01*
X149821Y214782D01*
X150098Y214113D01*
X150539Y213539D01*
X151113Y213098D01*
X151782Y212821D01*
X152202Y212766D01*
X152303Y212752D01*
Y212248D01*
X152202Y212234D01*
X151782Y212179D01*
X151113Y211902D01*
X150539Y211461D01*
X150098Y210887D01*
X149821Y210218D01*
X149726Y209500D01*
X149821Y208782D01*
X150098Y208113D01*
X150539Y207539D01*
X151113Y207098D01*
X151782Y206821D01*
X152202Y206766D01*
X152303Y206752D01*
Y206248D01*
X152202Y206235D01*
X151782Y206179D01*
X151113Y205902D01*
X150539Y205461D01*
X150098Y204887D01*
X149996Y204642D01*
X149407Y204524D01*
X146992Y206939D01*
Y208228D01*
X147921D01*
Y213772D01*
X146992D01*
Y214980D01*
X147968D01*
Y220721D01*
X142032D01*
X141854Y221147D01*
Y221524D01*
X134146D01*
Y214996D01*
X141854D01*
Y214996D01*
X142032Y214980D01*
Y214980D01*
X142348Y214980D01*
X142914D01*
Y213772D01*
X136079D01*
Y213294D01*
X132950D01*
X131702Y214542D01*
X131679Y214718D01*
X131402Y215387D01*
X130961Y215961D01*
X130387Y216402D01*
X129718Y216679D01*
X129000Y216774D01*
X128282Y216679D01*
X127613Y216402D01*
X127039Y215961D01*
X126598Y215387D01*
X126321Y214718D01*
X126226Y214000D01*
X126321Y213282D01*
X126598Y212613D01*
X127039Y212039D01*
X127613Y211598D01*
X128282Y211321D01*
X128458Y211298D01*
X130378Y209378D01*
X131122Y208880D01*
X132000Y208706D01*
X136079D01*
Y208228D01*
X142914D01*
Y206095D01*
X143069Y205314D01*
X143511Y204653D01*
X147582Y200582D01*
X148243Y200140D01*
X148560Y200077D01*
X148511Y199577D01*
X140586D01*
X137081Y203081D01*
X136585Y203413D01*
X136000Y203529D01*
X133740D01*
Y205874D01*
X127604D01*
X123247Y210231D01*
X122968Y210417D01*
Y212020D01*
X117032D01*
Y206279D01*
X122873D01*
X124260Y204892D01*
Y198756D01*
X133740D01*
Y200471D01*
X135366D01*
X138774Y197063D01*
X135366Y193655D01*
X133740D01*
Y195244D01*
X124260D01*
Y189108D01*
X122873Y187721D01*
X117032D01*
Y181980D01*
X122968D01*
Y183583D01*
X123247Y183769D01*
X127604Y188126D01*
X133740D01*
Y190597D01*
X136000D01*
X136585Y190713D01*
X137081Y191045D01*
X140586Y194549D01*
X156796D01*
X157260Y194457D01*
X158134D01*
X158355Y194110D01*
X158134Y193763D01*
X157260D01*
X156639Y193640D01*
X156113Y193289D01*
X155762Y192762D01*
X155638Y192142D01*
X155762Y191521D01*
X156005Y191157D01*
X155762Y190794D01*
X155638Y190173D01*
X155762Y189553D01*
X156005Y189189D01*
X155762Y188825D01*
X155638Y188205D01*
X155649Y188152D01*
X155331Y187766D01*
X152969D01*
Y188020D01*
X152294D01*
Y189472D01*
X152402Y189613D01*
X152679Y190282D01*
X152774Y191000D01*
X152679Y191718D01*
X152402Y192387D01*
X151961Y192961D01*
X151387Y193402D01*
X150718Y193679D01*
X150000Y193774D01*
X149282Y193679D01*
X148613Y193402D01*
X148039Y192961D01*
X147598Y192387D01*
X147321Y191718D01*
X147226Y191000D01*
X147321Y190282D01*
X147598Y189613D01*
X147706Y189472D01*
Y188020D01*
X147031D01*
Y182280D01*
X151463D01*
X151655Y181818D01*
X150819Y180982D01*
X150000Y181144D01*
X149122Y180970D01*
X148378Y180473D01*
X147880Y179728D01*
X147706Y178850D01*
Y173000D01*
X147880Y172122D01*
X148378Y171378D01*
X149122Y170880D01*
X150000Y170706D01*
X150878Y170880D01*
X151622Y171378D01*
X152120Y172122D01*
X152294Y173000D01*
Y178131D01*
X155515Y181352D01*
X156012Y181303D01*
X156113Y181152D01*
X156639Y180801D01*
X157260Y180677D01*
X158585D01*
Y178020D01*
X157032D01*
Y172280D01*
X162969D01*
Y178020D01*
X161644D01*
Y180677D01*
X162969D01*
X163589Y180801D01*
X164115Y181152D01*
X164467Y181679D01*
X164590Y182299D01*
X164467Y182920D01*
X164115Y183446D01*
X163589Y183798D01*
X162969Y183921D01*
X162043D01*
X161822Y184268D01*
X162043Y184615D01*
X162969D01*
X163589Y184738D01*
X164115Y185090D01*
X164467Y185616D01*
X164590Y186236D01*
X164467Y186857D01*
X164224Y187221D01*
X164467Y187584D01*
X164590Y188205D01*
X164467Y188825D01*
X164224Y189189D01*
X164467Y189553D01*
X164590Y190173D01*
X164467Y190794D01*
X164224Y191157D01*
X164467Y191521D01*
X164590Y192142D01*
X164590Y192143D01*
X164907Y192530D01*
X170110D01*
X170715Y192650D01*
X171228Y192993D01*
X171617Y193383D01*
X171960Y193895D01*
X172080Y194500D01*
X171960Y195105D01*
X171617Y195617D01*
X171105Y195960D01*
X170500Y196080D01*
X169895Y195960D01*
X169492Y195691D01*
X164907D01*
X164590Y196077D01*
X164590Y196079D01*
X164467Y196699D01*
X164224Y197063D01*
X164467Y197427D01*
X164590Y198047D01*
X164467Y198668D01*
X164224Y199031D01*
X164467Y199395D01*
X164590Y200016D01*
X164559Y200170D01*
X164877Y200557D01*
X165925D01*
X168491Y197991D01*
X168491Y197991D01*
X168954Y197681D01*
X169500Y197573D01*
X169500Y197573D01*
X174629D01*
X175039Y197039D01*
X175613Y196598D01*
X176282Y196321D01*
X177000Y196226D01*
X177718Y196321D01*
X178387Y196598D01*
X178961Y197039D01*
X179402Y197613D01*
X179679Y198282D01*
X179774Y199000D01*
X179679Y199718D01*
X179402Y200387D01*
X178961Y200961D01*
X178387Y201402D01*
X177718Y201679D01*
X177000Y201774D01*
X176677Y201731D01*
X176231Y202177D01*
X176274Y202500D01*
X176187Y203159D01*
X176250Y203292D01*
X176556Y203615D01*
X176850Y203576D01*
X177568Y203671D01*
X178237Y203948D01*
X178811Y204389D01*
X179252Y204963D01*
X179529Y205632D01*
X179624Y206350D01*
X179529Y207068D01*
X179252Y207737D01*
X178811Y208311D01*
X178237Y208752D01*
X177568Y209029D01*
X176850Y209124D01*
X176498Y209077D01*
X176061Y209438D01*
X176080Y209472D01*
X176514Y209790D01*
X177000Y209726D01*
X177718Y209821D01*
X178387Y210098D01*
X178961Y210539D01*
X179402Y211113D01*
X179679Y211782D01*
X179774Y212500D01*
X179679Y213218D01*
X179402Y213887D01*
X178961Y214461D01*
X178387Y214902D01*
X177718Y215179D01*
X177000Y215274D01*
X176282Y215179D01*
X175613Y214902D01*
X175332Y214686D01*
X174266Y215753D01*
X174499Y216226D01*
X174500Y216226D01*
X175218Y216321D01*
X175887Y216598D01*
X176461Y217039D01*
X176902Y217613D01*
X177179Y218282D01*
X177274Y219000D01*
X177179Y219718D01*
X176902Y220387D01*
X176754Y220580D01*
Y222093D01*
X177140Y222410D01*
X177142Y222410D01*
X177762Y222533D01*
X178126Y222776D01*
X178490Y222533D01*
X179110Y222410D01*
X179731Y222533D01*
X180095Y222776D01*
X180458Y222533D01*
X181079Y222410D01*
X181699Y222533D01*
X182063Y222776D01*
X182427Y222533D01*
X182744Y222470D01*
X182909Y221927D01*
X181167Y220186D01*
X180500Y220274D01*
X179782Y220179D01*
X179113Y219902D01*
X178539Y219461D01*
X178098Y218887D01*
X177821Y218218D01*
X177726Y217500D01*
X177821Y216782D01*
X178098Y216113D01*
X178539Y215539D01*
X179113Y215098D01*
X179782Y214821D01*
X180500Y214726D01*
X181218Y214821D01*
X181887Y215098D01*
X182461Y215539D01*
X182902Y216113D01*
X183179Y216782D01*
X183274Y217500D01*
X183186Y218167D01*
X186025Y221006D01*
X186025Y221006D01*
X186335Y221469D01*
X186443Y222016D01*
X186443Y222016D01*
Y222123D01*
X186830Y222441D01*
X186984Y222410D01*
X187605Y222533D01*
X187969Y222776D01*
X188332Y222533D01*
X188953Y222410D01*
X188954Y222410D01*
X189341Y222093D01*
Y221576D01*
X187382Y219618D01*
X187040Y219105D01*
X186920Y218500D01*
X187040Y217895D01*
X187382Y217383D01*
X187895Y217040D01*
X188500Y216920D01*
X189105Y217040D01*
X189618Y217383D01*
X192039Y219804D01*
X192381Y220317D01*
X192502Y220921D01*
Y222093D01*
X192888Y222410D01*
X192890Y222410D01*
X193510Y222533D01*
X193874Y222776D01*
X194238Y222533D01*
X194858Y222410D01*
X194860Y222410D01*
X195246Y222093D01*
Y218673D01*
X195367Y218068D01*
X195709Y217556D01*
X198882Y214383D01*
X198917Y214359D01*
X198948Y214287D01*
X198922Y213755D01*
X198539Y213461D01*
X198098Y212887D01*
X197821Y212218D01*
X197726Y211500D01*
X197808Y210876D01*
X197619Y210601D01*
X197426Y210427D01*
X195871D01*
X195461Y210961D01*
X194887Y211402D01*
X194218Y211679D01*
X193500Y211774D01*
X192782Y211679D01*
X192113Y211402D01*
X191539Y210961D01*
X191098Y210387D01*
X190821Y209718D01*
X190726Y209000D01*
X190821Y208282D01*
X191098Y207613D01*
X191539Y207039D01*
X192113Y206598D01*
X192782Y206321D01*
X193500Y206226D01*
X193752Y206259D01*
X193774Y206236D01*
X193988Y205786D01*
X193645Y205340D01*
X193368Y204671D01*
X193273Y203953D01*
X193368Y203235D01*
X193645Y202566D01*
X194086Y201991D01*
X194660Y201551D01*
X195329Y201273D01*
X196047Y201179D01*
X196765Y201273D01*
X197060Y201396D01*
X197443Y201013D01*
X197321Y200718D01*
X197226Y200000D01*
X197321Y199282D01*
X197598Y198613D01*
X198039Y198039D01*
X198613Y197598D01*
X199282Y197321D01*
X200000Y197226D01*
X200718Y197321D01*
X201387Y197598D01*
X201961Y198039D01*
X202402Y198613D01*
X202679Y199282D01*
X202774Y200000D01*
X202770Y200028D01*
X203100Y200404D01*
X207093D01*
X207410Y200017D01*
X207410Y200016D01*
X207533Y199395D01*
X207885Y198869D01*
X208411Y198518D01*
X209032Y198394D01*
X209906D01*
X210127Y198047D01*
X209906Y197701D01*
X209032D01*
X208411Y197577D01*
X207885Y197225D01*
X207533Y196699D01*
X207410Y196079D01*
X207533Y195458D01*
X207776Y195095D01*
X207533Y194731D01*
X207410Y194110D01*
X207533Y193490D01*
X207776Y193126D01*
X207533Y192762D01*
X207410Y192142D01*
X207533Y191521D01*
X207776Y191157D01*
X207533Y190794D01*
X207410Y190173D01*
X207533Y189553D01*
X207776Y189189D01*
X207533Y188825D01*
X207410Y188205D01*
X207533Y187584D01*
X207776Y187221D01*
X207533Y186857D01*
X207410Y186236D01*
X207533Y185616D01*
X207776Y185252D01*
X207533Y184888D01*
X207410Y184268D01*
X207533Y183647D01*
X207776Y183283D01*
X207533Y182920D01*
X207410Y182299D01*
X207533Y181679D01*
X207885Y181152D01*
X208411Y180801D01*
X209032Y180677D01*
X211489D01*
X216573Y175594D01*
Y165881D01*
X216073Y165730D01*
X216009Y165824D01*
X216009Y165824D01*
X206323Y175511D01*
Y177969D01*
X206199Y178589D01*
X205848Y179115D01*
X205321Y179467D01*
X204701Y179590D01*
X204080Y179467D01*
X203716Y179224D01*
X203353Y179467D01*
X202732Y179590D01*
X202112Y179467D01*
X201748Y179224D01*
X201384Y179467D01*
X200764Y179590D01*
X200143Y179467D01*
X199779Y179224D01*
X199416Y179467D01*
X198795Y179590D01*
X198743Y179580D01*
X198356Y179897D01*
Y180773D01*
X198718Y180821D01*
X199387Y181098D01*
X199961Y181539D01*
X200402Y182113D01*
X200679Y182782D01*
X200774Y183500D01*
X200679Y184218D01*
X200402Y184887D01*
X199961Y185461D01*
X199387Y185902D01*
X198718Y186179D01*
X198000Y186274D01*
X197282Y186179D01*
X196613Y185902D01*
X196039Y185461D01*
X195704Y185025D01*
X195239Y184981D01*
X195109Y185014D01*
X194851Y185351D01*
X194277Y185792D01*
X193608Y186069D01*
X192890Y186163D01*
X192172Y186069D01*
X191503Y185792D01*
X190928Y185351D01*
X190488Y184777D01*
X190210Y184108D01*
X190204Y184060D01*
X189700D01*
X189679Y184218D01*
X189402Y184887D01*
X188961Y185461D01*
X188387Y185902D01*
X187718Y186179D01*
X187000Y186274D01*
X186282Y186179D01*
X185613Y185902D01*
X185039Y185461D01*
X184598Y184887D01*
X184321Y184218D01*
X184226Y183500D01*
X184321Y182782D01*
X184598Y182113D01*
X185039Y181539D01*
X185613Y181098D01*
X186282Y180821D01*
X187000Y180726D01*
X187047Y180733D01*
X187423Y180403D01*
Y179897D01*
X187037Y179580D01*
X186984Y179590D01*
X186364Y179467D01*
X186000Y179224D01*
X185636Y179467D01*
X185016Y179590D01*
X184963Y179580D01*
X184577Y179897D01*
Y180453D01*
X184460Y181038D01*
X184129Y181534D01*
X182703Y182960D01*
X182774Y183500D01*
X182679Y184218D01*
X182402Y184887D01*
X181961Y185461D01*
X181387Y185902D01*
X180718Y186179D01*
X180000Y186274D01*
X179282Y186179D01*
X178613Y185902D01*
X178039Y185461D01*
X177598Y184887D01*
X177321Y184218D01*
X177226Y183500D01*
X177321Y182782D01*
X177598Y182113D01*
X178039Y181539D01*
X178613Y181098D01*
X179282Y180821D01*
X180000Y180726D01*
X180540Y180797D01*
X181276Y180061D01*
X181130Y179713D01*
X181046Y179584D01*
X180458Y179467D01*
X180095Y179224D01*
X179731Y179467D01*
X179110Y179590D01*
X178490Y179467D01*
X178126Y179224D01*
X177762Y179467D01*
X177142Y179590D01*
X176521Y179467D01*
X176157Y179224D01*
X175794Y179467D01*
X175173Y179590D01*
X174553Y179467D01*
X174189Y179224D01*
X173825Y179467D01*
X173205Y179590D01*
X172584Y179467D01*
X172221Y179224D01*
X171857Y179467D01*
X171236Y179590D01*
X170616Y179467D01*
X170252Y179224D01*
X169888Y179467D01*
X169268Y179590D01*
X168647Y179467D01*
X168283Y179224D01*
X167920Y179467D01*
X167299Y179590D01*
X166679Y179467D01*
X166153Y179115D01*
X165801Y178589D01*
X165677Y177969D01*
Y172260D01*
X165719Y172052D01*
Y158954D01*
X164345Y157580D01*
X93000D01*
X92395Y157460D01*
X91882Y157117D01*
X84476Y149711D01*
X84000Y149774D01*
X83282Y149679D01*
X82613Y149402D01*
X82039Y148961D01*
X81598Y148387D01*
X81321Y147718D01*
X81226Y147000D01*
X81321Y146282D01*
X81598Y145613D01*
X82039Y145039D01*
X82613Y144598D01*
X83282Y144321D01*
X84000Y144226D01*
X84718Y144321D01*
X85387Y144598D01*
X85961Y145039D01*
X86402Y145613D01*
X86679Y146282D01*
X86774Y147000D01*
X86711Y147476D01*
X93655Y154420D01*
X164550D01*
X164757Y153920D01*
X157919Y147081D01*
X157587Y146585D01*
X157471Y146000D01*
Y103000D01*
X157587Y102415D01*
X157919Y101919D01*
X160297Y99540D01*
X160226Y99000D01*
X160321Y98282D01*
X160598Y97613D01*
X161039Y97039D01*
X161613Y96598D01*
X162282Y96321D01*
X163000Y96226D01*
X163718Y96321D01*
X164387Y96598D01*
X164961Y97039D01*
X165402Y97613D01*
X165679Y98282D01*
X165774Y99000D01*
X165679Y99718D01*
X165402Y100387D01*
X164961Y100961D01*
X164387Y101402D01*
X163718Y101679D01*
X163000Y101774D01*
X162460Y101703D01*
X160529Y103633D01*
Y145367D01*
X169245Y154082D01*
X169707Y153891D01*
Y152870D01*
X162919Y146081D01*
X162587Y145585D01*
X162471Y145000D01*
Y108293D01*
X162039Y107961D01*
X161598Y107387D01*
X161321Y106718D01*
X161226Y106000D01*
X161321Y105282D01*
X161598Y104613D01*
X162039Y104039D01*
X162613Y103598D01*
X163282Y103321D01*
X164000Y103226D01*
X164718Y103321D01*
X165387Y103598D01*
X165961Y104039D01*
X166402Y104613D01*
X166679Y105282D01*
X166774Y106000D01*
X166679Y106718D01*
X166402Y107387D01*
X165961Y107961D01*
X165529Y108293D01*
Y144367D01*
X167464Y146301D01*
X167852Y145982D01*
X167587Y145585D01*
X167471Y145000D01*
Y103293D01*
X167039Y102961D01*
X166598Y102387D01*
X166321Y101718D01*
X166226Y101000D01*
X166321Y100282D01*
X166598Y99613D01*
X167039Y99039D01*
X167613Y98598D01*
X168282Y98321D01*
X169000Y98226D01*
X169718Y98321D01*
X170387Y98598D01*
X170961Y99039D01*
X171402Y99613D01*
X171679Y100282D01*
X171774Y101000D01*
X171679Y101718D01*
X171402Y102387D01*
X170961Y102961D01*
X170529Y103293D01*
Y144367D01*
X173182Y147019D01*
X173644Y146828D01*
Y102827D01*
X173760Y102242D01*
X174092Y101745D01*
X174297Y101540D01*
X174226Y101000D01*
X174321Y100282D01*
X174598Y99613D01*
X175039Y99039D01*
X175613Y98598D01*
X176282Y98321D01*
X177000Y98226D01*
X177718Y98321D01*
X178387Y98598D01*
X178961Y99039D01*
X179402Y99613D01*
X179679Y100282D01*
X179774Y101000D01*
X179679Y101718D01*
X179402Y102387D01*
X178961Y102961D01*
X178387Y103402D01*
X177718Y103679D01*
X177000Y103774D01*
X176703Y104034D01*
Y130954D01*
X177203Y131201D01*
X177248Y131166D01*
X177226Y131000D01*
X177321Y130282D01*
X177598Y129613D01*
X178039Y129039D01*
X178613Y128598D01*
X179282Y128321D01*
X180000Y128226D01*
X180718Y128321D01*
X181387Y128598D01*
X181961Y129039D01*
X182402Y129613D01*
X182679Y130282D01*
X182774Y131000D01*
X182679Y131718D01*
X182402Y132387D01*
X181961Y132961D01*
X181387Y133402D01*
X180718Y133679D01*
X180000Y133774D01*
X179460Y133703D01*
X178671Y134492D01*
Y139513D01*
X179133Y139704D01*
X181297Y137540D01*
X181226Y137000D01*
X181321Y136282D01*
X181598Y135613D01*
X182039Y135039D01*
X182613Y134598D01*
X183282Y134321D01*
X184000Y134226D01*
X184718Y134321D01*
X185387Y134598D01*
X185961Y135039D01*
X186402Y135613D01*
X186679Y136282D01*
X186774Y137000D01*
X186679Y137718D01*
X186402Y138387D01*
X185961Y138961D01*
X185387Y139402D01*
X184718Y139679D01*
X184000Y139774D01*
X183460Y139703D01*
X180640Y142523D01*
Y145544D01*
X181102Y145736D01*
X182297Y144540D01*
X182226Y144000D01*
X182321Y143282D01*
X182598Y142613D01*
X183039Y142039D01*
X183613Y141598D01*
X184282Y141321D01*
X185000Y141226D01*
X185718Y141321D01*
X186387Y141598D01*
X186961Y142039D01*
X187402Y142613D01*
X187679Y143282D01*
X187774Y144000D01*
X187679Y144718D01*
X187402Y145387D01*
X186961Y145961D01*
X186387Y146402D01*
X185718Y146679D01*
X185000Y146774D01*
X184460Y146703D01*
X182608Y148555D01*
Y170331D01*
X182995Y170649D01*
X183047Y170638D01*
X183668Y170762D01*
X184031Y171005D01*
X184395Y170762D01*
X185016Y170638D01*
X185068Y170649D01*
X185455Y170331D01*
Y162618D01*
X183919Y161081D01*
X183587Y160585D01*
X183471Y160000D01*
Y152000D01*
X183587Y151415D01*
X183919Y150919D01*
X184282Y150556D01*
X184211Y150016D01*
X184305Y149298D01*
X184582Y148629D01*
X185023Y148054D01*
X185597Y147614D01*
X186266Y147336D01*
X186984Y147242D01*
X187702Y147336D01*
X188371Y147614D01*
X188946Y148054D01*
X188971Y148087D01*
X189471Y147917D01*
Y131633D01*
X182540Y124703D01*
X182000Y124774D01*
X181282Y124679D01*
X180613Y124402D01*
X180039Y123961D01*
X179598Y123387D01*
X179321Y122718D01*
X179226Y122000D01*
X179321Y121282D01*
X179598Y120613D01*
X180039Y120039D01*
X180613Y119598D01*
X181282Y119321D01*
X182000Y119226D01*
X182718Y119321D01*
X183387Y119598D01*
X183961Y120039D01*
X184402Y120613D01*
X184679Y121282D01*
X184774Y122000D01*
X184703Y122540D01*
X192081Y129919D01*
X192413Y130415D01*
X192529Y131000D01*
Y153366D01*
X194728Y155566D01*
X195228Y155358D01*
Y150079D01*
X195961D01*
Y148860D01*
X195598Y148387D01*
X195321Y147718D01*
X195226Y147000D01*
X195321Y146282D01*
X195598Y145613D01*
X196039Y145039D01*
X196613Y144598D01*
X197282Y144321D01*
X198000Y144226D01*
X198718Y144321D01*
X199387Y144598D01*
X199961Y145039D01*
X200402Y145613D01*
X200679Y146282D01*
X200774Y147000D01*
X200679Y147718D01*
X200402Y148387D01*
X200039Y148860D01*
Y150079D01*
X200772D01*
Y155984D01*
Y161311D01*
X201272Y161518D01*
X203228Y159562D01*
Y155984D01*
Y150079D01*
X203961D01*
Y148860D01*
X203598Y148387D01*
X203321Y147718D01*
X203226Y147000D01*
X203321Y146282D01*
X203598Y145613D01*
X204039Y145039D01*
X204613Y144598D01*
X205282Y144321D01*
X206000Y144226D01*
X206718Y144321D01*
X207387Y144598D01*
X207961Y145039D01*
X208402Y145613D01*
X208679Y146282D01*
X208774Y147000D01*
X208679Y147718D01*
X208402Y148387D01*
X208039Y148860D01*
Y150079D01*
X208772D01*
Y156412D01*
X209234Y156604D01*
X210471Y155367D01*
Y126634D01*
X206919Y123081D01*
X206587Y122585D01*
X206471Y122000D01*
Y113293D01*
X206039Y112961D01*
X205598Y112387D01*
X205321Y111718D01*
X205226Y111000D01*
X205321Y110282D01*
X205598Y109613D01*
X206039Y109039D01*
X206613Y108598D01*
X207282Y108321D01*
X208000Y108226D01*
X208718Y108321D01*
X209387Y108598D01*
X209961Y109039D01*
X210402Y109613D01*
X210679Y110282D01*
X210774Y111000D01*
X210679Y111718D01*
X210402Y112387D01*
X209961Y112961D01*
X209529Y113293D01*
Y121367D01*
X213073Y124910D01*
X213111Y124909D01*
X213573Y124754D01*
Y100000D01*
X213573Y100000D01*
X213681Y99454D01*
X213991Y98991D01*
X243573Y69409D01*
Y66506D01*
X243073Y66260D01*
X242887Y66402D01*
X242218Y66679D01*
X241500Y66774D01*
X241402Y66761D01*
X240529Y67633D01*
Y71000D01*
X240413Y71585D01*
X240081Y72081D01*
X217081Y95081D01*
X216585Y95413D01*
X216000Y95529D01*
X154633D01*
X139081Y111081D01*
X138585Y111413D01*
X138000Y111529D01*
X121634D01*
X112822Y120341D01*
X112325Y120673D01*
X111740Y120789D01*
X110756D01*
Y121835D01*
X108777D01*
Y122527D01*
X110393Y124142D01*
X110736Y124655D01*
X110856Y125260D01*
X110736Y125865D01*
X110393Y126377D01*
X109880Y126720D01*
X109276Y126840D01*
X108671Y126720D01*
X108158Y126377D01*
X106202Y124421D01*
X105728Y124655D01*
X105774Y125000D01*
X105679Y125718D01*
X105402Y126387D01*
X104961Y126961D01*
X104387Y127402D01*
X103718Y127679D01*
X103000Y127774D01*
X102282Y127679D01*
X101613Y127402D01*
X101039Y126961D01*
X100598Y126387D01*
X100321Y125718D01*
X100226Y125000D01*
X100321Y124282D01*
X100598Y123613D01*
X101039Y123039D01*
X101613Y122598D01*
X101680Y122570D01*
Y121835D01*
X93800D01*
X93718Y122321D01*
X94387Y122598D01*
X94961Y123039D01*
X95402Y123613D01*
X95679Y124282D01*
X95774Y125000D01*
X95679Y125718D01*
X95402Y126387D01*
X94961Y126961D01*
X94387Y127402D01*
X93718Y127679D01*
X93000Y127774D01*
X92282Y127679D01*
X91613Y127402D01*
X91490Y127308D01*
X91483Y127312D01*
X91045Y127597D01*
X90940Y128124D01*
X90598Y128637D01*
X87117Y132117D01*
X86605Y132460D01*
X86000Y132580D01*
X85254D01*
X84961Y132961D01*
X84387Y133402D01*
X83718Y133679D01*
X83000Y133774D01*
X82282Y133679D01*
X81613Y133402D01*
X81039Y132961D01*
X80598Y132387D01*
X80321Y131718D01*
X80226Y131000D01*
X80321Y130282D01*
X80598Y129613D01*
X81039Y129039D01*
X81613Y128598D01*
X82282Y128321D01*
X83000Y128226D01*
X83718Y128321D01*
X84387Y128598D01*
X84961Y129039D01*
X84988Y129074D01*
X85650Y129115D01*
X87786Y126979D01*
X87749Y126756D01*
X87220Y126624D01*
X86961Y126961D01*
X86387Y127402D01*
X85718Y127679D01*
X85000Y127774D01*
X84282Y127679D01*
X83613Y127402D01*
X83039Y126961D01*
X82598Y126387D01*
X82321Y125718D01*
X82226Y125000D01*
X82269Y124673D01*
X81796Y124439D01*
X80117Y126118D01*
X79605Y126460D01*
X79000Y126580D01*
X76000D01*
X75395Y126460D01*
X74883Y126118D01*
X74540Y125605D01*
X74420Y125000D01*
X74540Y124395D01*
X74883Y123882D01*
X75395Y123540D01*
X76000Y123420D01*
X78345D01*
X79468Y122297D01*
X79277Y121835D01*
X62299D01*
Y116685D01*
X62360D01*
Y89110D01*
X62477Y88525D01*
X62808Y88029D01*
X126919Y23919D01*
X127415Y23587D01*
X128000Y23471D01*
X241000D01*
X241585Y23587D01*
X242081Y23919D01*
X249460Y31297D01*
X250000Y31226D01*
X250718Y31321D01*
X251387Y31598D01*
X251961Y32039D01*
X252402Y32613D01*
X252679Y33282D01*
X252774Y34000D01*
X252679Y34718D01*
X252402Y35387D01*
X251961Y35961D01*
X251387Y36402D01*
X250718Y36679D01*
X250000Y36774D01*
X249282Y36679D01*
X248613Y36402D01*
X248039Y35961D01*
X247598Y35387D01*
X247321Y34718D01*
X247226Y34000D01*
X247297Y33460D01*
X240367Y26529D01*
X128633D01*
X128192Y26971D01*
X128399Y27471D01*
X233000D01*
X233585Y27587D01*
X234081Y27919D01*
X239460Y33297D01*
X240000Y33226D01*
X240718Y33321D01*
X241387Y33598D01*
X241961Y34039D01*
X242402Y34613D01*
X242679Y35282D01*
X242774Y36000D01*
X242679Y36718D01*
X242402Y37387D01*
X241961Y37961D01*
X241387Y38402D01*
X240718Y38679D01*
X240000Y38774D01*
X239282Y38679D01*
X238613Y38402D01*
X238039Y37961D01*
X237598Y37387D01*
X237321Y36718D01*
X237226Y36000D01*
X237297Y35460D01*
X232366Y30529D01*
X128633D01*
X127192Y31971D01*
X127399Y32471D01*
X133707D01*
X134039Y32039D01*
X134613Y31598D01*
X135282Y31321D01*
X136000Y31226D01*
X136718Y31321D01*
X137387Y31598D01*
X137961Y32039D01*
X138402Y32613D01*
X138679Y33282D01*
X138774Y34000D01*
X138679Y34718D01*
X138402Y35387D01*
X137961Y35961D01*
X137387Y36402D01*
X136718Y36679D01*
X136000Y36774D01*
X135282Y36679D01*
X134613Y36402D01*
X134039Y35961D01*
X133707Y35529D01*
X133119D01*
X132949Y36029D01*
X132961Y36039D01*
X133402Y36613D01*
X133679Y37282D01*
X133774Y38000D01*
X133679Y38718D01*
X133402Y39387D01*
X132961Y39961D01*
X132949Y39971D01*
X133119Y40471D01*
X133707D01*
X134039Y40039D01*
X134613Y39598D01*
X135282Y39321D01*
X136000Y39226D01*
X136718Y39321D01*
X137387Y39598D01*
X137961Y40039D01*
X138402Y40613D01*
X138679Y41282D01*
X138774Y42000D01*
X138679Y42718D01*
X138402Y43387D01*
X137961Y43961D01*
X137387Y44402D01*
X136718Y44679D01*
X136000Y44774D01*
X135282Y44679D01*
X134613Y44402D01*
X134039Y43961D01*
X133707Y43529D01*
X132321D01*
X132221Y44029D01*
X132387Y44098D01*
X132961Y44539D01*
X133402Y45113D01*
X133679Y45782D01*
X133774Y46500D01*
X133679Y47218D01*
X133402Y47887D01*
X132961Y48461D01*
X132387Y48902D01*
X131718Y49179D01*
X131000Y49274D01*
X130282Y49179D01*
X129613Y48902D01*
X129039Y48461D01*
X128707Y48029D01*
X127134D01*
X125192Y49971D01*
X125399Y50471D01*
X134866D01*
X153068Y32269D01*
X153564Y31937D01*
X154150Y31821D01*
X218350D01*
X218936Y31937D01*
X219432Y32269D01*
X238081Y50919D01*
X238413Y51415D01*
X238529Y52000D01*
Y56707D01*
X238961Y57039D01*
X239402Y57613D01*
X239679Y58282D01*
X239774Y59000D01*
X239679Y59718D01*
X239402Y60387D01*
X238961Y60961D01*
X238387Y61402D01*
X238105Y61519D01*
X238022Y61819D01*
X238008Y62100D01*
X238402Y62613D01*
X238479Y62800D01*
X239021D01*
X239098Y62613D01*
X239539Y62039D01*
X240113Y61598D01*
X240782Y61321D01*
X241500Y61226D01*
X242218Y61321D01*
X242887Y61598D01*
X243073Y61740D01*
X243573Y61494D01*
Y46000D01*
X243573Y46000D01*
X243681Y45454D01*
X243991Y44991D01*
X264991Y23991D01*
X264991Y23991D01*
X265454Y23681D01*
X266000Y23573D01*
X281000D01*
X281000Y23573D01*
X281546Y23681D01*
X282009Y23991D01*
X292471Y34452D01*
X292971Y34256D01*
Y22500D01*
X293087Y21915D01*
X293419Y21419D01*
X299419Y15419D01*
X299915Y15087D01*
X300500Y14971D01*
X466500D01*
X467085Y15087D01*
X467581Y15419D01*
X468468Y16305D01*
X468956Y16103D01*
X470000Y15966D01*
X471044Y16103D01*
X472017Y16506D01*
X472853Y17147D01*
X473494Y17983D01*
X473897Y18956D01*
X474035Y20000D01*
X473897Y21044D01*
X473494Y22017D01*
X472853Y22853D01*
X472017Y23494D01*
X471044Y23897D01*
X470000Y24035D01*
X468956Y23897D01*
X467983Y23494D01*
X467147Y22853D01*
X466506Y22017D01*
X466103Y21044D01*
X465966Y20000D01*
X466103Y18956D01*
X466305Y18468D01*
X465867Y18029D01*
X457877D01*
X457829Y18092D01*
X457692Y18529D01*
X465633Y26471D01*
X471367D01*
X476305Y21532D01*
X476103Y21044D01*
X475965Y20000D01*
X476103Y18956D01*
X476506Y17983D01*
X477147Y17147D01*
X477983Y16506D01*
X478956Y16103D01*
X480000Y15966D01*
X481044Y16103D01*
X482017Y16506D01*
X482853Y17147D01*
X483494Y17983D01*
X483897Y18956D01*
X484034Y20000D01*
X483897Y21044D01*
X483494Y22017D01*
X482853Y22853D01*
X482017Y23494D01*
X481044Y23897D01*
X480000Y24035D01*
X478956Y23897D01*
X478468Y23695D01*
X473081Y29081D01*
X472585Y29413D01*
X472000Y29529D01*
X465000D01*
X464415Y29413D01*
X463919Y29081D01*
X455866Y21029D01*
X425345D01*
X425295Y21529D01*
X425585Y21587D01*
X426081Y21919D01*
X446307Y42144D01*
X446780Y41910D01*
X446726Y41500D01*
X446821Y40782D01*
X447098Y40113D01*
X447539Y39539D01*
X448113Y39098D01*
X448782Y38821D01*
X449500Y38726D01*
X450218Y38821D01*
X450887Y39098D01*
X451461Y39539D01*
X451902Y40113D01*
X452179Y40782D01*
X452274Y41500D01*
X452179Y42218D01*
X452113Y42378D01*
X478617Y68883D01*
X478960Y69395D01*
X479080Y70000D01*
Y97845D01*
X489117Y107882D01*
X489460Y108395D01*
X489580Y109000D01*
Y114441D01*
X489460Y115046D01*
X489117Y115558D01*
X484772Y119904D01*
Y121835D01*
X482793D01*
Y122527D01*
X483686Y123420D01*
X485000D01*
X485605Y123540D01*
X486118Y123882D01*
X486460Y124395D01*
X486580Y125000D01*
X486460Y125605D01*
X486118Y126118D01*
X485605Y126460D01*
X485000Y126580D01*
X483032D01*
X482427Y126460D01*
X481914Y126118D01*
X481426Y125630D01*
X480898Y125809D01*
X480876Y125978D01*
X480599Y126647D01*
X480158Y127221D01*
X479584Y127662D01*
X478915Y127939D01*
X478197Y128034D01*
X477479Y127939D01*
X476810Y127662D01*
X476235Y127221D01*
X475795Y126647D01*
X475518Y125978D01*
X475423Y125260D01*
X475518Y124542D01*
X475695Y124113D01*
Y121835D01*
X467560D01*
X467489Y122022D01*
X467828Y122523D01*
X468261Y122581D01*
X468930Y122858D01*
X469505Y123299D01*
X469945Y123873D01*
X470223Y124542D01*
X470317Y125260D01*
X470223Y125978D01*
X469945Y126647D01*
X469505Y127221D01*
X468930Y127662D01*
X468261Y127939D01*
X467543Y128034D01*
X466825Y127939D01*
X466156Y127662D01*
X465582Y127221D01*
X465434Y127028D01*
X465345Y127007D01*
X464844Y127080D01*
X464614Y127425D01*
X460254Y131784D01*
X460317Y132260D01*
X460222Y132978D01*
X459945Y133647D01*
X459505Y134221D01*
X458930Y134662D01*
X458261Y134939D01*
X457543Y135034D01*
X456825Y134939D01*
X456156Y134662D01*
X455582Y134221D01*
X455141Y133647D01*
X454864Y132978D01*
X454770Y132260D01*
X454864Y131542D01*
X455141Y130873D01*
X455582Y130298D01*
X456156Y129858D01*
X456825Y129581D01*
X457543Y129486D01*
X458019Y129549D01*
X459334Y128234D01*
X459101Y127761D01*
X459000Y127774D01*
X458282Y127679D01*
X457613Y127402D01*
X457039Y126961D01*
X456598Y126387D01*
X456321Y125718D01*
X456226Y125000D01*
X456321Y124282D01*
X456598Y123613D01*
X457039Y123039D01*
X457613Y122598D01*
X457979Y122447D01*
Y121835D01*
X457112D01*
X457082Y121983D01*
X456740Y122495D01*
X453118Y126118D01*
X452605Y126460D01*
X452000Y126580D01*
X450000D01*
X449395Y126460D01*
X448882Y126118D01*
X448540Y125605D01*
X448420Y125000D01*
X448540Y124395D01*
X448882Y123882D01*
X449395Y123540D01*
X450000Y123420D01*
X451345D01*
X452468Y122297D01*
X452277Y121835D01*
X436315D01*
Y119832D01*
X428012Y111529D01*
X413000D01*
X412415Y111413D01*
X411919Y111081D01*
X394367Y93529D01*
X334500D01*
X333915Y93413D01*
X333419Y93081D01*
X308419Y68081D01*
X308087Y67585D01*
X307971Y67000D01*
Y66293D01*
X307539Y65961D01*
X307098Y65387D01*
X306821Y64718D01*
X306726Y64000D01*
X306821Y63282D01*
X307098Y62613D01*
X307539Y62039D01*
X308113Y61598D01*
X308782Y61321D01*
X309500Y61226D01*
X310218Y61321D01*
X310887Y61598D01*
X311461Y62039D01*
X311902Y62613D01*
X312179Y63282D01*
X312274Y64000D01*
X312179Y64718D01*
X311902Y65387D01*
X311461Y65961D01*
X311388Y66018D01*
X311344Y66681D01*
X315464Y70801D01*
X315852Y70482D01*
X315587Y70085D01*
X315471Y69500D01*
Y66293D01*
X315039Y65961D01*
X314598Y65387D01*
X314321Y64718D01*
X314226Y64000D01*
X314321Y63282D01*
X314598Y62613D01*
X315039Y62039D01*
X315613Y61598D01*
X316282Y61321D01*
X316873Y61243D01*
X317116Y60779D01*
X315866Y59529D01*
X315293D01*
X314961Y59961D01*
X314387Y60402D01*
X313718Y60679D01*
X313000Y60774D01*
X312282Y60679D01*
X311613Y60402D01*
X311039Y59961D01*
X310598Y59387D01*
X310321Y58718D01*
X310226Y58000D01*
X310321Y57282D01*
X310598Y56613D01*
X311039Y56039D01*
X311613Y55598D01*
X312282Y55321D01*
X313000Y55226D01*
X313718Y55321D01*
X314387Y55598D01*
X314961Y56039D01*
X315293Y56471D01*
X316500D01*
X317085Y56587D01*
X317581Y56919D01*
X320062Y59399D01*
X320485Y59115D01*
X320321Y58718D01*
X320226Y58000D01*
X320321Y57282D01*
X320598Y56613D01*
X321039Y56039D01*
X321613Y55598D01*
X322282Y55321D01*
X323000Y55226D01*
X323718Y55321D01*
X324387Y55598D01*
X324961Y56039D01*
X325402Y56613D01*
X325679Y57282D01*
X325774Y58000D01*
X325679Y58718D01*
X325402Y59387D01*
X325032Y59869D01*
X331471Y66308D01*
X331971Y66101D01*
Y60293D01*
X331539Y59961D01*
X331098Y59387D01*
X330821Y58718D01*
X330726Y58000D01*
X330821Y57282D01*
X331098Y56613D01*
X331539Y56039D01*
X332113Y55598D01*
X332782Y55321D01*
X333500Y55226D01*
X334218Y55321D01*
X334887Y55598D01*
X335461Y56039D01*
X335902Y56613D01*
X336179Y57282D01*
X336274Y58000D01*
X336179Y58718D01*
X335902Y59387D01*
X335461Y59961D01*
X335029Y60293D01*
Y65867D01*
X350634Y81471D01*
X401529D01*
X401736Y80971D01*
X396345Y75580D01*
X379485D01*
X379328Y75902D01*
X379292Y76080D01*
X379701Y76613D01*
X379978Y77282D01*
X380073Y78000D01*
X379978Y78718D01*
X379701Y79387D01*
X379260Y79961D01*
X378686Y80402D01*
X378017Y80679D01*
X377299Y80774D01*
X376581Y80679D01*
X375912Y80402D01*
X375338Y79961D01*
X374897Y79387D01*
X374620Y78718D01*
X374525Y78000D01*
X374620Y77282D01*
X374897Y76613D01*
X375306Y76080D01*
X375271Y75902D01*
X375114Y75580D01*
X353000D01*
X352395Y75460D01*
X351883Y75117D01*
X341882Y65118D01*
X341540Y64605D01*
X341420Y64000D01*
Y60254D01*
X341039Y59961D01*
X340598Y59387D01*
X340321Y58718D01*
X340226Y58000D01*
X340321Y57282D01*
X340598Y56613D01*
X341039Y56039D01*
X341613Y55598D01*
X342282Y55321D01*
X343000Y55226D01*
X343718Y55321D01*
X344387Y55598D01*
X344961Y56039D01*
X345402Y56613D01*
X345679Y57282D01*
X345735Y57702D01*
X345748Y57803D01*
X346252D01*
X346266Y57702D01*
X346321Y57282D01*
X346598Y56613D01*
X347039Y56039D01*
X347613Y55598D01*
X348282Y55321D01*
X349000Y55226D01*
X349718Y55321D01*
X350387Y55598D01*
X350961Y56039D01*
X351402Y56613D01*
X351679Y57282D01*
X351774Y58000D01*
X351679Y58718D01*
X351402Y59387D01*
X350961Y59961D01*
X350580Y60254D01*
Y63345D01*
X354655Y67420D01*
X370633D01*
X370786Y66920D01*
X370338Y66575D01*
X369897Y66001D01*
X369620Y65332D01*
X369526Y64614D01*
X369620Y63896D01*
X369897Y63227D01*
X370338Y62653D01*
X370912Y62212D01*
X371581Y61935D01*
X372299Y61840D01*
X373017Y61935D01*
X373686Y62212D01*
X374260Y62653D01*
X374701Y63227D01*
X374978Y63896D01*
X375073Y64614D01*
X374978Y65332D01*
X374701Y66001D01*
X374260Y66575D01*
X373812Y66920D01*
X373966Y67420D01*
X374000D01*
X374605Y67540D01*
X375117Y67883D01*
X377655Y70420D01*
X383941D01*
X384163Y69971D01*
X384098Y69887D01*
X383821Y69218D01*
X383726Y68500D01*
X383821Y67782D01*
X384098Y67113D01*
X384539Y66539D01*
X385113Y66098D01*
X385782Y65821D01*
X386500Y65726D01*
X387218Y65821D01*
X387887Y66098D01*
X388461Y66539D01*
X388902Y67113D01*
X389179Y67782D01*
X389274Y68500D01*
X389179Y69218D01*
X388902Y69887D01*
X388837Y69971D01*
X389059Y70420D01*
X405070D01*
X405404Y69920D01*
X405321Y69718D01*
X405226Y69000D01*
X405321Y68282D01*
X405598Y67613D01*
X406039Y67039D01*
X406613Y66598D01*
X407282Y66321D01*
X408000Y66226D01*
X408718Y66321D01*
X409387Y66598D01*
X409961Y67039D01*
X410402Y67613D01*
X410679Y68282D01*
X410774Y69000D01*
X410679Y69718D01*
X410554Y70020D01*
X410604Y70530D01*
X410804Y70673D01*
X411118Y70882D01*
X421117Y80883D01*
X421460Y81395D01*
X421580Y82000D01*
Y84746D01*
X421961Y85039D01*
X422402Y85613D01*
X422679Y86282D01*
X422774Y87000D01*
X422679Y87718D01*
X422402Y88387D01*
X421961Y88961D01*
X421387Y89402D01*
X420718Y89679D01*
X420000Y89774D01*
X419282Y89679D01*
X418613Y89402D01*
X418039Y88961D01*
X417598Y88387D01*
X417321Y87718D01*
X417226Y87000D01*
X417321Y86282D01*
X417598Y85613D01*
X418039Y85039D01*
X418420Y84746D01*
Y82655D01*
X409345Y73580D01*
X399469D01*
X399277Y74042D01*
X417655Y92420D01*
X423746D01*
X424039Y92039D01*
X424613Y91598D01*
X425282Y91321D01*
X426000Y91226D01*
X426718Y91321D01*
X427387Y91598D01*
X427961Y92039D01*
X428402Y92613D01*
X428679Y93282D01*
X428774Y94000D01*
X428679Y94718D01*
X428402Y95387D01*
X427961Y95961D01*
X427387Y96402D01*
X426718Y96679D01*
X426000Y96774D01*
X425282Y96679D01*
X424613Y96402D01*
X424039Y95961D01*
X423746Y95580D01*
X417450D01*
X417243Y96080D01*
X421633Y100471D01*
X440000D01*
X440585Y100587D01*
X441081Y100919D01*
X445757Y105594D01*
X446219Y105403D01*
Y98382D01*
X411617Y63779D01*
X378250D01*
X377665Y63663D01*
X377169Y63331D01*
X361419Y47581D01*
X361087Y47085D01*
X360971Y46500D01*
Y42793D01*
X360539Y42461D01*
X360098Y41887D01*
X359821Y41218D01*
X359726Y40500D01*
X359821Y39782D01*
X360098Y39113D01*
X360539Y38539D01*
X361113Y38098D01*
X361782Y37821D01*
X362500Y37726D01*
X363218Y37821D01*
X363887Y38098D01*
X364461Y38539D01*
X364902Y39113D01*
X365179Y39782D01*
X365274Y40500D01*
X365179Y41218D01*
X364902Y41887D01*
X364461Y42461D01*
X364029Y42793D01*
Y45867D01*
X378884Y60721D01*
X381475D01*
X381627Y60221D01*
X381419Y60081D01*
X368919Y47581D01*
X368587Y47085D01*
X368471Y46500D01*
Y42793D01*
X368039Y42461D01*
X367598Y41887D01*
X367321Y41218D01*
X367226Y40500D01*
X367321Y39782D01*
X367598Y39113D01*
X368039Y38539D01*
X368613Y38098D01*
X369282Y37821D01*
X370000Y37726D01*
X370718Y37821D01*
X371387Y38098D01*
X371961Y38539D01*
X372402Y39113D01*
X372679Y39782D01*
X372774Y40500D01*
X372679Y41218D01*
X372402Y41887D01*
X371961Y42461D01*
X371529Y42793D01*
Y45867D01*
X383134Y57471D01*
X405201D01*
X405275Y56971D01*
X404132Y56624D01*
X402761Y55891D01*
X401559Y54905D01*
X400573Y53704D01*
X399841Y52333D01*
X399390Y50846D01*
X399237Y49299D01*
X399390Y47753D01*
X399841Y46265D01*
X400573Y44895D01*
X401559Y43693D01*
X402761Y42707D01*
X404132Y41975D01*
X405619Y41524D01*
X407165Y41371D01*
X408712Y41524D01*
X410199Y41975D01*
X411570Y42707D01*
X412771Y43693D01*
X413757Y44895D01*
X414490Y46265D01*
X414941Y47753D01*
X415093Y49299D01*
X414941Y50846D01*
X414490Y52333D01*
X413757Y53704D01*
X412771Y54905D01*
X411570Y55891D01*
X410199Y56624D01*
X409056Y56971D01*
X409130Y57471D01*
X412000D01*
X412585Y57587D01*
X413081Y57919D01*
X421509Y66346D01*
X421971Y66154D01*
Y49134D01*
X409867Y37029D01*
X357293D01*
X356961Y37461D01*
X356387Y37902D01*
X355718Y38179D01*
X355000Y38274D01*
X354282Y38179D01*
X353613Y37902D01*
X353039Y37461D01*
X352598Y36887D01*
X352321Y36218D01*
X352226Y35500D01*
X352321Y34782D01*
X352598Y34113D01*
X353039Y33539D01*
X353613Y33098D01*
X354282Y32821D01*
X355000Y32726D01*
X355718Y32821D01*
X356387Y33098D01*
X356961Y33539D01*
X357293Y33971D01*
X409082D01*
X409274Y33509D01*
X407345Y31580D01*
X346155D01*
X342711Y35024D01*
X342774Y35500D01*
X342679Y36218D01*
X342402Y36887D01*
X341961Y37461D01*
X341387Y37902D01*
X340718Y38179D01*
X340000Y38274D01*
X339282Y38179D01*
X338613Y37902D01*
X338039Y37461D01*
X337598Y36887D01*
X337321Y36218D01*
X337226Y35500D01*
X337321Y34782D01*
X337598Y34113D01*
X338039Y33539D01*
X338613Y33098D01*
X339282Y32821D01*
X340000Y32726D01*
X340476Y32789D01*
X343223Y30042D01*
X343031Y29580D01*
X340655D01*
X335211Y35024D01*
X335274Y35500D01*
X335179Y36218D01*
X334902Y36887D01*
X334461Y37461D01*
X333887Y37902D01*
X333218Y38179D01*
X332500Y38274D01*
X331782Y38179D01*
X331113Y37902D01*
X330539Y37461D01*
X330098Y36887D01*
X329821Y36218D01*
X329726Y35500D01*
X329821Y34782D01*
X330098Y34113D01*
X330539Y33539D01*
X331113Y33098D01*
X331782Y32821D01*
X332500Y32726D01*
X332976Y32789D01*
X337723Y28042D01*
X337531Y27580D01*
X325155D01*
X317711Y35024D01*
X317774Y35500D01*
X317679Y36218D01*
X317402Y36887D01*
X316961Y37461D01*
X316387Y37902D01*
X315718Y38179D01*
X315000Y38274D01*
X314282Y38179D01*
X313613Y37902D01*
X313039Y37461D01*
X312598Y36887D01*
X312321Y36218D01*
X312226Y35500D01*
X312321Y34782D01*
X312598Y34113D01*
X313039Y33539D01*
X313613Y33098D01*
X314282Y32821D01*
X315000Y32726D01*
X315476Y32789D01*
X323236Y25029D01*
X323028Y24529D01*
X306293D01*
X305961Y24961D01*
X305387Y25402D01*
X304718Y25679D01*
X304000Y25774D01*
X303282Y25679D01*
X302613Y25402D01*
X302039Y24961D01*
X301598Y24387D01*
X301321Y23718D01*
X301226Y23000D01*
X301321Y22282D01*
X301485Y21884D01*
X301062Y21601D01*
X298529Y24134D01*
Y29866D01*
X306081Y37419D01*
X306413Y37915D01*
X306529Y38500D01*
Y55707D01*
X306961Y56039D01*
X307402Y56613D01*
X307679Y57282D01*
X307774Y58000D01*
X307679Y58718D01*
X307402Y59387D01*
X306961Y59961D01*
X306387Y60402D01*
X305718Y60679D01*
X305000Y60774D01*
X304282Y60679D01*
X303613Y60402D01*
X303039Y59961D01*
X302598Y59387D01*
X302321Y58718D01*
X302226Y58000D01*
X302321Y57282D01*
X302598Y56613D01*
X303039Y56039D01*
X303471Y55707D01*
Y39134D01*
X296491Y32154D01*
X296029Y32346D01*
Y53367D01*
X297960Y55297D01*
X298500Y55226D01*
X299218Y55321D01*
X299887Y55598D01*
X300461Y56039D01*
X300902Y56613D01*
X301179Y57282D01*
X301274Y58000D01*
X301179Y58718D01*
X300902Y59387D01*
X300461Y59961D01*
X299887Y60402D01*
X299218Y60679D01*
X298500Y60774D01*
X297782Y60679D01*
X297113Y60402D01*
X296539Y59961D01*
X296098Y59387D01*
X296021Y59200D01*
X295479D01*
X295402Y59387D01*
X294961Y59961D01*
X294387Y60402D01*
X293718Y60679D01*
X293000Y60774D01*
X292282Y60679D01*
X291613Y60402D01*
X291039Y59961D01*
X290598Y59387D01*
X290321Y58718D01*
X290226Y58000D01*
X290321Y57282D01*
X290340Y57235D01*
X290281Y57146D01*
X290173Y56600D01*
X290173Y56600D01*
Y53499D01*
X289711Y53308D01*
X285686Y57333D01*
X285774Y58000D01*
X285679Y58718D01*
X285402Y59387D01*
X284961Y59961D01*
X284387Y60402D01*
X283718Y60679D01*
X283000Y60774D01*
X282282Y60679D01*
X281613Y60402D01*
X281039Y59961D01*
X280598Y59387D01*
X280321Y58718D01*
X280226Y58000D01*
X280321Y57282D01*
X280598Y56613D01*
X281039Y56039D01*
X281613Y55598D01*
X282282Y55321D01*
X283000Y55226D01*
X283667Y55314D01*
X288573Y50409D01*
Y38591D01*
X278409Y28427D01*
X268591D01*
X249427Y47591D01*
Y62014D01*
X249927Y62184D01*
X250039Y62039D01*
X250613Y61598D01*
X251282Y61321D01*
X252000Y61226D01*
X252718Y61321D01*
X253091Y61475D01*
X253528Y61212D01*
X253548Y60778D01*
X253363Y60637D01*
X252923Y60062D01*
X252646Y59393D01*
X252551Y58675D01*
X252646Y57957D01*
X252923Y57288D01*
X253363Y56714D01*
X253938Y56273D01*
X254607Y55996D01*
X255325Y55901D01*
X256043Y55996D01*
X256712Y56273D01*
X257286Y56714D01*
X257727Y57288D01*
X257784Y57426D01*
X257915Y57479D01*
X258348Y57482D01*
X258688Y57039D01*
X259263Y56598D01*
X259932Y56321D01*
X260650Y56226D01*
X261368Y56321D01*
X262036Y56598D01*
X262611Y57039D01*
X263052Y57613D01*
X263320Y58261D01*
X263332Y58283D01*
X263860Y58489D01*
X263971Y58410D01*
Y46293D01*
X263539Y45961D01*
X263098Y45387D01*
X262821Y44718D01*
X262726Y44000D01*
X262821Y43282D01*
X263098Y42613D01*
X263539Y42039D01*
X264113Y41598D01*
X264782Y41321D01*
X265500Y41226D01*
X266218Y41321D01*
X266887Y41598D01*
X267461Y42039D01*
X267902Y42613D01*
X268179Y43282D01*
X268274Y44000D01*
X268179Y44718D01*
X267902Y45387D01*
X267461Y45961D01*
X267029Y46293D01*
Y59500D01*
X266913Y60085D01*
X266581Y60581D01*
X266304Y60859D01*
X266452Y61418D01*
X266887Y61598D01*
X267461Y62039D01*
X267902Y62613D01*
X267979Y62800D01*
X268521D01*
X268598Y62613D01*
X269039Y62039D01*
X269613Y61598D01*
X270282Y61321D01*
X271000Y61226D01*
X271718Y61321D01*
X272387Y61598D01*
X272961Y62039D01*
X273402Y62613D01*
X273679Y63282D01*
X273774Y64000D01*
X273679Y64718D01*
X273402Y65387D01*
X272961Y65961D01*
X272387Y66402D01*
X271718Y66679D01*
X271529Y66704D01*
Y79500D01*
X271413Y80085D01*
X271081Y80581D01*
X267029Y84633D01*
Y88381D01*
X267529Y88551D01*
X267539Y88539D01*
X268113Y88098D01*
X268782Y87821D01*
X269500Y87726D01*
X270218Y87821D01*
X270887Y88098D01*
X271461Y88539D01*
X271902Y89113D01*
X272179Y89782D01*
X272274Y90500D01*
X272203Y91040D01*
X277009Y95846D01*
X277471Y95654D01*
Y92133D01*
X274040Y88703D01*
X273500Y88774D01*
X272782Y88679D01*
X272113Y88402D01*
X271539Y87961D01*
X271098Y87387D01*
X270821Y86718D01*
X270726Y86000D01*
X270821Y85282D01*
X271098Y84613D01*
X271539Y84039D01*
X272113Y83598D01*
X272782Y83321D01*
X273500Y83226D01*
X274218Y83321D01*
X274887Y83598D01*
X275461Y84039D01*
X275902Y84613D01*
X276179Y85282D01*
X276274Y86000D01*
X276203Y86540D01*
X280081Y90419D01*
X280364Y90842D01*
X280669Y90826D01*
X280864Y90759D01*
Y88634D01*
X274419Y82188D01*
X274087Y81692D01*
X273971Y81106D01*
Y66500D01*
X274087Y65915D01*
X274419Y65419D01*
X275297Y64540D01*
X275226Y64000D01*
X275321Y63282D01*
X275598Y62613D01*
X276039Y62039D01*
X276613Y61598D01*
X277282Y61321D01*
X278000Y61226D01*
X278718Y61321D01*
X279387Y61598D01*
X279961Y62039D01*
X280402Y62613D01*
X280679Y63282D01*
X280774Y64000D01*
X280679Y64718D01*
X280402Y65387D01*
X279961Y65961D01*
X279387Y66402D01*
X278718Y66679D01*
X278000Y66774D01*
X277460Y66703D01*
X277029Y67133D01*
Y80473D01*
X282371Y85814D01*
X282833Y85623D01*
Y65638D01*
X282949Y65052D01*
X283281Y64556D01*
X283297Y64540D01*
X283226Y64000D01*
X283321Y63282D01*
X283598Y62613D01*
X284039Y62039D01*
X284613Y61598D01*
X285282Y61321D01*
X286000Y61226D01*
X286718Y61321D01*
X287387Y61598D01*
X287961Y62039D01*
X288402Y62613D01*
X288679Y63282D01*
X288774Y64000D01*
X288679Y64718D01*
X288402Y65387D01*
X287961Y65961D01*
X287387Y66402D01*
X286718Y66679D01*
X286000Y66774D01*
X285892Y66869D01*
Y84061D01*
X286392Y84230D01*
X286539Y84039D01*
X287113Y83598D01*
X287782Y83321D01*
X288500Y83226D01*
X289218Y83321D01*
X289887Y83598D01*
X290461Y84039D01*
X290902Y84613D01*
X291179Y85282D01*
X291274Y86000D01*
X291179Y86718D01*
X290902Y87387D01*
X290461Y87961D01*
X290029Y88293D01*
Y89123D01*
X290092Y89171D01*
X290529Y89308D01*
X292971Y86866D01*
Y66000D01*
X293087Y65415D01*
X293419Y64919D01*
X293797Y64540D01*
X293726Y64000D01*
X293821Y63282D01*
X294098Y62613D01*
X294539Y62039D01*
X295113Y61598D01*
X295782Y61321D01*
X296500Y61226D01*
X297218Y61321D01*
X297887Y61598D01*
X298461Y62039D01*
X298902Y62613D01*
X299179Y63282D01*
X299235Y63702D01*
X299248Y63803D01*
X299752D01*
X299765Y63702D01*
X299821Y63282D01*
X300098Y62613D01*
X300539Y62039D01*
X301113Y61598D01*
X301782Y61321D01*
X302500Y61226D01*
X303218Y61321D01*
X303887Y61598D01*
X304461Y62039D01*
X304902Y62613D01*
X305179Y63282D01*
X305274Y64000D01*
X305179Y64718D01*
X304902Y65387D01*
X304461Y65961D01*
X304029Y66293D01*
Y66500D01*
X303913Y67085D01*
X303581Y67581D01*
X299529Y71633D01*
Y88367D01*
X300081Y88919D01*
X300413Y89415D01*
X300529Y90000D01*
Y102000D01*
X300413Y102585D01*
X300081Y103081D01*
X297703Y105460D01*
Y107481D01*
X298165Y107673D01*
X300297Y105540D01*
X300226Y105000D01*
X300321Y104282D01*
X300598Y103613D01*
X301039Y103039D01*
X301613Y102598D01*
X302282Y102321D01*
X303000Y102226D01*
X303718Y102321D01*
X304387Y102598D01*
X304961Y103039D01*
X305402Y103613D01*
X305679Y104282D01*
X305774Y105000D01*
X305679Y105718D01*
X305402Y106387D01*
X304961Y106961D01*
X304387Y107402D01*
X303718Y107679D01*
X303000Y107774D01*
X302460Y107703D01*
X299671Y110492D01*
Y116685D01*
X300549D01*
Y113270D01*
X300321Y112718D01*
X300226Y112000D01*
X300321Y111282D01*
X300598Y110613D01*
X301039Y110039D01*
X301613Y109598D01*
X302282Y109321D01*
X303000Y109226D01*
X303718Y109321D01*
X304387Y109598D01*
X304961Y110039D01*
X305402Y110613D01*
X305679Y111282D01*
X305774Y112000D01*
X305679Y112718D01*
X305402Y113387D01*
X304961Y113961D01*
X304387Y114402D01*
X303718Y114679D01*
X303608Y114694D01*
Y116685D01*
X303669D01*
Y117369D01*
X304047Y117680D01*
X304425Y117369D01*
Y116685D01*
X304486D01*
Y115984D01*
X304603Y115399D01*
X304934Y114903D01*
X308521Y111317D01*
Y81331D01*
X308039Y80961D01*
X307598Y80387D01*
X307321Y79718D01*
X307226Y79000D01*
X307321Y78282D01*
X307598Y77613D01*
X308039Y77039D01*
X308613Y76598D01*
X309282Y76321D01*
X310000Y76226D01*
X310718Y76321D01*
X311387Y76598D01*
X311961Y77039D01*
X312402Y77613D01*
X312679Y78282D01*
X312774Y79000D01*
X312679Y79718D01*
X312402Y80387D01*
X311961Y80961D01*
X311579Y81254D01*
Y111950D01*
X311463Y112535D01*
X311131Y113031D01*
X307869Y116294D01*
X307606Y116685D01*
Y121835D01*
X305628D01*
Y122527D01*
X307243Y124142D01*
X307586Y124655D01*
X307706Y125260D01*
X307586Y125865D01*
X307243Y126377D01*
X306731Y126720D01*
X306126Y126840D01*
X305521Y126720D01*
X305009Y126377D01*
X303224Y124593D01*
X302751Y124827D01*
X302774Y125000D01*
X302679Y125718D01*
X302402Y126387D01*
X301961Y126961D01*
X301387Y127402D01*
X300718Y127679D01*
X300000Y127774D01*
X299282Y127679D01*
X298613Y127402D01*
X298039Y126961D01*
X297598Y126387D01*
X297321Y125718D01*
X297226Y125000D01*
X297321Y124282D01*
X297598Y123613D01*
X298039Y123039D01*
X298530Y122662D01*
Y121835D01*
X290395D01*
X290324Y122022D01*
X290662Y122523D01*
X291096Y122581D01*
X291765Y122858D01*
X292339Y123299D01*
X292780Y123873D01*
X293057Y124542D01*
X293152Y125260D01*
X293057Y125978D01*
X292780Y126647D01*
X292339Y127221D01*
X291765Y127662D01*
X291096Y127939D01*
X290378Y128034D01*
X289660Y127939D01*
X288991Y127662D01*
X288417Y127221D01*
X288065Y126763D01*
X287649Y126711D01*
X287476Y126746D01*
X287448Y126787D01*
X284480Y129755D01*
X284263Y129900D01*
X284118Y130117D01*
X283605Y130460D01*
X283299Y130521D01*
X282961Y130961D01*
X282387Y131402D01*
X281718Y131679D01*
X281000Y131774D01*
X280282Y131679D01*
X279613Y131402D01*
X279039Y130961D01*
X278598Y130387D01*
X278321Y129718D01*
X278226Y129000D01*
X278321Y128282D01*
X278598Y127613D01*
X279039Y127039D01*
X279340Y126807D01*
Y126193D01*
X279039Y125961D01*
X278598Y125387D01*
X278321Y124718D01*
X278301Y124568D01*
X277828Y124407D01*
X276117Y126118D01*
X275605Y126460D01*
X275000Y126580D01*
X274000D01*
X273395Y126460D01*
X272883Y126118D01*
X272540Y125605D01*
X272420Y125000D01*
X272540Y124395D01*
X272883Y123882D01*
X273395Y123540D01*
X274000Y123420D01*
X274345D01*
X275468Y122297D01*
X275277Y121835D01*
X259150D01*
Y120789D01*
X258260D01*
X257675Y120673D01*
X257178Y120341D01*
X250919Y114081D01*
X250587Y113585D01*
X250471Y113000D01*
Y66293D01*
X250039Y65961D01*
X249927Y65816D01*
X249427Y65986D01*
Y71000D01*
X249427Y71000D01*
X249319Y71546D01*
X249009Y72009D01*
X249009Y72009D01*
X219427Y101591D01*
Y176185D01*
X219427Y176185D01*
X219319Y176731D01*
X219009Y177194D01*
X219009Y177194D01*
X215665Y180539D01*
X215714Y181037D01*
X215887Y181152D01*
X216238Y181679D01*
X216362Y182299D01*
X216334Y182440D01*
X216795Y182687D01*
X233573Y165909D01*
Y165371D01*
X233039Y164961D01*
X232598Y164387D01*
X232321Y163718D01*
X232226Y163000D01*
X232321Y162282D01*
X232598Y161613D01*
X233039Y161039D01*
X233613Y160598D01*
X234282Y160321D01*
X235000Y160226D01*
X235718Y160321D01*
X236387Y160598D01*
X236961Y161039D01*
X237402Y161613D01*
X237679Y162282D01*
X237774Y163000D01*
X237679Y163718D01*
X237402Y164387D01*
X236961Y164961D01*
X236427Y165371D01*
Y166500D01*
X236427Y166500D01*
X236319Y167046D01*
X236009Y167509D01*
X218242Y185277D01*
X217778Y185587D01*
X217232Y185695D01*
X217232Y185695D01*
X216648D01*
X216331Y186082D01*
X216362Y186236D01*
X216238Y186857D01*
X215995Y187221D01*
X216238Y187584D01*
X216362Y188205D01*
X216238Y188825D01*
X215995Y189189D01*
X216238Y189553D01*
X216362Y190173D01*
X216361Y190175D01*
X216679Y190561D01*
X217204D01*
X225883Y181883D01*
X226395Y181540D01*
X227000Y181420D01*
X232079D01*
Y180228D01*
X233667D01*
X233930Y179835D01*
X243882Y169883D01*
X244395Y169540D01*
X245000Y169420D01*
X254746D01*
X255039Y169039D01*
X255613Y168598D01*
X256282Y168321D01*
X257000Y168226D01*
X257718Y168321D01*
X258387Y168598D01*
X258961Y169039D01*
X259402Y169613D01*
X259679Y170282D01*
X259774Y171000D01*
X259679Y171718D01*
X259402Y172387D01*
X258961Y172961D01*
X258387Y173402D01*
X257718Y173679D01*
X257000Y173774D01*
X256282Y173679D01*
X255613Y173402D01*
X255039Y172961D01*
X254746Y172580D01*
X245655D01*
X238469Y179766D01*
X238660Y180228D01*
X243921D01*
Y180706D01*
X246472D01*
X246613Y180598D01*
X247282Y180321D01*
X248000Y180226D01*
X248718Y180321D01*
X249387Y180598D01*
X249961Y181039D01*
X250402Y181613D01*
X250679Y182282D01*
X250774Y183000D01*
X250679Y183718D01*
X250402Y184387D01*
X249961Y184961D01*
X249387Y185402D01*
X248718Y185679D01*
X248000Y185774D01*
X247282Y185679D01*
X246613Y185402D01*
X246472Y185294D01*
X243921D01*
Y185772D01*
X232079D01*
Y184580D01*
X227655D01*
X223097Y189138D01*
X223395Y189540D01*
X224000Y189420D01*
X232079D01*
Y188228D01*
X243921D01*
Y188706D01*
X246472D01*
X246613Y188598D01*
X247282Y188321D01*
X248000Y188226D01*
X248718Y188321D01*
X249387Y188598D01*
X249961Y189039D01*
X250402Y189613D01*
X250679Y190282D01*
X250774Y191000D01*
X250679Y191718D01*
X250402Y192387D01*
X249961Y192961D01*
X249387Y193402D01*
X248718Y193679D01*
X248000Y193774D01*
X247282Y193679D01*
X246613Y193402D01*
X246472Y193294D01*
X243921D01*
Y193772D01*
X238078D01*
X237824Y194272D01*
X237933Y194420D01*
X258345D01*
X262289Y190476D01*
X262226Y190000D01*
X262321Y189282D01*
X262598Y188613D01*
X263039Y188039D01*
X263613Y187598D01*
X264282Y187321D01*
X265000Y187226D01*
X265718Y187321D01*
X266387Y187598D01*
X266961Y188039D01*
X267402Y188613D01*
X267679Y189282D01*
X267774Y190000D01*
X267679Y190718D01*
X267402Y191387D01*
X266961Y191961D01*
X266387Y192402D01*
X265718Y192679D01*
X265000Y192774D01*
X264524Y192711D01*
X260118Y197117D01*
X259605Y197460D01*
X259000Y197580D01*
X237000D01*
X236395Y197460D01*
X235882Y197117D01*
X233930Y195165D01*
X233587Y194652D01*
X233467Y194047D01*
Y193772D01*
X232079D01*
Y192580D01*
X224655D01*
X222007Y195228D01*
X221897Y195301D01*
X221890Y195306D01*
X222122Y195731D01*
X222149Y195726D01*
X223000Y195556D01*
X228000D01*
X228878Y195731D01*
X229622Y196228D01*
X230119Y196973D01*
X230294Y197850D01*
X230119Y198728D01*
X229622Y199473D01*
X228878Y199970D01*
X228000Y200145D01*
X223000D01*
X222122Y199970D01*
X221610Y199628D01*
X218516D01*
X218324Y200090D01*
X219666Y201431D01*
X220031Y201279D01*
Y201279D01*
X225969D01*
Y201562D01*
X226417Y201783D01*
X226464Y201747D01*
X227133Y201470D01*
X227850Y201376D01*
X228568Y201470D01*
X229237Y201747D01*
X229812Y202188D01*
X230253Y202763D01*
X230530Y203432D01*
X230566Y203708D01*
X231094Y203887D01*
X233991Y200991D01*
X233991Y200991D01*
X234454Y200681D01*
X235000Y200573D01*
X243000D01*
X243000Y200573D01*
X243546Y200681D01*
X244009Y200991D01*
X246591Y203573D01*
X330994D01*
X331240Y203073D01*
X331098Y202887D01*
X330821Y202218D01*
X330726Y201500D01*
X330821Y200782D01*
X331098Y200113D01*
X331539Y199539D01*
X331979Y199201D01*
X332040Y198895D01*
X332382Y198382D01*
X404420Y126345D01*
Y116254D01*
X404039Y115961D01*
X403598Y115387D01*
X403321Y114718D01*
X403226Y114000D01*
X403297Y113461D01*
X402856Y113167D01*
X402580Y113361D01*
Y125000D01*
X402460Y125605D01*
X402117Y126118D01*
X329117Y199118D01*
X328605Y199460D01*
X328000Y199580D01*
X325254D01*
X324961Y199961D01*
X324387Y200402D01*
X323718Y200679D01*
X323000Y200774D01*
X322282Y200679D01*
X321613Y200402D01*
X321039Y199961D01*
X320598Y199387D01*
X320321Y198718D01*
X320226Y198000D01*
X320321Y197282D01*
X320598Y196613D01*
X321039Y196039D01*
X321613Y195598D01*
X322282Y195321D01*
X323000Y195226D01*
X323718Y195321D01*
X324387Y195598D01*
X324961Y196039D01*
X325254Y196420D01*
X327345D01*
X354562Y169203D01*
X354231Y168826D01*
X354158Y168882D01*
X353489Y169159D01*
X352772Y169254D01*
X352054Y169159D01*
X351385Y168882D01*
X350810Y168442D01*
X350370Y167867D01*
X350092Y167198D01*
X349998Y166480D01*
X350092Y165762D01*
X350370Y165093D01*
X350810Y164519D01*
X351385Y164078D01*
X352054Y163801D01*
X352772Y163707D01*
X353489Y163801D01*
X354158Y164078D01*
X354733Y164519D01*
X355174Y165093D01*
X355451Y165762D01*
X355545Y166480D01*
X355451Y167198D01*
X355174Y167867D01*
X355118Y167940D01*
X355494Y168271D01*
X399420Y124345D01*
Y113254D01*
X399039Y112961D01*
X398598Y112387D01*
X398321Y111718D01*
X398226Y111000D01*
X398321Y110282D01*
X398598Y109613D01*
X399039Y109039D01*
X399613Y108598D01*
X400282Y108321D01*
X401000Y108226D01*
X401718Y108321D01*
X402387Y108598D01*
X402961Y109039D01*
X403402Y109613D01*
X403679Y110282D01*
X403774Y111000D01*
X403680Y111712D01*
X403698Y111735D01*
X403854Y111874D01*
X404110Y111984D01*
X404613Y111598D01*
X405282Y111321D01*
X406000Y111226D01*
X406718Y111321D01*
X407387Y111598D01*
X407961Y112039D01*
X408402Y112613D01*
X408679Y113282D01*
X408774Y114000D01*
X408679Y114718D01*
X408402Y115387D01*
X407961Y115961D01*
X407580Y116254D01*
Y127000D01*
X407460Y127605D01*
X407118Y128118D01*
X335563Y199672D01*
X335902Y200113D01*
X336179Y200782D01*
X336274Y201500D01*
X336179Y202218D01*
X335902Y202887D01*
X335760Y203073D01*
X336006Y203573D01*
X339500D01*
X339500Y203573D01*
X340046Y203681D01*
X340509Y203991D01*
X375360Y238841D01*
X375360Y238841D01*
X375669Y239304D01*
X375778Y239850D01*
Y259583D01*
X378402D01*
Y261357D01*
X401598D01*
Y259583D01*
X409701D01*
Y261357D01*
X414980D01*
Y260032D01*
X420720D01*
Y265968D01*
X414980D01*
Y264926D01*
X409701D01*
Y266701D01*
X401598D01*
Y264926D01*
X378402D01*
Y266701D01*
X370299D01*
Y259583D01*
X372923D01*
Y240442D01*
X338909Y206427D01*
X301398D01*
X301246Y206927D01*
X301442Y207058D01*
X301884Y207720D01*
X302039Y208500D01*
Y213850D01*
X301884Y214631D01*
X301442Y215292D01*
X300780Y215734D01*
X300000Y215890D01*
X299220Y215734D01*
X298558Y215292D01*
X298116Y214631D01*
X297961Y213850D01*
Y208500D01*
X298116Y207720D01*
X298558Y207058D01*
X298754Y206927D01*
X298602Y206427D01*
X246000D01*
X246000Y206427D01*
X245454Y206319D01*
X244991Y206009D01*
X244991Y206009D01*
X242409Y203427D01*
X238986D01*
X238816Y203927D01*
X238961Y204039D01*
X239402Y204613D01*
X239679Y205282D01*
X239774Y206000D01*
X239679Y206718D01*
X239402Y207387D01*
X238961Y207961D01*
X238387Y208402D01*
X237718Y208679D01*
X237000Y208774D01*
X236524Y208711D01*
X233617Y211617D01*
X233105Y211960D01*
X232500Y212080D01*
X230655D01*
X228439Y214296D01*
X228673Y214769D01*
X229000Y214726D01*
X229718Y214821D01*
X230387Y215098D01*
X230961Y215539D01*
X231254Y215920D01*
X233079D01*
Y213728D01*
X241480D01*
X245831Y209378D01*
X246575Y208880D01*
X247453Y208706D01*
X284000D01*
X284878Y208880D01*
X285622Y209378D01*
X294100Y217856D01*
X297031D01*
Y217280D01*
X302969D01*
Y217856D01*
X304031D01*
Y217280D01*
X309968D01*
Y218706D01*
X312079D01*
Y218228D01*
X323921D01*
Y223772D01*
X323247D01*
Y229432D01*
X323294Y229669D01*
X323181Y230237D01*
Y231850D01*
X321568D01*
X321000Y231963D01*
X320432Y231850D01*
X318819D01*
Y230428D01*
X318659Y229622D01*
Y223772D01*
X312079D01*
Y223294D01*
X307850D01*
X306973Y223119D01*
X306823Y223020D01*
X304031D01*
Y222444D01*
X302969D01*
Y223020D01*
X299620D01*
X299428Y223482D01*
X310942Y234995D01*
X311240Y235442D01*
X311345Y235968D01*
Y261457D01*
X311559D01*
Y265180D01*
X319216D01*
Y240512D01*
X318819D01*
Y236150D01*
X323181D01*
Y240512D01*
X322784D01*
Y265180D01*
X323000D01*
X323241Y265228D01*
X329921D01*
Y268445D01*
X332262Y270786D01*
X332648Y271364D01*
X332784Y272047D01*
Y272472D01*
X333575D01*
Y277622D01*
X328425D01*
Y272472D01*
X328425D01*
X328565Y272135D01*
X327201Y270772D01*
X323100D01*
X313659Y279107D01*
X313514Y279191D01*
X313507Y279196D01*
X313438Y279300D01*
X313411Y279318D01*
X313391Y279343D01*
X312846Y279824D01*
Y285658D01*
X312112D01*
X311800Y285720D01*
X310441D01*
X310129Y285658D01*
X304153D01*
Y284085D01*
X303654Y283679D01*
X303382Y283733D01*
X295869D01*
X295614Y284114D01*
X293058Y286671D01*
Y292039D01*
X292883Y292917D01*
X292386Y293661D01*
X291642Y294159D01*
X290764Y294333D01*
D02*
G37*
G36*
X67000Y279287D02*
X65891Y279141D01*
X64857Y278712D01*
X63969Y278031D01*
X63288Y277143D01*
X62859Y276110D01*
X62713Y275000D01*
X62859Y273890D01*
X63288Y272857D01*
X63969Y271969D01*
X64857Y271288D01*
X65891Y270859D01*
X67000Y270713D01*
X68110Y270859D01*
X69143Y271288D01*
X70031Y271969D01*
X70712Y272857D01*
X71141Y273890D01*
X71287Y275000D01*
X71141Y276110D01*
X70712Y277143D01*
X70031Y278031D01*
X69143Y278712D01*
X68110Y279141D01*
X67000Y279287D01*
D02*
G37*
G36*
X127000Y269287D02*
X125891Y269141D01*
X124857Y268712D01*
X123969Y268031D01*
X123288Y267143D01*
X122859Y266109D01*
X122713Y265000D01*
X122859Y263891D01*
X123288Y262857D01*
X123969Y261969D01*
X124857Y261288D01*
X125891Y260859D01*
X127000Y260713D01*
X128110Y260859D01*
X129143Y261288D01*
X130031Y261969D01*
X130712Y262857D01*
X131141Y263891D01*
X131287Y265000D01*
X131141Y266109D01*
X130712Y267143D01*
X130031Y268031D01*
X129143Y268712D01*
X128110Y269141D01*
X127000Y269287D01*
D02*
G37*
G36*
X77000D02*
X75890Y269141D01*
X74857Y268712D01*
X73969Y268031D01*
X73288Y267143D01*
X72859Y266109D01*
X72713Y265000D01*
X72859Y263891D01*
X73288Y262857D01*
X73969Y261969D01*
X74857Y261288D01*
X75890Y260859D01*
X77000Y260713D01*
X78110Y260859D01*
X79143Y261288D01*
X80031Y261969D01*
X80712Y262857D01*
X81141Y263891D01*
X81287Y265000D01*
X81141Y266109D01*
X80712Y267143D01*
X80031Y268031D01*
X79143Y268712D01*
X78110Y269141D01*
X77000Y269287D01*
D02*
G37*
G36*
X67000D02*
X65891Y269141D01*
X64857Y268712D01*
X63969Y268031D01*
X63288Y267143D01*
X62859Y266109D01*
X62713Y265000D01*
X62859Y263891D01*
X63288Y262857D01*
X63969Y261969D01*
X64857Y261288D01*
X65891Y260859D01*
X67000Y260713D01*
X68110Y260859D01*
X69143Y261288D01*
X70031Y261969D01*
X70712Y262857D01*
X71141Y263891D01*
X71287Y265000D01*
X71141Y266109D01*
X70712Y267143D01*
X70031Y268031D01*
X69143Y268712D01*
X68110Y269141D01*
X67000Y269287D01*
D02*
G37*
G36*
X427020Y265968D02*
X421279D01*
Y260032D01*
X427020D01*
Y260706D01*
X432831D01*
X432971Y260598D01*
X433640Y260321D01*
X434358Y260226D01*
X435076Y260321D01*
X435745Y260598D01*
X436320Y261039D01*
X436760Y261613D01*
X437038Y262282D01*
X437132Y263000D01*
X437038Y263718D01*
X436760Y264387D01*
X436320Y264961D01*
X435745Y265402D01*
X435076Y265679D01*
X434358Y265774D01*
X433640Y265679D01*
X432971Y265402D01*
X432831Y265294D01*
X427020D01*
Y265968D01*
D02*
G37*
G36*
X212000Y262294D02*
X211122Y262120D01*
X210378Y261622D01*
X209880Y260878D01*
X209706Y260000D01*
Y254480D01*
X209880Y253602D01*
X210378Y252858D01*
X211122Y252361D01*
X212000Y252186D01*
X212878Y252361D01*
X213622Y252858D01*
X214120Y253602D01*
X214294Y254480D01*
Y260000D01*
X214120Y260878D01*
X213622Y261622D01*
X212878Y262120D01*
X212000Y262294D01*
D02*
G37*
G36*
X452575Y277122D02*
X447425D01*
Y271972D01*
X448573D01*
Y265921D01*
X447228D01*
Y259984D01*
Y256294D01*
X439861Y248927D01*
X427371D01*
X426961Y249461D01*
X426387Y249902D01*
X425718Y250179D01*
X425000Y250274D01*
X424282Y250179D01*
X423613Y249902D01*
X423039Y249461D01*
X422598Y248887D01*
X422321Y248218D01*
X422226Y247500D01*
X422321Y246782D01*
X422598Y246113D01*
X423039Y245539D01*
X423613Y245098D01*
X424282Y244821D01*
X425000Y244726D01*
X425718Y244821D01*
X426387Y245098D01*
X426961Y245539D01*
X427371Y246073D01*
X440453D01*
X440453Y246073D01*
X440999Y246181D01*
X441462Y246491D01*
X449050Y254079D01*
X452772D01*
Y259984D01*
Y265921D01*
X451427D01*
Y271972D01*
X452575D01*
Y277122D01*
D02*
G37*
G36*
X205000Y257294D02*
X204122Y257119D01*
X203378Y256622D01*
X202881Y255878D01*
X202706Y255000D01*
Y249150D01*
X202881Y248272D01*
X203378Y247527D01*
X204122Y247030D01*
X205000Y246855D01*
X205878Y247030D01*
X206622Y247527D01*
X207119Y248272D01*
X207294Y249150D01*
Y255000D01*
X207119Y255878D01*
X206622Y256622D01*
X205878Y257119D01*
X205000Y257294D01*
D02*
G37*
G36*
X199000D02*
X198122Y257119D01*
X197378Y256622D01*
X196880Y255878D01*
X196706Y255000D01*
Y249150D01*
X196880Y248272D01*
X197378Y247527D01*
X198122Y247030D01*
X199000Y246855D01*
X199878Y247030D01*
X200622Y247527D01*
X201119Y248272D01*
X201294Y249150D01*
Y255000D01*
X201119Y255878D01*
X200622Y256622D01*
X199878Y257119D01*
X199000Y257294D01*
D02*
G37*
G36*
X467575Y277122D02*
X462425D01*
Y271972D01*
X463573D01*
Y265921D01*
X462228D01*
Y259984D01*
Y256294D01*
X448361Y242427D01*
X434371D01*
X433961Y242961D01*
X433387Y243402D01*
X432718Y243679D01*
X432000Y243774D01*
X431282Y243679D01*
X430613Y243402D01*
X430039Y242961D01*
X429598Y242387D01*
X429321Y241718D01*
X429226Y241000D01*
X429321Y240282D01*
X429598Y239613D01*
X430039Y239039D01*
X430613Y238598D01*
X431282Y238321D01*
X432000Y238226D01*
X432718Y238321D01*
X433387Y238598D01*
X433961Y239039D01*
X434371Y239573D01*
X449000D01*
X449546Y239681D01*
X450009Y239991D01*
X450105Y240133D01*
X464050Y254079D01*
X467772D01*
Y259984D01*
Y265921D01*
X466427D01*
Y271972D01*
X467575D01*
Y277122D01*
D02*
G37*
G36*
X193000Y252294D02*
X192122Y252119D01*
X191378Y251622D01*
X190881Y250878D01*
X190706Y250000D01*
Y244150D01*
X190881Y243272D01*
X191378Y242527D01*
X192122Y242030D01*
X193000Y241856D01*
X193878Y242030D01*
X194622Y242527D01*
X195120Y243272D01*
X195294Y244150D01*
Y250000D01*
X195120Y250878D01*
X194622Y251622D01*
X193878Y252119D01*
X193000Y252294D01*
D02*
G37*
G36*
X482575Y277122D02*
X477425D01*
Y271972D01*
X478573D01*
Y265921D01*
X477228D01*
Y259984D01*
Y256294D01*
X457362Y236427D01*
X454871D01*
X454461Y236961D01*
X453887Y237402D01*
X453218Y237679D01*
X452500Y237774D01*
X451782Y237679D01*
X451113Y237402D01*
X450539Y236961D01*
X450098Y236387D01*
X449821Y235718D01*
X449726Y235000D01*
X449821Y234282D01*
X450098Y233613D01*
X450539Y233039D01*
X451113Y232598D01*
X451782Y232321D01*
X452500Y232226D01*
X453218Y232321D01*
X453887Y232598D01*
X454461Y233039D01*
X454871Y233573D01*
X457953D01*
X457953Y233573D01*
X458499Y233681D01*
X458962Y233991D01*
X479050Y254079D01*
X482772D01*
Y259984D01*
Y265921D01*
X481427D01*
Y271972D01*
X482575D01*
Y277122D01*
D02*
G37*
G36*
X256500Y239794D02*
X251350D01*
X250472Y239619D01*
X249728Y239122D01*
X249378Y238772D01*
X248881Y238028D01*
X248706Y237150D01*
X248881Y236272D01*
X249378Y235527D01*
X250122Y235030D01*
X251000Y234856D01*
X251878Y235030D01*
X252141Y235206D01*
X256500D01*
X257378Y235381D01*
X258122Y235878D01*
X258619Y236622D01*
X258794Y237500D01*
X258619Y238378D01*
X258122Y239122D01*
X257378Y239619D01*
X256500Y239794D01*
D02*
G37*
G36*
X235000Y239294D02*
X234763Y239247D01*
X229000D01*
X228122Y239072D01*
X227378Y238575D01*
X226881Y237831D01*
X226706Y236953D01*
X226881Y236075D01*
X227378Y235331D01*
X228122Y234833D01*
X229000Y234659D01*
X234953D01*
X235831Y234833D01*
X236575Y235331D01*
X236622Y235378D01*
X237120Y236122D01*
X237294Y237000D01*
X237120Y237878D01*
X236622Y238622D01*
X235878Y239120D01*
X235000Y239294D01*
D02*
G37*
G36*
X25000Y242035D02*
X23956Y241897D01*
X22983Y241494D01*
X22147Y240853D01*
X21506Y240017D01*
X21103Y239044D01*
X20966Y238000D01*
X21103Y236956D01*
X21506Y235983D01*
X22147Y235147D01*
X22983Y234506D01*
X23956Y234103D01*
X25000Y233965D01*
X26044Y234103D01*
X27017Y234506D01*
X27853Y235147D01*
X28494Y235983D01*
X28897Y236956D01*
X29035Y238000D01*
X28897Y239044D01*
X28494Y240017D01*
X27853Y240853D01*
X27017Y241494D01*
X26044Y241897D01*
X25000Y242035D01*
D02*
G37*
G36*
X15000D02*
X13956Y241897D01*
X12983Y241494D01*
X12147Y240853D01*
X11506Y240017D01*
X11103Y239044D01*
X10966Y238000D01*
X11103Y236956D01*
X11506Y235983D01*
X12147Y235147D01*
X12983Y234506D01*
X13956Y234103D01*
X15000Y233965D01*
X16044Y234103D01*
X17017Y234506D01*
X17853Y235147D01*
X18494Y235983D01*
X18897Y236956D01*
X19035Y238000D01*
X18897Y239044D01*
X18494Y240017D01*
X17853Y240853D01*
X17017Y241494D01*
X16044Y241897D01*
X15000Y242035D01*
D02*
G37*
G36*
X25000Y232034D02*
X23956Y231897D01*
X22983Y231494D01*
X22147Y230853D01*
X21506Y230017D01*
X21103Y229044D01*
X20966Y228000D01*
X21103Y226956D01*
X21506Y225983D01*
X22147Y225147D01*
X22983Y224506D01*
X23956Y224103D01*
X25000Y223966D01*
X26044Y224103D01*
X27017Y224506D01*
X27853Y225147D01*
X28494Y225983D01*
X28897Y226956D01*
X29035Y228000D01*
X28897Y229044D01*
X28494Y230017D01*
X27853Y230853D01*
X27017Y231494D01*
X26044Y231897D01*
X25000Y232034D01*
D02*
G37*
G36*
X15000D02*
X13956Y231897D01*
X12983Y231494D01*
X12147Y230853D01*
X11506Y230017D01*
X11103Y229044D01*
X10966Y228000D01*
X11103Y226956D01*
X11506Y225983D01*
X12147Y225147D01*
X12983Y224506D01*
X13956Y224103D01*
X15000Y223966D01*
X16044Y224103D01*
X17017Y224506D01*
X17853Y225147D01*
X18494Y225983D01*
X18897Y226956D01*
X19035Y228000D01*
X18897Y229044D01*
X18494Y230017D01*
X17853Y230853D01*
X17017Y231494D01*
X16044Y231897D01*
X15000Y232034D01*
D02*
G37*
G36*
X138000Y233294D02*
X137122Y233120D01*
X136378Y232622D01*
X135880Y231878D01*
X135706Y231000D01*
Y225740D01*
X135880Y224862D01*
X136378Y224118D01*
X137122Y223621D01*
X138000Y223446D01*
X138878Y223621D01*
X139622Y224118D01*
X140120Y224862D01*
X140294Y225740D01*
Y231000D01*
X140120Y231878D01*
X139622Y232622D01*
X138878Y233120D01*
X138000Y233294D01*
D02*
G37*
G36*
X145000Y231294D02*
X144122Y231119D01*
X143378Y230622D01*
X142880Y229878D01*
X142706Y229000D01*
Y224150D01*
X142880Y223272D01*
X143378Y222527D01*
X144122Y222030D01*
X145000Y221855D01*
X145878Y222030D01*
X146622Y222527D01*
X147119Y223272D01*
X147294Y224150D01*
Y229000D01*
X147119Y229878D01*
X146622Y230622D01*
X145878Y231119D01*
X145000Y231294D01*
D02*
G37*
G36*
X82858Y224436D02*
X74650D01*
X73772Y224261D01*
X73027Y223764D01*
X72530Y223020D01*
X72356Y222142D01*
X72530Y221264D01*
X73027Y220520D01*
X73772Y220022D01*
X74650Y219848D01*
X82858D01*
X83736Y220022D01*
X84480Y220520D01*
X84978Y221264D01*
X85152Y222142D01*
X84978Y223020D01*
X84480Y223764D01*
X83736Y224261D01*
X82858Y224436D01*
D02*
G37*
G36*
X61000Y224294D02*
X51492D01*
X50614Y224119D01*
X49870Y223622D01*
X49373Y222878D01*
X49198Y222000D01*
X49373Y221122D01*
X49870Y220378D01*
X50614Y219881D01*
X51492Y219706D01*
X61000D01*
X61878Y219881D01*
X62622Y220378D01*
X63119Y221122D01*
X63294Y222000D01*
X63119Y222878D01*
X62622Y223622D01*
X61878Y224119D01*
X61000Y224294D01*
D02*
G37*
G36*
X25000Y222035D02*
X23956Y221897D01*
X22983Y221494D01*
X22147Y220853D01*
X21506Y220017D01*
X21103Y219044D01*
X20966Y218000D01*
X21103Y216956D01*
X21506Y215983D01*
X22147Y215147D01*
X22983Y214506D01*
X23956Y214103D01*
X25000Y213966D01*
X26044Y214103D01*
X27017Y214506D01*
X27853Y215147D01*
X28494Y215983D01*
X28897Y216956D01*
X29035Y218000D01*
X28897Y219044D01*
X28494Y220017D01*
X27853Y220853D01*
X27017Y221494D01*
X26044Y221897D01*
X25000Y222035D01*
D02*
G37*
G36*
X15000D02*
X13956Y221897D01*
X12983Y221494D01*
X12147Y220853D01*
X11506Y220017D01*
X11103Y219044D01*
X10966Y218000D01*
X11103Y216956D01*
X11506Y215983D01*
X12147Y215147D01*
X12983Y214506D01*
X13956Y214103D01*
X15000Y213966D01*
X16044Y214103D01*
X17017Y214506D01*
X17853Y215147D01*
X18494Y215983D01*
X18897Y216956D01*
X19035Y218000D01*
X18897Y219044D01*
X18494Y220017D01*
X17853Y220853D01*
X17017Y221494D01*
X16044Y221897D01*
X15000Y222035D01*
D02*
G37*
G36*
X307000Y215890D02*
X306220Y215734D01*
X305558Y215292D01*
X305116Y214631D01*
X304961Y213850D01*
Y209000D01*
X305116Y208220D01*
X305558Y207558D01*
X306220Y207116D01*
X307000Y206961D01*
X307780Y207116D01*
X308442Y207558D01*
X308884Y208220D01*
X309039Y209000D01*
Y213850D01*
X308884Y214631D01*
X308442Y215292D01*
X307780Y215734D01*
X307000Y215890D01*
D02*
G37*
G36*
X25000Y212035D02*
X23956Y211897D01*
X22983Y211494D01*
X22147Y210853D01*
X21506Y210017D01*
X21103Y209044D01*
X20966Y208000D01*
X21103Y206956D01*
X21506Y205983D01*
X22147Y205147D01*
X22983Y204506D01*
X23956Y204103D01*
X25000Y203965D01*
X26044Y204103D01*
X27017Y204506D01*
X27853Y205147D01*
X28494Y205983D01*
X28897Y206956D01*
X29035Y208000D01*
X28897Y209044D01*
X28494Y210017D01*
X27853Y210853D01*
X27017Y211494D01*
X26044Y211897D01*
X25000Y212035D01*
D02*
G37*
G36*
X15000D02*
X13956Y211897D01*
X12983Y211494D01*
X12147Y210853D01*
X11506Y210017D01*
X11103Y209044D01*
X10966Y208000D01*
X11103Y206956D01*
X11506Y205983D01*
X12147Y205147D01*
X12983Y204506D01*
X13956Y204103D01*
X15000Y203965D01*
X16044Y204103D01*
X17017Y204506D01*
X17853Y205147D01*
X18494Y205983D01*
X18897Y206956D01*
X19035Y208000D01*
X18897Y209044D01*
X18494Y210017D01*
X17853Y210853D01*
X17017Y211494D01*
X16044Y211897D01*
X15000Y212035D01*
D02*
G37*
G36*
X25000Y202034D02*
X23956Y201897D01*
X22983Y201494D01*
X22147Y200853D01*
X21506Y200017D01*
X21103Y199044D01*
X20966Y198000D01*
X21103Y196956D01*
X21506Y195983D01*
X22147Y195147D01*
X22983Y194506D01*
X23956Y194103D01*
X25000Y193965D01*
X26044Y194103D01*
X27017Y194506D01*
X27853Y195147D01*
X28494Y195983D01*
X28897Y196956D01*
X29035Y198000D01*
X28897Y199044D01*
X28494Y200017D01*
X27853Y200853D01*
X27017Y201494D01*
X26044Y201897D01*
X25000Y202034D01*
D02*
G37*
G36*
X15000D02*
X13956Y201897D01*
X12983Y201494D01*
X12147Y200853D01*
X11506Y200017D01*
X11103Y199044D01*
X10966Y198000D01*
X11103Y196956D01*
X11506Y195983D01*
X12147Y195147D01*
X12983Y194506D01*
X13956Y194103D01*
X15000Y193965D01*
X16044Y194103D01*
X17017Y194506D01*
X17853Y195147D01*
X18494Y195983D01*
X18897Y196956D01*
X19035Y198000D01*
X18897Y199044D01*
X18494Y200017D01*
X17853Y200853D01*
X17017Y201494D01*
X16044Y201897D01*
X15000Y202034D01*
D02*
G37*
G36*
X120000Y205145D02*
X119122Y204970D01*
X118378Y204473D01*
X117880Y203728D01*
X117706Y202850D01*
Y197000D01*
Y191150D01*
X117880Y190272D01*
X118378Y189527D01*
X119122Y189030D01*
X120000Y188856D01*
X120878Y189030D01*
X121622Y189527D01*
X122119Y190272D01*
X122294Y191150D01*
Y197000D01*
Y202850D01*
X122119Y203728D01*
X121622Y204473D01*
X120878Y204970D01*
X120000Y205145D01*
D02*
G37*
G36*
X142000Y193774D02*
X141282Y193679D01*
X140613Y193402D01*
X140039Y192961D01*
X139598Y192387D01*
X139321Y191718D01*
X139226Y191000D01*
X139321Y190282D01*
X139598Y189613D01*
X139706Y189472D01*
Y188004D01*
X138146D01*
Y181476D01*
X145854D01*
Y188004D01*
X144294D01*
Y189472D01*
X144402Y189613D01*
X144679Y190282D01*
X144774Y191000D01*
X144679Y191718D01*
X144402Y192387D01*
X143961Y192961D01*
X143387Y193402D01*
X142718Y193679D01*
X142000Y193774D01*
D02*
G37*
G36*
X320772Y176301D02*
X320054Y176207D01*
X319385Y175930D01*
X318810Y175489D01*
X318370Y174914D01*
X318092Y174246D01*
X317998Y173528D01*
X318092Y172810D01*
X318370Y172141D01*
X318810Y171566D01*
X319385Y171125D01*
X320054Y170848D01*
X320772Y170754D01*
X321490Y170848D01*
X322159Y171125D01*
X322733Y171566D01*
X323174Y172141D01*
X323451Y172810D01*
X323545Y173528D01*
X323451Y174246D01*
X323174Y174914D01*
X322733Y175489D01*
X322159Y175930D01*
X321490Y176207D01*
X320772Y176301D01*
D02*
G37*
G36*
X142000Y179554D02*
X141122Y179379D01*
X140378Y178882D01*
X139881Y178138D01*
X139706Y177260D01*
Y171000D01*
X139881Y170122D01*
X140378Y169378D01*
X141122Y168880D01*
X142000Y168706D01*
X142878Y168880D01*
X143622Y169378D01*
X144120Y170122D01*
X144294Y171000D01*
Y177260D01*
X144120Y178138D01*
X143622Y178882D01*
X142878Y179379D01*
X142000Y179554D01*
D02*
G37*
G36*
X494500Y172215D02*
X493782Y172120D01*
X493113Y171843D01*
X492539Y171402D01*
X492098Y170828D01*
X491821Y170159D01*
X491726Y169441D01*
X491821Y168723D01*
X492098Y168054D01*
X492539Y167480D01*
X493113Y167039D01*
X493782Y166762D01*
X494500Y166667D01*
X495218Y166762D01*
X495887Y167039D01*
X496461Y167480D01*
X496902Y168054D01*
X497179Y168723D01*
X497274Y169441D01*
X497179Y170159D01*
X496902Y170828D01*
X496461Y171402D01*
X495887Y171843D01*
X495218Y172120D01*
X494500Y172215D01*
D02*
G37*
G36*
X304500Y168774D02*
X303782Y168679D01*
X303113Y168402D01*
X302539Y167961D01*
X302207Y167529D01*
X289500D01*
X288915Y167413D01*
X288419Y167081D01*
X276540Y155203D01*
X276000Y155274D01*
X275282Y155179D01*
X274613Y154902D01*
X274039Y154461D01*
X273598Y153887D01*
X273321Y153218D01*
X273226Y152500D01*
X273321Y151782D01*
X273598Y151113D01*
X274039Y150539D01*
X274613Y150098D01*
X275282Y149821D01*
X276000Y149726D01*
X276718Y149821D01*
X277387Y150098D01*
X277961Y150539D01*
X278402Y151113D01*
X278679Y151782D01*
X278774Y152500D01*
X278703Y153040D01*
X290134Y164471D01*
X302207D01*
X302539Y164039D01*
X303113Y163598D01*
X303782Y163321D01*
X304500Y163226D01*
X305218Y163321D01*
X305887Y163598D01*
X306461Y164039D01*
X306902Y164613D01*
X307179Y165282D01*
X307274Y166000D01*
X307179Y166718D01*
X306902Y167387D01*
X306461Y167961D01*
X305887Y168402D01*
X305218Y168679D01*
X304500Y168774D01*
D02*
G37*
G36*
X345772Y168301D02*
X345054Y168207D01*
X344385Y167930D01*
X343810Y167489D01*
X343370Y166914D01*
X343092Y166245D01*
X342998Y165528D01*
X343092Y164810D01*
X343370Y164141D01*
X343810Y163566D01*
X344385Y163125D01*
X345054Y162848D01*
X345772Y162754D01*
X346490Y162848D01*
X347159Y163125D01*
X347733Y163566D01*
X348174Y164141D01*
X348451Y164810D01*
X348545Y165528D01*
X348451Y166245D01*
X348174Y166914D01*
X347733Y167489D01*
X347159Y167930D01*
X346490Y168207D01*
X345772Y168301D01*
D02*
G37*
G36*
X322772D02*
X322054Y168207D01*
X321385Y167930D01*
X320810Y167489D01*
X320370Y166914D01*
X320092Y166245D01*
X319998Y165528D01*
X320092Y164810D01*
X320370Y164141D01*
X320810Y163566D01*
X321385Y163125D01*
X322054Y162848D01*
X322772Y162754D01*
X323489Y162848D01*
X324159Y163125D01*
X324733Y163566D01*
X325174Y164141D01*
X325451Y164810D01*
X325545Y165528D01*
X325451Y166245D01*
X325174Y166914D01*
X324733Y167489D01*
X324159Y167930D01*
X323489Y168207D01*
X322772Y168301D01*
D02*
G37*
G36*
X160000Y171144D02*
X159122Y170970D01*
X158378Y170473D01*
X157880Y169728D01*
X157706Y168850D01*
Y164000D01*
X157880Y163122D01*
X158378Y162378D01*
X159122Y161881D01*
X160000Y161706D01*
X160878Y161881D01*
X161622Y162378D01*
X162119Y163122D01*
X162294Y164000D01*
Y168850D01*
X162119Y169728D01*
X161622Y170473D01*
X160878Y170970D01*
X160000Y171144D01*
D02*
G37*
G36*
X52228Y167238D02*
X51511Y167144D01*
X50841Y166867D01*
X50267Y166426D01*
X49826Y165851D01*
X49549Y165182D01*
X49455Y164465D01*
X49549Y163747D01*
X49826Y163078D01*
X50267Y162503D01*
X50841Y162062D01*
X51511Y161785D01*
X52228Y161691D01*
X52946Y161785D01*
X53615Y162062D01*
X54190Y162503D01*
X54631Y163078D01*
X54908Y163747D01*
X55002Y164465D01*
X54908Y165182D01*
X54631Y165851D01*
X54190Y166426D01*
X53615Y166867D01*
X52946Y167144D01*
X52228Y167238D01*
D02*
G37*
G36*
X29228D02*
X28510Y167144D01*
X27841Y166867D01*
X27267Y166426D01*
X26826Y165851D01*
X26549Y165182D01*
X26455Y164465D01*
X26549Y163747D01*
X26826Y163078D01*
X27267Y162503D01*
X27841Y162062D01*
X28510Y161785D01*
X29228Y161691D01*
X29946Y161785D01*
X30615Y162062D01*
X31190Y162503D01*
X31631Y163078D01*
X31908Y163747D01*
X32002Y164465D01*
X31908Y165182D01*
X31631Y165851D01*
X31190Y166426D01*
X30615Y166867D01*
X29946Y167144D01*
X29228Y167238D01*
D02*
G37*
G36*
X22228Y166286D02*
X21510Y166191D01*
X20842Y165914D01*
X20267Y165473D01*
X19826Y164899D01*
X19549Y164230D01*
X19455Y163512D01*
X19549Y162794D01*
X19826Y162125D01*
X20267Y161550D01*
X20842Y161110D01*
X21510Y160833D01*
X22228Y160738D01*
X22946Y160833D01*
X23615Y161110D01*
X24190Y161550D01*
X24631Y162125D01*
X24908Y162794D01*
X25002Y163512D01*
X24908Y164230D01*
X24631Y164899D01*
X24190Y165473D01*
X23615Y165914D01*
X22946Y166191D01*
X22228Y166286D01*
D02*
G37*
G36*
X526500Y165167D02*
X525782Y165073D01*
X525113Y164796D01*
X524539Y164355D01*
X524098Y163781D01*
X523821Y163112D01*
X523726Y162394D01*
X523821Y161676D01*
X524098Y161007D01*
X524539Y160432D01*
X525113Y159992D01*
X525782Y159714D01*
X526500Y159620D01*
X527218Y159714D01*
X527887Y159992D01*
X528461Y160432D01*
X528902Y161007D01*
X529179Y161676D01*
X529274Y162394D01*
X529179Y163112D01*
X528902Y163781D01*
X528461Y164355D01*
X527887Y164796D01*
X527218Y165073D01*
X526500Y165167D01*
D02*
G37*
G36*
X519500Y164215D02*
X518782Y164120D01*
X518113Y163843D01*
X517539Y163402D01*
X517098Y162828D01*
X516821Y162159D01*
X516726Y161441D01*
X516821Y160723D01*
X517098Y160054D01*
X517539Y159480D01*
X518113Y159039D01*
X518782Y158762D01*
X519500Y158667D01*
X520218Y158762D01*
X520887Y159039D01*
X521461Y159480D01*
X521902Y160054D01*
X522179Y160723D01*
X522274Y161441D01*
X522179Y162159D01*
X521902Y162828D01*
X521461Y163402D01*
X520887Y163843D01*
X520218Y164120D01*
X519500Y164215D01*
D02*
G37*
G36*
X496500D02*
X495782Y164120D01*
X495113Y163843D01*
X494539Y163402D01*
X494098Y162828D01*
X493821Y162159D01*
X493726Y161441D01*
X493821Y160723D01*
X494098Y160054D01*
X494539Y159480D01*
X495113Y159039D01*
X495782Y158762D01*
X496500Y158667D01*
X497218Y158762D01*
X497887Y159039D01*
X498461Y159480D01*
X498902Y160054D01*
X499179Y160723D01*
X499274Y161441D01*
X499179Y162159D01*
X498902Y162828D01*
X498461Y163402D01*
X497887Y163843D01*
X497218Y164120D01*
X496500Y164215D01*
D02*
G37*
G36*
X270000Y202774D02*
X269282Y202679D01*
X268613Y202402D01*
X268039Y201961D01*
X267598Y201387D01*
X267321Y200718D01*
X267226Y200000D01*
X267321Y199282D01*
X267598Y198613D01*
X268039Y198039D01*
X268613Y197598D01*
X269282Y197321D01*
X270000Y197226D01*
X270476Y197289D01*
X279420Y188345D01*
Y170655D01*
X234882Y126118D01*
X234540Y125605D01*
X234420Y125000D01*
Y119185D01*
X234099Y119028D01*
X233977Y119005D01*
X233580Y119323D01*
Y131345D01*
X259524Y157289D01*
X260000Y157226D01*
X260718Y157321D01*
X261387Y157598D01*
X261961Y158039D01*
X262402Y158613D01*
X262679Y159282D01*
X262774Y160000D01*
X262679Y160718D01*
X262402Y161387D01*
X261961Y161961D01*
X261387Y162402D01*
X260718Y162679D01*
X260000Y162774D01*
X259282Y162679D01*
X258613Y162402D01*
X258039Y161961D01*
X257598Y161387D01*
X257321Y160718D01*
X257226Y160000D01*
X257289Y159524D01*
X230883Y133117D01*
X230540Y132605D01*
X230420Y132000D01*
Y119254D01*
X230039Y118961D01*
X229598Y118387D01*
X229321Y117718D01*
X229226Y117000D01*
X229321Y116282D01*
X229598Y115613D01*
X230039Y115039D01*
X230613Y114598D01*
X231282Y114321D01*
X232000Y114226D01*
X232718Y114321D01*
X233387Y114598D01*
X233920Y115007D01*
X234099Y114972D01*
X234420Y114815D01*
Y113254D01*
X234039Y112961D01*
X233598Y112387D01*
X233321Y111718D01*
X233226Y111000D01*
X233321Y110282D01*
X233598Y109613D01*
X234039Y109039D01*
X234613Y108598D01*
X235282Y108321D01*
X236000Y108226D01*
X236718Y108321D01*
X237387Y108598D01*
X237961Y109039D01*
X238402Y109613D01*
X238679Y110282D01*
X238774Y111000D01*
X238679Y111718D01*
X238402Y112387D01*
X237961Y112961D01*
X237580Y113254D01*
Y124345D01*
X282118Y168883D01*
X282460Y169395D01*
X282580Y170000D01*
Y189000D01*
X282460Y189605D01*
X282118Y190118D01*
X272711Y199524D01*
X272774Y200000D01*
X272679Y200718D01*
X272402Y201387D01*
X271961Y201961D01*
X271387Y202402D01*
X270718Y202679D01*
X270000Y202774D01*
D02*
G37*
G36*
X54228Y159238D02*
X53510Y159144D01*
X52842Y158867D01*
X52267Y158426D01*
X51826Y157851D01*
X51549Y157183D01*
X51455Y156465D01*
X51549Y155747D01*
X51826Y155078D01*
X52267Y154503D01*
X52842Y154062D01*
X53510Y153785D01*
X54228Y153691D01*
X54946Y153785D01*
X55615Y154062D01*
X56190Y154503D01*
X56630Y155078D01*
X56908Y155747D01*
X57002Y156465D01*
X56908Y157183D01*
X56630Y157851D01*
X56190Y158426D01*
X55615Y158867D01*
X54946Y159144D01*
X54228Y159238D01*
D02*
G37*
G36*
X124500Y152274D02*
X123782Y152179D01*
X123113Y151902D01*
X122539Y151461D01*
X122098Y150887D01*
X122021Y150700D01*
X121479D01*
X121402Y150887D01*
X120961Y151461D01*
X120387Y151902D01*
X119718Y152179D01*
X119000Y152274D01*
X118282Y152179D01*
X117613Y151902D01*
X117039Y151461D01*
X116598Y150887D01*
X116321Y150218D01*
X116226Y149500D01*
X116321Y148782D01*
X116598Y148113D01*
X117039Y147539D01*
X117471Y147207D01*
Y144293D01*
X117039Y143961D01*
X116598Y143387D01*
X116321Y142718D01*
X116226Y142000D01*
X116321Y141282D01*
X116598Y140613D01*
X117039Y140039D01*
X117613Y139598D01*
X118282Y139321D01*
X119000Y139226D01*
X119718Y139321D01*
X120387Y139598D01*
X120961Y140039D01*
X121402Y140613D01*
X121479Y140800D01*
X122021D01*
X122098Y140613D01*
X122539Y140039D01*
X123113Y139598D01*
X123782Y139321D01*
X124500Y139226D01*
X125218Y139321D01*
X125887Y139598D01*
X126461Y140039D01*
X126902Y140613D01*
X127179Y141282D01*
X127274Y142000D01*
X127179Y142718D01*
X126902Y143387D01*
X126461Y143961D01*
X126029Y144293D01*
Y147207D01*
X126461Y147539D01*
X126902Y148113D01*
X127179Y148782D01*
X127274Y149500D01*
X127179Y150218D01*
X126902Y150887D01*
X126461Y151461D01*
X125887Y151902D01*
X125218Y152179D01*
X124500Y152274D01*
D02*
G37*
G36*
X141000D02*
X140282Y152179D01*
X139613Y151902D01*
X139039Y151461D01*
X138598Y150887D01*
X138321Y150218D01*
X138226Y149500D01*
X138321Y148782D01*
X138598Y148113D01*
X139039Y147539D01*
X139471Y147207D01*
Y144293D01*
X139039Y143961D01*
X138598Y143387D01*
X138321Y142718D01*
X138226Y142000D01*
X138321Y141282D01*
X138598Y140613D01*
X139039Y140039D01*
X139613Y139598D01*
X140282Y139321D01*
X141000Y139226D01*
X141718Y139321D01*
X142387Y139598D01*
X142961Y140039D01*
X143402Y140613D01*
X143679Y141282D01*
X143774Y142000D01*
X143679Y142718D01*
X143402Y143387D01*
X142961Y143961D01*
X142529Y144293D01*
Y147207D01*
X142961Y147539D01*
X143402Y148113D01*
X143679Y148782D01*
X143774Y149500D01*
X143679Y150218D01*
X143402Y150887D01*
X142961Y151461D01*
X142387Y151902D01*
X141718Y152179D01*
X141000Y152274D01*
D02*
G37*
G36*
X132000D02*
X131282Y152179D01*
X130613Y151902D01*
X130039Y151461D01*
X129598Y150887D01*
X129321Y150218D01*
X129226Y149500D01*
X129321Y148782D01*
X129598Y148113D01*
X130039Y147539D01*
X130471Y147207D01*
Y144293D01*
X130039Y143961D01*
X129598Y143387D01*
X129321Y142718D01*
X129226Y142000D01*
X129321Y141282D01*
X129598Y140613D01*
X130039Y140039D01*
X130613Y139598D01*
X131282Y139321D01*
X132000Y139226D01*
X132718Y139321D01*
X133387Y139598D01*
X133961Y140039D01*
X134402Y140613D01*
X134679Y141282D01*
X134774Y142000D01*
X134679Y142718D01*
X134402Y143387D01*
X133961Y143961D01*
X133529Y144293D01*
Y147207D01*
X133961Y147539D01*
X134402Y148113D01*
X134679Y148782D01*
X134774Y149500D01*
X134679Y150218D01*
X134402Y150887D01*
X133961Y151461D01*
X133387Y151902D01*
X132718Y152179D01*
X132000Y152274D01*
D02*
G37*
G36*
X330772Y131246D02*
X330054Y131152D01*
X329385Y130875D01*
X328810Y130434D01*
X328369Y129859D01*
X328092Y129190D01*
X327998Y128472D01*
X328092Y127754D01*
X328369Y127086D01*
X328810Y126511D01*
X329385Y126070D01*
X330054Y125793D01*
X330772Y125699D01*
X331489Y125793D01*
X332158Y126070D01*
X332733Y126511D01*
X333174Y127086D01*
X333451Y127754D01*
X333545Y128472D01*
X333451Y129190D01*
X333174Y129859D01*
X332733Y130434D01*
X332158Y130875D01*
X331489Y131152D01*
X330772Y131246D01*
D02*
G37*
G36*
X362772Y124199D02*
X362054Y124104D01*
X361385Y123827D01*
X360810Y123387D01*
X360369Y122812D01*
X360092Y122143D01*
X359998Y121425D01*
X360092Y120707D01*
X360369Y120038D01*
X360810Y119464D01*
X361385Y119023D01*
X362054Y118746D01*
X362772Y118651D01*
X363490Y118746D01*
X364159Y119023D01*
X364733Y119464D01*
X365174Y120038D01*
X365451Y120707D01*
X365545Y121425D01*
X365451Y122143D01*
X365174Y122812D01*
X364733Y123387D01*
X364159Y123827D01*
X363490Y124104D01*
X362772Y124199D01*
D02*
G37*
G36*
X355772Y123246D02*
X355054Y123152D01*
X354385Y122875D01*
X353810Y122434D01*
X353369Y121859D01*
X353092Y121190D01*
X352998Y120472D01*
X353092Y119755D01*
X353369Y119086D01*
X353810Y118511D01*
X354385Y118070D01*
X355054Y117793D01*
X355772Y117699D01*
X356489Y117793D01*
X357158Y118070D01*
X357733Y118511D01*
X358174Y119086D01*
X358451Y119755D01*
X358545Y120472D01*
X358451Y121190D01*
X358174Y121859D01*
X357733Y122434D01*
X357158Y122875D01*
X356489Y123152D01*
X355772Y123246D01*
D02*
G37*
G36*
X332772D02*
X332054Y123152D01*
X331385Y122875D01*
X330810Y122434D01*
X330369Y121859D01*
X330092Y121190D01*
X329998Y120472D01*
X330092Y119755D01*
X330369Y119086D01*
X330810Y118511D01*
X331385Y118070D01*
X332054Y117793D01*
X332772Y117699D01*
X333489Y117793D01*
X334158Y118070D01*
X334733Y118511D01*
X335174Y119086D01*
X335451Y119755D01*
X335545Y120472D01*
X335451Y121190D01*
X335174Y121859D01*
X334733Y122434D01*
X334158Y122875D01*
X333489Y123152D01*
X332772Y123246D01*
D02*
G37*
G36*
X372000Y107774D02*
X371282Y107679D01*
X370613Y107402D01*
X370039Y106961D01*
X369598Y106387D01*
X369321Y105718D01*
X369226Y105000D01*
X369321Y104282D01*
X369598Y103613D01*
X370039Y103039D01*
X370613Y102598D01*
X371282Y102321D01*
X372000Y102226D01*
X372718Y102321D01*
X373387Y102598D01*
X373961Y103039D01*
X374402Y103613D01*
X374679Y104282D01*
X374774Y105000D01*
X374679Y105718D01*
X374402Y106387D01*
X373961Y106961D01*
X373387Y107402D01*
X372718Y107679D01*
X372000Y107774D01*
D02*
G37*
G36*
X57465Y101002D02*
X56747Y100908D01*
X56078Y100630D01*
X55503Y100190D01*
X55063Y99615D01*
X54785Y98946D01*
X54691Y98228D01*
X54785Y97510D01*
X55063Y96842D01*
X55503Y96267D01*
X56078Y95826D01*
X56747Y95549D01*
X57465Y95455D01*
X58183Y95549D01*
X58851Y95826D01*
X59426Y96267D01*
X59867Y96842D01*
X60144Y97510D01*
X60238Y98228D01*
X60144Y98946D01*
X59867Y99615D01*
X59426Y100190D01*
X58851Y100630D01*
X58183Y100908D01*
X57465Y101002D01*
D02*
G37*
G36*
X49465Y99002D02*
X48747Y98908D01*
X48078Y98630D01*
X47503Y98190D01*
X47063Y97615D01*
X46785Y96946D01*
X46691Y96228D01*
X46785Y95511D01*
X47063Y94841D01*
X47503Y94267D01*
X48078Y93826D01*
X48747Y93549D01*
X49465Y93455D01*
X50182Y93549D01*
X50851Y93826D01*
X51426Y94267D01*
X51867Y94841D01*
X52144Y95511D01*
X52238Y96228D01*
X52144Y96946D01*
X51867Y97615D01*
X51426Y98190D01*
X50851Y98630D01*
X50182Y98908D01*
X49465Y99002D01*
D02*
G37*
G36*
X490772Y93333D02*
X490054Y93238D01*
X489385Y92961D01*
X488810Y92520D01*
X488370Y91946D01*
X488092Y91277D01*
X487998Y90559D01*
X488092Y89841D01*
X488370Y89172D01*
X488810Y88598D01*
X489385Y88157D01*
X490054Y87880D01*
X490772Y87785D01*
X491490Y87880D01*
X492159Y88157D01*
X492733Y88598D01*
X493174Y89172D01*
X493451Y89841D01*
X493545Y90559D01*
X493451Y91277D01*
X493174Y91946D01*
X492733Y92520D01*
X492159Y92961D01*
X491490Y93238D01*
X490772Y93333D01*
D02*
G37*
G36*
X522772Y86286D02*
X522054Y86191D01*
X521385Y85914D01*
X520810Y85473D01*
X520369Y84899D01*
X520092Y84230D01*
X519998Y83512D01*
X520092Y82794D01*
X520369Y82125D01*
X520810Y81551D01*
X521385Y81110D01*
X522054Y80833D01*
X522772Y80738D01*
X523490Y80833D01*
X524158Y81110D01*
X524733Y81551D01*
X525174Y82125D01*
X525451Y82794D01*
X525545Y83512D01*
X525451Y84230D01*
X525174Y84899D01*
X524733Y85473D01*
X524158Y85914D01*
X523490Y86191D01*
X522772Y86286D01*
D02*
G37*
G36*
X515772Y85333D02*
X515054Y85238D01*
X514385Y84961D01*
X513810Y84520D01*
X513370Y83946D01*
X513092Y83277D01*
X512998Y82559D01*
X513092Y81841D01*
X513370Y81172D01*
X513810Y80598D01*
X514385Y80157D01*
X515054Y79880D01*
X515772Y79785D01*
X516490Y79880D01*
X517159Y80157D01*
X517733Y80598D01*
X518174Y81172D01*
X518451Y81841D01*
X518545Y82559D01*
X518451Y83277D01*
X518174Y83946D01*
X517733Y84520D01*
X517159Y84961D01*
X516490Y85238D01*
X515772Y85333D01*
D02*
G37*
G36*
X492772D02*
X492054Y85238D01*
X491385Y84961D01*
X490810Y84520D01*
X490370Y83946D01*
X490092Y83277D01*
X489998Y82559D01*
X490092Y81841D01*
X490370Y81172D01*
X490810Y80598D01*
X491385Y80157D01*
X492054Y79880D01*
X492772Y79785D01*
X493490Y79880D01*
X494159Y80157D01*
X494733Y80598D01*
X495174Y81172D01*
X495451Y81841D01*
X495545Y82559D01*
X495451Y83277D01*
X495174Y83946D01*
X494733Y84520D01*
X494159Y84961D01*
X493490Y85238D01*
X492772Y85333D01*
D02*
G37*
G36*
X49465Y76002D02*
X48747Y75908D01*
X48078Y75630D01*
X47503Y75190D01*
X47063Y74615D01*
X46785Y73946D01*
X46691Y73228D01*
X46785Y72510D01*
X47063Y71842D01*
X47503Y71267D01*
X48078Y70826D01*
X48747Y70549D01*
X49465Y70455D01*
X50182Y70549D01*
X50851Y70826D01*
X51426Y71267D01*
X51867Y71842D01*
X52144Y72510D01*
X52238Y73228D01*
X52144Y73946D01*
X51867Y74615D01*
X51426Y75190D01*
X50851Y75630D01*
X50182Y75908D01*
X49465Y76002D01*
D02*
G37*
G36*
X50417Y69002D02*
X49699Y68908D01*
X49031Y68630D01*
X48456Y68190D01*
X48015Y67615D01*
X47738Y66946D01*
X47644Y66228D01*
X47738Y65510D01*
X48015Y64842D01*
X48456Y64267D01*
X49031Y63826D01*
X49699Y63549D01*
X50417Y63455D01*
X51135Y63549D01*
X51804Y63826D01*
X52379Y64267D01*
X52819Y64842D01*
X53096Y65510D01*
X53191Y66228D01*
X53096Y66946D01*
X52819Y67615D01*
X52379Y68190D01*
X51804Y68630D01*
X51135Y68908D01*
X50417Y69002D01*
D02*
G37*
G36*
X362000Y66774D02*
X361282Y66679D01*
X360613Y66402D01*
X360039Y65961D01*
X359598Y65387D01*
X359321Y64718D01*
X359226Y64000D01*
X359321Y63282D01*
X359598Y62613D01*
X360039Y62039D01*
X360613Y61598D01*
X361282Y61321D01*
X362000Y61226D01*
X362718Y61321D01*
X363387Y61598D01*
X363961Y62039D01*
X364402Y62613D01*
X364679Y63282D01*
X364774Y64000D01*
X364679Y64718D01*
X364402Y65387D01*
X363961Y65961D01*
X363387Y66402D01*
X362718Y66679D01*
X362000Y66774D01*
D02*
G37*
G36*
X390197Y53737D02*
X389048Y53586D01*
X387978Y53143D01*
X387059Y52437D01*
X386353Y51518D01*
X385910Y50448D01*
X385759Y49299D01*
X385910Y48151D01*
X386353Y47080D01*
X387059Y46161D01*
X387978Y45456D01*
X389048Y45013D01*
X390197Y44861D01*
X391345Y45013D01*
X392416Y45456D01*
X393335Y46161D01*
X394040Y47080D01*
X394484Y48151D01*
X394635Y49299D01*
X394484Y50448D01*
X394040Y51518D01*
X393335Y52437D01*
X392416Y53143D01*
X391345Y53586D01*
X390197Y53737D01*
D02*
G37*
G36*
X273000Y60774D02*
X272282Y60679D01*
X271613Y60402D01*
X271039Y59961D01*
X270598Y59387D01*
X270321Y58718D01*
X270226Y58000D01*
X270321Y57282D01*
X270598Y56613D01*
X271039Y56039D01*
X271613Y55598D01*
X272282Y55321D01*
X273000Y55226D01*
X273540Y55297D01*
X274471Y54366D01*
Y34293D01*
X274039Y33961D01*
X273598Y33387D01*
X273321Y32718D01*
X273226Y32000D01*
X273321Y31282D01*
X273598Y30613D01*
X274039Y30039D01*
X274613Y29598D01*
X275282Y29321D01*
X276000Y29226D01*
X276718Y29321D01*
X277387Y29598D01*
X277961Y30039D01*
X278402Y30613D01*
X278679Y31282D01*
X278774Y32000D01*
X278679Y32718D01*
X278402Y33387D01*
X277961Y33961D01*
X277529Y34293D01*
Y55000D01*
X277413Y55585D01*
X277081Y56081D01*
X275703Y57460D01*
X275774Y58000D01*
X275679Y58718D01*
X275402Y59387D01*
X274961Y59961D01*
X274387Y60402D01*
X273718Y60679D01*
X273000Y60774D01*
D02*
G37*
G36*
X100000Y34034D02*
X98956Y33897D01*
X97983Y33494D01*
X97147Y32853D01*
X96506Y32017D01*
X96103Y31044D01*
X95965Y30000D01*
X96103Y28956D01*
X96506Y27983D01*
X97147Y27147D01*
X97983Y26506D01*
X98956Y26103D01*
X100000Y25965D01*
X101044Y26103D01*
X102017Y26506D01*
X102853Y27147D01*
X103494Y27983D01*
X103897Y28956D01*
X104034Y30000D01*
X103897Y31044D01*
X103494Y32017D01*
X102853Y32853D01*
X102017Y33494D01*
X101044Y33897D01*
X100000Y34034D01*
D02*
G37*
G36*
X80000D02*
X78956Y33897D01*
X77983Y33494D01*
X77147Y32853D01*
X76506Y32017D01*
X76103Y31044D01*
X75965Y30000D01*
X76103Y28956D01*
X76506Y27983D01*
X77147Y27147D01*
X77983Y26506D01*
X78956Y26103D01*
X80000Y25965D01*
X81044Y26103D01*
X82017Y26506D01*
X82853Y27147D01*
X83494Y27983D01*
X83897Y28956D01*
X84035Y30000D01*
X83897Y31044D01*
X83494Y32017D01*
X82853Y32853D01*
X82017Y33494D01*
X81044Y33897D01*
X80000Y34034D01*
D02*
G37*
G36*
X60000D02*
X58956Y33897D01*
X57983Y33494D01*
X57147Y32853D01*
X56506Y32017D01*
X56103Y31044D01*
X55966Y30000D01*
X56103Y28956D01*
X56506Y27983D01*
X57147Y27147D01*
X57983Y26506D01*
X58956Y26103D01*
X60000Y25965D01*
X61044Y26103D01*
X62017Y26506D01*
X62853Y27147D01*
X63494Y27983D01*
X63897Y28956D01*
X64034Y30000D01*
X63897Y31044D01*
X63494Y32017D01*
X62853Y32853D01*
X62017Y33494D01*
X61044Y33897D01*
X60000Y34034D01*
D02*
G37*
G36*
X500000Y24035D02*
X498956Y23897D01*
X497983Y23494D01*
X497147Y22853D01*
X496506Y22017D01*
X496103Y21044D01*
X495965Y20000D01*
X496103Y18956D01*
X496506Y17983D01*
X497147Y17147D01*
X497983Y16506D01*
X498956Y16103D01*
X500000Y15966D01*
X501044Y16103D01*
X502017Y16506D01*
X502853Y17147D01*
X503494Y17983D01*
X503897Y18956D01*
X504035Y20000D01*
X503897Y21044D01*
X503494Y22017D01*
X502853Y22853D01*
X502017Y23494D01*
X501044Y23897D01*
X500000Y24035D01*
D02*
G37*
G36*
X490000D02*
X488956Y23897D01*
X487983Y23494D01*
X487147Y22853D01*
X486506Y22017D01*
X486103Y21044D01*
X485965Y20000D01*
X486103Y18956D01*
X486506Y17983D01*
X487147Y17147D01*
X487983Y16506D01*
X488956Y16103D01*
X490000Y15966D01*
X491044Y16103D01*
X492017Y16506D01*
X492853Y17147D01*
X493494Y17983D01*
X493897Y18956D01*
X494034Y20000D01*
X493897Y21044D01*
X493494Y22017D01*
X492853Y22853D01*
X492017Y23494D01*
X491044Y23897D01*
X490000Y24035D01*
D02*
G37*
G36*
X90000D02*
X88956Y23897D01*
X87983Y23494D01*
X87147Y22853D01*
X86506Y22017D01*
X86103Y21044D01*
X85966Y20000D01*
X86103Y18956D01*
X86506Y17983D01*
X87147Y17147D01*
X87983Y16506D01*
X88956Y16103D01*
X90000Y15966D01*
X91044Y16103D01*
X92017Y16506D01*
X92853Y17147D01*
X93494Y17983D01*
X93897Y18956D01*
X94034Y20000D01*
X93897Y21044D01*
X93494Y22017D01*
X92853Y22853D01*
X92017Y23494D01*
X91044Y23897D01*
X90000Y24035D01*
D02*
G37*
G36*
X70000D02*
X68956Y23897D01*
X67983Y23494D01*
X67147Y22853D01*
X66506Y22017D01*
X66103Y21044D01*
X65965Y20000D01*
X66103Y18956D01*
X66506Y17983D01*
X67147Y17147D01*
X67983Y16506D01*
X68956Y16103D01*
X70000Y15966D01*
X71044Y16103D01*
X72017Y16506D01*
X72853Y17147D01*
X73494Y17983D01*
X73897Y18956D01*
X74035Y20000D01*
X73897Y21044D01*
X73494Y22017D01*
X72853Y22853D01*
X72017Y23494D01*
X71044Y23897D01*
X70000Y24035D01*
D02*
G37*
G36*
X50000D02*
X48956Y23897D01*
X47983Y23494D01*
X47147Y22853D01*
X46506Y22017D01*
X46103Y21044D01*
X45965Y20000D01*
X46103Y18956D01*
X46506Y17983D01*
X47147Y17147D01*
X47983Y16506D01*
X48956Y16103D01*
X50000Y15966D01*
X51044Y16103D01*
X52017Y16506D01*
X52853Y17147D01*
X53494Y17983D01*
X53897Y18956D01*
X54035Y20000D01*
X53897Y21044D01*
X53494Y22017D01*
X52853Y22853D01*
X52017Y23494D01*
X51044Y23897D01*
X50000Y24035D01*
D02*
G37*
%LPD*%
G36*
X311800Y279400D02*
X311900Y279300D01*
X312717Y278579D01*
Y278343D01*
X312984D01*
X323000Y269500D01*
Y266200D01*
X310900D01*
X309604Y267496D01*
Y269704D01*
X310400Y270500D01*
Y271400D01*
Y284600D01*
X310441Y284700D01*
X311800D01*
Y279400D01*
D02*
G37*
G36*
X304441Y266787D02*
Y266772D01*
X306852D01*
Y265231D01*
X306836Y265200D01*
X306555Y264935D01*
X306388Y264852D01*
X306031Y264923D01*
X305427Y264803D01*
X304914Y264460D01*
X301883Y261428D01*
X301540Y260916D01*
X301420Y260311D01*
Y259311D01*
X301540Y258706D01*
X301883Y258193D01*
X302395Y257851D01*
X303000Y257731D01*
X303605Y257851D01*
X304117Y258193D01*
X304460Y258706D01*
X304580Y259311D01*
Y259656D01*
X307149Y262225D01*
X307492Y262738D01*
X307553Y263044D01*
X308013Y263199D01*
X308378Y262898D01*
Y261457D01*
X308592D01*
Y236539D01*
X297383Y225329D01*
X266921D01*
Y226724D01*
X255079D01*
Y224427D01*
X253969D01*
Y226020D01*
X248031D01*
Y224427D01*
X208000D01*
X208000Y224427D01*
X207454Y224319D01*
X206991Y224009D01*
X206991Y224009D01*
X204409Y221427D01*
X200736D01*
X200347Y221826D01*
X200356Y222054D01*
X200764Y222410D01*
X201384Y222533D01*
X201748Y222776D01*
X202112Y222533D01*
X202732Y222410D01*
X203353Y222533D01*
X203879Y222885D01*
X204230Y223411D01*
X204354Y224031D01*
Y225021D01*
X204701Y225306D01*
X208886D01*
X209491Y225426D01*
X210003Y225768D01*
X210118Y225883D01*
X210460Y226395D01*
X210580Y227000D01*
X210460Y227605D01*
X210118Y228117D01*
X209605Y228460D01*
X209000Y228580D01*
X208426Y228466D01*
X204701D01*
X204354Y228751D01*
Y229740D01*
X204255Y230237D01*
X205591Y231573D01*
X211409D01*
X212943Y230038D01*
X213406Y229729D01*
X213953Y229620D01*
X213953Y229620D01*
X219228D01*
Y228079D01*
X224772D01*
Y229620D01*
X226228D01*
Y228079D01*
X231772D01*
Y229620D01*
X248031D01*
Y227980D01*
X253969D01*
Y229423D01*
X255079D01*
Y228181D01*
X266921D01*
Y229576D01*
X291327D01*
X291853Y229681D01*
X292300Y229979D01*
X298973Y236653D01*
X299272Y237099D01*
X299377Y237626D01*
X299377Y237626D01*
Y262430D01*
X303941Y266994D01*
X304441Y266787D01*
D02*
G37*
G36*
X291983Y222076D02*
X291527Y221772D01*
X283050Y213294D01*
X248403D01*
X244921Y216776D01*
Y219272D01*
X233079D01*
Y219080D01*
X231254D01*
X230961Y219461D01*
X230387Y219902D01*
X229718Y220179D01*
X229000Y220274D01*
X228282Y220179D01*
X227613Y219902D01*
X227039Y219461D01*
X226598Y218887D01*
X226321Y218218D01*
X226226Y217500D01*
X226269Y217173D01*
X225796Y216939D01*
X221945Y220790D01*
X221522Y221073D01*
X221581Y221511D01*
X221605Y221573D01*
X248031D01*
Y220280D01*
X253969D01*
Y221573D01*
X255079D01*
Y221181D01*
X266921D01*
Y222576D01*
X291832D01*
X291983Y222076D01*
D02*
G37*
G36*
X107575Y117369D02*
Y116685D01*
X110756D01*
Y117374D01*
X111256Y117581D01*
X119919Y108919D01*
X120415Y108587D01*
X121000Y108471D01*
X137366D01*
X152919Y92919D01*
X153415Y92587D01*
X154000Y92471D01*
X215367D01*
X237471Y70367D01*
Y67000D01*
X237490Y66900D01*
X237052Y66541D01*
X236718Y66679D01*
X236000Y66774D01*
X235460Y66703D01*
X233081Y69081D01*
X232585Y69413D01*
X232000Y69529D01*
X200634D01*
X189081Y81081D01*
X188585Y81413D01*
X188000Y81529D01*
X125634D01*
X124192Y82971D01*
X124399Y83471D01*
X202707D01*
X203039Y83039D01*
X203613Y82598D01*
X204282Y82321D01*
X205000Y82226D01*
X205718Y82321D01*
X206387Y82598D01*
X206961Y83039D01*
X207402Y83613D01*
X207679Y84282D01*
X207774Y85000D01*
X207679Y85718D01*
X207402Y86387D01*
X206961Y86961D01*
X206949Y86971D01*
X207119Y87471D01*
X207707D01*
X208039Y87039D01*
X208613Y86598D01*
X209282Y86321D01*
X210000Y86226D01*
X210718Y86321D01*
X211387Y86598D01*
X211961Y87039D01*
X212402Y87613D01*
X212679Y88282D01*
X212774Y89000D01*
X212679Y89718D01*
X212402Y90387D01*
X211961Y90961D01*
X211387Y91402D01*
X210718Y91679D01*
X210000Y91774D01*
X209282Y91679D01*
X208613Y91402D01*
X208039Y90961D01*
X207707Y90529D01*
X124634D01*
X122192Y92971D01*
X122399Y93471D01*
X143707D01*
X144039Y93039D01*
X144613Y92598D01*
X145282Y92321D01*
X146000Y92226D01*
X146718Y92321D01*
X147387Y92598D01*
X147961Y93039D01*
X148402Y93613D01*
X148679Y94282D01*
X148774Y95000D01*
X148679Y95718D01*
X148402Y96387D01*
X147961Y96961D01*
X147387Y97402D01*
X146718Y97679D01*
X146000Y97774D01*
X145282Y97679D01*
X144613Y97402D01*
X144039Y96961D01*
X143707Y96529D01*
X142321D01*
X142221Y97029D01*
X142387Y97098D01*
X142961Y97539D01*
X143402Y98113D01*
X143679Y98782D01*
X143774Y99500D01*
X143679Y100218D01*
X143402Y100887D01*
X142961Y101461D01*
X142387Y101902D01*
X141718Y102179D01*
X141000Y102274D01*
X140282Y102179D01*
X139613Y101902D01*
X139039Y101461D01*
X138707Y101029D01*
X122134D01*
X106931Y116232D01*
X106819Y116685D01*
X106819Y116685D01*
X106819D01*
X106819Y116685D01*
Y117369D01*
X107197Y117680D01*
X107575Y117369D01*
D02*
G37*
G36*
X198919Y66919D02*
X199415Y66587D01*
X200000Y66471D01*
X225881D01*
X226051Y65971D01*
X226039Y65961D01*
X225707Y65529D01*
X197634D01*
X191081Y72081D01*
X190585Y72413D01*
X190000Y72529D01*
X142633D01*
X138081Y77081D01*
X137585Y77413D01*
X137000Y77529D01*
X125634D01*
X125192Y77971D01*
X125399Y78471D01*
X187366D01*
X198919Y66919D01*
D02*
G37*
G36*
X264087Y83415D02*
X264419Y82919D01*
X268471Y78866D01*
Y65321D01*
X267971Y65222D01*
X267902Y65387D01*
X267461Y65961D01*
X266887Y66402D01*
X266218Y66679D01*
X265500Y66774D01*
X264960Y66703D01*
X263529Y68133D01*
Y83655D01*
X264029Y83705D01*
X264087Y83415D01*
D02*
G37*
G36*
X195919Y62919D02*
X196415Y62587D01*
X197000Y62471D01*
X225692D01*
X225971Y62080D01*
X225874Y61854D01*
X225735Y61698D01*
X225712Y61680D01*
X225000Y61774D01*
X224282Y61679D01*
X223613Y61402D01*
X223039Y60961D01*
X222598Y60387D01*
X222321Y59718D01*
X222226Y59000D01*
X222297Y58460D01*
X218866Y55029D01*
X175634D01*
X173602Y57061D01*
X173883Y57464D01*
X174954Y57020D01*
X176102Y56869D01*
X177251Y57020D01*
X178321Y57464D01*
X179241Y58169D01*
X179946Y59088D01*
X180389Y60158D01*
X180540Y61307D01*
X180389Y62456D01*
X179946Y63526D01*
X179241Y64445D01*
X178321Y65150D01*
X177251Y65594D01*
X176102Y65745D01*
X174954Y65594D01*
X173883Y65150D01*
X172964Y64445D01*
X172259Y63526D01*
X171816Y62456D01*
X171664Y61307D01*
X171816Y60158D01*
X172259Y59088D01*
X171856Y58807D01*
X165581Y65081D01*
X165085Y65413D01*
X164500Y65529D01*
X125634D01*
X125192Y65971D01*
X125399Y66471D01*
X184367D01*
X189156Y61681D01*
X189112Y61018D01*
X189039Y60961D01*
X188598Y60387D01*
X188321Y59718D01*
X188226Y59000D01*
X188321Y58282D01*
X188598Y57613D01*
X189039Y57039D01*
X189613Y56598D01*
X190282Y56321D01*
X191000Y56226D01*
X191718Y56321D01*
X192387Y56598D01*
X192961Y57039D01*
X193402Y57613D01*
X193679Y58282D01*
X193774Y59000D01*
X193679Y59718D01*
X193402Y60387D01*
X192961Y60961D01*
X192529Y61293D01*
Y62000D01*
X192413Y62585D01*
X192081Y63081D01*
X186192Y68971D01*
X186329Y69408D01*
X186377Y69471D01*
X189366D01*
X195919Y62919D01*
D02*
G37*
%LPC*%
G36*
X256000Y219294D02*
X255248Y219145D01*
X251000D01*
X250122Y218970D01*
X249378Y218473D01*
X248881Y217728D01*
X248706Y216850D01*
X248881Y215972D01*
X249378Y215228D01*
X250122Y214731D01*
X251000Y214556D01*
X255850D01*
X256728Y214731D01*
X257473Y215228D01*
X257622Y215378D01*
X258120Y216122D01*
X258294Y217000D01*
X258120Y217878D01*
X257622Y218622D01*
X256878Y219120D01*
X256000Y219294D01*
D02*
G37*
%LPD*%
D10*
X164323Y260724D02*
D03*
Y251276D02*
D03*
X179677D02*
D03*
Y260724D02*
D03*
D11*
X82650Y222142D02*
D03*
Y239858D02*
D03*
X51350D02*
D03*
Y222142D02*
D03*
X270650Y254142D02*
D03*
Y271858D02*
D03*
X239350D02*
D03*
Y254142D02*
D03*
X374350Y280858D02*
D03*
Y263142D02*
D03*
X405650D02*
D03*
Y280858D02*
D03*
D12*
X129000Y191685D02*
D03*
Y202315D02*
D03*
D13*
X167299Y226886D02*
D03*
X169268D02*
D03*
X171236D02*
D03*
X173205D02*
D03*
X175173D02*
D03*
X177142D02*
D03*
X179110D02*
D03*
X181079D02*
D03*
X183047D02*
D03*
X185016D02*
D03*
X186984D02*
D03*
X188953D02*
D03*
X190921D02*
D03*
X192890D02*
D03*
X194858D02*
D03*
X196827D02*
D03*
X198795D02*
D03*
X200764D02*
D03*
X202732D02*
D03*
X204701D02*
D03*
Y175114D02*
D03*
X202732D02*
D03*
X200764D02*
D03*
X198795D02*
D03*
X196827D02*
D03*
X194858D02*
D03*
X192890D02*
D03*
X190921D02*
D03*
X188953D02*
D03*
X186984D02*
D03*
X185016D02*
D03*
X183047D02*
D03*
X181079D02*
D03*
X179110D02*
D03*
X177142D02*
D03*
X175173D02*
D03*
X173205D02*
D03*
X171236D02*
D03*
X169268D02*
D03*
X167299D02*
D03*
D14*
X211886Y219701D02*
D03*
Y217732D02*
D03*
Y215764D02*
D03*
Y213795D02*
D03*
Y211827D02*
D03*
Y209858D02*
D03*
Y207890D02*
D03*
Y205921D02*
D03*
Y203953D02*
D03*
Y201984D02*
D03*
Y200016D02*
D03*
Y198047D02*
D03*
Y196079D02*
D03*
Y194110D02*
D03*
Y192142D02*
D03*
Y190173D02*
D03*
Y188205D02*
D03*
Y186236D02*
D03*
Y184268D02*
D03*
Y182299D02*
D03*
X160114D02*
D03*
Y184268D02*
D03*
Y186236D02*
D03*
Y188205D02*
D03*
Y190173D02*
D03*
Y192142D02*
D03*
Y194110D02*
D03*
Y196079D02*
D03*
Y198047D02*
D03*
Y200016D02*
D03*
Y201984D02*
D03*
Y203953D02*
D03*
Y205921D02*
D03*
Y207890D02*
D03*
Y209858D02*
D03*
Y211827D02*
D03*
Y213795D02*
D03*
Y215764D02*
D03*
Y217732D02*
D03*
Y219701D02*
D03*
D15*
X118811Y125165D02*
D03*
X54244D02*
D03*
X315661D02*
D03*
X251095D02*
D03*
X492827D02*
D03*
X428260D02*
D03*
D16*
X63890Y119260D02*
D03*
X65858D02*
D03*
X67827D02*
D03*
X69795D02*
D03*
X71764D02*
D03*
X73732D02*
D03*
X75701D02*
D03*
X77669D02*
D03*
X79638D02*
D03*
X81606D02*
D03*
X83575D02*
D03*
X87512D02*
D03*
X85543D02*
D03*
X89480D02*
D03*
X91449D02*
D03*
X93417D02*
D03*
X95386D02*
D03*
X97354D02*
D03*
X99323D02*
D03*
X101291D02*
D03*
X103260D02*
D03*
X105228D02*
D03*
X107197D02*
D03*
X109165D02*
D03*
X260740D02*
D03*
X262709D02*
D03*
X264677D02*
D03*
X266646D02*
D03*
X268614D02*
D03*
X270583D02*
D03*
X272551D02*
D03*
X274520D02*
D03*
X276488D02*
D03*
X278457D02*
D03*
X280425D02*
D03*
X284362D02*
D03*
X282394D02*
D03*
X286331D02*
D03*
X288299D02*
D03*
X290268D02*
D03*
X292236D02*
D03*
X294205D02*
D03*
X296173D02*
D03*
X298142D02*
D03*
X300110D02*
D03*
X302079D02*
D03*
X304047D02*
D03*
X306016D02*
D03*
X437906D02*
D03*
X439874D02*
D03*
X441843D02*
D03*
X443811D02*
D03*
X445780D02*
D03*
X447748D02*
D03*
X449717D02*
D03*
X451685D02*
D03*
X453653D02*
D03*
X455622D02*
D03*
X457590D02*
D03*
X461528D02*
D03*
X459559D02*
D03*
X463496D02*
D03*
X465465D02*
D03*
X467433D02*
D03*
X469402D02*
D03*
X471370D02*
D03*
X473339D02*
D03*
X475307D02*
D03*
X477276D02*
D03*
X479244D02*
D03*
X481213D02*
D03*
X483181D02*
D03*
D17*
X56410Y126937D02*
D03*
X116646D02*
D03*
X253260D02*
D03*
X313496D02*
D03*
X430425D02*
D03*
X490661D02*
D03*
D18*
X290764Y292039D02*
D03*
X320961D02*
D03*
D19*
X293992Y282492D02*
D03*
X317850D02*
D03*
D20*
X300823Y282000D02*
D03*
X303382D02*
D03*
X305941D02*
D03*
X308500D02*
D03*
X311059D02*
D03*
D21*
X331000Y280953D02*
D03*
Y275047D02*
D03*
X480000Y280453D02*
D03*
Y274547D02*
D03*
X465000Y280453D02*
D03*
Y274547D02*
D03*
X450000Y280453D02*
D03*
Y274547D02*
D03*
D22*
X142000Y184740D02*
D03*
Y177260D02*
D03*
X138000Y218260D02*
D03*
Y225740D02*
D03*
X212000Y254480D02*
D03*
Y247000D02*
D03*
D23*
X155000Y250850D02*
D03*
Y257150D02*
D03*
X120000Y184850D02*
D03*
Y191150D02*
D03*
Y209150D02*
D03*
Y202850D02*
D03*
X95000Y223850D02*
D03*
Y230150D02*
D03*
X193000Y237850D02*
D03*
Y244150D02*
D03*
X199000Y242850D02*
D03*
Y249150D02*
D03*
X150000Y185150D02*
D03*
Y178850D02*
D03*
X145000Y217850D02*
D03*
Y224150D02*
D03*
X223000Y204150D02*
D03*
Y197850D02*
D03*
X160000Y175150D02*
D03*
Y168850D02*
D03*
X102000Y223850D02*
D03*
Y230150D02*
D03*
X251000Y230850D02*
D03*
Y237150D02*
D03*
Y223150D02*
D03*
Y216850D02*
D03*
X307000Y220150D02*
D03*
Y213850D02*
D03*
X300000Y220150D02*
D03*
Y213850D02*
D03*
X205000Y249150D02*
D03*
Y242850D02*
D03*
D24*
X179150Y269000D02*
D03*
X172850D02*
D03*
X417850Y263000D02*
D03*
X424150D02*
D03*
D25*
X321000Y238331D02*
D03*
Y229669D02*
D03*
D26*
X229000Y231047D02*
D03*
Y236953D02*
D03*
X222000Y231047D02*
D03*
Y236953D02*
D03*
X206000Y158953D02*
D03*
Y153047D02*
D03*
X198000Y158953D02*
D03*
Y153047D02*
D03*
X480000Y262953D02*
D03*
Y257047D02*
D03*
X465000Y262953D02*
D03*
Y257047D02*
D03*
X450000Y262953D02*
D03*
Y257047D02*
D03*
D27*
X258047Y230953D02*
D03*
X263953D02*
D03*
X258047Y223953D02*
D03*
X263953D02*
D03*
X315047Y221000D02*
D03*
X320953D02*
D03*
X326953Y268000D02*
D03*
X321047D02*
D03*
X144953Y211000D02*
D03*
X139047D02*
D03*
X241953Y216500D02*
D03*
X236047D02*
D03*
X222047Y244000D02*
D03*
X227953D02*
D03*
X235047Y191000D02*
D03*
X240953D02*
D03*
X235047Y183000D02*
D03*
X240953D02*
D03*
D28*
X308000Y268657D02*
D03*
X309968D02*
D03*
X306031D02*
D03*
X309968Y263342D02*
D03*
X306031D02*
D03*
D29*
X452500Y235000D02*
X457953D01*
X480000Y257047D01*
X448976Y241024D02*
X465000Y257047D01*
X448976Y241024D02*
X449000Y241000D01*
X432000D02*
X449000D01*
X480000Y262953D02*
Y274547D01*
X465000Y262953D02*
Y274547D01*
X450000Y262953D02*
Y274547D01*
X440453Y247500D02*
X450000Y257047D01*
X425000Y247500D02*
X440453D01*
X374350Y239850D02*
Y263142D01*
X339500Y205000D02*
X374350Y239850D01*
X246000Y205000D02*
X339500D01*
X243000Y202000D02*
X246000Y205000D01*
X235000Y202000D02*
X243000D01*
X221236Y215764D02*
X235000Y202000D01*
X137500Y259000D02*
X151000Y245500D01*
X127000Y275000D02*
X137500Y264500D01*
Y259000D02*
Y264500D01*
X115000Y256000D02*
X135500D01*
X112000Y270000D02*
X117000Y275000D01*
X112000Y259000D02*
Y270000D01*
Y259000D02*
X115000Y256000D01*
X108000Y245500D02*
X142000D01*
X102000Y251500D02*
X108000Y245500D01*
X102000Y270000D02*
X107000Y275000D01*
X102000Y251500D02*
Y270000D01*
X92000Y248500D02*
Y270000D01*
X97000Y275000D01*
X245000Y46000D02*
X266000Y25000D01*
X245000Y46000D02*
Y70000D01*
X266000Y25000D02*
X281000D01*
X291600Y35600D01*
X268000Y27000D02*
X279000D01*
X248000Y47000D02*
X268000Y27000D01*
X291600Y35600D02*
Y56600D01*
X290000Y38000D02*
Y51000D01*
X279000Y27000D02*
X290000Y38000D01*
X200579Y205921D02*
X211886D01*
X197500Y209000D02*
X200579Y205921D01*
X193500Y209000D02*
X197500D01*
X200500Y211500D02*
X202142Y209858D01*
X211886D01*
X217705Y213795D02*
X220000Y211500D01*
X211886Y213795D02*
X217705D01*
X211886Y215764D02*
X221236D01*
X208000Y223000D02*
X257095D01*
X205000Y220000D02*
X208000Y223000D01*
X198795Y221205D02*
X200000Y220000D01*
X198795Y221205D02*
Y226886D01*
X180500Y217500D02*
X185016Y222016D01*
Y226886D01*
X169500Y199000D02*
X177000D01*
X166516Y201984D02*
X169500Y199000D01*
X175500Y212500D02*
X177000D01*
X172236Y215764D02*
X175500Y212500D01*
X160114Y215764D02*
X172236D01*
X170673Y211827D02*
X173000Y209500D01*
X170930Y206350D02*
X176850D01*
X169390Y207890D02*
X170930Y206350D01*
X160114Y211827D02*
X170673D01*
X160114Y207890D02*
X169390D01*
X160114Y203953D02*
X172047D01*
X173500Y202500D01*
X160114Y201984D02*
X166516D01*
X152000Y235000D02*
X154500Y232500D01*
Y219500D02*
Y232500D01*
Y219500D02*
X156268Y217732D01*
X160114D01*
X152500Y215500D02*
X154205Y213795D01*
X160114D01*
X152500Y209500D02*
X152858Y209858D01*
X152500Y203500D02*
X154921Y205921D01*
X152858Y209858D02*
X160114D01*
X154921Y205921D02*
X160114D01*
X141000Y235000D02*
X152000D01*
X155000Y237000D02*
X160114Y231886D01*
X143000Y237000D02*
X155000D01*
X142000Y245500D02*
X145500Y242000D01*
X160114Y219701D02*
Y231886D01*
X235000Y163000D02*
Y166500D01*
X217232Y184268D02*
X235000Y166500D01*
X211886Y184268D02*
X217232D01*
X211886Y182299D02*
X218000Y176185D01*
Y101000D02*
Y176185D01*
X163000Y236000D02*
X172283D01*
X144000Y240000D02*
X159000D01*
X163000Y236000D01*
X164500Y237500D02*
X173046D01*
X145500Y242000D02*
X160000D01*
X164500Y237500D01*
X160500Y244000D02*
X165500Y239000D01*
X147500Y244000D02*
X160500D01*
X135500Y256000D02*
X147500Y244000D01*
X165500Y239000D02*
X173808D01*
X151000Y245500D02*
X162000D01*
X166500Y241000D02*
X174071D01*
X162000Y245500D02*
X166500Y241000D01*
X174071D02*
X182869Y232202D01*
X172283Y236000D02*
X176964Y231319D01*
X173046Y237500D02*
X178932Y231613D01*
X173808Y239000D02*
X180901Y231907D01*
X257095Y223000D02*
X258047Y223953D01*
X205000Y233000D02*
X212000D01*
X213953Y231047D02*
X222000D01*
X212000Y233000D02*
X213953Y231047D01*
X257945Y230850D02*
X258047Y230953D01*
X251000Y230850D02*
X257945D01*
X250803Y231047D02*
X251000Y230850D01*
X229000Y231047D02*
X250803D01*
X222000D02*
X229000D01*
X202732Y230732D02*
X205000Y233000D01*
X202732Y226886D02*
Y230732D01*
X200000Y220000D02*
X205000D01*
X176964Y227064D02*
X177142Y226886D01*
X176964Y227064D02*
Y231319D01*
X178932Y227064D02*
X179110Y226886D01*
X178932Y227064D02*
Y231613D01*
X180901Y227064D02*
X181079Y226886D01*
X180901Y227064D02*
Y231907D01*
X182869Y227064D02*
X183047Y226886D01*
X182869Y227064D02*
Y232202D01*
X204701Y175114D02*
X215000Y164815D01*
Y100000D02*
Y164815D01*
Y100000D02*
X245000Y70000D01*
X283000Y58000D02*
X290000Y51000D01*
X291600Y56600D02*
X293000Y58000D01*
X218000Y101000D02*
X248000Y71000D01*
Y47000D02*
Y71000D01*
X140500Y243500D02*
X144000Y240000D01*
X92000Y248500D02*
X97000Y243500D01*
X140500D01*
X137000Y239000D02*
X141000Y235000D01*
X139000Y241000D02*
X143000Y237000D01*
X89000Y249000D02*
X97000Y241000D01*
X71500Y249000D02*
X89000D01*
X97000Y241000D02*
X139000D01*
X64000Y241500D02*
X71500Y249000D01*
X89000Y246000D02*
X96000Y239000D01*
X79000Y246000D02*
X89000D01*
X70000Y237000D02*
X79000Y246000D01*
X70000Y236000D02*
Y237000D01*
X96000Y239000D02*
X137000D01*
D30*
X465000Y280453D02*
X480000D01*
X450000D02*
X465000D01*
X424150Y263000D02*
X434358D01*
X405650Y280858D02*
X415858D01*
X366642D02*
X376850D01*
X247453Y211000D02*
X284000D01*
X241953Y216500D02*
X247453Y211000D01*
X284000D02*
X293150Y220150D01*
X251350Y237500D02*
X256500D01*
X251000Y237150D02*
X251350Y237500D01*
X240953Y191000D02*
X248000D01*
X240953Y183000D02*
X248000D01*
X138000Y225740D02*
Y231000D01*
X160500Y264547D02*
Y266500D01*
Y264547D02*
X164323Y260724D01*
X179677Y247323D02*
X181500Y245500D01*
X179677Y247323D02*
Y251276D01*
X317850Y282492D02*
X320961Y285602D01*
Y292039D01*
X328961D01*
X290764Y285720D02*
X293992Y282492D01*
X290764Y285720D02*
Y292039D01*
X282500Y292000D02*
X282539Y292039D01*
X290764D01*
X176724Y251276D02*
X179677D01*
X167276Y260724D02*
X176724Y251276D01*
X164323Y260724D02*
X167276D01*
X164323D02*
X172598Y269000D01*
X172850D01*
X158575Y260724D02*
X164323D01*
X155000Y257150D02*
X158575Y260724D01*
X338953Y280953D02*
X339000Y281000D01*
X331000Y280953D02*
X338953D01*
X320953Y229622D02*
X321000Y229669D01*
X320953Y221000D02*
Y229622D01*
X307850Y221000D02*
X315047D01*
X307000Y220150D02*
X307850Y221000D01*
X300000Y220150D02*
X307000D01*
X293150D02*
X300000D01*
X239350Y271858D02*
X270650D01*
X212000Y247000D02*
X214492D01*
X239350Y271858D01*
X212000Y254480D02*
Y260000D01*
X207850Y242850D02*
X212000Y247000D01*
X205000Y242850D02*
X207850D01*
X234953Y236953D02*
X235000Y237000D01*
X229000Y236953D02*
X234953D01*
X199000Y242850D02*
X205000D01*
Y249150D02*
Y255000D01*
X199000Y249150D02*
Y255000D01*
X193000Y244150D02*
Y250000D01*
X223000Y197850D02*
X228000D01*
X129000Y214000D02*
X132000Y211000D01*
X139047D01*
X142000Y171000D02*
Y177260D01*
Y185773D02*
Y191000D01*
X141750Y185523D02*
X142000Y185773D01*
X145000Y224150D02*
Y229000D01*
X120000Y191150D02*
Y197000D01*
Y202850D01*
X150000Y173000D02*
Y178850D01*
Y185150D02*
Y191000D01*
X160000Y164000D02*
Y168850D01*
X74650Y222142D02*
X82858D01*
X95000Y230150D02*
Y235000D01*
X102000Y230150D02*
Y235000D01*
X255850Y216850D02*
X256000Y217000D01*
X251000Y216850D02*
X255850D01*
X51492Y222000D02*
X61000D01*
D31*
X374350Y263142D02*
X405650D01*
X417709D01*
X331000Y272047D02*
Y275047D01*
X326953Y268000D02*
X331000Y272047D01*
X321000Y267953D02*
X321047Y268000D01*
X321000Y238331D02*
Y267953D01*
D32*
X111740Y119260D02*
X121000Y110000D01*
X138000D01*
X425000Y23000D02*
X473417Y71416D01*
X304000Y23000D02*
X425000D01*
X276000Y32000D02*
Y55000D01*
X472000Y28000D02*
X480000Y20000D01*
X465000Y28000D02*
X472000D01*
X456500Y19500D02*
X465000Y28000D01*
X300500Y16500D02*
X466500D01*
X470000Y20000D01*
X301000Y19500D02*
X456500D01*
X294500Y22500D02*
X300500Y16500D01*
X294500Y22500D02*
Y54000D01*
X297000Y23500D02*
X301000Y19500D01*
X297000Y23500D02*
Y30500D01*
X305000Y38500D02*
Y58000D01*
X297000Y30500D02*
X305000Y38500D01*
X294500Y54000D02*
X298500Y58000D01*
X273000D02*
X276000Y55000D01*
X105228Y115772D02*
X121500Y99500D01*
X141000D01*
X101291Y115709D02*
X122000Y95000D01*
X146000D01*
X119000Y142000D02*
Y149500D01*
X124500Y142000D02*
Y149500D01*
X132000Y143000D02*
Y149500D01*
X141000Y142000D02*
Y149500D01*
X192890Y175114D02*
Y183390D01*
X196827Y182327D02*
X198000Y183500D01*
X196827Y175114D02*
Y182327D01*
X187000Y183500D02*
X188953Y181547D01*
Y175114D02*
Y181547D01*
X180000Y183500D02*
X183047Y180453D01*
Y175114D02*
Y180453D01*
X189000Y158000D02*
X194858Y163858D01*
X185000Y152000D02*
Y160000D01*
Y152000D02*
X186984Y150016D01*
X185000Y160000D02*
X187000Y162000D01*
X186984Y162016D02*
Y175114D01*
X181079Y147921D02*
Y175114D01*
X179110Y141890D02*
Y175114D01*
X177142Y133858D02*
Y175114D01*
X175173Y102827D02*
Y175114D01*
X181079Y147921D02*
X185000Y144000D01*
X179110Y141890D02*
X184000Y137000D01*
X177142Y133858D02*
X180000Y131000D01*
X175173Y102827D02*
X177000Y101000D01*
X194858Y163858D02*
Y175114D01*
X190921Y166079D02*
X191000Y166000D01*
X190921Y166079D02*
Y175114D01*
X139953Y198047D02*
X160114D01*
X139953Y196079D02*
X160114D01*
X136000Y202000D02*
X139953Y198047D01*
X276000Y152500D02*
X289500Y166000D01*
X304500D01*
X120000Y184850D02*
X122165D01*
X129000Y191685D01*
X120000Y209150D02*
X122166D01*
X129000Y202315D01*
X136000Y192126D02*
X139953Y196079D01*
X129316Y192126D02*
X136000D01*
X129000Y191811D02*
X129316Y192126D01*
X129000Y202315D02*
X129316Y202000D01*
X136000D01*
X150000Y178850D02*
X150850D01*
X156268Y184268D01*
X160114D01*
X150000Y185150D02*
X151087Y186236D01*
X160114D01*
X160000Y175150D02*
X160114Y175264D01*
Y182299D01*
X294205Y93000D02*
X295205Y92000D01*
X294205Y93000D02*
Y119260D01*
X200764Y164189D02*
Y175114D01*
Y164189D02*
X206000Y158953D01*
X198795Y159748D02*
Y175114D01*
X198000Y158953D02*
X198795Y159748D01*
X298142Y109858D02*
X303000Y105000D01*
X298142Y109858D02*
Y119260D01*
X302079Y112921D02*
X303000Y112000D01*
X302079Y112921D02*
Y119260D01*
X310050Y79050D02*
Y111950D01*
X310000Y79000D02*
X310050Y79050D01*
X306016Y115984D02*
X310050Y111950D01*
X306016Y115984D02*
Y119260D01*
X109165D02*
X111740D01*
X69795Y95205D02*
X127000Y38000D01*
X69795Y95205D02*
Y119260D01*
X127000Y38000D02*
X131000D01*
X67827Y93173D02*
X127000Y34000D01*
X67827Y93173D02*
Y119260D01*
X65858Y91142D02*
X128000Y29000D01*
X65858Y91142D02*
Y119260D01*
X128000Y29000D02*
X233000D01*
X127000Y34000D02*
X136000D01*
X105228Y115772D02*
Y119260D01*
X125000Y80000D02*
X188000D01*
X95386Y109614D02*
X125000Y80000D01*
X95386Y109614D02*
Y119260D01*
X125000Y76000D02*
X137000D01*
X93417Y107583D02*
X125000Y76000D01*
X93417Y107583D02*
Y119260D01*
X125000Y72000D02*
X126500D01*
X87512Y109488D02*
X125000Y72000D01*
X87512Y109488D02*
Y119260D01*
X128000Y25000D02*
X241000D01*
X63890Y89110D02*
X128000Y25000D01*
X63890Y89110D02*
Y119260D01*
X127000Y42000D02*
X136000D01*
X71764Y97236D02*
X127000Y42000D01*
X71764Y97236D02*
Y119260D01*
X126500Y46500D02*
X131000D01*
X73732Y99268D02*
X126500Y46500D01*
X73732Y99268D02*
Y119260D01*
X125000Y52000D02*
X135500D01*
X75701Y101299D02*
X125000Y52000D01*
X75701Y101299D02*
Y119260D01*
X313000Y58000D02*
X316500D01*
X302500Y64000D02*
Y66500D01*
X298000Y71000D02*
X302500Y66500D01*
X298000Y89000D02*
X299000Y90000D01*
X298000Y71000D02*
Y89000D01*
X294500Y66000D02*
Y87500D01*
X291500Y90500D02*
X294500Y87500D01*
Y66000D02*
X296500Y64000D01*
X291500Y90500D02*
Y110500D01*
X292314Y111314D01*
Y119182D01*
X288500Y86000D02*
Y111500D01*
X290268Y113268D01*
X284362Y65638D02*
Y119260D01*
Y65638D02*
X286000Y64000D01*
X275500Y66500D02*
X278000Y64000D01*
X275500Y66500D02*
Y81106D01*
X282394Y88000D02*
Y119260D01*
X275500Y81106D02*
X282394Y88000D01*
X77669Y103331D02*
X124500Y56500D01*
X142000D01*
X174000Y51000D02*
X224000D01*
X164000Y61000D02*
X174000Y51000D01*
X124000Y61000D02*
X164000D01*
X175000Y53500D02*
X219500D01*
X164500Y64000D02*
X175000Y53500D01*
X125000Y64000D02*
X164500D01*
X218350Y33350D02*
X237000Y52000D01*
X154150Y33350D02*
X218350D01*
X135500Y52000D02*
X154150Y33350D01*
X233000Y29000D02*
X240000Y36000D01*
X241000Y25000D02*
X250000Y34000D01*
X230157Y57157D02*
Y59000D01*
X224000Y51000D02*
X230157Y57157D01*
X219500Y53500D02*
X225000Y59000D01*
X279000Y91500D02*
Y112000D01*
X273500Y86000D02*
X279000Y91500D01*
X265500Y84000D02*
X270000Y79500D01*
Y65000D02*
Y79500D01*
Y65000D02*
X271000Y64000D01*
X265500Y84000D02*
Y92000D01*
X276488Y97488D02*
Y119260D01*
X269500Y90500D02*
X276488Y97488D01*
X265500Y92000D02*
X274520Y101020D01*
X262000Y67500D02*
X265500Y64000D01*
X262000Y67500D02*
Y92500D01*
X272551Y103051D01*
X270583Y104583D02*
Y119260D01*
X259000Y93000D02*
X270583Y104583D01*
X263313Y101000D02*
X268614Y106301D01*
X261000Y101000D02*
X263313D01*
X259500Y105000D02*
X262000D01*
X266646Y109646D01*
Y119260D01*
X262709Y117000D02*
Y119260D01*
X264677Y115000D02*
Y119260D01*
X261000Y111323D02*
X264677Y115000D01*
X268614Y106301D02*
Y119260D01*
X272551Y103051D02*
Y119260D01*
X274520Y101020D02*
Y119260D01*
X279000Y112000D02*
X280425Y113425D01*
Y119260D01*
X261000Y109000D02*
Y111323D01*
X258260Y119260D02*
X260740D01*
X188000Y80000D02*
X200000Y68000D01*
X142000Y71000D02*
X190000D01*
X185000Y68000D02*
X191000Y62000D01*
X125000Y68000D02*
X185000D01*
X85543Y107457D02*
X125000Y68000D01*
X190000Y71000D02*
X197000Y64000D01*
X191000Y59000D02*
Y62000D01*
X83575Y105425D02*
X125000Y64000D01*
X79638Y105362D02*
X124000Y61000D01*
X83575Y105425D02*
Y119260D01*
X79638Y105362D02*
Y119260D01*
X77669Y103331D02*
Y119260D01*
X453653Y91654D02*
Y119260D01*
X451685Y95685D02*
Y119260D01*
X299000Y90000D02*
Y102000D01*
X296173Y104827D02*
X299000Y102000D01*
X296173Y104827D02*
Y119260D01*
X85543Y107457D02*
Y119260D01*
X290268Y113268D02*
Y119260D01*
X97354D02*
X97432Y119182D01*
X292236Y119260D02*
X292314Y119182D01*
X473339Y119260D02*
X473417Y119182D01*
Y71416D02*
Y119182D01*
X429000Y62500D02*
Y67000D01*
X453653Y91654D01*
X137000Y76000D02*
X142000Y71000D01*
X370000Y40500D02*
Y46500D01*
X382500Y59000D01*
X362500Y40500D02*
Y46500D01*
X355000Y35500D02*
X410500D01*
X124000Y85000D02*
X205000D01*
X97432Y111568D02*
Y119182D01*
Y111568D02*
X124000Y85000D01*
Y89000D02*
X210000D01*
X99323Y113677D02*
Y119260D01*
Y113677D02*
X124000Y89000D01*
X101291Y115709D02*
Y119260D01*
X85543D02*
Y124457D01*
X282394Y119260D02*
Y122606D01*
X281000Y124000D02*
X282394Y122606D01*
X195953Y158953D02*
X198000D01*
X209047D02*
X212000Y156000D01*
X206000Y158953D02*
X209047D01*
X208000Y122000D02*
X212000Y126000D01*
X208000Y111000D02*
Y122000D01*
X212000Y126000D02*
Y156000D01*
X138000Y110000D02*
X154000Y94000D01*
X216000D01*
X169268Y156268D02*
Y175114D01*
X171236Y152236D02*
Y175114D01*
X164000Y145000D02*
X171236Y152236D01*
X164000Y106000D02*
Y145000D01*
X169000Y101000D02*
Y145000D01*
X173205Y149205D01*
Y175114D01*
X159000Y103000D02*
X163000Y99000D01*
X159000Y103000D02*
Y146000D01*
X169268Y156268D01*
X191000Y131000D02*
Y154000D01*
X182000Y122000D02*
X191000Y131000D01*
Y154000D02*
X195953Y158953D01*
X197000Y64000D02*
X228000D01*
X237000Y52000D02*
Y59000D01*
X200000Y68000D02*
X232000D01*
X236000Y64000D01*
X241500D02*
X242000D01*
X239000Y67000D02*
Y71000D01*
X216000Y94000D02*
X239000Y71000D01*
Y67000D02*
X242000Y64000D01*
X259000Y66000D02*
Y93000D01*
Y66000D02*
X265500Y59500D01*
Y44000D02*
Y59500D01*
X257000Y62650D02*
X260650Y59000D01*
X257000Y62650D02*
Y102500D01*
X259500Y105000D01*
X255200Y58800D02*
X255325Y58675D01*
X255200Y58800D02*
Y109491D01*
X262709Y117000D01*
X252000Y113000D02*
X258260Y119260D01*
X252000Y64000D02*
Y113000D01*
X439874Y114874D02*
Y119260D01*
X441843Y111843D02*
Y119260D01*
X443811Y109811D02*
Y119260D01*
X445780Y107780D02*
Y119260D01*
X428646Y110000D02*
X437906Y119260D01*
X413000Y110000D02*
X428646D01*
X395000Y92000D02*
X413000Y110000D01*
X334500Y92000D02*
X395000D01*
X416200Y108200D02*
X433200D01*
X397000Y89000D02*
X416200Y108200D01*
X433200D02*
X439874Y114874D01*
X418000Y106000D02*
X436000D01*
X399000Y87000D02*
X418000Y106000D01*
X436000D02*
X441843Y111843D01*
X420200Y104200D02*
X438200D01*
X401000Y85000D02*
X420200Y104200D01*
X438200D02*
X443811Y109811D01*
X421000Y102000D02*
X440000D01*
X402000Y83000D02*
X421000Y102000D01*
X440000D02*
X445780Y107780D01*
X362500Y46500D02*
X378250Y62250D01*
X410500Y35500D02*
X423500Y48500D01*
Y67500D01*
X451685Y95685D01*
X336500Y89000D02*
X397000D01*
X317000Y64000D02*
Y69500D01*
X323000Y58000D02*
Y60000D01*
X449717Y96716D02*
Y119260D01*
X382500Y59000D02*
X412000D01*
X447748Y97748D02*
Y119260D01*
X412000Y59000D02*
X449717Y96716D01*
X412250Y62250D02*
X447748Y97748D01*
X378250Y62250D02*
X412250D01*
X317000Y69500D02*
X336500Y89000D01*
X309500Y64000D02*
Y67000D01*
X334500Y92000D01*
X345500Y87000D02*
X399000D01*
X348000Y85000D02*
X401000D01*
X316500Y58000D02*
X345500Y87000D01*
X323000Y60000D02*
X348000Y85000D01*
X350000Y83000D02*
X402000D01*
X333500Y58000D02*
Y66500D01*
X350000Y83000D01*
D33*
X309968Y235968D02*
Y263342D01*
X291327Y230953D02*
X298000Y237626D01*
X303748Y268748D02*
X305941D01*
X298000Y263000D02*
X303748Y268748D01*
X298000Y237626D02*
Y263000D01*
X297953Y223953D02*
X309968Y235968D01*
X263953Y223953D02*
X297953D01*
X263953Y230953D02*
X291327D01*
X308228Y265083D02*
Y281728D01*
Y265083D02*
X309968Y263342D01*
X308228Y281728D02*
X308500Y282000D01*
X305941Y268748D02*
Y282000D01*
D34*
X69000Y283000D02*
X77000Y275000D01*
X60000Y283000D02*
X69000D01*
X417000Y26000D02*
X469402Y78402D01*
X324500Y26000D02*
X417000D01*
X315000Y35500D02*
X324500Y26000D01*
X409187Y28000D02*
X461528Y80341D01*
X340000Y28000D02*
X409187D01*
X332500Y35500D02*
X340000Y28000D01*
X408000Y30000D02*
X433795Y55795D01*
X345500Y30000D02*
X408000D01*
X340000Y35500D02*
X345500Y30000D01*
X232500Y210500D02*
X237000Y206000D01*
X230000Y210500D02*
X232500D01*
X220827Y219673D02*
X230000Y210500D01*
X211914Y219673D02*
X220827D01*
X229000Y217500D02*
X235047D01*
X236047Y216500D01*
X200000Y215500D02*
X203500D01*
X196827Y218673D02*
X200000Y215500D01*
X196827Y218673D02*
Y226886D01*
X188500Y218500D02*
X190921Y220921D01*
Y226886D01*
X323000Y198000D02*
X328000D01*
X401000Y125000D01*
X239350Y254142D02*
X270650D01*
X333500Y199500D02*
X406000Y127000D01*
X333500Y199500D02*
Y201500D01*
X160114Y194110D02*
X170110D01*
X170500Y194500D01*
X175173Y219673D02*
Y226886D01*
X174500Y219000D02*
X175173Y219673D01*
X151031Y200016D02*
X160114D01*
X149024Y202024D02*
X151031Y200016D01*
X227000Y183000D02*
X235047D01*
X217858Y192142D02*
X227000Y183000D01*
X236000Y125000D02*
X281000Y170000D01*
X236000Y111000D02*
Y125000D01*
X172598Y243000D02*
X178000D01*
X164323Y251276D02*
X172598Y243000D01*
X178000D02*
X186984Y234016D01*
X102000Y223850D02*
X106850Y219000D01*
X95000Y223850D02*
X102000D01*
X106850Y219000D02*
X111000D01*
X179150Y269000D02*
X179677Y268472D01*
Y260724D02*
Y268472D01*
X155000Y250850D02*
X155425Y251276D01*
X164323D01*
X186000Y238000D02*
X188953Y235047D01*
X179677Y260724D02*
X181276D01*
X186000Y256000D01*
X188953Y226886D02*
Y235047D01*
X229209Y244000D02*
X239350Y254142D01*
X227953Y244000D02*
X229209D01*
X222000Y243953D02*
X222047Y244000D01*
X222000Y236953D02*
Y243953D01*
X221047Y236000D02*
X222000Y236953D01*
X204000Y236000D02*
X221047D01*
X200764Y232764D02*
X204000Y236000D01*
X200764Y226886D02*
Y232764D01*
X303000Y259311D02*
Y260311D01*
X306031Y263342D01*
X204701Y226886D02*
X208886D01*
X209000Y227000D01*
X199000Y237000D02*
Y242850D01*
X194858Y232858D02*
X199000Y237000D01*
X194858Y226886D02*
Y232858D01*
X192890Y226886D02*
Y237740D01*
X193000Y237850D01*
X222803Y198047D02*
X223000Y197850D01*
X211886Y198047D02*
X222803D01*
X200000Y200000D02*
X201984Y201984D01*
X211886D01*
X196000Y204000D02*
X196047Y203953D01*
X211886D01*
X160000Y182185D02*
X160114Y182299D01*
X310626Y268000D02*
X321047D01*
X211886Y194110D02*
X220890D01*
X224000Y191000D01*
X211886Y192142D02*
X217858D01*
X300110Y119260D02*
Y124890D01*
X300000Y125000D02*
X300110Y124890D01*
X103000Y125000D02*
X103260Y124740D01*
Y119260D02*
Y124740D01*
X91449Y123449D02*
X93000Y125000D01*
X91449Y119260D02*
Y123449D01*
X479244Y113756D02*
Y119260D01*
X465465D02*
Y123181D01*
X467543Y125260D01*
X481213Y119260D02*
Y123181D01*
X304047Y119260D02*
Y123181D01*
X306126Y125260D01*
X288299Y123181D02*
X290378Y125260D01*
X288299Y119260D02*
Y123181D01*
X483181Y119260D02*
X488000Y114441D01*
X457590Y90000D02*
Y119260D01*
X459559Y86559D02*
Y119260D01*
X479244Y113756D02*
X483000Y110000D01*
X471370Y75370D02*
Y119260D01*
X475307Y110693D02*
Y119260D01*
Y110693D02*
X478000Y108000D01*
X477500Y98500D02*
X488000Y109000D01*
Y114441D01*
X477500Y70000D02*
Y98500D01*
X449000Y41500D02*
X477500Y70000D01*
X437500Y41500D02*
X438500D01*
X437500D02*
X471370Y75370D01*
X469402Y78402D02*
Y119260D01*
X427500Y41567D02*
X467433Y81500D01*
X427500Y41500D02*
Y41567D01*
X467433Y81500D02*
Y119260D01*
X440500Y67500D02*
X459559Y86559D01*
X461528Y80341D02*
Y119260D01*
X433795Y66205D02*
X457590Y90000D01*
X449000Y41500D02*
X449500D01*
X433795Y55795D02*
Y66205D01*
X107197Y119260D02*
Y123181D01*
X109276Y125260D01*
X186000Y238000D02*
Y256000D01*
X186984Y226886D02*
Y234016D01*
X83000Y131000D02*
X86000D01*
X89480Y127520D01*
Y119260D02*
Y127520D01*
X76000Y125000D02*
X79000D01*
X81606Y122394D01*
Y119260D02*
Y122394D01*
X281000Y129000D02*
X283000D01*
X274000Y125000D02*
X275000D01*
X278457Y121543D01*
Y119260D02*
Y121543D01*
X283362Y128638D02*
X286331Y125669D01*
Y119260D02*
Y125669D01*
X481213Y123181D02*
X483032Y125000D01*
X485000D01*
X477276Y124339D02*
X478197Y125260D01*
X477276Y119260D02*
Y124339D01*
X457543Y132260D02*
X463496Y126307D01*
Y119260D02*
Y126307D01*
X459559Y119260D02*
Y124441D01*
X459000Y125000D02*
X459559Y124441D01*
X450000Y125000D02*
X452000D01*
X455622Y121378D01*
Y119260D02*
Y121378D01*
X224000Y191000D02*
X235047D01*
Y194047D01*
X237000Y196000D01*
X259000D01*
X265000Y190000D01*
X235047Y180953D02*
Y183000D01*
Y180953D02*
X245000Y171000D01*
X257000D01*
X232000Y132000D02*
X260000Y160000D01*
X232000Y117000D02*
Y132000D01*
X281000Y170000D02*
Y189000D01*
X270000Y200000D02*
X281000Y189000D01*
X167299Y158299D02*
Y175114D01*
X165000Y156000D02*
X167299Y158299D01*
X93000Y156000D02*
X165000D01*
X84000Y147000D02*
X93000Y156000D01*
X211886Y219701D02*
X211914Y219673D01*
X417000Y94000D02*
X426000D01*
X349000Y58000D02*
Y64000D01*
X354000Y69000D01*
X374000D01*
X343000Y64000D02*
X353000Y74000D01*
X343000Y58000D02*
Y64000D01*
X397000Y74000D02*
X417000Y94000D01*
X420000Y82000D02*
Y87000D01*
X374000Y69000D02*
X377000Y72000D01*
X353000Y74000D02*
X397000D01*
X377000Y72000D02*
X410000D01*
X420000Y82000D01*
X406000Y114000D02*
Y127000D01*
X401000Y111000D02*
Y125000D01*
X211886Y200016D02*
X216016D01*
X220150Y204150D01*
X223000D01*
X227850D01*
X92150Y223850D02*
X95000D01*
X86000Y230000D02*
X92150Y223850D01*
X61209Y230000D02*
X86000D01*
X51350Y239858D02*
X61209Y230000D01*
X86000D02*
Y236508D01*
X82650Y239858D02*
X86000Y236508D01*
X51350Y274350D02*
X60000Y283000D01*
X51350Y239858D02*
Y274350D01*
D35*
X144953Y206095D02*
X149024Y202024D01*
X144953Y206095D02*
Y211000D01*
X300000Y208500D02*
Y213850D01*
X307000Y209000D02*
Y213850D01*
X138000Y218260D02*
X144591D01*
X145000Y217850D01*
X144953Y217803D02*
X145000Y217850D01*
X144953Y211000D02*
Y217803D01*
X198000Y147000D02*
Y153047D01*
X206000Y147000D02*
Y153047D01*
D36*
X300823Y282000D02*
X303382D01*
X294484D02*
X300823D01*
X293992Y282492D02*
X294484Y282000D01*
D37*
X281500Y292000D02*
X282500D01*
X311059Y268433D02*
Y282000D01*
X310626Y268000D02*
X311059Y268433D01*
D38*
X390197Y49299D02*
D03*
X176102Y61307D02*
D03*
D39*
X407165Y49299D02*
D03*
X159134D02*
D03*
X80000Y30000D02*
D03*
X70000Y20000D02*
D03*
X490000D02*
D03*
X500000D02*
D03*
X480000D02*
D03*
X470000D02*
D03*
X90000D02*
D03*
X50000D02*
D03*
X60000Y30000D02*
D03*
X530000Y280000D02*
D03*
Y20000D02*
D03*
X20000Y280000D02*
D03*
Y20000D02*
D03*
X25000Y238000D02*
D03*
X15000D02*
D03*
X100000Y30000D02*
D03*
X15000Y198000D02*
D03*
X25000D02*
D03*
X15000Y208000D02*
D03*
X25000D02*
D03*
Y218000D02*
D03*
X15000Y228000D02*
D03*
Y218000D02*
D03*
X25000Y228000D02*
D03*
D40*
X127000Y275000D02*
D03*
D41*
X117000D02*
D03*
X107000D02*
D03*
X97000D02*
D03*
X87000D02*
D03*
X77000D02*
D03*
X67000D02*
D03*
X127000Y265000D02*
D03*
X117000D02*
D03*
X107000D02*
D03*
X97000D02*
D03*
X87000D02*
D03*
X77000D02*
D03*
X67000D02*
D03*
D42*
X149000Y75000D02*
D03*
X200000Y59000D02*
D03*
X350000Y257500D02*
D03*
X257500Y180000D02*
D03*
X147500Y140000D02*
D03*
X37500Y287500D02*
D03*
Y267500D02*
D03*
X25000Y252500D02*
D03*
X262500Y285000D02*
D03*
X225000Y282500D02*
D03*
X375000Y120000D02*
D03*
X237500Y100000D02*
D03*
X195000D02*
D03*
X437500Y192500D02*
D03*
X400000D02*
D03*
X420000Y175000D02*
D03*
X382500D02*
D03*
X437500Y162500D02*
D03*
X400000D02*
D03*
X500000Y195000D02*
D03*
Y232500D02*
D03*
X512500Y212500D02*
D03*
Y250000D02*
D03*
X525000Y195000D02*
D03*
Y232500D02*
D03*
X537500Y212500D02*
D03*
Y250000D02*
D03*
X452500Y235000D02*
D03*
X350000Y7500D02*
D03*
X387500D02*
D03*
X275000D02*
D03*
X200000D02*
D03*
X125000D02*
D03*
X196000Y283000D02*
D03*
X113000Y169000D02*
D03*
X18000Y102000D02*
D03*
X14000Y67000D02*
D03*
X37000Y50000D02*
D03*
X30000Y35000D02*
D03*
X18000Y44000D02*
D03*
X457500Y280453D02*
D03*
X472500D02*
D03*
X432000Y241000D02*
D03*
X425000Y247500D02*
D03*
X434358Y263000D02*
D03*
X415858Y280858D02*
D03*
X366642D02*
D03*
X304000Y23000D02*
D03*
X276000Y32000D02*
D03*
X301000Y44000D02*
D03*
X193500Y209000D02*
D03*
X200500Y211500D02*
D03*
X220000D02*
D03*
X229000Y217500D02*
D03*
X203500Y215500D02*
D03*
X188500Y218500D02*
D03*
X323000Y198000D02*
D03*
X141000Y99500D02*
D03*
X146000Y95000D02*
D03*
X119000Y142000D02*
D03*
X124500D02*
D03*
X119000Y149500D02*
D03*
X124500D02*
D03*
X305000Y58000D02*
D03*
X298500D02*
D03*
X408000Y69000D02*
D03*
X132000Y142000D02*
D03*
Y149500D02*
D03*
X141000Y142000D02*
D03*
Y149500D02*
D03*
X192890Y183390D02*
D03*
X198000Y183500D02*
D03*
X187000D02*
D03*
X180000D02*
D03*
X189000Y158000D02*
D03*
X186984Y150016D02*
D03*
X190921Y166079D02*
D03*
X256500Y237500D02*
D03*
X333500Y201500D02*
D03*
X180500Y217500D02*
D03*
X170500Y194500D02*
D03*
X177000Y199000D02*
D03*
Y212500D02*
D03*
X173000Y209500D02*
D03*
X174500Y219000D02*
D03*
X176850Y206350D02*
D03*
X173500Y202500D02*
D03*
X152500Y209500D02*
D03*
Y203500D02*
D03*
Y215500D02*
D03*
X70000Y236000D02*
D03*
X64000Y241500D02*
D03*
X235000Y163000D02*
D03*
X248000Y191000D02*
D03*
Y183000D02*
D03*
X276000Y152500D02*
D03*
X304500Y166000D02*
D03*
X281000Y145000D02*
D03*
X138000Y231000D02*
D03*
X300000Y208500D02*
D03*
X307000Y209000D02*
D03*
X160500Y266500D02*
D03*
X181500Y245500D02*
D03*
X328961Y292039D02*
D03*
X282500D02*
D03*
X237000Y206000D02*
D03*
X512941Y169441D02*
D03*
Y161441D02*
D03*
X349472Y128472D02*
D03*
X111000Y219000D02*
D03*
X351000Y96000D02*
D03*
X338953Y280953D02*
D03*
X212000Y260000D02*
D03*
X235000Y237000D02*
D03*
X303000Y259311D02*
D03*
X209000Y227000D02*
D03*
X205000Y255000D02*
D03*
X199000D02*
D03*
X193000Y250000D02*
D03*
X228000Y197850D02*
D03*
X227850Y204150D02*
D03*
X200000Y200000D02*
D03*
X196047Y203953D02*
D03*
X129000Y214000D02*
D03*
X142000Y191000D02*
D03*
X145000Y229000D02*
D03*
X120000Y197000D02*
D03*
X142000Y171000D02*
D03*
X150000Y173000D02*
D03*
Y191000D02*
D03*
X160000Y164000D02*
D03*
X265000Y190000D02*
D03*
X257000Y171000D02*
D03*
X295205Y92000D02*
D03*
X303000Y105000D02*
D03*
Y112000D02*
D03*
X310000Y79000D02*
D03*
X302000Y142000D02*
D03*
X300000Y125000D02*
D03*
X281000Y129000D02*
D03*
X54228Y156465D02*
D03*
X103000Y125000D02*
D03*
X93000D02*
D03*
X83000Y131000D02*
D03*
X67000D02*
D03*
X323000Y58000D02*
D03*
X313000D02*
D03*
X317000Y64000D02*
D03*
X350000Y78000D02*
D03*
X309500Y64000D02*
D03*
X302500D02*
D03*
X296500D02*
D03*
X288500Y86000D02*
D03*
X278000Y64000D02*
D03*
X286000D02*
D03*
X142000Y56500D02*
D03*
X136000Y42000D02*
D03*
Y34000D02*
D03*
X131000Y46500D02*
D03*
Y38000D02*
D03*
X273500Y86000D02*
D03*
X269500Y90500D02*
D03*
X271000Y64000D02*
D03*
X265500D02*
D03*
Y44000D02*
D03*
Y78000D02*
D03*
X261000Y101000D02*
D03*
Y109000D02*
D03*
X230157Y59000D02*
D03*
X225000D02*
D03*
X217000D02*
D03*
X210000Y89000D02*
D03*
X205000Y85000D02*
D03*
X191000Y59000D02*
D03*
X220000Y78000D02*
D03*
X185000Y59000D02*
D03*
X240000Y36000D02*
D03*
X250000Y34000D02*
D03*
X467543Y125260D02*
D03*
X457543Y132260D02*
D03*
X362000Y64000D02*
D03*
X76000Y125000D02*
D03*
X180000Y75000D02*
D03*
X376000Y44000D02*
D03*
X346000D02*
D03*
X331000D02*
D03*
X316000D02*
D03*
X286000D02*
D03*
X271000D02*
D03*
X256000D02*
D03*
X241000D02*
D03*
X280000Y78000D02*
D03*
X355000Y64000D02*
D03*
X291000D02*
D03*
X274000Y125000D02*
D03*
X382299Y78000D02*
D03*
X369000D02*
D03*
X377299D02*
D03*
X372299Y64614D02*
D03*
X362299Y78000D02*
D03*
X302299D02*
D03*
X202299D02*
D03*
X49465Y96228D02*
D03*
X57465Y98228D02*
D03*
X50417Y66228D02*
D03*
X49465Y73228D02*
D03*
X33465D02*
D03*
X23465Y83228D02*
D03*
X39228Y190465D02*
D03*
X29228Y180465D02*
D03*
Y164465D02*
D03*
X22228Y163512D02*
D03*
X36228Y156465D02*
D03*
Y164465D02*
D03*
X52228D02*
D03*
X345772Y149528D02*
D03*
Y165528D02*
D03*
X352772Y166480D02*
D03*
X338772Y173528D02*
D03*
Y165528D02*
D03*
X320772Y173528D02*
D03*
X322772Y165528D02*
D03*
X330772Y128472D02*
D03*
X332772Y120472D02*
D03*
X362772Y121425D02*
D03*
X355772Y120472D02*
D03*
Y104472D02*
D03*
X492772Y82559D02*
D03*
X490772Y90559D02*
D03*
X508772Y82559D02*
D03*
Y90559D02*
D03*
X522772Y83512D02*
D03*
X515772Y82559D02*
D03*
Y66559D02*
D03*
X505772Y56559D02*
D03*
X509500Y135441D02*
D03*
X519500Y145441D02*
D03*
Y161441D02*
D03*
X526500Y162394D02*
D03*
X494500Y169441D02*
D03*
X496500Y161441D02*
D03*
X478543Y142260D02*
D03*
X467543D02*
D03*
X457543Y149260D02*
D03*
X478197Y125260D02*
D03*
X290378Y142260D02*
D03*
X306126Y125260D02*
D03*
X290378D02*
D03*
X93528Y142260D02*
D03*
X101528D02*
D03*
X478000Y108000D02*
D03*
X483000Y110000D02*
D03*
X438500Y41500D02*
D03*
X427500D02*
D03*
X315000Y35500D02*
D03*
X440500Y67500D02*
D03*
X340000Y35500D02*
D03*
X429000Y62500D02*
D03*
X332500Y35500D02*
D03*
X333500Y58000D02*
D03*
X355000Y35500D02*
D03*
X126500Y72000D02*
D03*
X386500Y68500D02*
D03*
X355000Y58000D02*
D03*
X362500Y40500D02*
D03*
X370000D02*
D03*
X449500Y41500D02*
D03*
X109276Y125260D02*
D03*
X74650Y222142D02*
D03*
X95000Y235000D02*
D03*
X102000D02*
D03*
X115000Y226000D02*
D03*
X124000D02*
D03*
X20000Y117000D02*
D03*
X85000Y125000D02*
D03*
X281000Y124000D02*
D03*
X245000Y163000D02*
D03*
X518000Y124000D02*
D03*
X485000Y125000D02*
D03*
X459000D02*
D03*
X450000D02*
D03*
X520000Y98000D02*
D03*
X208000Y111000D02*
D03*
X260000Y160000D02*
D03*
X236000Y111000D02*
D03*
X232000Y117000D02*
D03*
X270000Y200000D02*
D03*
X84000Y147000D02*
D03*
X163000Y99000D02*
D03*
X164000Y106000D02*
D03*
X169000Y101000D02*
D03*
X177000D02*
D03*
X182000Y122000D02*
D03*
X180000Y131000D02*
D03*
X184000Y137000D02*
D03*
X273000Y58000D02*
D03*
X185000Y144000D02*
D03*
X228000Y64000D02*
D03*
X237000Y59000D02*
D03*
X236000Y64000D02*
D03*
X241500D02*
D03*
X260650Y59000D02*
D03*
X255325Y58675D02*
D03*
X252000Y64000D02*
D03*
X283000Y58000D02*
D03*
X293000D02*
D03*
X246000Y80000D02*
D03*
X256000Y217000D02*
D03*
X372000Y105000D02*
D03*
X390000D02*
D03*
X413000Y81000D02*
D03*
X406000Y114000D02*
D03*
X401000Y111000D02*
D03*
X426000Y94000D02*
D03*
X420000Y87000D02*
D03*
X349000Y58000D02*
D03*
X343000D02*
D03*
X335772Y139528D02*
D03*
X221000Y138000D02*
D03*
X198000Y147000D02*
D03*
X206000D02*
D03*
X61000Y222000D02*
D03*
X350000Y121000D02*
D03*
M02*
