G04 Layer_Color=8421504*
%FSLAX25Y25*%
%MOIN*%
G70*
G01*
G75*
%ADD10R,0.07087X0.05709*%
%ADD11R,0.06102X0.05118*%
%ADD12R,0.07480X0.05118*%
%ADD13O,0.01181X0.06890*%
%ADD14O,0.06890X0.01181*%
%ADD15R,0.09449X0.08661*%
%ADD16R,0.01181X0.03150*%
%ADD17R,0.05118X0.11811*%
%ADD18R,0.07087X0.07480*%
%ADD19R,0.08268X0.06299*%
%ADD20R,0.01575X0.05315*%
%ADD21R,0.03150X0.03150*%
%ADD22R,0.05709X0.04528*%
%ADD23R,0.03937X0.03740*%
%ADD24R,0.03740X0.03937*%
%ADD25R,0.02362X0.02362*%
%ADD26R,0.03543X0.03937*%
%ADD27R,0.03937X0.03543*%
%ADD28R,0.01181X0.01772*%
D10*
X164323Y260724D02*
D03*
Y251276D02*
D03*
X179677D02*
D03*
Y260724D02*
D03*
D11*
X82650Y222142D02*
D03*
Y239858D02*
D03*
X51350D02*
D03*
Y222142D02*
D03*
X270650Y254142D02*
D03*
Y271858D02*
D03*
X239350D02*
D03*
Y254142D02*
D03*
X374350Y280858D02*
D03*
Y263142D02*
D03*
X405650D02*
D03*
Y280858D02*
D03*
D12*
X129000Y191685D02*
D03*
Y202315D02*
D03*
D13*
X167299Y226886D02*
D03*
X169268D02*
D03*
X171236D02*
D03*
X173205D02*
D03*
X175173D02*
D03*
X177142D02*
D03*
X179110D02*
D03*
X181079D02*
D03*
X183047D02*
D03*
X185016D02*
D03*
X186984D02*
D03*
X188953D02*
D03*
X190921D02*
D03*
X192890D02*
D03*
X194858D02*
D03*
X196827D02*
D03*
X198795D02*
D03*
X200764D02*
D03*
X202732D02*
D03*
X204701D02*
D03*
Y175114D02*
D03*
X202732D02*
D03*
X200764D02*
D03*
X198795D02*
D03*
X196827D02*
D03*
X194858D02*
D03*
X192890D02*
D03*
X190921D02*
D03*
X188953D02*
D03*
X186984D02*
D03*
X185016D02*
D03*
X183047D02*
D03*
X181079D02*
D03*
X179110D02*
D03*
X177142D02*
D03*
X175173D02*
D03*
X173205D02*
D03*
X171236D02*
D03*
X169268D02*
D03*
X167299D02*
D03*
D14*
X211886Y219701D02*
D03*
Y217732D02*
D03*
Y215764D02*
D03*
Y213795D02*
D03*
Y211827D02*
D03*
Y209858D02*
D03*
Y207890D02*
D03*
Y205921D02*
D03*
Y203953D02*
D03*
Y201984D02*
D03*
Y200016D02*
D03*
Y198047D02*
D03*
Y196079D02*
D03*
Y194110D02*
D03*
Y192142D02*
D03*
Y190173D02*
D03*
Y188205D02*
D03*
Y186236D02*
D03*
Y184268D02*
D03*
Y182299D02*
D03*
X160114D02*
D03*
Y184268D02*
D03*
Y186236D02*
D03*
Y188205D02*
D03*
Y190173D02*
D03*
Y192142D02*
D03*
Y194110D02*
D03*
Y196079D02*
D03*
Y198047D02*
D03*
Y200016D02*
D03*
Y201984D02*
D03*
Y203953D02*
D03*
Y205921D02*
D03*
Y207890D02*
D03*
Y209858D02*
D03*
Y211827D02*
D03*
Y213795D02*
D03*
Y215764D02*
D03*
Y217732D02*
D03*
Y219701D02*
D03*
D15*
X118811Y125165D02*
D03*
X54244D02*
D03*
X315661D02*
D03*
X251095D02*
D03*
X492827D02*
D03*
X428260D02*
D03*
D16*
X63890Y119260D02*
D03*
X65858D02*
D03*
X67827D02*
D03*
X69795D02*
D03*
X71764D02*
D03*
X73732D02*
D03*
X75701D02*
D03*
X77669D02*
D03*
X79638D02*
D03*
X81606D02*
D03*
X83575D02*
D03*
X87512D02*
D03*
X85543D02*
D03*
X89480D02*
D03*
X91449D02*
D03*
X93417D02*
D03*
X95386D02*
D03*
X97354D02*
D03*
X99323D02*
D03*
X101291D02*
D03*
X103260D02*
D03*
X105228D02*
D03*
X107197D02*
D03*
X109165D02*
D03*
X260740D02*
D03*
X262709D02*
D03*
X264677D02*
D03*
X266646D02*
D03*
X268614D02*
D03*
X270583D02*
D03*
X272551D02*
D03*
X274520D02*
D03*
X276488D02*
D03*
X278457D02*
D03*
X280425D02*
D03*
X284362D02*
D03*
X282394D02*
D03*
X286331D02*
D03*
X288299D02*
D03*
X290268D02*
D03*
X292236D02*
D03*
X294205D02*
D03*
X296173D02*
D03*
X298142D02*
D03*
X300110D02*
D03*
X302079D02*
D03*
X304047D02*
D03*
X306016D02*
D03*
X437906D02*
D03*
X439874D02*
D03*
X441843D02*
D03*
X443811D02*
D03*
X445780D02*
D03*
X447748D02*
D03*
X449717D02*
D03*
X451685D02*
D03*
X453653D02*
D03*
X455622D02*
D03*
X457590D02*
D03*
X461528D02*
D03*
X459559D02*
D03*
X463496D02*
D03*
X465465D02*
D03*
X467433D02*
D03*
X469402D02*
D03*
X471370D02*
D03*
X473339D02*
D03*
X475307D02*
D03*
X477276D02*
D03*
X479244D02*
D03*
X481213D02*
D03*
X483181D02*
D03*
D17*
X56410Y126937D02*
D03*
X116646D02*
D03*
X253260D02*
D03*
X313496D02*
D03*
X430425D02*
D03*
X490661D02*
D03*
D18*
X290764Y292039D02*
D03*
X320961D02*
D03*
D19*
X293992Y282492D02*
D03*
X317850D02*
D03*
D20*
X300823Y282000D02*
D03*
X303382D02*
D03*
X305941D02*
D03*
X308500D02*
D03*
X311059D02*
D03*
D21*
X331000Y280953D02*
D03*
Y275047D02*
D03*
X480000Y280453D02*
D03*
Y274547D02*
D03*
X465000Y280453D02*
D03*
Y274547D02*
D03*
X450000Y280453D02*
D03*
Y274547D02*
D03*
D22*
X142000Y184740D02*
D03*
Y177260D02*
D03*
X138000Y218260D02*
D03*
Y225740D02*
D03*
X212000Y254480D02*
D03*
Y247000D02*
D03*
D23*
X155000Y250850D02*
D03*
Y257150D02*
D03*
X120000Y184850D02*
D03*
Y191150D02*
D03*
Y209150D02*
D03*
Y202850D02*
D03*
X95000Y223850D02*
D03*
Y230150D02*
D03*
X193000Y237850D02*
D03*
Y244150D02*
D03*
X199000Y242850D02*
D03*
Y249150D02*
D03*
X150000Y185150D02*
D03*
Y178850D02*
D03*
X145000Y217850D02*
D03*
Y224150D02*
D03*
X223000Y204150D02*
D03*
Y197850D02*
D03*
X160000Y175150D02*
D03*
Y168850D02*
D03*
X102000Y223850D02*
D03*
Y230150D02*
D03*
X251000Y230850D02*
D03*
Y237150D02*
D03*
Y223150D02*
D03*
Y216850D02*
D03*
X307000Y220150D02*
D03*
Y213850D02*
D03*
X300000Y220150D02*
D03*
Y213850D02*
D03*
X205000Y249150D02*
D03*
Y242850D02*
D03*
D24*
X179150Y269000D02*
D03*
X172850D02*
D03*
X417850Y263000D02*
D03*
X424150D02*
D03*
D25*
X321000Y238331D02*
D03*
Y229669D02*
D03*
D26*
X229000Y231047D02*
D03*
Y236953D02*
D03*
X222000Y231047D02*
D03*
Y236953D02*
D03*
X206000Y158953D02*
D03*
Y153047D02*
D03*
X198000Y158953D02*
D03*
Y153047D02*
D03*
X480000Y262953D02*
D03*
Y257047D02*
D03*
X465000Y262953D02*
D03*
Y257047D02*
D03*
X450000Y262953D02*
D03*
Y257047D02*
D03*
D27*
X258047Y230953D02*
D03*
X263953D02*
D03*
X258047Y223953D02*
D03*
X263953D02*
D03*
X315047Y221000D02*
D03*
X320953D02*
D03*
X326953Y268000D02*
D03*
X321047D02*
D03*
X144953Y211000D02*
D03*
X139047D02*
D03*
X241953Y216500D02*
D03*
X236047D02*
D03*
X222047Y244000D02*
D03*
X227953D02*
D03*
X235047Y191000D02*
D03*
X240953D02*
D03*
X235047Y183000D02*
D03*
X240953D02*
D03*
D28*
X308000Y268657D02*
D03*
X309968D02*
D03*
X306031D02*
D03*
X309968Y263342D02*
D03*
X306031D02*
D03*
M02*
