G04 Layer_Color=32768*
%FSLAX25Y25*%
%MOIN*%
G70*
G01*
G75*
%ADD94C,0.00394*%
%ADD95C,0.00197*%
D94*
X506531Y150500D02*
X510468D01*
X508500Y148531D02*
Y152469D01*
X502531Y71500D02*
X506468D01*
X504500Y69532D02*
Y73469D01*
X342803Y109500D02*
X346740D01*
X344772Y107531D02*
Y111469D01*
X332803Y154500D02*
X336740D01*
X334772Y152532D02*
Y156468D01*
X38532Y175500D02*
X42469D01*
X40500Y173531D02*
Y177469D01*
X38500Y82531D02*
Y86468D01*
X36531Y84500D02*
X40468D01*
X393933Y31429D02*
Y91185D01*
X168862D02*
X393933D01*
X168862Y31413D02*
X393933D01*
X168862D02*
Y91185D01*
X186000Y199031D02*
Y202969D01*
X184031Y201000D02*
X187969D01*
X142000Y179032D02*
Y182968D01*
X140032Y181000D02*
X143968D01*
X138000Y220031D02*
Y223969D01*
X136031Y222000D02*
X139969D01*
X115000Y233032D02*
Y236968D01*
X113031Y235000D02*
X116969D01*
X212000Y248772D02*
Y252709D01*
X210032Y250740D02*
X213968D01*
X400000Y75032D02*
Y78969D01*
X398031Y77000D02*
X401968D01*
X379031Y105000D02*
X382968D01*
X381000Y103032D02*
Y106968D01*
X501532Y169441D02*
X505469D01*
X503500Y167472D02*
Y171409D01*
X497803Y90559D02*
X501740D01*
X499772Y88591D02*
Y92528D01*
X337803Y128472D02*
X341740D01*
X339772Y126504D02*
Y130441D01*
X327803Y173528D02*
X331740D01*
X329772Y171559D02*
Y175496D01*
X43260Y156465D02*
X47197D01*
X45228Y154496D02*
Y158433D01*
X57465Y87260D02*
Y91197D01*
X55496Y89228D02*
X59433D01*
X155000Y252228D02*
Y255772D01*
X153228Y254000D02*
X156772D01*
X120000Y186228D02*
Y189772D01*
X118228Y188000D02*
X121772D01*
X120000Y204228D02*
Y207772D01*
X118228Y206000D02*
X121772D01*
X95000Y225228D02*
Y228772D01*
X93228Y227000D02*
X96772D01*
X193000Y239228D02*
Y242772D01*
X191228Y241000D02*
X194772D01*
X199000Y244228D02*
Y247772D01*
X197228Y246000D02*
X200772D01*
X150000Y180228D02*
Y183772D01*
X148228Y182000D02*
X151772D01*
X145000Y219228D02*
Y222772D01*
X143228Y221000D02*
X146772D01*
X223000Y199228D02*
Y202772D01*
X221228Y201000D02*
X224772D01*
X124000Y233228D02*
Y236772D01*
X122228Y235000D02*
X125772D01*
X160000Y170228D02*
Y173772D01*
X158228Y172000D02*
X161772D01*
X102000Y225228D02*
Y228772D01*
X100228Y227000D02*
X103772D01*
X251000Y232228D02*
Y235772D01*
X249228Y234000D02*
X252772D01*
X251000Y218228D02*
Y221772D01*
X249228Y220000D02*
X252772D01*
X307000Y215228D02*
Y218772D01*
X305228Y217000D02*
X308772D01*
X300000Y215228D02*
Y218772D01*
X298228Y217000D02*
X301772D01*
X205000Y244228D02*
Y247772D01*
X203228Y246000D02*
X206772D01*
X525228Y124000D02*
X528772D01*
X527000Y122228D02*
Y125772D01*
X228228Y138000D02*
X231772D01*
X230000Y136228D02*
Y139772D01*
X27228Y117000D02*
X30772D01*
X29000Y115228D02*
Y118772D01*
X379228Y97000D02*
X382772D01*
X381000Y95228D02*
Y98772D01*
X408000Y76228D02*
Y79772D01*
X406228Y78000D02*
X409772D01*
X101528Y132488D02*
Y136031D01*
X99756Y134260D02*
X103299D01*
X93528Y132488D02*
Y136031D01*
X91756Y134260D02*
X95299D01*
X73228Y131000D02*
X76772D01*
X75000Y129228D02*
Y132772D01*
X281000Y135228D02*
Y138772D01*
X279228Y137000D02*
X282772D01*
X290378Y132488D02*
Y136031D01*
X288606Y134260D02*
X292150D01*
X302000Y132228D02*
Y135772D01*
X300228Y134000D02*
X303772D01*
X457543Y139488D02*
Y143032D01*
X455772Y141260D02*
X459315D01*
X467543Y132488D02*
Y136031D01*
X465772Y134260D02*
X469315D01*
X478543Y132488D02*
Y136031D01*
X476772Y134260D02*
X480315D01*
X519500Y151669D02*
Y155213D01*
X517728Y153441D02*
X521272D01*
X502728Y161441D02*
X506272D01*
X504500Y159669D02*
Y163213D01*
X504728Y139441D02*
X508272D01*
X506500Y137669D02*
Y141213D01*
X515772Y72787D02*
Y76331D01*
X514000Y74559D02*
X517543D01*
X499000Y82559D02*
X502543D01*
X500772Y80787D02*
Y84331D01*
X501000Y60559D02*
X504543D01*
X502772Y58787D02*
Y62331D01*
X355772Y110701D02*
Y114244D01*
X354000Y112472D02*
X357543D01*
X339000Y120472D02*
X342543D01*
X340772Y118701D02*
Y122244D01*
X341000Y98472D02*
X344543D01*
X342772Y96701D02*
Y100244D01*
X345772Y155756D02*
Y159299D01*
X344000Y157528D02*
X347543D01*
X329000Y165528D02*
X332543D01*
X330772Y163756D02*
Y167299D01*
X331000Y143528D02*
X334543D01*
X332772Y141756D02*
Y145299D01*
X40457Y186465D02*
X44000D01*
X42228Y184693D02*
Y188236D01*
X42457Y164465D02*
X46000D01*
X44228Y162693D02*
Y166236D01*
X29228Y170693D02*
Y174236D01*
X27457Y172465D02*
X31000D01*
X27465Y84457D02*
Y88000D01*
X25693Y86228D02*
X29236D01*
X49465Y86457D02*
Y90000D01*
X47693Y88228D02*
X51236D01*
X39693Y73228D02*
X43236D01*
X41465Y71457D02*
Y75000D01*
X174228Y269000D02*
X177772D01*
X176000Y267228D02*
Y270772D01*
X419228Y263000D02*
X422772D01*
X421000Y261228D02*
Y264772D01*
X229000Y232228D02*
Y235772D01*
X227228Y234000D02*
X230772D01*
X259228Y230953D02*
X262772D01*
X261000Y229181D02*
Y232724D01*
X259228Y223953D02*
X262772D01*
X261000Y222181D02*
Y225724D01*
X316228Y221000D02*
X319772D01*
X318000Y219228D02*
Y222772D01*
X322228Y268000D02*
X325772D01*
X324000Y266228D02*
Y269772D01*
X140228Y211000D02*
X143772D01*
X142000Y209228D02*
Y212772D01*
X237228Y216500D02*
X240772D01*
X239000Y214728D02*
Y218272D01*
X223228Y244000D02*
X226772D01*
X225000Y242228D02*
Y245772D01*
X222000Y232228D02*
Y235772D01*
X220228Y234000D02*
X223772D01*
X501228Y115000D02*
X504772D01*
X503000Y113228D02*
Y116772D01*
X259228Y146000D02*
X262772D01*
X261000Y144228D02*
Y147772D01*
X41228Y139000D02*
X44772D01*
X43000Y137228D02*
Y140772D01*
X526500Y151622D02*
Y155165D01*
X524728Y153394D02*
X528272D01*
X522772Y72787D02*
Y76331D01*
X521000Y74559D02*
X524543D01*
X362772Y110701D02*
Y114244D01*
X361000Y112472D02*
X364543D01*
X352772Y155709D02*
Y159252D01*
X351000Y157480D02*
X354543D01*
X22228Y170693D02*
Y174236D01*
X20457Y172465D02*
X24000D01*
X39646Y66228D02*
X43189D01*
X41417Y64457D02*
Y68000D01*
X236228Y191000D02*
X239772D01*
X238000Y189228D02*
Y192772D01*
X236228Y183000D02*
X239772D01*
X238000Y181228D02*
Y184772D01*
X206000Y154228D02*
Y157772D01*
X204228Y156000D02*
X207772D01*
X198000Y154228D02*
Y157772D01*
X196228Y156000D02*
X199772D01*
X272000Y170228D02*
Y173772D01*
X270228Y172000D02*
X273772D01*
X193228Y122000D02*
X196772D01*
X195000Y120228D02*
Y123772D01*
X272047Y184276D02*
Y187819D01*
X270276Y186047D02*
X273819D01*
X219228Y111000D02*
X222772D01*
X221000Y109228D02*
Y112772D01*
X480000Y258228D02*
Y261772D01*
X478228Y260000D02*
X481772D01*
X465000Y258228D02*
Y261772D01*
X463228Y260000D02*
X466772D01*
X450000Y258228D02*
Y261772D01*
X448228Y260000D02*
X451772D01*
D95*
X515587Y145185D02*
Y155815D01*
X501413Y145185D02*
Y155815D01*
X515587D01*
X501413Y145185D02*
X515587D01*
X511587Y66185D02*
Y76815D01*
X497413Y66185D02*
Y76815D01*
X511587D01*
X497413Y66185D02*
X511587D01*
X351858Y104185D02*
Y114815D01*
X337685Y104185D02*
Y114815D01*
X351858D01*
X337685Y104185D02*
X351858D01*
X341858Y149185D02*
Y159815D01*
X327685Y149185D02*
Y159815D01*
X341858D01*
X327685Y149185D02*
X341858D01*
X33413Y170185D02*
Y180815D01*
X47587Y170185D02*
Y180815D01*
X33413Y170185D02*
X47587D01*
X33413Y180815D02*
X47587D01*
X33185Y77413D02*
X43815D01*
X33185Y91587D02*
X43815D01*
Y77413D02*
Y91587D01*
X33185Y77413D02*
Y91587D01*
X155685Y170685D02*
X216315D01*
X155685Y231315D02*
X216315D01*
Y170685D02*
Y231315D01*
X155685Y170685D02*
Y231315D01*
X138063Y188087D02*
X145937D01*
X138063Y173913D02*
X145937D01*
Y188087D01*
X138063Y173913D02*
Y188087D01*
X134063Y214913D02*
X141937D01*
X134063Y229087D02*
X141937D01*
X134063Y214913D02*
Y229087D01*
X141937Y214913D02*
Y229087D01*
X111063Y242087D02*
X118937D01*
X111063Y227913D02*
X118937D01*
X111063D02*
Y242087D01*
X118937Y227913D02*
Y242087D01*
X208063Y257827D02*
X215937D01*
X208063Y243653D02*
X215937D01*
Y257827D01*
X208063Y243653D02*
Y257827D01*
X396063Y69913D02*
X403937D01*
X396063Y84087D02*
X403937D01*
Y69913D02*
Y84087D01*
X396063Y69913D02*
Y84087D01*
X373913Y101063D02*
Y108937D01*
X388087Y101063D02*
Y108937D01*
X373913Y101063D02*
X388087D01*
X373913Y108937D02*
X388087D01*
X496413Y165504D02*
Y173378D01*
X510587Y165504D02*
Y173378D01*
X496413Y165504D02*
X510587D01*
X496413Y173378D02*
X510587D01*
X492685Y86622D02*
Y94496D01*
X506858Y86622D02*
Y94496D01*
X492685Y86622D02*
X506858D01*
X492685Y94496D02*
X506858D01*
X332685Y124535D02*
Y132409D01*
X346858Y124535D02*
Y132409D01*
X332685Y124535D02*
X346858D01*
X332685Y132409D02*
X346858D01*
X322685Y169591D02*
Y177465D01*
X336858Y169591D02*
Y177465D01*
X322685Y169591D02*
X336858D01*
X322685Y177465D02*
X336858D01*
X52315Y152528D02*
Y160402D01*
X38142Y152528D02*
Y160402D01*
X52315D01*
X38142Y152528D02*
X52315D01*
X53528Y96315D02*
X61402D01*
X53528Y82142D02*
X61402D01*
X53528D02*
Y96315D01*
X61402Y82142D02*
Y96315D01*
X152244Y248000D02*
X157756D01*
X152244Y260000D02*
X157756D01*
X152244Y248000D02*
Y260000D01*
X157756Y248000D02*
Y260000D01*
X117244Y182000D02*
X122756D01*
X117244Y194000D02*
X122756D01*
X117244Y182000D02*
Y194000D01*
X122756Y182000D02*
Y194000D01*
X117244Y212000D02*
X122756D01*
X117244Y200000D02*
X122756D01*
Y212000D01*
X117244Y200000D02*
Y212000D01*
X92244Y221000D02*
X97756D01*
X92244Y233000D02*
X97756D01*
X92244Y221000D02*
Y233000D01*
X97756Y221000D02*
Y233000D01*
X190244Y235000D02*
X195756D01*
X190244Y247000D02*
X195756D01*
X190244Y235000D02*
Y247000D01*
X195756Y235000D02*
Y247000D01*
X196244Y240000D02*
X201756D01*
X196244Y252000D02*
X201756D01*
X196244Y240000D02*
Y252000D01*
X201756Y240000D02*
Y252000D01*
X147244Y188000D02*
X152756D01*
X147244Y176000D02*
X152756D01*
Y188000D01*
X147244Y176000D02*
Y188000D01*
X142244Y215000D02*
X147756D01*
X142244Y227000D02*
X147756D01*
X142244Y215000D02*
Y227000D01*
X147756Y215000D02*
Y227000D01*
X220244Y207000D02*
X225756D01*
X220244Y195000D02*
X225756D01*
Y207000D01*
X220244Y195000D02*
Y207000D01*
X121244Y241000D02*
X126756D01*
X121244Y229000D02*
X126756D01*
X121244D02*
Y241000D01*
X126756Y229000D02*
Y241000D01*
X157244Y178000D02*
X162756D01*
X157244Y166000D02*
X162756D01*
Y178000D01*
X157244Y166000D02*
Y178000D01*
X99244Y221000D02*
X104756D01*
X99244Y233000D02*
X104756D01*
X99244Y221000D02*
Y233000D01*
X104756Y221000D02*
Y233000D01*
X248244Y228000D02*
X253756D01*
X248244Y240000D02*
X253756D01*
X248244Y228000D02*
Y240000D01*
X253756Y228000D02*
Y240000D01*
X248244Y226000D02*
X253756D01*
X248244Y214000D02*
X253756D01*
Y226000D01*
X248244Y214000D02*
Y226000D01*
X304244Y223000D02*
X309756D01*
X304244Y211000D02*
X309756D01*
Y223000D01*
X304244Y211000D02*
Y223000D01*
X297244D02*
X302756D01*
X297244Y211000D02*
X302756D01*
Y223000D01*
X297244Y211000D02*
Y223000D01*
X202244Y252000D02*
X207756D01*
X202244Y240000D02*
X207756D01*
Y252000D01*
X202244Y240000D02*
Y252000D01*
X533000Y121244D02*
Y126756D01*
X521000Y121244D02*
Y126756D01*
X533000D01*
X521000Y121244D02*
X533000D01*
X236000Y135244D02*
Y140756D01*
X224000Y135244D02*
Y140756D01*
X236000D01*
X224000Y135244D02*
X236000D01*
X35000Y114244D02*
Y119756D01*
X23000Y114244D02*
Y119756D01*
X35000D01*
X23000Y114244D02*
X35000D01*
X375000Y94244D02*
Y99756D01*
X387000Y94244D02*
Y99756D01*
X375000Y94244D02*
X387000D01*
X375000Y99756D02*
X387000D01*
X405244Y72000D02*
X410756D01*
X405244Y84000D02*
X410756D01*
Y72000D02*
Y84000D01*
X405244Y72000D02*
Y84000D01*
X98772Y128260D02*
X104283D01*
X98772Y140260D02*
X104283D01*
Y128260D02*
Y140260D01*
X98772Y128260D02*
Y140260D01*
X90772Y128260D02*
X96284D01*
X90772Y140260D02*
X96284D01*
Y128260D02*
Y140260D01*
X90772Y128260D02*
Y140260D01*
X81000Y128244D02*
Y133756D01*
X69000Y128244D02*
Y133756D01*
X81000D01*
X69000Y128244D02*
X81000D01*
X278244Y131000D02*
X283756D01*
X278244Y143000D02*
X283756D01*
Y131000D02*
Y143000D01*
X278244Y131000D02*
Y143000D01*
X287622Y128260D02*
X293134D01*
X287622Y140260D02*
X293134D01*
Y128260D02*
Y140260D01*
X287622Y128260D02*
Y140260D01*
X299244Y128000D02*
X304756D01*
X299244Y140000D02*
X304756D01*
Y128000D02*
Y140000D01*
X299244Y128000D02*
Y140000D01*
X454787Y135260D02*
X460299D01*
X454787Y147260D02*
X460299D01*
Y135260D02*
Y147260D01*
X454787Y135260D02*
Y147260D01*
X464787Y128260D02*
X470299D01*
X464787Y140260D02*
X470299D01*
Y128260D02*
Y140260D01*
X464787Y128260D02*
Y140260D01*
X475787Y128260D02*
X481299D01*
X475787Y140260D02*
X481299D01*
Y128260D02*
Y140260D01*
X475787Y128260D02*
Y140260D01*
X516744Y159441D02*
X522256D01*
X516744Y147441D02*
X522256D01*
X516744D02*
Y159441D01*
X522256Y147441D02*
Y159441D01*
X498500Y158685D02*
Y164197D01*
X510500Y158685D02*
Y164197D01*
X498500Y158685D02*
X510500D01*
X498500Y164197D02*
X510500D01*
X500500Y136685D02*
Y142197D01*
X512500Y136685D02*
Y142197D01*
X500500Y136685D02*
X512500D01*
X500500Y142197D02*
X512500D01*
X513016Y80559D02*
X518528D01*
X513016Y68559D02*
X518528D01*
X513016D02*
Y80559D01*
X518528Y68559D02*
Y80559D01*
X494772Y79803D02*
Y85315D01*
X506772Y79803D02*
Y85315D01*
X494772Y79803D02*
X506772D01*
X494772Y85315D02*
X506772D01*
X496772Y57803D02*
Y63315D01*
X508772Y57803D02*
Y63315D01*
X496772Y57803D02*
X508772D01*
X496772Y63315D02*
X508772D01*
X353016Y118472D02*
X358528D01*
X353016Y106472D02*
X358528D01*
X353016D02*
Y118472D01*
X358528Y106472D02*
Y118472D01*
X334772Y117717D02*
Y123228D01*
X346772Y117717D02*
Y123228D01*
X334772Y117717D02*
X346772D01*
X334772Y123228D02*
X346772D01*
X336772Y95717D02*
Y101228D01*
X348772Y95717D02*
Y101228D01*
X336772Y95717D02*
X348772D01*
X336772Y101228D02*
X348772D01*
X343016Y163528D02*
X348528D01*
X343016Y151528D02*
X348528D01*
X343016D02*
Y163528D01*
X348528Y151528D02*
Y163528D01*
X324772Y162772D02*
Y168283D01*
X336772Y162772D02*
Y168283D01*
X324772Y162772D02*
X336772D01*
X324772Y168283D02*
X336772D01*
X326772Y140772D02*
Y146283D01*
X338772Y140772D02*
Y146283D01*
X326772Y140772D02*
X338772D01*
X326772Y146283D02*
X338772D01*
X48228Y183709D02*
Y189220D01*
X36228Y183709D02*
Y189220D01*
X48228D01*
X36228Y183709D02*
X48228D01*
X50228Y161709D02*
Y167220D01*
X38228Y161709D02*
Y167220D01*
X50228D01*
X38228Y161709D02*
X50228D01*
X26472Y166465D02*
X31984D01*
X26472Y178465D02*
X31984D01*
Y166465D02*
Y178465D01*
X26472Y166465D02*
Y178465D01*
X24709Y92228D02*
X30220D01*
X24709Y80228D02*
X30220D01*
X24709D02*
Y92228D01*
X30220Y80228D02*
Y92228D01*
X46709Y94228D02*
X52220D01*
X46709Y82228D02*
X52220D01*
X46709D02*
Y94228D01*
X52220Y82228D02*
Y94228D01*
X47465Y70472D02*
Y75984D01*
X35465Y70472D02*
Y75984D01*
X47465D01*
X35465Y70472D02*
X47465D01*
X182000Y266244D02*
Y271756D01*
X170000Y266244D02*
Y271756D01*
Y266244D02*
X182000D01*
X170000Y271756D02*
X182000D01*
X415000Y260244D02*
Y265756D01*
X427000Y260244D02*
Y265756D01*
X415000D02*
X427000D01*
X415000Y260244D02*
X427000D01*
X226244Y228882D02*
X231756D01*
X226244Y239118D02*
X231756D01*
X226244Y228882D02*
Y239118D01*
X231756Y228882D02*
Y239118D01*
X255882Y228197D02*
Y233709D01*
X266118Y228197D02*
Y233709D01*
X255882D02*
X266118D01*
X255882Y228197D02*
X266118D01*
X255882Y221197D02*
Y226709D01*
X266118Y221197D02*
Y226709D01*
X255882D02*
X266118D01*
X255882Y221197D02*
X266118D01*
X312882Y218244D02*
Y223756D01*
X323118Y218244D02*
Y223756D01*
X312882D02*
X323118D01*
X312882Y218244D02*
X323118D01*
X329118Y265244D02*
Y270756D01*
X318882Y265244D02*
Y270756D01*
Y265244D02*
X329118D01*
X318882Y270756D02*
X329118D01*
X147118Y208244D02*
Y213756D01*
X136882Y208244D02*
Y213756D01*
Y208244D02*
X147118D01*
X136882Y213756D02*
X147118D01*
X244118Y213744D02*
Y219256D01*
X233882Y213744D02*
Y219256D01*
Y213744D02*
X244118D01*
X233882Y219256D02*
X244118D01*
X219882Y241244D02*
Y246756D01*
X230118Y241244D02*
Y246756D01*
X219882D02*
X230118D01*
X219882Y241244D02*
X230118D01*
X219244Y228882D02*
X224756D01*
X219244Y239118D02*
X224756D01*
X219244Y228882D02*
Y239118D01*
X224756Y228882D02*
Y239118D01*
X508118Y112244D02*
Y117756D01*
X497882Y112244D02*
Y117756D01*
X508118D01*
X497882Y112244D02*
X508118D01*
X255882Y143244D02*
Y148756D01*
X266118Y143244D02*
Y148756D01*
X255882Y143244D02*
X266118D01*
X255882Y148756D02*
X266118D01*
X37882Y136244D02*
Y141756D01*
X48118Y136244D02*
Y141756D01*
X37882Y136244D02*
X48118D01*
X37882Y141756D02*
X48118D01*
X523744Y158512D02*
X529256D01*
X523744Y148276D02*
X529256D01*
X523744D02*
Y158512D01*
X529256Y148276D02*
Y158512D01*
X520016Y79677D02*
X525528D01*
X520016Y69441D02*
X525528D01*
X520016D02*
Y79677D01*
X525528Y69441D02*
Y79677D01*
X360016Y117591D02*
X365528D01*
X360016Y107354D02*
X365528D01*
X360016D02*
Y117591D01*
X365528Y107354D02*
Y117591D01*
X350016Y162598D02*
X355528D01*
X350016Y152362D02*
X355528D01*
X350016D02*
Y162598D01*
X355528Y152362D02*
Y162598D01*
X19472Y167347D02*
X24984D01*
X19472Y177583D02*
X24984D01*
Y167347D02*
Y177583D01*
X19472Y167347D02*
Y177583D01*
X46535Y63472D02*
Y68984D01*
X36299Y63472D02*
Y68984D01*
X46535D01*
X36299Y63472D02*
X46535D01*
X232882Y188244D02*
Y193756D01*
X243118Y188244D02*
Y193756D01*
X232882D02*
X243118D01*
X232882Y188244D02*
X243118D01*
X232882Y180244D02*
Y185756D01*
X243118Y180244D02*
Y185756D01*
X232882D02*
X243118D01*
X232882Y180244D02*
X243118D01*
X203244Y161118D02*
X208756D01*
X203244Y150882D02*
X208756D01*
Y161118D01*
X203244Y150882D02*
Y161118D01*
X195244D02*
X200756D01*
X195244Y150882D02*
X200756D01*
Y161118D01*
X195244Y150882D02*
Y161118D01*
X269244Y177118D02*
X274756D01*
X269244Y166882D02*
X274756D01*
X269244D02*
Y177118D01*
X274756Y166882D02*
Y177118D01*
X189882Y119244D02*
Y124756D01*
X200118Y119244D02*
Y124756D01*
X189882Y119244D02*
X200118D01*
X189882Y124756D02*
X200118D01*
X269291Y180929D02*
X274803D01*
X269291Y191165D02*
X274803D01*
Y180929D02*
Y191165D01*
X269291Y180929D02*
Y191165D01*
X215882Y108244D02*
Y113756D01*
X226118Y108244D02*
Y113756D01*
X215882Y108244D02*
X226118D01*
X215882Y113756D02*
X226118D01*
X477244Y265118D02*
X482756D01*
X477244Y254882D02*
X482756D01*
Y265118D01*
X477244Y254882D02*
Y265118D01*
X462244D02*
X467756D01*
X462244Y254882D02*
X467756D01*
Y265118D01*
X462244Y254882D02*
Y265118D01*
X447244D02*
X452756D01*
X447244Y254882D02*
X452756D01*
Y265118D01*
X447244Y254882D02*
Y265118D01*
M02*
