G04 Layer_Color=255*
%FSLAX25Y25*%
%MOIN*%
G70*
G01*
G75*
%ADD11R,0.03937X0.03740*%
%ADD13R,0.03543X0.03937*%
%ADD14R,0.03937X0.03543*%
%ADD17R,0.05709X0.04528*%
%ADD23R,0.03740X0.03937*%
%ADD38C,0.06000*%
%ADD41C,0.06800*%
%ADD50R,0.04528X0.05709*%
%ADD51C,0.02520*%
%ADD52R,0.06693X0.06693*%
%ADD53R,0.06693X0.06693*%
%ADD54R,0.03347X0.01378*%
%ADD55R,0.01378X0.03347*%
%ADD56C,0.05650*%
%ADD57R,0.05650X0.05650*%
D11*
X124000Y231850D02*
D03*
Y238150D02*
D03*
X408000Y81150D02*
D03*
Y74850D02*
D03*
X101528Y137409D02*
D03*
Y131110D02*
D03*
X93528Y137409D02*
D03*
Y131110D02*
D03*
X281000Y140150D02*
D03*
Y133850D02*
D03*
X290378Y137409D02*
D03*
Y131110D02*
D03*
X302000Y137150D02*
D03*
Y130850D02*
D03*
X457543Y144410D02*
D03*
Y138110D02*
D03*
X467543Y137409D02*
D03*
Y131110D02*
D03*
X478543Y137409D02*
D03*
Y131110D02*
D03*
X519500Y150291D02*
D03*
Y156591D02*
D03*
X515772Y71409D02*
D03*
Y77709D02*
D03*
X355772Y109323D02*
D03*
Y115622D02*
D03*
X345772Y154378D02*
D03*
Y160677D02*
D03*
X29228Y175614D02*
D03*
Y169315D02*
D03*
X27465Y83079D02*
D03*
Y89378D02*
D03*
X49465Y85079D02*
D03*
Y91378D02*
D03*
D13*
X526500Y150441D02*
D03*
Y156346D02*
D03*
X522772Y71606D02*
D03*
Y77512D02*
D03*
X362772Y109520D02*
D03*
Y115425D02*
D03*
X352772Y154528D02*
D03*
Y160433D02*
D03*
X22228Y175417D02*
D03*
Y169512D02*
D03*
X272000Y169047D02*
D03*
Y174953D02*
D03*
X272047Y189000D02*
D03*
Y183095D02*
D03*
D14*
X500047Y115000D02*
D03*
X505953D02*
D03*
X263953Y146000D02*
D03*
X258047D02*
D03*
X45953Y139000D02*
D03*
X40047D02*
D03*
X38465Y66228D02*
D03*
X44370D02*
D03*
X197953Y122000D02*
D03*
X192047D02*
D03*
X223953Y111000D02*
D03*
X218047D02*
D03*
D17*
X115000Y231260D02*
D03*
Y238740D02*
D03*
X400000Y80740D02*
D03*
Y73260D02*
D03*
X57465Y85488D02*
D03*
Y92968D02*
D03*
D23*
X523850Y124000D02*
D03*
X530150D02*
D03*
X226850Y138000D02*
D03*
X233150D02*
D03*
X25850Y117000D02*
D03*
X32150D02*
D03*
X384150Y97000D02*
D03*
X377850D02*
D03*
X71850Y131000D02*
D03*
X78150D02*
D03*
X507650Y161441D02*
D03*
X501350D02*
D03*
X509650Y139441D02*
D03*
X503350D02*
D03*
X503921Y82559D02*
D03*
X497622D02*
D03*
X505921Y60559D02*
D03*
X499622D02*
D03*
X343921Y120472D02*
D03*
X337622D02*
D03*
X345921Y98472D02*
D03*
X339622D02*
D03*
X333921Y165528D02*
D03*
X327622D02*
D03*
X39079Y186465D02*
D03*
X45378D02*
D03*
X41079Y164465D02*
D03*
X47378D02*
D03*
X38315Y73228D02*
D03*
X44614D02*
D03*
X335921Y143528D02*
D03*
X329622D02*
D03*
D38*
X25000Y228000D02*
D03*
X15000Y218000D02*
D03*
Y228000D02*
D03*
X25000Y218000D02*
D03*
Y208000D02*
D03*
X15000D02*
D03*
X25000Y198000D02*
D03*
X15000D02*
D03*
X100000Y30000D02*
D03*
X15000Y238000D02*
D03*
X25000D02*
D03*
X20000Y20000D02*
D03*
Y280000D02*
D03*
X530000Y20000D02*
D03*
Y280000D02*
D03*
X60000Y30000D02*
D03*
X50000Y20000D02*
D03*
X90000D02*
D03*
X470000D02*
D03*
X480000D02*
D03*
X500000D02*
D03*
X490000D02*
D03*
X70000D02*
D03*
X80000Y30000D02*
D03*
X407165Y49299D02*
D03*
X159134D02*
D03*
D41*
X390197Y49299D02*
D03*
X176102Y61307D02*
D03*
D50*
X384740Y105000D02*
D03*
X377260D02*
D03*
X507240Y169441D02*
D03*
X499760D02*
D03*
X503512Y90559D02*
D03*
X496032D02*
D03*
X343512Y128472D02*
D03*
X336032D02*
D03*
X333512Y173528D02*
D03*
X326031D02*
D03*
X41488Y156465D02*
D03*
X48968D02*
D03*
D51*
X250650Y73807D02*
D03*
X185650D02*
D03*
X190650D02*
D03*
X195650D02*
D03*
X200650D02*
D03*
X205650D02*
D03*
X210650D02*
D03*
X215650D02*
D03*
X220650D02*
D03*
X225650D02*
D03*
X230650D02*
D03*
X235650D02*
D03*
X240650D02*
D03*
X245650D02*
D03*
X255650D02*
D03*
X260650D02*
D03*
X265650D02*
D03*
X270650D02*
D03*
X275650D02*
D03*
X280650D02*
D03*
X285650D02*
D03*
X290650D02*
D03*
X295650D02*
D03*
X300650D02*
D03*
X305650D02*
D03*
X310650D02*
D03*
X315650D02*
D03*
X320650D02*
D03*
X325650D02*
D03*
X330650D02*
D03*
X335650D02*
D03*
X340650D02*
D03*
X345650D02*
D03*
X350650D02*
D03*
X355650D02*
D03*
X360650D02*
D03*
X365650D02*
D03*
X370650D02*
D03*
X375650D02*
D03*
X380650D02*
D03*
X190650Y68807D02*
D03*
X195650D02*
D03*
X200650D02*
D03*
X205650D02*
D03*
X210650D02*
D03*
X215650D02*
D03*
X220650D02*
D03*
X225650D02*
D03*
X230650D02*
D03*
X235650D02*
D03*
X240650D02*
D03*
X245650D02*
D03*
X250650D02*
D03*
X255650D02*
D03*
X260650D02*
D03*
X265650D02*
D03*
X270650D02*
D03*
X275650D02*
D03*
X280650D02*
D03*
X285650D02*
D03*
X290650D02*
D03*
X295650D02*
D03*
X300650D02*
D03*
X305650D02*
D03*
X310650D02*
D03*
X315650D02*
D03*
X320650D02*
D03*
X325650D02*
D03*
X330650D02*
D03*
X335650D02*
D03*
X340650D02*
D03*
X345650D02*
D03*
X350650D02*
D03*
X355650D02*
D03*
X360650D02*
D03*
X365650D02*
D03*
X370650D02*
D03*
X375650D02*
D03*
X380650D02*
D03*
X185650D02*
D03*
Y53807D02*
D03*
X190650D02*
D03*
X195650D02*
D03*
X200650D02*
D03*
X205650D02*
D03*
X210650D02*
D03*
X215650D02*
D03*
X220650D02*
D03*
X225650D02*
D03*
X230650D02*
D03*
X235650D02*
D03*
X240650D02*
D03*
X245650D02*
D03*
X250650D02*
D03*
X255650D02*
D03*
X260650D02*
D03*
X265650D02*
D03*
X270650D02*
D03*
X275650D02*
D03*
X280650D02*
D03*
X285650D02*
D03*
X290650D02*
D03*
X295650D02*
D03*
X300650D02*
D03*
X305650D02*
D03*
X310650D02*
D03*
X315650D02*
D03*
X320650D02*
D03*
X325650D02*
D03*
X330650D02*
D03*
X335650D02*
D03*
X340650D02*
D03*
X345650D02*
D03*
X350650D02*
D03*
X355650D02*
D03*
X360650D02*
D03*
X365650D02*
D03*
X370650D02*
D03*
X375650D02*
D03*
X380650D02*
D03*
X185650Y48807D02*
D03*
X190650D02*
D03*
X195650D02*
D03*
X200650D02*
D03*
X205650D02*
D03*
X210650D02*
D03*
X215650D02*
D03*
X220650D02*
D03*
X225650D02*
D03*
X230650D02*
D03*
X235650D02*
D03*
X240650D02*
D03*
X245650D02*
D03*
X250650D02*
D03*
X255650D02*
D03*
X260650D02*
D03*
X265650D02*
D03*
X270650D02*
D03*
X275650D02*
D03*
X280650D02*
D03*
X285650D02*
D03*
X290650D02*
D03*
X295650D02*
D03*
X300650D02*
D03*
X305650D02*
D03*
X310650D02*
D03*
X315650D02*
D03*
X320650D02*
D03*
X325650D02*
D03*
X330650D02*
D03*
X335650D02*
D03*
X340650D02*
D03*
X345650D02*
D03*
X350650D02*
D03*
X355650D02*
D03*
X360650D02*
D03*
X365650D02*
D03*
X370650D02*
D03*
X375650D02*
D03*
X380650D02*
D03*
D52*
X530000Y105276D02*
D03*
Y114724D02*
D03*
X520000D02*
D03*
Y105276D02*
D03*
X235000Y155724D02*
D03*
Y146276D02*
D03*
X245000D02*
D03*
Y155724D02*
D03*
D53*
X21276Y129000D02*
D03*
X30724D02*
D03*
Y139000D02*
D03*
X21276D02*
D03*
D54*
X512831Y150500D02*
D03*
X504169Y153059D02*
D03*
Y147941D02*
D03*
X512831Y153059D02*
D03*
Y147941D02*
D03*
X508831Y68941D02*
D03*
Y74059D02*
D03*
X500169Y68941D02*
D03*
Y74059D02*
D03*
X508831Y71500D02*
D03*
X339102Y151941D02*
D03*
Y157059D02*
D03*
X330441Y151941D02*
D03*
Y157059D02*
D03*
X339102Y154500D02*
D03*
X349102Y109500D02*
D03*
X340441Y112059D02*
D03*
Y106941D02*
D03*
X349102Y112059D02*
D03*
Y106941D02*
D03*
X36169Y175500D02*
D03*
X44831Y172941D02*
D03*
Y178059D02*
D03*
X36169Y172941D02*
D03*
Y178059D02*
D03*
D55*
X35941Y80169D02*
D03*
X41059D02*
D03*
X35941Y88831D02*
D03*
X41059D02*
D03*
X38500Y80169D02*
D03*
D56*
X67000Y265000D02*
D03*
X77000D02*
D03*
X87000D02*
D03*
X97000D02*
D03*
X107000D02*
D03*
X117000D02*
D03*
X127000D02*
D03*
X67000Y275000D02*
D03*
X77000D02*
D03*
X87000D02*
D03*
X97000D02*
D03*
X107000D02*
D03*
X117000D02*
D03*
D57*
X127000D02*
D03*
M02*
