G04 Layer_Physical_Order=2*
G04 Layer_Color=32768*
%FSLAX25Y25*%
%MOIN*%
G70*
G01*
G75*
%ADD43C,0.04000*%
%ADD44C,0.07000*%
%ADD45C,0.17779*%
%ADD46C,0.08000*%
%ADD47C,0.09000*%
%ADD48C,0.05500*%
D43*
X0Y0D02*
X550000D01*
Y300000D01*
X0D02*
X550000D01*
X0Y0D02*
Y300000D01*
D44*
X25000Y228000D02*
D03*
X15000Y218000D02*
D03*
Y228000D02*
D03*
X25000Y218000D02*
D03*
Y208000D02*
D03*
X15000D02*
D03*
X25000Y198000D02*
D03*
X15000D02*
D03*
X100000Y30000D02*
D03*
X15000Y238000D02*
D03*
X25000D02*
D03*
X60000Y30000D02*
D03*
X50000Y20000D02*
D03*
X90000D02*
D03*
X470000D02*
D03*
X480000D02*
D03*
X500000D02*
D03*
X490000D02*
D03*
X70000D02*
D03*
X80000Y30000D02*
D03*
D45*
X20000Y20000D02*
D03*
Y280000D02*
D03*
X530000Y20000D02*
D03*
Y280000D02*
D03*
X407165Y49299D02*
D03*
X159134D02*
D03*
D46*
X67000Y265000D02*
D03*
X77000D02*
D03*
X87000D02*
D03*
X97000D02*
D03*
X107000D02*
D03*
X117000D02*
D03*
X127000D02*
D03*
X67000Y275000D02*
D03*
X77000D02*
D03*
X97000D02*
D03*
X107000D02*
D03*
X117000D02*
D03*
X127000D02*
D03*
D47*
X390197Y49299D02*
D03*
X176102Y61307D02*
D03*
D48*
X206000Y147000D02*
D03*
X198000D02*
D03*
X343000Y58000D02*
D03*
X349000D02*
D03*
X420000Y87000D02*
D03*
X426000Y94000D02*
D03*
X401000Y111000D02*
D03*
X406000Y114000D02*
D03*
X372000Y105000D02*
D03*
X293000Y58000D02*
D03*
X283000D02*
D03*
X252000Y64000D02*
D03*
X255325Y58675D02*
D03*
X260650Y59000D02*
D03*
X241500Y64000D02*
D03*
X236000D02*
D03*
X237000Y59000D02*
D03*
X228000Y64000D02*
D03*
X185000Y144000D02*
D03*
X273000Y58000D02*
D03*
X184000Y137000D02*
D03*
X180000Y131000D02*
D03*
X182000Y122000D02*
D03*
X177000Y101000D02*
D03*
X169000D02*
D03*
X164000Y106000D02*
D03*
X163000Y99000D02*
D03*
X84000Y147000D02*
D03*
X270000Y200000D02*
D03*
X232000Y117000D02*
D03*
X236000Y111000D02*
D03*
X260000Y160000D02*
D03*
X208000Y111000D02*
D03*
X459000Y125000D02*
D03*
X281000Y124000D02*
D03*
X85000Y125000D02*
D03*
X95000Y235000D02*
D03*
X449500Y41500D02*
D03*
X370000Y40500D02*
D03*
X362500D02*
D03*
X386500Y68500D02*
D03*
X126500Y72000D02*
D03*
X355000Y35500D02*
D03*
X333500Y58000D02*
D03*
X332500Y35500D02*
D03*
X429000Y62500D02*
D03*
X340000Y35500D02*
D03*
X440500Y67500D02*
D03*
X315000Y35500D02*
D03*
X427500Y41500D02*
D03*
X438500D02*
D03*
X483000Y110000D02*
D03*
X478000Y108000D02*
D03*
X290378Y125260D02*
D03*
X478197D02*
D03*
X496500Y161441D02*
D03*
X494500Y169441D02*
D03*
X526500Y162394D02*
D03*
X519500Y161441D02*
D03*
X515772Y82559D02*
D03*
X522772Y83512D02*
D03*
X490772Y90559D02*
D03*
X492772Y82559D02*
D03*
X355772Y120472D02*
D03*
X362772Y121425D02*
D03*
X332772Y120472D02*
D03*
X330772Y128472D02*
D03*
X322772Y165528D02*
D03*
X320772Y173528D02*
D03*
X352772Y166480D02*
D03*
X345772Y165528D02*
D03*
X52228Y164465D02*
D03*
X22228Y163512D02*
D03*
X29228Y164465D02*
D03*
X49465Y73228D02*
D03*
X50417Y66228D02*
D03*
X57465Y98228D02*
D03*
X49465Y96228D02*
D03*
X372299Y64614D02*
D03*
X377299Y78000D02*
D03*
X362000Y64000D02*
D03*
X457543Y132260D02*
D03*
X467543Y125260D02*
D03*
X250000Y34000D02*
D03*
X240000Y36000D02*
D03*
X191000Y59000D02*
D03*
X205000Y85000D02*
D03*
X210000Y89000D02*
D03*
X225000Y59000D02*
D03*
X230157D02*
D03*
X261000Y109000D02*
D03*
Y101000D02*
D03*
X265500Y44000D02*
D03*
Y64000D02*
D03*
X271000D02*
D03*
X269500Y90500D02*
D03*
X273500Y86000D02*
D03*
X131000Y38000D02*
D03*
Y46500D02*
D03*
X136000Y34000D02*
D03*
Y42000D02*
D03*
X142000Y56500D02*
D03*
X286000Y64000D02*
D03*
X278000D02*
D03*
X288500Y86000D02*
D03*
X296500Y64000D02*
D03*
X302500D02*
D03*
X309500D02*
D03*
X317000D02*
D03*
X313000Y58000D02*
D03*
X323000D02*
D03*
X83000Y131000D02*
D03*
X93000Y125000D02*
D03*
X103000D02*
D03*
X54228Y156465D02*
D03*
X281000Y129000D02*
D03*
X300000Y125000D02*
D03*
X310000Y79000D02*
D03*
X303000Y112000D02*
D03*
Y105000D02*
D03*
X295205Y92000D02*
D03*
X257000Y171000D02*
D03*
X265000Y190000D02*
D03*
X150000Y191000D02*
D03*
X142000D02*
D03*
X129000Y214000D02*
D03*
X196047Y203953D02*
D03*
X200000Y200000D02*
D03*
X227850Y204150D02*
D03*
X111000Y219000D02*
D03*
X237000Y206000D02*
D03*
X304500Y166000D02*
D03*
X276000Y152500D02*
D03*
X248000Y183000D02*
D03*
Y191000D02*
D03*
X235000Y163000D02*
D03*
X64000Y241500D02*
D03*
X70000Y236000D02*
D03*
X152500Y215500D02*
D03*
Y203500D02*
D03*
Y209500D02*
D03*
X173500Y202500D02*
D03*
X176850Y206350D02*
D03*
X174500Y219000D02*
D03*
X173000Y209500D02*
D03*
X177000Y212500D02*
D03*
Y199000D02*
D03*
X180500Y217500D02*
D03*
X333500Y201500D02*
D03*
X190921Y166079D02*
D03*
X186984Y150016D02*
D03*
X189000Y158000D02*
D03*
X180000Y183500D02*
D03*
X187000D02*
D03*
X198000D02*
D03*
X192890Y183390D02*
D03*
X141000Y149500D02*
D03*
Y142000D02*
D03*
X132000Y149500D02*
D03*
Y142000D02*
D03*
X408000Y69000D02*
D03*
X298500Y58000D02*
D03*
X305000D02*
D03*
X124500Y149500D02*
D03*
X119000D02*
D03*
X124500Y142000D02*
D03*
X119000D02*
D03*
X146000Y95000D02*
D03*
X141000Y99500D02*
D03*
X323000Y198000D02*
D03*
X203500Y215500D02*
D03*
X229000Y217500D02*
D03*
X220000Y211500D02*
D03*
X200500D02*
D03*
X193500Y209000D02*
D03*
X276000Y32000D02*
D03*
X304000Y23000D02*
D03*
X434358Y263000D02*
D03*
X425000Y247500D02*
D03*
X432000Y241000D02*
D03*
X452500Y235000D02*
D03*
M02*
