G04 Layer_Physical_Order=3*
G04 Layer_Color=128*
%FSLAX25Y25*%
%MOIN*%
G70*
G01*
G75*
%ADD31C,0.01500*%
%ADD43C,0.04000*%
%ADD44C,0.09000*%
%ADD45C,0.17779*%
%ADD46C,0.08000*%
%ADD47C,0.07000*%
%ADD48C,0.05500*%
%ADD49C,0.00787*%
D31*
X493000Y69000D02*
X500000Y76000D01*
X484000Y133000D02*
X491000Y126000D01*
Y106000D02*
Y126000D01*
Y106000D02*
X500000Y97000D01*
X474000Y133000D02*
X484000D01*
X474000Y78000D02*
X483000Y69000D01*
X474000Y78000D02*
Y133000D01*
X483000Y69000D02*
X493000D01*
X500000Y76000D02*
Y97000D01*
X462000Y121000D02*
Y142000D01*
Y121000D02*
X474000D01*
Y143000D01*
X477000Y146000D01*
X503500Y158500D02*
Y175000D01*
X475000D02*
X503500D01*
X462000Y162000D02*
X475000Y175000D01*
X462000Y142000D02*
Y162000D01*
X491000Y146000D02*
X503500Y158500D01*
X477000Y146000D02*
X491000D01*
X292000Y183000D02*
X342000D01*
X287000D02*
X292000D01*
X286000D02*
X287000D01*
X286000Y117000D02*
Y183000D01*
Y117000D02*
X295000D01*
X321000Y162000D02*
X343000D01*
Y183000D01*
X342000D02*
X343000D01*
X295000Y136000D02*
X341000D01*
Y100000D02*
Y136000D01*
X295000Y100000D02*
X341000D01*
X295000D02*
Y117000D01*
Y136000D01*
X321000Y162000D01*
D43*
X0Y0D02*
Y300000D01*
X550000D01*
Y0D02*
Y300000D01*
X0Y0D02*
X550000D01*
D44*
X390197Y49299D02*
D03*
X176102Y61307D02*
D03*
D45*
X407165Y49299D02*
D03*
X159134D02*
D03*
X530000Y280000D02*
D03*
Y20000D02*
D03*
X20000Y280000D02*
D03*
Y20000D02*
D03*
D46*
X127000Y275000D02*
D03*
X117000D02*
D03*
X107000D02*
D03*
X97000D02*
D03*
X87000D02*
D03*
X77000D02*
D03*
X67000D02*
D03*
X127000Y265000D02*
D03*
X107000D02*
D03*
X97000D02*
D03*
X87000D02*
D03*
X77000D02*
D03*
X67000D02*
D03*
D47*
X80000Y30000D02*
D03*
X70000Y20000D02*
D03*
X490000D02*
D03*
X500000D02*
D03*
X480000D02*
D03*
X470000D02*
D03*
X90000D02*
D03*
X50000D02*
D03*
X60000Y30000D02*
D03*
X25000Y238000D02*
D03*
X15000D02*
D03*
X100000Y30000D02*
D03*
X15000Y198000D02*
D03*
X25000D02*
D03*
X15000Y208000D02*
D03*
X25000D02*
D03*
Y218000D02*
D03*
X15000Y228000D02*
D03*
Y218000D02*
D03*
X25000Y228000D02*
D03*
D48*
X149000Y75000D02*
D03*
X200000Y59000D02*
D03*
X350000Y257500D02*
D03*
X257500Y180000D02*
D03*
X147500Y140000D02*
D03*
X37500Y287500D02*
D03*
Y267500D02*
D03*
X25000Y252500D02*
D03*
X262500Y285000D02*
D03*
X225000Y282500D02*
D03*
X375000Y120000D02*
D03*
X237500Y100000D02*
D03*
X195000D02*
D03*
X437500Y192500D02*
D03*
X400000D02*
D03*
X420000Y175000D02*
D03*
X382500D02*
D03*
X437500Y162500D02*
D03*
X400000D02*
D03*
X500000Y195000D02*
D03*
Y232500D02*
D03*
X512500Y212500D02*
D03*
Y250000D02*
D03*
X525000Y195000D02*
D03*
Y232500D02*
D03*
X537500Y212500D02*
D03*
Y250000D02*
D03*
X452500Y235000D02*
D03*
X350000Y7500D02*
D03*
X387500D02*
D03*
X275000D02*
D03*
X200000D02*
D03*
X125000D02*
D03*
X196000Y283000D02*
D03*
X113000Y169000D02*
D03*
X18000Y102000D02*
D03*
X14000Y67000D02*
D03*
X37000Y50000D02*
D03*
X30000Y35000D02*
D03*
X18000Y44000D02*
D03*
X457500Y280453D02*
D03*
X472500D02*
D03*
X432000Y241000D02*
D03*
X425000Y247500D02*
D03*
X415858Y280858D02*
D03*
X366642D02*
D03*
X304000Y23000D02*
D03*
X276000Y32000D02*
D03*
X301000Y44000D02*
D03*
X193500Y209000D02*
D03*
X200500Y211500D02*
D03*
X220000D02*
D03*
X229000Y217500D02*
D03*
X203500Y215500D02*
D03*
X188500Y218500D02*
D03*
X323000Y198000D02*
D03*
X141000Y99500D02*
D03*
X146000Y95000D02*
D03*
X119000Y142000D02*
D03*
X124500D02*
D03*
X119000Y149500D02*
D03*
X124500D02*
D03*
X305000Y58000D02*
D03*
X298500D02*
D03*
X132000Y142000D02*
D03*
Y149500D02*
D03*
X141000Y142000D02*
D03*
Y149500D02*
D03*
X192890Y183390D02*
D03*
X198000Y183500D02*
D03*
X187000D02*
D03*
X180000D02*
D03*
X189000Y158000D02*
D03*
X186984Y150016D02*
D03*
X190921Y166079D02*
D03*
X256500Y237500D02*
D03*
X333500Y201500D02*
D03*
X180500Y217500D02*
D03*
X170500Y194500D02*
D03*
X177000Y199000D02*
D03*
Y212500D02*
D03*
X173000Y209500D02*
D03*
X174500Y219000D02*
D03*
X176850Y206350D02*
D03*
X173500Y202500D02*
D03*
X152500Y209500D02*
D03*
Y203500D02*
D03*
Y215500D02*
D03*
X70000Y236000D02*
D03*
X64000Y241500D02*
D03*
X235000Y163000D02*
D03*
X276000Y152500D02*
D03*
X304500Y166000D02*
D03*
X281000Y145000D02*
D03*
X138000Y231000D02*
D03*
X300000Y208500D02*
D03*
X307000Y209000D02*
D03*
X160500Y266500D02*
D03*
X181500Y245500D02*
D03*
X328961Y292039D02*
D03*
X282500D02*
D03*
X237000Y206000D02*
D03*
X512941Y169441D02*
D03*
Y161441D02*
D03*
X349472Y128472D02*
D03*
X111000Y219000D02*
D03*
X351000Y96000D02*
D03*
X338953Y280953D02*
D03*
X212000Y260000D02*
D03*
X235000Y237000D02*
D03*
X303000Y259311D02*
D03*
X209000Y227000D02*
D03*
X205000Y255000D02*
D03*
X199000D02*
D03*
X193000Y250000D02*
D03*
X228000Y197850D02*
D03*
X200000Y200000D02*
D03*
X196047Y203953D02*
D03*
X145000Y229000D02*
D03*
X120000Y197000D02*
D03*
X142000Y171000D02*
D03*
X150000Y173000D02*
D03*
X160000Y164000D02*
D03*
X265000Y190000D02*
D03*
X257000Y171000D02*
D03*
X295205Y92000D02*
D03*
X303000Y105000D02*
D03*
Y112000D02*
D03*
X310000Y79000D02*
D03*
X302000Y142000D02*
D03*
X67000Y131000D02*
D03*
X323000Y58000D02*
D03*
X313000D02*
D03*
X317000Y64000D02*
D03*
X350000Y78000D02*
D03*
X309500Y64000D02*
D03*
X302500D02*
D03*
X296500D02*
D03*
X288500Y86000D02*
D03*
X278000Y64000D02*
D03*
X286000D02*
D03*
X142000Y56500D02*
D03*
X136000Y42000D02*
D03*
Y34000D02*
D03*
X131000Y46500D02*
D03*
Y38000D02*
D03*
X273500Y86000D02*
D03*
X269500Y90500D02*
D03*
X271000Y64000D02*
D03*
X265500D02*
D03*
Y44000D02*
D03*
Y78000D02*
D03*
X261000Y101000D02*
D03*
Y109000D02*
D03*
X230157Y59000D02*
D03*
X225000D02*
D03*
X217000D02*
D03*
X210000Y89000D02*
D03*
X205000Y85000D02*
D03*
X191000Y59000D02*
D03*
X220000Y78000D02*
D03*
X185000Y59000D02*
D03*
X240000Y36000D02*
D03*
X250000Y34000D02*
D03*
X76000Y125000D02*
D03*
X180000Y75000D02*
D03*
X376000Y44000D02*
D03*
X346000D02*
D03*
X331000D02*
D03*
X316000D02*
D03*
X286000D02*
D03*
X271000D02*
D03*
X256000D02*
D03*
X241000D02*
D03*
X280000Y78000D02*
D03*
X355000Y64000D02*
D03*
X291000D02*
D03*
X274000Y125000D02*
D03*
X382299Y78000D02*
D03*
X369000D02*
D03*
X362299D02*
D03*
X302299D02*
D03*
X202299D02*
D03*
X33465Y73228D02*
D03*
X23465Y83228D02*
D03*
X39228Y190465D02*
D03*
X29228Y180465D02*
D03*
X36228Y156465D02*
D03*
Y164465D02*
D03*
X345772Y149528D02*
D03*
X338772Y173528D02*
D03*
Y165528D02*
D03*
X355772Y104472D02*
D03*
X508772Y82559D02*
D03*
Y90559D02*
D03*
X515772Y66559D02*
D03*
X505772Y56559D02*
D03*
X509500Y135441D02*
D03*
X519500Y145441D02*
D03*
X478543Y142260D02*
D03*
X467543D02*
D03*
X457543Y149260D02*
D03*
X290378Y142260D02*
D03*
X306126Y125260D02*
D03*
X93528Y142260D02*
D03*
X101528D02*
D03*
X478000Y108000D02*
D03*
X483000Y110000D02*
D03*
X438500Y41500D02*
D03*
X427500D02*
D03*
X315000Y35500D02*
D03*
X440500Y67500D02*
D03*
X340000Y35500D02*
D03*
X429000Y62500D02*
D03*
X332500Y35500D02*
D03*
X333500Y58000D02*
D03*
X355000Y35500D02*
D03*
X126500Y72000D02*
D03*
X355000Y58000D02*
D03*
X362500Y40500D02*
D03*
X370000D02*
D03*
X449500Y41500D02*
D03*
X109276Y125260D02*
D03*
X74650Y222142D02*
D03*
X102000Y235000D02*
D03*
X115000Y226000D02*
D03*
X124000D02*
D03*
X20000Y117000D02*
D03*
X85000Y125000D02*
D03*
X281000Y124000D02*
D03*
X245000Y163000D02*
D03*
X518000Y124000D02*
D03*
X485000Y125000D02*
D03*
X459000D02*
D03*
X450000D02*
D03*
X520000Y98000D02*
D03*
X208000Y111000D02*
D03*
X260000Y160000D02*
D03*
X236000Y111000D02*
D03*
X232000Y117000D02*
D03*
X270000Y200000D02*
D03*
X84000Y147000D02*
D03*
X163000Y99000D02*
D03*
X164000Y106000D02*
D03*
X169000Y101000D02*
D03*
X177000D02*
D03*
X182000Y122000D02*
D03*
X180000Y131000D02*
D03*
X184000Y137000D02*
D03*
X273000Y58000D02*
D03*
X185000Y144000D02*
D03*
X228000Y64000D02*
D03*
X237000Y59000D02*
D03*
X236000Y64000D02*
D03*
X241500D02*
D03*
X260650Y59000D02*
D03*
X255325Y58675D02*
D03*
X252000Y64000D02*
D03*
X283000Y58000D02*
D03*
X293000D02*
D03*
X246000Y80000D02*
D03*
X256000Y217000D02*
D03*
X390000Y105000D02*
D03*
X413000Y81000D02*
D03*
X406000Y114000D02*
D03*
X401000Y111000D02*
D03*
X426000Y94000D02*
D03*
X420000Y87000D02*
D03*
X349000Y58000D02*
D03*
X343000D02*
D03*
X335772Y139528D02*
D03*
X221000Y138000D02*
D03*
X61000Y222000D02*
D03*
X350000Y121000D02*
D03*
D49*
X51000Y86000D02*
X80000D01*
X97000Y103000D01*
Y131000D01*
X44000Y93000D02*
Y103000D01*
Y93000D02*
X51000Y86000D01*
X54000Y113000D02*
X74000D01*
X44000Y103000D02*
X54000Y113000D01*
X97000Y117000D02*
Y134000D01*
X92000Y139000D02*
X97000Y134000D01*
X62000Y139000D02*
X92000D01*
X109000Y117000D02*
Y149000D01*
X87000Y171000D02*
X109000Y149000D01*
X50000Y171000D02*
X87000D01*
X45000Y156000D02*
Y166000D01*
X50000Y171000D01*
X45000Y156000D02*
X62000Y139000D01*
X97000Y117000D02*
X109000D01*
X74000Y113000D02*
X92000Y131000D01*
X97000D01*
M02*
