G04 Layer_Color=16711935*
%FSLAX25Y25*%
%MOIN*%
G70*
G01*
G75*
%ADD92C,0.00394*%
D92*
X167890Y221079D02*
G03*
X167890Y221079I-1969J0D01*
G01*
X388737Y49896D02*
G03*
X388711Y48682I594J-621D01*
G01*
X389810Y47309D02*
G03*
X390590Y47290I399J381D01*
G01*
X391690Y48663D02*
G03*
X391663Y49878I-621J594D01*
G01*
X390617Y51287D02*
G03*
X389837Y51269I-381J-399D01*
G01*
X156772Y250654D02*
Y257347D01*
X153228Y250654D02*
Y257347D01*
X156772D01*
X153228Y250654D02*
X156772D01*
X121772Y184653D02*
Y191347D01*
X118228Y184653D02*
Y191347D01*
X121772D01*
X118228Y184653D02*
X121772D01*
X118228Y202654D02*
Y209347D01*
X121772Y202654D02*
Y209347D01*
X118228Y202654D02*
X121772D01*
X118228Y209347D02*
X121772D01*
X230772Y230654D02*
Y237347D01*
X227228Y230654D02*
Y237347D01*
X230772D01*
X227228Y230654D02*
X230772D01*
X257653Y229181D02*
X264347D01*
X257653Y232724D02*
X264347D01*
Y229181D02*
Y232724D01*
X257653Y229181D02*
Y232724D01*
Y222181D02*
X264347D01*
X257653Y225724D02*
X264347D01*
Y222181D02*
Y225724D01*
X257653Y222181D02*
Y225724D01*
X314653Y219228D02*
X321346D01*
X314653Y222772D02*
X321346D01*
Y219228D02*
Y222772D01*
X314653Y219228D02*
Y222772D01*
X320654Y269772D02*
X327346D01*
X320654Y266228D02*
X327346D01*
X320654D02*
Y269772D01*
X327346Y266228D02*
Y269772D01*
X138654Y212772D02*
X145346D01*
X138654Y209228D02*
X145346D01*
X138654D02*
Y212772D01*
X145346Y209228D02*
Y212772D01*
X96772Y223654D02*
Y230346D01*
X93228Y223654D02*
Y230346D01*
X96772D01*
X93228Y223654D02*
X96772D01*
X235653Y218272D02*
X242347D01*
X235653Y214728D02*
X242347D01*
X235653D02*
Y218272D01*
X242347Y214728D02*
Y218272D01*
X221654Y242228D02*
X228346D01*
X221654Y245772D02*
X228346D01*
Y242228D02*
Y245772D01*
X221654Y242228D02*
Y245772D01*
X223772Y230654D02*
Y237347D01*
X220228Y230654D02*
Y237347D01*
X223772D01*
X220228Y230654D02*
X223772D01*
X194772Y237653D02*
Y244346D01*
X191228Y237653D02*
Y244346D01*
X194772D01*
X191228Y237653D02*
X194772D01*
X200772Y242653D02*
Y249346D01*
X197228Y242653D02*
Y249346D01*
X200772D01*
X197228Y242653D02*
X200772D01*
X139146Y176669D02*
Y185331D01*
X144854Y176669D02*
Y185331D01*
X139146Y176669D02*
X144854D01*
X139146Y185331D02*
X144854D01*
X148228Y178654D02*
Y185346D01*
X151772Y178654D02*
Y185346D01*
X148228Y178654D02*
X151772D01*
X148228Y185346D02*
X151772D01*
X140854Y217669D02*
Y226331D01*
X135146Y217669D02*
Y226331D01*
X140854D01*
X135146Y217669D02*
X140854D01*
X146772Y217653D02*
Y224346D01*
X143228Y217653D02*
Y224346D01*
X146772D01*
X143228Y217653D02*
X146772D01*
X221228Y197653D02*
Y204346D01*
X224772Y197653D02*
Y204346D01*
X221228Y197653D02*
X224772D01*
X221228Y204346D02*
X224772D01*
X158228Y168654D02*
Y175347D01*
X161772Y168654D02*
Y175347D01*
X158228Y168654D02*
X161772D01*
X158228Y175347D02*
X161772D01*
X103772Y223654D02*
Y230346D01*
X100228Y223654D02*
Y230346D01*
X103772D01*
X100228Y223654D02*
X103772D01*
X252772Y230654D02*
Y237347D01*
X249228Y230654D02*
Y237347D01*
X252772D01*
X249228Y230654D02*
X252772D01*
X249228Y216653D02*
Y223346D01*
X252772Y216653D02*
Y223346D01*
X249228Y216653D02*
X252772D01*
X249228Y223346D02*
X252772D01*
X305228Y213653D02*
Y220346D01*
X308772Y213653D02*
Y220346D01*
X305228Y213653D02*
X308772D01*
X305228Y220346D02*
X308772D01*
X298228Y213653D02*
Y220346D01*
X301772Y213653D02*
Y220346D01*
X298228Y213653D02*
X301772D01*
X298228Y220346D02*
X301772D01*
X209146Y246410D02*
Y255071D01*
X214854Y246410D02*
Y255071D01*
X209146Y246410D02*
X214854D01*
X209146Y255071D02*
X214854D01*
X203228Y242653D02*
Y249346D01*
X206772Y242653D02*
Y249346D01*
X203228Y242653D02*
X206772D01*
X203228Y249346D02*
X206772D01*
X234653Y189228D02*
X241347D01*
X234653Y192772D02*
X241347D01*
Y189228D02*
Y192772D01*
X234653Y189228D02*
Y192772D01*
Y181228D02*
X241347D01*
X234653Y184772D02*
X241347D01*
Y181228D02*
Y184772D01*
X234653Y181228D02*
Y184772D01*
X204228Y152654D02*
Y159346D01*
X207772Y152654D02*
Y159346D01*
X204228Y152654D02*
X207772D01*
X204228Y159346D02*
X207772D01*
X196228Y152654D02*
Y159346D01*
X199772Y152654D02*
Y159346D01*
X196228Y152654D02*
X199772D01*
X196228Y159346D02*
X199772D01*
X162378Y177378D02*
Y224622D01*
X209622Y177378D02*
Y224622D01*
X162378D02*
X209622D01*
X162378Y177378D02*
X209622D01*
X172653Y270772D02*
X179347D01*
X172653Y267228D02*
X179347D01*
X172653D02*
Y270772D01*
X179347Y267228D02*
Y270772D01*
X417654Y261228D02*
X424346D01*
X417654Y264772D02*
X424346D01*
Y261228D02*
Y264772D01*
X417654Y261228D02*
Y264772D01*
X499653Y113228D02*
X506347D01*
X499653Y116772D02*
X506347D01*
X499653Y113228D02*
Y116772D01*
X506347Y113228D02*
Y116772D01*
X257653Y147772D02*
X264347D01*
X257653Y144228D02*
X264347D01*
Y147772D01*
X257653Y144228D02*
Y147772D01*
X39654Y140772D02*
X46346D01*
X39654Y137228D02*
X46346D01*
Y140772D01*
X39654Y137228D02*
Y140772D01*
X117854Y230669D02*
Y239331D01*
X112146Y230669D02*
Y239331D01*
Y230669D02*
X117854D01*
X112146Y239331D02*
X117854D01*
X125772Y231653D02*
Y238347D01*
X122228Y231653D02*
Y238347D01*
Y231653D02*
X125772D01*
X122228Y238347D02*
X125772D01*
X523654Y122228D02*
X530346D01*
X523654Y125772D02*
X530346D01*
X523654Y122228D02*
Y125772D01*
X530346Y122228D02*
Y125772D01*
X226654Y136228D02*
X233347D01*
X226654Y139772D02*
X233347D01*
X226654Y136228D02*
Y139772D01*
X233347Y136228D02*
Y139772D01*
X25654Y115228D02*
X32346D01*
X25654Y118772D02*
X32346D01*
X25654Y115228D02*
Y118772D01*
X32346Y115228D02*
Y118772D01*
X397146Y72669D02*
Y81331D01*
X402854Y72669D02*
Y81331D01*
X397146D02*
X402854D01*
X397146Y72669D02*
X402854D01*
X376669Y107854D02*
X385331D01*
X376669Y102146D02*
X385331D01*
Y107854D01*
X376669Y102146D02*
Y107854D01*
X377654Y98772D02*
X384347D01*
X377654Y95228D02*
X384347D01*
Y98772D01*
X377654Y95228D02*
Y98772D01*
X406228Y74654D02*
Y81346D01*
X409772Y74654D02*
Y81346D01*
X406228D02*
X409772D01*
X406228Y74654D02*
X409772D01*
X176347Y32399D02*
X190047D01*
X173347Y35399D02*
X176347Y32399D01*
X173347Y35399D02*
Y58299D01*
X169847D02*
X173347D01*
X169847D02*
Y64299D01*
X173347D01*
Y87199D01*
X376247Y90200D02*
X389947D01*
X392947Y87199D01*
Y35399D02*
Y87199D01*
X389947Y32399D02*
X392947Y35399D01*
X376247Y32399D02*
X389947D01*
X173347Y87199D02*
X176347Y90200D01*
X190047D01*
X388711Y48682D02*
X389810Y47309D01*
X390590Y47291D02*
X391690Y48663D01*
X390617Y51287D02*
X391716Y49915D01*
X388737Y49896D02*
X389837Y51269D01*
X99756Y130913D02*
Y137606D01*
X103299Y130913D02*
Y137606D01*
X99756D02*
X103299D01*
X99756Y130913D02*
X103299D01*
X91756D02*
Y137606D01*
X95299Y130913D02*
Y137606D01*
X91756D02*
X95299D01*
X91756Y130913D02*
X95299D01*
X71653Y129228D02*
X78347D01*
X71653Y132772D02*
X78347D01*
X71653Y129228D02*
Y132772D01*
X78347Y129228D02*
Y132772D01*
X279228Y133653D02*
Y140347D01*
X282772Y133653D02*
Y140347D01*
X279228D02*
X282772D01*
X279228Y133653D02*
X282772D01*
X288606Y130913D02*
Y137606D01*
X292150Y130913D02*
Y137606D01*
X288606D02*
X292150D01*
X288606Y130913D02*
X292150D01*
X300228Y130654D02*
Y137346D01*
X303772Y130654D02*
Y137346D01*
X300228D02*
X303772D01*
X300228Y130654D02*
X303772D01*
X455772Y137913D02*
Y144606D01*
X459315Y137913D02*
Y144606D01*
X455772D02*
X459315D01*
X455772Y137913D02*
X459315D01*
X465772Y130913D02*
Y137606D01*
X469315Y130913D02*
Y137606D01*
X465772D02*
X469315D01*
X465772Y130913D02*
X469315D01*
X476772D02*
Y137606D01*
X480315Y130913D02*
Y137606D01*
X476772D02*
X480315D01*
X476772Y130913D02*
X480315D01*
X521272Y150094D02*
Y156787D01*
X517728Y150094D02*
Y156787D01*
Y150094D02*
X521272D01*
X517728Y156787D02*
X521272D01*
X501154Y163213D02*
X507846D01*
X501154Y159669D02*
X507846D01*
Y163213D01*
X501154Y159669D02*
Y163213D01*
X499169Y172295D02*
X507831D01*
X499169Y166587D02*
X507831D01*
Y172295D01*
X499169Y166587D02*
Y172295D01*
X503154Y141213D02*
X509846D01*
X503154Y137669D02*
X509846D01*
Y141213D01*
X503154Y137669D02*
Y141213D01*
X528272Y150047D02*
Y156740D01*
X524728Y150047D02*
Y156740D01*
Y150047D02*
X528272D01*
X524728Y156740D02*
X528272D01*
X517543Y71213D02*
Y77905D01*
X514000Y71213D02*
Y77905D01*
Y71213D02*
X517543D01*
X514000Y77905D02*
X517543D01*
X497425Y84331D02*
X504118D01*
X497425Y80787D02*
X504118D01*
Y84331D01*
X497425Y80787D02*
Y84331D01*
X495441Y93413D02*
X504102D01*
X495441Y87705D02*
X504102D01*
Y93413D01*
X495441Y87705D02*
Y93413D01*
X499425Y62331D02*
X506118D01*
X499425Y58787D02*
X506118D01*
Y62331D01*
X499425Y58787D02*
Y62331D01*
X524543Y71213D02*
Y77905D01*
X521000Y71213D02*
Y77905D01*
Y71213D02*
X524543D01*
X521000Y77905D02*
X524543D01*
X357543Y109126D02*
Y115819D01*
X354000Y109126D02*
Y115819D01*
Y109126D02*
X357543D01*
X354000Y115819D02*
X357543D01*
X337425Y122244D02*
X344118D01*
X337425Y118701D02*
X344118D01*
Y122244D01*
X337425Y118701D02*
Y122244D01*
X335441Y131327D02*
X344102D01*
X335441Y125618D02*
X344102D01*
Y131327D01*
X335441Y125618D02*
Y131327D01*
X339425Y100244D02*
X346118D01*
X339425Y96701D02*
X346118D01*
Y100244D01*
X339425Y96701D02*
Y100244D01*
X364543Y109126D02*
Y115819D01*
X361000Y109126D02*
Y115819D01*
Y109126D02*
X364543D01*
X361000Y115819D02*
X364543D01*
X347543Y154181D02*
Y160874D01*
X344000Y154181D02*
Y160874D01*
Y154181D02*
X347543D01*
X344000Y160874D02*
X347543D01*
X327425Y167299D02*
X334118D01*
X327425Y163756D02*
X334118D01*
Y167299D01*
X327425Y163756D02*
Y167299D01*
X325441Y176382D02*
X334102D01*
X325441Y170673D02*
X334102D01*
Y176382D01*
X325441Y170673D02*
Y176382D01*
X354543Y154134D02*
Y160827D01*
X351000Y154134D02*
Y160827D01*
Y154134D02*
X354543D01*
X351000Y160827D02*
X354543D01*
X20457Y169118D02*
Y175811D01*
X24000Y169118D02*
Y175811D01*
X20457D02*
X24000D01*
X20457Y169118D02*
X24000D01*
X38882Y184693D02*
X45575D01*
X38882Y188236D02*
X45575D01*
X38882Y184693D02*
Y188236D01*
X45575Y184693D02*
Y188236D01*
X40898Y153610D02*
X49559D01*
X40898Y159319D02*
X49559D01*
X40898Y153610D02*
Y159319D01*
X49559Y153610D02*
Y159319D01*
X40882Y162693D02*
X47575D01*
X40882Y166236D02*
X47575D01*
X40882Y162693D02*
Y166236D01*
X47575Y162693D02*
Y166236D01*
X27457Y169118D02*
Y175811D01*
X31000Y169118D02*
Y175811D01*
X27457D02*
X31000D01*
X27457Y169118D02*
X31000D01*
X38071Y64457D02*
X44764D01*
X38071Y68000D02*
X44764D01*
X38071Y64457D02*
Y68000D01*
X44764Y64457D02*
Y68000D01*
X29236Y82882D02*
Y89575D01*
X25693Y82882D02*
Y89575D01*
Y82882D02*
X29236D01*
X25693Y89575D02*
X29236D01*
X60319Y84898D02*
Y93559D01*
X54610Y84898D02*
Y93559D01*
Y84898D02*
X60319D01*
X54610Y93559D02*
X60319D01*
X51236Y84882D02*
Y91575D01*
X47693Y84882D02*
Y91575D01*
Y84882D02*
X51236D01*
X47693Y91575D02*
X51236D01*
X38118Y71457D02*
X44811D01*
X38118Y75000D02*
X44811D01*
X38118Y71457D02*
Y75000D01*
X44811Y71457D02*
Y75000D01*
X273772Y168654D02*
Y175347D01*
X270228Y168654D02*
Y175347D01*
Y168654D02*
X273772D01*
X270228Y175347D02*
X273772D01*
X191654Y123772D02*
X198346D01*
X191654Y120228D02*
X198346D01*
Y123772D01*
X191654Y120228D02*
Y123772D01*
X270276Y182701D02*
Y189394D01*
X273819Y182701D02*
Y189394D01*
X270276D02*
X273819D01*
X270276Y182701D02*
X273819D01*
X217653Y112772D02*
X224346D01*
X217653Y109228D02*
X224346D01*
Y112772D01*
X217653Y109228D02*
Y112772D01*
X505744Y146268D02*
X511256D01*
X505744Y154732D02*
X511256D01*
X505744Y146268D02*
Y154732D01*
X511256Y146268D02*
Y154732D01*
X507256Y67268D02*
Y75732D01*
X501744Y67268D02*
Y75732D01*
X507256D01*
X501744Y67268D02*
X507256D01*
X337528Y150268D02*
Y158732D01*
X332016Y150268D02*
Y158732D01*
X337528D01*
X332016Y150268D02*
X337528D01*
X342016Y105268D02*
X347528D01*
X342016Y113732D02*
X347528D01*
X342016Y105268D02*
Y113732D01*
X347528Y105268D02*
Y113732D01*
X37744Y179732D02*
X43256D01*
X37744Y171268D02*
X43256D01*
Y179732D01*
X37744Y171268D02*
Y179732D01*
X34268Y81744D02*
X42732D01*
X34268Y87256D02*
X42732D01*
Y81744D02*
Y87256D01*
X34268Y81744D02*
Y87256D01*
X329425Y145299D02*
X336118D01*
X329425Y141756D02*
X336118D01*
Y145299D01*
X329425Y141756D02*
Y145299D01*
X448228Y256653D02*
Y263347D01*
X451772Y256653D02*
Y263347D01*
X448228Y256653D02*
X451772D01*
X448228Y263347D02*
X451772D01*
X463228Y256653D02*
Y263347D01*
X466772Y256653D02*
Y263347D01*
X463228Y256653D02*
X466772D01*
X463228Y263347D02*
X466772D01*
X478228Y256653D02*
Y263347D01*
X481772Y256653D02*
Y263347D01*
X478228Y256653D02*
X481772D01*
X478228Y263347D02*
X481772D01*
M02*
