G04 Layer_Color=255*
%FSLAX25Y25*%
%MOIN*%
G70*
G01*
G75*
%ADD10R,0.06102X0.05118*%
%ADD11R,0.03937X0.03740*%
%ADD12R,0.01181X0.01772*%
%ADD13R,0.03543X0.03937*%
%ADD14R,0.03937X0.03543*%
%ADD15R,0.02362X0.02362*%
%ADD16R,0.03150X0.03150*%
%ADD17R,0.05709X0.04528*%
%ADD18R,0.01181X0.03150*%
%ADD19O,0.06890X0.01181*%
%ADD20O,0.01181X0.06890*%
%ADD21R,0.07087X0.05709*%
%ADD22R,0.07480X0.05118*%
%ADD23R,0.03740X0.03937*%
%ADD24R,0.01575X0.05315*%
%ADD25R,0.08268X0.06299*%
%ADD26R,0.07087X0.07480*%
%ADD38C,0.06000*%
%ADD39C,0.06500*%
%ADD40R,0.06500X0.06500*%
%ADD41C,0.06800*%
D10*
X51350Y222142D02*
D03*
Y239858D02*
D03*
X82650D02*
D03*
Y222142D02*
D03*
X239350Y254142D02*
D03*
Y271858D02*
D03*
X270650D02*
D03*
Y254142D02*
D03*
X405650Y280858D02*
D03*
Y263142D02*
D03*
X374350D02*
D03*
Y280858D02*
D03*
D11*
X155000Y257150D02*
D03*
Y250850D02*
D03*
X120000Y191150D02*
D03*
Y184850D02*
D03*
Y202850D02*
D03*
Y209150D02*
D03*
X95000Y230150D02*
D03*
Y223850D02*
D03*
X193000Y244150D02*
D03*
Y237850D02*
D03*
X199000Y249150D02*
D03*
Y242850D02*
D03*
X150000Y178850D02*
D03*
Y185150D02*
D03*
X145000Y224150D02*
D03*
Y217850D02*
D03*
X223000Y197850D02*
D03*
Y204150D02*
D03*
X160000Y168850D02*
D03*
Y175150D02*
D03*
X102000Y230150D02*
D03*
Y223850D02*
D03*
X251000Y237150D02*
D03*
Y230850D02*
D03*
Y216850D02*
D03*
Y223150D02*
D03*
X307000Y213850D02*
D03*
Y220150D02*
D03*
X300000Y213850D02*
D03*
Y220150D02*
D03*
X205000Y242850D02*
D03*
Y249150D02*
D03*
D12*
X306031Y263342D02*
D03*
X309968D02*
D03*
X306031Y268657D02*
D03*
X309968D02*
D03*
X308000D02*
D03*
D13*
X229000Y236953D02*
D03*
Y231047D02*
D03*
X222000Y236953D02*
D03*
Y231047D02*
D03*
X206000Y153047D02*
D03*
Y158953D02*
D03*
X198000Y153047D02*
D03*
Y158953D02*
D03*
X450000Y257047D02*
D03*
Y262953D02*
D03*
X465000Y257047D02*
D03*
Y262953D02*
D03*
X480000Y257047D02*
D03*
Y262953D02*
D03*
D14*
X263953Y230953D02*
D03*
X258047D02*
D03*
X263953Y223953D02*
D03*
X258047D02*
D03*
X320953Y221000D02*
D03*
X315047D02*
D03*
X321047Y268000D02*
D03*
X326953D02*
D03*
X139047Y211000D02*
D03*
X144953D02*
D03*
X236047Y216500D02*
D03*
X241953D02*
D03*
X227953Y244000D02*
D03*
X222047D02*
D03*
X240953Y191000D02*
D03*
X235047D02*
D03*
X240953Y183000D02*
D03*
X235047D02*
D03*
D15*
X321000Y229669D02*
D03*
Y238331D02*
D03*
D16*
X331000Y275047D02*
D03*
Y280953D02*
D03*
X450000Y274547D02*
D03*
Y280453D02*
D03*
X465000Y274547D02*
D03*
Y280453D02*
D03*
X480000Y274547D02*
D03*
Y280453D02*
D03*
D17*
X142000Y177260D02*
D03*
Y184740D02*
D03*
X138000Y225740D02*
D03*
Y218260D02*
D03*
X212000Y247000D02*
D03*
Y254480D02*
D03*
D18*
X109165Y119260D02*
D03*
X107197D02*
D03*
X105228D02*
D03*
X103260D02*
D03*
X101291D02*
D03*
X99323D02*
D03*
X97354D02*
D03*
X95386D02*
D03*
X93417D02*
D03*
X91449D02*
D03*
X89480D02*
D03*
X85543D02*
D03*
X87512D02*
D03*
X83575D02*
D03*
X81606D02*
D03*
X79638D02*
D03*
X77669D02*
D03*
X75701D02*
D03*
X73732D02*
D03*
X71764D02*
D03*
X69795D02*
D03*
X67827D02*
D03*
X65858D02*
D03*
X63890D02*
D03*
X306016D02*
D03*
X304047D02*
D03*
X302079D02*
D03*
X300110D02*
D03*
X298142D02*
D03*
X296173D02*
D03*
X294205D02*
D03*
X292236D02*
D03*
X290268D02*
D03*
X288299D02*
D03*
X286331D02*
D03*
X282394D02*
D03*
X284362D02*
D03*
X280425D02*
D03*
X278457D02*
D03*
X276488D02*
D03*
X274520D02*
D03*
X272551D02*
D03*
X270583D02*
D03*
X268614D02*
D03*
X266646D02*
D03*
X264677D02*
D03*
X262709D02*
D03*
X260740D02*
D03*
X483181D02*
D03*
X481213D02*
D03*
X479244D02*
D03*
X477276D02*
D03*
X475307D02*
D03*
X473339D02*
D03*
X471370D02*
D03*
X469402D02*
D03*
X467433D02*
D03*
X465465D02*
D03*
X463496D02*
D03*
X459559D02*
D03*
X461528D02*
D03*
X457590D02*
D03*
X455622D02*
D03*
X453653D02*
D03*
X451685D02*
D03*
X449717D02*
D03*
X447748D02*
D03*
X445780D02*
D03*
X443811D02*
D03*
X441843D02*
D03*
X439874D02*
D03*
X437906D02*
D03*
D19*
X160114Y219701D02*
D03*
Y217732D02*
D03*
Y215764D02*
D03*
Y213795D02*
D03*
Y211827D02*
D03*
Y209858D02*
D03*
Y207890D02*
D03*
Y205921D02*
D03*
Y203953D02*
D03*
Y201984D02*
D03*
Y200016D02*
D03*
Y198047D02*
D03*
Y196079D02*
D03*
Y194110D02*
D03*
Y192142D02*
D03*
Y190173D02*
D03*
Y188205D02*
D03*
Y186236D02*
D03*
Y184268D02*
D03*
Y182299D02*
D03*
X211886D02*
D03*
Y184268D02*
D03*
Y186236D02*
D03*
Y188205D02*
D03*
Y190173D02*
D03*
Y192142D02*
D03*
Y194110D02*
D03*
Y196079D02*
D03*
Y198047D02*
D03*
Y200016D02*
D03*
Y201984D02*
D03*
Y203953D02*
D03*
Y205921D02*
D03*
Y207890D02*
D03*
Y209858D02*
D03*
Y211827D02*
D03*
Y213795D02*
D03*
Y215764D02*
D03*
Y217732D02*
D03*
Y219701D02*
D03*
D20*
X167299Y175114D02*
D03*
X169268D02*
D03*
X171236D02*
D03*
X173205D02*
D03*
X175173D02*
D03*
X177142D02*
D03*
X179110D02*
D03*
X181079D02*
D03*
X183047D02*
D03*
X185016D02*
D03*
X186984D02*
D03*
X188953D02*
D03*
X190921D02*
D03*
X192890D02*
D03*
X194858D02*
D03*
X196827D02*
D03*
X198795D02*
D03*
X200764D02*
D03*
X202732D02*
D03*
X204701D02*
D03*
Y226886D02*
D03*
X202732D02*
D03*
X200764D02*
D03*
X198795D02*
D03*
X196827D02*
D03*
X194858D02*
D03*
X192890D02*
D03*
X190921D02*
D03*
X188953D02*
D03*
X186984D02*
D03*
X185016D02*
D03*
X183047D02*
D03*
X181079D02*
D03*
X179110D02*
D03*
X177142D02*
D03*
X175173D02*
D03*
X173205D02*
D03*
X171236D02*
D03*
X169268D02*
D03*
X167299D02*
D03*
D21*
X179677Y260724D02*
D03*
Y251276D02*
D03*
X164323D02*
D03*
Y260724D02*
D03*
D22*
X129000Y191685D02*
D03*
Y202315D02*
D03*
D23*
X172850Y269000D02*
D03*
X179150D02*
D03*
X424150Y263000D02*
D03*
X417850D02*
D03*
D24*
X311059Y282000D02*
D03*
X308500D02*
D03*
X305941D02*
D03*
X303382D02*
D03*
X300823D02*
D03*
D25*
X317850Y282492D02*
D03*
X293992D02*
D03*
D26*
X320961Y292039D02*
D03*
X290764D02*
D03*
D38*
X25000Y228000D02*
D03*
X15000Y218000D02*
D03*
Y228000D02*
D03*
X25000Y218000D02*
D03*
Y208000D02*
D03*
X15000D02*
D03*
X25000Y198000D02*
D03*
X15000D02*
D03*
X100000Y30000D02*
D03*
X15000Y238000D02*
D03*
X25000D02*
D03*
X20000Y20000D02*
D03*
Y280000D02*
D03*
X530000Y20000D02*
D03*
Y280000D02*
D03*
X60000Y30000D02*
D03*
X50000Y20000D02*
D03*
X90000D02*
D03*
X470000D02*
D03*
X480000D02*
D03*
X500000D02*
D03*
X490000D02*
D03*
X70000D02*
D03*
X80000Y30000D02*
D03*
X407165Y49299D02*
D03*
X159134D02*
D03*
D39*
X67000Y265000D02*
D03*
X77000D02*
D03*
X87000D02*
D03*
X97000D02*
D03*
X107000D02*
D03*
X117000D02*
D03*
X127000D02*
D03*
X67000Y275000D02*
D03*
X77000D02*
D03*
X87000D02*
D03*
X97000D02*
D03*
X107000D02*
D03*
X117000D02*
D03*
D40*
X127000D02*
D03*
D41*
X390197Y49299D02*
D03*
X176102Y61307D02*
D03*
M02*
