G04 Layer_Color=16711935*
%FSLAX25Y25*%
%MOIN*%
G70*
G01*
G75*
%ADD42C,0.03500*%
%ADD46C,0.08000*%
%ADD64R,0.05137X0.04940*%
%ADD66R,0.04743X0.05137*%
%ADD67R,0.05137X0.04743*%
%ADD70R,0.06909X0.05728*%
%ADD76R,0.04940X0.05137*%
%ADD80C,0.07200*%
%ADD83C,0.04700*%
%ADD84R,0.05728X0.06909*%
%ADD85C,0.03720*%
%ADD86R,0.07893X0.07893*%
%ADD87R,0.07893X0.07893*%
%ADD88R,0.04547X0.02578*%
%ADD89R,0.02578X0.04547*%
%ADD90C,0.06850*%
%ADD91R,0.06850X0.06850*%
D42*
X350000Y121000D02*
D03*
X61000Y222000D02*
D03*
X206000Y147000D02*
D03*
X198000D02*
D03*
X221000Y138000D02*
D03*
X335772Y139528D02*
D03*
X343000Y58000D02*
D03*
X349000D02*
D03*
X420000Y87000D02*
D03*
X426000Y94000D02*
D03*
X401000Y111000D02*
D03*
X406000Y114000D02*
D03*
X413000Y81000D02*
D03*
X390000Y105000D02*
D03*
X372000D02*
D03*
X256000Y217000D02*
D03*
X246000Y80000D02*
D03*
X293000Y58000D02*
D03*
X283000D02*
D03*
X252000Y64000D02*
D03*
X255325Y58675D02*
D03*
X260650Y59000D02*
D03*
X241500Y64000D02*
D03*
X236000D02*
D03*
X237000Y59000D02*
D03*
X228000Y64000D02*
D03*
X185000Y144000D02*
D03*
X273000Y58000D02*
D03*
X184000Y137000D02*
D03*
X180000Y131000D02*
D03*
X182000Y122000D02*
D03*
X177000Y101000D02*
D03*
X169000D02*
D03*
X164000Y106000D02*
D03*
X163000Y99000D02*
D03*
X84000Y147000D02*
D03*
X270000Y200000D02*
D03*
X232000Y117000D02*
D03*
X236000Y111000D02*
D03*
X260000Y160000D02*
D03*
X208000Y111000D02*
D03*
X520000Y98000D02*
D03*
X450000Y125000D02*
D03*
X459000D02*
D03*
X485000D02*
D03*
X518000Y124000D02*
D03*
X245000Y163000D02*
D03*
X281000Y124000D02*
D03*
X85000Y125000D02*
D03*
X20000Y117000D02*
D03*
X124000Y226000D02*
D03*
X115000D02*
D03*
X102000Y235000D02*
D03*
X95000D02*
D03*
X74650Y222142D02*
D03*
X109276Y125260D02*
D03*
X449500Y41500D02*
D03*
X370000Y40500D02*
D03*
X362500D02*
D03*
X355000Y58000D02*
D03*
X386500Y68500D02*
D03*
X126500Y72000D02*
D03*
X355000Y35500D02*
D03*
X333500Y58000D02*
D03*
X332500Y35500D02*
D03*
X429000Y62500D02*
D03*
X340000Y35500D02*
D03*
X440500Y67500D02*
D03*
X315000Y35500D02*
D03*
X427500Y41500D02*
D03*
X438500D02*
D03*
X483000Y110000D02*
D03*
X478000Y108000D02*
D03*
X101528Y142260D02*
D03*
X93528D02*
D03*
X290378Y125260D02*
D03*
X306126D02*
D03*
X290378Y142260D02*
D03*
X478197Y125260D02*
D03*
X457543Y149260D02*
D03*
X467543Y142260D02*
D03*
X478543D02*
D03*
X496500Y161441D02*
D03*
X494500Y169441D02*
D03*
X526500Y162394D02*
D03*
X519500Y161441D02*
D03*
Y145441D02*
D03*
X509500Y135441D02*
D03*
X505772Y56559D02*
D03*
X515772Y66559D02*
D03*
Y82559D02*
D03*
X522772Y83512D02*
D03*
X508772Y90559D02*
D03*
Y82559D02*
D03*
X490772Y90559D02*
D03*
X492772Y82559D02*
D03*
X355772Y104472D02*
D03*
Y120472D02*
D03*
X362772Y121425D02*
D03*
X332772Y120472D02*
D03*
X330772Y128472D02*
D03*
X322772Y165528D02*
D03*
X320772Y173528D02*
D03*
X338772Y165528D02*
D03*
Y173528D02*
D03*
X352772Y166480D02*
D03*
X345772Y165528D02*
D03*
Y149528D02*
D03*
X52228Y164465D02*
D03*
X36228D02*
D03*
Y156465D02*
D03*
X22228Y163512D02*
D03*
X29228Y164465D02*
D03*
Y180465D02*
D03*
X39228Y190465D02*
D03*
X23465Y83228D02*
D03*
X33465Y73228D02*
D03*
X49465D02*
D03*
X50417Y66228D02*
D03*
X57465Y98228D02*
D03*
X49465Y96228D02*
D03*
X202299Y78000D02*
D03*
X302299D02*
D03*
X362299D02*
D03*
X372299Y64614D02*
D03*
X377299Y78000D02*
D03*
X369000D02*
D03*
X382299D02*
D03*
X274000Y125000D02*
D03*
X291000Y64000D02*
D03*
X355000D02*
D03*
X280000Y78000D02*
D03*
X241000Y44000D02*
D03*
X256000D02*
D03*
X271000D02*
D03*
X286000D02*
D03*
X316000D02*
D03*
X331000D02*
D03*
X346000D02*
D03*
X376000D02*
D03*
X180000Y75000D02*
D03*
X76000Y125000D02*
D03*
X362000Y64000D02*
D03*
X457543Y132260D02*
D03*
X467543Y125260D02*
D03*
X250000Y34000D02*
D03*
X240000Y36000D02*
D03*
X185000Y59000D02*
D03*
X220000Y78000D02*
D03*
X191000Y59000D02*
D03*
X205000Y85000D02*
D03*
X210000Y89000D02*
D03*
X217000Y59000D02*
D03*
X225000D02*
D03*
X230157D02*
D03*
X261000Y109000D02*
D03*
Y101000D02*
D03*
X265500Y78000D02*
D03*
Y44000D02*
D03*
Y64000D02*
D03*
X271000D02*
D03*
X269500Y90500D02*
D03*
X273500Y86000D02*
D03*
X131000Y38000D02*
D03*
Y46500D02*
D03*
X136000Y34000D02*
D03*
Y42000D02*
D03*
X142000Y56500D02*
D03*
X286000Y64000D02*
D03*
X278000D02*
D03*
X288500Y86000D02*
D03*
X296500Y64000D02*
D03*
X302500D02*
D03*
X309500D02*
D03*
X350000Y78000D02*
D03*
X317000Y64000D02*
D03*
X313000Y58000D02*
D03*
X323000D02*
D03*
X67000Y131000D02*
D03*
X83000D02*
D03*
X93000Y125000D02*
D03*
X103000D02*
D03*
X54228Y156465D02*
D03*
X281000Y129000D02*
D03*
X300000Y125000D02*
D03*
X302000Y142000D02*
D03*
X310000Y79000D02*
D03*
X303000Y112000D02*
D03*
Y105000D02*
D03*
X295205Y92000D02*
D03*
X257000Y171000D02*
D03*
X265000Y190000D02*
D03*
X160000Y164000D02*
D03*
X150000Y191000D02*
D03*
Y173000D02*
D03*
X142000Y171000D02*
D03*
X120000Y197000D02*
D03*
X145000Y229000D02*
D03*
X142000Y191000D02*
D03*
X129000Y214000D02*
D03*
X196047Y203953D02*
D03*
X200000Y200000D02*
D03*
X227850Y204150D02*
D03*
X228000Y197850D02*
D03*
X193000Y250000D02*
D03*
X199000Y255000D02*
D03*
X205000D02*
D03*
X209000Y227000D02*
D03*
X303000Y259311D02*
D03*
X235000Y237000D02*
D03*
X212000Y260000D02*
D03*
X338953Y280953D02*
D03*
X351000Y96000D02*
D03*
X111000Y219000D02*
D03*
X349472Y128472D02*
D03*
X512941Y161441D02*
D03*
Y169441D02*
D03*
X237000Y206000D02*
D03*
X282500Y292039D02*
D03*
X328961D02*
D03*
X181500Y245500D02*
D03*
X160500Y266500D02*
D03*
X307000Y209000D02*
D03*
X300000Y208500D02*
D03*
X138000Y231000D02*
D03*
X281000Y145000D02*
D03*
X248000Y183000D02*
D03*
Y191000D02*
D03*
X235000Y163000D02*
D03*
X64000Y241500D02*
D03*
X70000Y236000D02*
D03*
X152500Y215500D02*
D03*
Y203500D02*
D03*
Y209500D02*
D03*
X173500Y202500D02*
D03*
X176850Y206350D02*
D03*
X174500Y219000D02*
D03*
X173000Y209500D02*
D03*
X177000Y212500D02*
D03*
Y199000D02*
D03*
X170500Y194500D02*
D03*
X180500Y217500D02*
D03*
X333500Y201500D02*
D03*
X256500Y237500D02*
D03*
X190921Y166079D02*
D03*
X186984Y150016D02*
D03*
X189000Y158000D02*
D03*
X180000Y183500D02*
D03*
X187000D02*
D03*
X198000D02*
D03*
X192890Y183390D02*
D03*
X141000Y149500D02*
D03*
Y142000D02*
D03*
X132000Y149500D02*
D03*
Y142000D02*
D03*
X408000Y69000D02*
D03*
X298500Y58000D02*
D03*
X305000D02*
D03*
X124500Y149500D02*
D03*
X119000D02*
D03*
X124500Y142000D02*
D03*
X119000D02*
D03*
X146000Y95000D02*
D03*
X141000Y99500D02*
D03*
X323000Y198000D02*
D03*
X188500Y218500D02*
D03*
X203500Y215500D02*
D03*
X229000Y217500D02*
D03*
X220000Y211500D02*
D03*
X200500D02*
D03*
X193500Y209000D02*
D03*
X301000Y44000D02*
D03*
X276000Y32000D02*
D03*
X304000Y23000D02*
D03*
X366642Y280858D02*
D03*
X415858D02*
D03*
X434358Y263000D02*
D03*
X425000Y247500D02*
D03*
X432000Y241000D02*
D03*
X472500Y280453D02*
D03*
X457500D02*
D03*
X18000Y44000D02*
D03*
X30000Y35000D02*
D03*
X37000Y50000D02*
D03*
X14000Y67000D02*
D03*
X18000Y102000D02*
D03*
X113000Y169000D02*
D03*
X196000Y283000D02*
D03*
X125000Y7500D02*
D03*
X200000D02*
D03*
X275000D02*
D03*
X387500D02*
D03*
X350000D02*
D03*
X452500Y235000D02*
D03*
X537500Y250000D02*
D03*
Y212500D02*
D03*
X525000Y232500D02*
D03*
Y195000D02*
D03*
X512500Y250000D02*
D03*
Y212500D02*
D03*
X500000Y232500D02*
D03*
Y195000D02*
D03*
X400000Y162500D02*
D03*
X437500D02*
D03*
X382500Y175000D02*
D03*
X420000D02*
D03*
X400000Y192500D02*
D03*
X437500D02*
D03*
X195000Y100000D02*
D03*
X237500D02*
D03*
X375000Y120000D02*
D03*
X225000Y282500D02*
D03*
X262500Y285000D02*
D03*
X25000Y252500D02*
D03*
X37500Y267500D02*
D03*
Y287500D02*
D03*
X147500Y140000D02*
D03*
X257500Y180000D02*
D03*
X350000Y257500D02*
D03*
X200000Y59000D02*
D03*
X149000Y75000D02*
D03*
D46*
X390197Y49299D02*
D03*
D64*
X124000Y231850D02*
D03*
Y238150D02*
D03*
X408000Y81150D02*
D03*
Y74850D02*
D03*
X101528Y137409D02*
D03*
Y131110D02*
D03*
X93528Y137409D02*
D03*
Y131110D02*
D03*
X281000Y140150D02*
D03*
Y133850D02*
D03*
X290378Y137409D02*
D03*
Y131110D02*
D03*
X302000Y137150D02*
D03*
Y130850D02*
D03*
X457543Y144410D02*
D03*
Y138110D02*
D03*
X467543Y137409D02*
D03*
Y131110D02*
D03*
X478543Y137409D02*
D03*
Y131110D02*
D03*
X519500Y150291D02*
D03*
Y156591D02*
D03*
X515772Y71409D02*
D03*
Y77709D02*
D03*
X355772Y109323D02*
D03*
Y115622D02*
D03*
X345772Y154378D02*
D03*
Y160677D02*
D03*
X29228Y175614D02*
D03*
Y169315D02*
D03*
X27465Y83079D02*
D03*
Y89378D02*
D03*
X49465Y85079D02*
D03*
Y91378D02*
D03*
D66*
X526500Y150441D02*
D03*
Y156346D02*
D03*
X522772Y71606D02*
D03*
Y77512D02*
D03*
X362772Y109520D02*
D03*
Y115425D02*
D03*
X352772Y154528D02*
D03*
Y160433D02*
D03*
X22228Y175417D02*
D03*
Y169512D02*
D03*
X272000Y169047D02*
D03*
Y174953D02*
D03*
X272047Y189000D02*
D03*
Y183095D02*
D03*
D67*
X500047Y115000D02*
D03*
X505953D02*
D03*
X263953Y146000D02*
D03*
X258047D02*
D03*
X45953Y139000D02*
D03*
X40047D02*
D03*
X38465Y66228D02*
D03*
X44370D02*
D03*
X197953Y122000D02*
D03*
X192047D02*
D03*
X223953Y111000D02*
D03*
X218047D02*
D03*
D70*
X115000Y231260D02*
D03*
Y238740D02*
D03*
X400000Y80740D02*
D03*
Y73260D02*
D03*
X57465Y85488D02*
D03*
Y92968D02*
D03*
D76*
X523850Y124000D02*
D03*
X530150D02*
D03*
X226850Y138000D02*
D03*
X233150D02*
D03*
X25850Y117000D02*
D03*
X32150D02*
D03*
X384150Y97000D02*
D03*
X377850D02*
D03*
X71850Y131000D02*
D03*
X78150D02*
D03*
X507650Y161441D02*
D03*
X501350D02*
D03*
X509650Y139441D02*
D03*
X503350D02*
D03*
X503921Y82559D02*
D03*
X497622D02*
D03*
X505921Y60559D02*
D03*
X499622D02*
D03*
X343921Y120472D02*
D03*
X337622D02*
D03*
X345921Y98472D02*
D03*
X339622D02*
D03*
X333921Y165528D02*
D03*
X327622D02*
D03*
X39079Y186465D02*
D03*
X45378D02*
D03*
X41079Y164465D02*
D03*
X47378D02*
D03*
X38315Y73228D02*
D03*
X44614D02*
D03*
X335921Y143528D02*
D03*
X329622D02*
D03*
D80*
X25000Y228000D02*
D03*
X15000Y218000D02*
D03*
Y228000D02*
D03*
X25000Y218000D02*
D03*
Y208000D02*
D03*
X15000D02*
D03*
X25000Y198000D02*
D03*
X15000D02*
D03*
X100000Y30000D02*
D03*
X15000Y238000D02*
D03*
X25000D02*
D03*
X20000Y20000D02*
D03*
Y280000D02*
D03*
X530000Y20000D02*
D03*
Y280000D02*
D03*
X60000Y30000D02*
D03*
X50000Y20000D02*
D03*
X90000D02*
D03*
X470000D02*
D03*
X480000D02*
D03*
X500000D02*
D03*
X490000D02*
D03*
X70000D02*
D03*
X80000Y30000D02*
D03*
X407165Y49299D02*
D03*
X159134D02*
D03*
D83*
X304500Y166000D02*
D03*
X276000Y152500D02*
D03*
D84*
X384740Y105000D02*
D03*
X377260D02*
D03*
X507240Y169441D02*
D03*
X499760D02*
D03*
X503512Y90559D02*
D03*
X496032D02*
D03*
X343512Y128472D02*
D03*
X336032D02*
D03*
X333512Y173528D02*
D03*
X326031D02*
D03*
X41488Y156465D02*
D03*
X48968D02*
D03*
D85*
X250650Y73807D02*
D03*
X185650D02*
D03*
X190650D02*
D03*
X195650D02*
D03*
X200650D02*
D03*
X205650D02*
D03*
X210650D02*
D03*
X215650D02*
D03*
X220650D02*
D03*
X225650D02*
D03*
X230650D02*
D03*
X235650D02*
D03*
X240650D02*
D03*
X245650D02*
D03*
X255650D02*
D03*
X260650D02*
D03*
X265650D02*
D03*
X270650D02*
D03*
X275650D02*
D03*
X280650D02*
D03*
X285650D02*
D03*
X290650D02*
D03*
X295650D02*
D03*
X300650D02*
D03*
X305650D02*
D03*
X310650D02*
D03*
X315650D02*
D03*
X320650D02*
D03*
X325650D02*
D03*
X330650D02*
D03*
X335650D02*
D03*
X340650D02*
D03*
X345650D02*
D03*
X350650D02*
D03*
X355650D02*
D03*
X360650D02*
D03*
X365650D02*
D03*
X370650D02*
D03*
X375650D02*
D03*
X380650D02*
D03*
X190650Y68807D02*
D03*
X195650D02*
D03*
X200650D02*
D03*
X205650D02*
D03*
X210650D02*
D03*
X215650D02*
D03*
X220650D02*
D03*
X225650D02*
D03*
X230650D02*
D03*
X235650D02*
D03*
X240650D02*
D03*
X245650D02*
D03*
X250650D02*
D03*
X255650D02*
D03*
X260650D02*
D03*
X265650D02*
D03*
X270650D02*
D03*
X275650D02*
D03*
X280650D02*
D03*
X285650D02*
D03*
X290650D02*
D03*
X295650D02*
D03*
X300650D02*
D03*
X305650D02*
D03*
X310650D02*
D03*
X315650D02*
D03*
X320650D02*
D03*
X325650D02*
D03*
X330650D02*
D03*
X335650D02*
D03*
X340650D02*
D03*
X345650D02*
D03*
X350650D02*
D03*
X355650D02*
D03*
X360650D02*
D03*
X365650D02*
D03*
X370650D02*
D03*
X375650D02*
D03*
X380650D02*
D03*
X185650D02*
D03*
Y53807D02*
D03*
X190650D02*
D03*
X195650D02*
D03*
X200650D02*
D03*
X205650D02*
D03*
X210650D02*
D03*
X215650D02*
D03*
X220650D02*
D03*
X225650D02*
D03*
X230650D02*
D03*
X235650D02*
D03*
X240650D02*
D03*
X245650D02*
D03*
X250650D02*
D03*
X255650D02*
D03*
X260650D02*
D03*
X265650D02*
D03*
X270650D02*
D03*
X275650D02*
D03*
X280650D02*
D03*
X285650D02*
D03*
X290650D02*
D03*
X295650D02*
D03*
X300650D02*
D03*
X305650D02*
D03*
X310650D02*
D03*
X315650D02*
D03*
X320650D02*
D03*
X325650D02*
D03*
X330650D02*
D03*
X335650D02*
D03*
X340650D02*
D03*
X345650D02*
D03*
X350650D02*
D03*
X355650D02*
D03*
X360650D02*
D03*
X365650D02*
D03*
X370650D02*
D03*
X375650D02*
D03*
X380650D02*
D03*
X185650Y48807D02*
D03*
X190650D02*
D03*
X195650D02*
D03*
X200650D02*
D03*
X205650D02*
D03*
X210650D02*
D03*
X215650D02*
D03*
X220650D02*
D03*
X225650D02*
D03*
X230650D02*
D03*
X235650D02*
D03*
X240650D02*
D03*
X245650D02*
D03*
X250650D02*
D03*
X255650D02*
D03*
X260650D02*
D03*
X265650D02*
D03*
X270650D02*
D03*
X275650D02*
D03*
X280650D02*
D03*
X285650D02*
D03*
X290650D02*
D03*
X295650D02*
D03*
X300650D02*
D03*
X305650D02*
D03*
X310650D02*
D03*
X315650D02*
D03*
X320650D02*
D03*
X325650D02*
D03*
X330650D02*
D03*
X335650D02*
D03*
X340650D02*
D03*
X345650D02*
D03*
X350650D02*
D03*
X355650D02*
D03*
X360650D02*
D03*
X365650D02*
D03*
X370650D02*
D03*
X375650D02*
D03*
X380650D02*
D03*
D86*
X530000Y105276D02*
D03*
Y114724D02*
D03*
X520000D02*
D03*
Y105276D02*
D03*
X235000Y155724D02*
D03*
Y146276D02*
D03*
X245000D02*
D03*
Y155724D02*
D03*
D87*
X21276Y129000D02*
D03*
X30724D02*
D03*
Y139000D02*
D03*
X21276D02*
D03*
D88*
X512831Y150500D02*
D03*
X504169Y153059D02*
D03*
Y147941D02*
D03*
X512831Y153059D02*
D03*
Y147941D02*
D03*
X508831Y68941D02*
D03*
Y74059D02*
D03*
X500169Y68941D02*
D03*
Y74059D02*
D03*
X508831Y71500D02*
D03*
X339102Y151941D02*
D03*
Y157059D02*
D03*
X330441Y151941D02*
D03*
Y157059D02*
D03*
X339102Y154500D02*
D03*
X349102Y109500D02*
D03*
X340441Y112059D02*
D03*
Y106941D02*
D03*
X349102Y112059D02*
D03*
Y106941D02*
D03*
X36169Y175500D02*
D03*
X44831Y172941D02*
D03*
Y178059D02*
D03*
X36169Y172941D02*
D03*
Y178059D02*
D03*
D89*
X35941Y80169D02*
D03*
X41059D02*
D03*
X35941Y88831D02*
D03*
X41059D02*
D03*
X38500Y80169D02*
D03*
D90*
X67000Y265000D02*
D03*
X77000D02*
D03*
X87000D02*
D03*
X97000D02*
D03*
X107000D02*
D03*
X117000D02*
D03*
X127000D02*
D03*
X67000Y275000D02*
D03*
X77000D02*
D03*
X87000D02*
D03*
X97000D02*
D03*
X107000D02*
D03*
X117000D02*
D03*
D91*
X127000D02*
D03*
M02*
